<?xml version="1.0" encoding="iso-8859-1"?>
<!-- Generator: Adobe Illustrator 19.0.0, SVG Export Plug-In . SVG Version: 6.00 Build 0)  -->
<svg version="1.1" id="Capa_1" xmlns="http://www.w3.org/2000/svg" xmlns:xlink="http://www.w3.org/1999/xlink" x="0px" y="0px"
	 viewBox="0 0 512 512" style="enable-background:new 0 0 512 512;" xml:space="preserve">
<circle style="fill:#FFB864;" cx="256" cy="256" r="248.471"/>
<path style="fill:#F4A651;" d="M352.881,465.225c-2.747,0-5.395-1.509-6.721-4.127c-1.88-3.708-0.398-8.24,3.312-10.12
	c21.339-10.816,40.838-26.476,57.954-46.544c6.131-7.189,11.955-14.98,17.308-23.155c2.279-3.48,6.943-4.454,10.424-2.174
	c3.479,2.278,4.453,6.944,2.174,10.424c-5.699,8.705-11.906,17.007-18.449,24.679c-18.415,21.591-39.477,38.481-62.603,50.203
	C355.188,464.962,354.027,465.225,352.881,465.225z"/>
<path id="SVGCleanerId_0" style="fill:#A5663C;" d="M413.864,164.427c-11.605,38.045-22.911,47.128-41.419,41.419
	c-21.858-6.743-47.882-21.653-41.419-41.419c7.109-21.742,16.294-46.144,41.419-41.419
	C397.883,127.793,420.538,142.547,413.864,164.427z"/>
<g>
	<path style="fill:#A5663C;" d="M159.309,388.967c-38.315,10.68-52.053,6.035-57.195-12.638
		c-6.073-22.054-7.501-52.012,12.638-57.195c22.153-5.701,47.664-11.084,57.195,12.638
		C181.597,355.792,181.344,382.825,159.309,388.967z"/>
	<path style="fill:#A5663C;" d="M395.639,373.738c-25.721,30.34-39.7,34.204-54.434,21.633
		c-17.402-14.847-35.394-38.843-21.633-54.434c15.137-17.15,33.234-35.92,54.434-21.633
		C395.472,333.771,410.432,356.29,395.639,373.738z"/>
	<path style="fill:#A5663C;" d="M140.944,163.96c-28.64-27.601-31.605-41.797-18.123-55.701
		c15.925-16.421,41.017-32.849,55.701-18.123c16.151,16.198,33.732,35.453,18.123,55.701
		C180.84,166.339,157.414,179.834,140.944,163.96z"/>
	<circle style="fill:#A5663C;" cx="243.29" cy="400.454" r="15.059"/>
	<circle style="fill:#A5663C;" cx="420.011" cy="271.019" r="15.059"/>
	<circle style="fill:#A5663C;" cx="307.451" cy="89.811" r="15.059"/>
</g>
<path style="fill:#F4A651;" d="M156.915,389.618c-36.485,9.815-49.768,4.987-54.8-13.289c-6.073-22.054-7.501-52.012,12.638-57.195
	c3.495-0.9,7.073-1.79,10.659-2.561c-4.858-19.39-7.451-39.678-7.451-60.574c0-33.961,6.822-66.324,19.156-95.81
	c-25.036-25.146-27.15-38.676-14.296-51.93c15.925-16.421,41.017-32.849,55.701-18.123c0.513,0.514,1.027,1.032,1.542,1.552
	c33.888-38.406,79.454-66.26,131.152-77.992C293.456,9.667,274.978,7.529,256,7.529C118.774,7.529,7.529,118.774,7.529,256
	S118.774,504.471,256,504.471c18.978,0,37.456-2.137,55.216-6.167C246.592,483.639,191.536,443.793,156.915,389.618z"/>
<circle style="fill:#89563A;" cx="78.075" cy="250.639" r="15.059"/>
<g>
	<path id="SVGCleanerId_0_1_" style="fill:#A5663C;" d="M413.864,164.427c-11.605,38.045-22.911,47.128-41.419,41.419
		c-21.858-6.743-47.882-21.653-41.419-41.419c7.109-21.742,16.294-46.144,41.419-41.419
		C397.883,127.793,420.538,142.547,413.864,164.427z"/>
</g>
<g>
	<path style="fill:#89563A;" d="M102.114,376.33c5.033,18.275,18.316,23.104,54.8,13.289
		c-14.183-22.193-24.926-46.792-31.503-73.044c-3.586,0.771-7.164,1.661-10.659,2.561C94.614,324.318,96.041,354.276,102.114,376.33
		z"/>
	<path style="fill:#89563A;" d="M122.821,108.26c-12.854,13.254-10.74,26.784,14.296,51.93c10.547-25.214,25.134-48.312,42.947-68.5
		c-0.515-0.521-1.029-1.038-1.542-1.552C163.838,75.412,138.746,91.839,122.821,108.26z"/>
</g>
<path d="M335.217,270.665c-4.159,0-7.529-3.37-7.529-7.529v-12.5c0-4.159,3.37-7.529,7.529-7.529c4.159,0,7.529,3.37,7.529,7.529
	v12.5C342.747,267.295,339.376,270.665,335.217,270.665z"/>
<path d="M173.272,270.665c-4.158,0-7.529-3.37-7.529-7.529v-12.5c0-4.159,3.371-7.529,7.529-7.529c4.158,0,7.529,3.37,7.529,7.529
	v12.5C180.801,267.295,177.43,270.665,173.272,270.665z"/>
<path d="M381.708,214.935c-3.577,0-7.391-0.632-11.483-1.894c-10.401-3.208-35.564-12.546-44.563-29.925
	c-3.477-6.713-4.096-13.985-1.793-21.029c3.797-11.612,8.095-23.718,15.141-32.883c8.978-11.679,20.695-16.25,34.826-13.595
	c20.727,3.9,36.837,13.111,44.2,25.272c4.733,7.819,5.781,16.721,3.029,25.745c-7.917,25.951-15.927,39.481-26.788,45.242
	C390.42,213.912,386.255,214.935,381.708,214.935z M366.542,129.963c-13.59,0-20.669,13.283-28.359,36.804
	c-1.064,3.253-0.793,6.248,0.852,9.425c4.36,8.42,18.011,17.025,35.629,22.459c6.945,2.143,10.357,1.078,12.557-0.087
	c6.709-3.56,13.068-15.444,19.44-36.333l0,0c1.51-4.95,1.018-9.383-1.506-13.551c-4.998-8.253-18.064-15.254-34.103-18.27
	C369.472,130.11,367.97,129.963,366.542,129.963z"/>
<path d="M127.124,402.136c-7.508,0-13.449-1.393-18.341-4.162c-6.792-3.845-11.347-10.27-13.928-19.645
	c-0.204-0.74-0.403-1.489-0.596-2.244c-1.03-4.029,1.399-8.131,5.428-9.161c4.031-1.031,8.131,1.4,9.161,5.427
	c0.17,0.667,0.345,1.327,0.525,1.98c1.929,7.006,4.663,9.311,6.829,10.538c6.61,3.743,20.049,2.711,41.085-3.154
	c4.985-1.389,8.457-4.189,10.613-8.559c4.27-8.651,3.143-23.433-2.94-38.576c-6.302-15.687-21.849-14.968-48.332-8.153
	c-2.166,0.557-8.758,2.254-10.541,15.818c-0.542,4.123-4.32,7.028-8.447,6.483c-4.123-0.541-7.026-4.324-6.483-8.446
	c2.005-15.25,9.718-25.35,21.718-28.439c11.833-3.044,24.351-5.935,35.866-4.923c14.674,1.287,24.833,8.705,30.193,22.047
	c7.863,19.57,8.763,38.106,2.471,50.854c-4.045,8.197-10.987,13.867-20.074,16.401C147.149,400.173,136.032,402.136,127.124,402.136
	z"/>
<path d="M356.723,409.63c-6.996,0-13.691-2.804-20.405-8.532c-8.28-7.065-27.689-25.604-29.071-45.125
	c-0.533-7.54,1.777-14.462,6.68-20.018c8.086-9.161,16.825-18.575,26.924-24.201c12.868-7.169,25.439-6.729,37.363,1.307
	c17.489,11.787,28.635,26.625,30.58,40.707c1.251,9.055-1.312,17.644-7.413,24.84v0.001c-17.547,20.694-30.26,29.946-42.513,30.935
	C358.152,409.602,357.435,409.63,356.723,409.63z M358.804,321.848c-10.057,0-20.303,9.021-33.585,24.071
	c-2.265,2.566-3.202,5.422-2.95,8.99c0.67,9.458,9.798,22.768,23.824,34.734c5.528,4.716,9.087,5.098,11.565,4.891
	c7.57-0.61,18.116-9.006,32.239-25.664v0.001c3.346-3.948,4.649-8.214,3.983-13.042c-1.32-9.557-10.547-21.159-24.079-30.279
	C366.071,323.034,362.449,321.848,358.804,321.848z"/>
<path d="M157.612,178.452c-8.181,0-15.707-3.108-21.894-9.069l0,0c-19.535-18.827-27.959-32.104-28.167-44.394
	c-0.132-7.802,3.095-14.99,9.864-21.971c7.579-7.814,27.316-26.002,46.886-26.137c7.523-0.08,14.32,2.693,19.552,7.941
	c8.627,8.652,17.465,17.972,22.437,28.411c6.335,13.299,5.096,25.816-3.682,37.203c-12.877,16.703-28.394,26.882-42.572,27.926
	C159.222,178.423,158.413,178.452,157.612,178.452z M146.168,158.539c3.727,3.592,7.9,5.171,12.761,4.805
	c9.622-0.709,21.788-9.179,31.752-22.103c10.323-13.39,1.817-26.422-17.491-45.786c-2.416-2.423-5.213-3.532-8.784-3.517
	c-9.481,0.065-23.344,8.329-36.18,21.563c-5.059,5.216-5.659,8.742-5.617,11.232C122.736,132.327,130.444,143.384,146.168,158.539
	L146.168,158.539z"/>
<path d="M243.287,423.047c-12.456,0-22.588-10.134-22.588-22.588c0-12.455,10.133-22.588,22.588-22.588
	c12.456,0,22.588,10.134,22.588,22.588C265.876,412.913,255.743,423.047,243.287,423.047z M243.287,392.929
	c-4.152,0-7.529,3.377-7.529,7.529c0,4.152,3.377,7.529,7.529,7.529c4.152,0,7.529-3.377,7.529-7.529
	C250.817,396.306,247.44,392.929,243.287,392.929z"/>
<path d="M420.008,293.604c-12.455,0-22.588-10.134-22.588-22.588c0-12.455,10.134-22.588,22.588-22.588s22.588,10.134,22.588,22.588
	C442.596,283.47,432.462,293.604,420.008,293.604z M420.008,263.486c-4.152,0-7.529,3.377-7.529,7.529
	c0,4.152,3.377,7.529,7.529,7.529c4.152,0,7.529-3.377,7.529-7.529C427.537,266.863,424.16,263.486,420.008,263.486z"/>
<path d="M78.07,273.224c-12.456,0-22.588-10.134-22.588-22.588c0-12.455,10.133-22.588,22.588-22.588s22.588,10.134,22.588,22.588
	C100.658,263.091,90.525,273.224,78.07,273.224z M78.07,243.107c-4.152,0-7.529,3.377-7.529,7.529s3.377,7.529,7.529,7.529
	s7.529-3.377,7.529-7.529S82.221,243.107,78.07,243.107z"/>
<path d="M307.451,112.395c-12.455,0-22.588-10.134-22.588-22.588s10.134-22.588,22.588-22.588c12.455,0,22.588,10.134,22.588,22.588
	S319.906,112.395,307.451,112.395z M307.451,82.277c-4.152,0-7.529,3.377-7.529,7.529s3.377,7.529,7.529,7.529
	c4.152,0,7.529-3.377,7.529-7.529S311.603,82.277,307.451,82.277z"/>
<path d="M254.244,278.549c-9.745,0-19.49-3.153-27.621-9.46c-3.286-2.549-3.883-7.278-1.335-10.564
	c2.548-3.285,7.278-3.886,10.564-1.334c10.83,8.398,25.955,8.398,36.784,0c3.285-2.548,8.015-1.953,10.563,1.334
	c2.549,3.285,1.952,8.015-1.334,10.563C273.734,275.396,263.989,278.549,254.244,278.549z"/>
<path d="M256,512c-68.38,0-132.667-26.628-181.019-74.981S0,324.38,0,256S26.629,123.333,74.981,74.981S187.62,0,256,0
	s132.667,26.628,181.02,74.981S512,187.62,512,256s-26.628,132.667-74.981,181.02S324.38,512,256,512z M256,15.059
	C123.145,15.059,15.059,123.145,15.059,256S123.145,496.941,256,496.941S496.941,388.855,496.941,256S388.855,15.059,256,15.059z"/>
<g>
</g>
<g>
</g>
<g>
</g>
<g>
</g>
<g>
</g>
<g>
</g>
<g>
</g>
<g>
</g>
<g>
</g>
<g>
</g>
<g>
</g>
<g>
</g>
<g>
</g>
<g>
</g>
<g>
</g>
</svg>
