<?xml version="1.0" encoding="iso-8859-1"?>
<!-- Generator: Adobe Illustrator 19.0.0, SVG Export Plug-In . SVG Version: 6.00 Build 0)  -->
<svg version="1.1" id="Capa_1" xmlns="http://www.w3.org/2000/svg" xmlns:xlink="http://www.w3.org/1999/xlink" x="0px" y="0px"
	 viewBox="0 0 512 512" style="enable-background:new 0 0 512 512;" xml:space="preserve">
<path style="fill:#B3DBF4;" d="M294.333,504.5H217.67c-15.419,0-27.919-12.5-27.919-27.919V237.905h132.5v238.676
	C322.251,492,309.752,504.5,294.333,504.5z"/>
<path style="fill:#94CBED;" d="M189.751,237.905v238.676c0,15.419,12.5,27.918,27.918,27.918h65.226
	c-28.492,0-26.894-28.542-26.894-28.542s-0.117-84.48-0.087-126.391c0.007-10.039,9.31-17.316,19.127-15.218
	c25.431,5.437,47.211-7.801,47.211-7.801v-88.643L189.751,237.905L189.751,237.905z"/>
<path style="fill:#CAE7FC;" d="M175.651,224.957v78.791c0,14.53,10.962,27.04,25.446,28.183c16.2,1.278,29.873-11.628,29.873-27.572
	l0.121-29.373c0,0-0.639-22.647,24.909-22.647c24.192,0,25.031,22.647,25.031,22.647v10.801c0,15.213,12.447,27.659,27.659,27.659
	l0,0c15.213,0,27.659-12.447,27.659-27.659v-60.83c0-14.186-11.5-25.685-25.685-25.685H201.337
	C187.151,199.272,175.651,210.772,175.651,224.957z"/>
<path style="fill:#B3DBF4;" d="M256.001,220.982v-21.71h-54.664c-14.186,0-25.685,11.5-25.685,25.685v78.791
	c0,14.53,10.962,27.04,25.446,28.183c16.2,1.278,29.873-11.628,29.873-27.572l0.121-29.373c0,0-0.639-22.647,24.909-22.647
	C249.954,236.854,256.001,220.982,256.001,220.982z"/>
<path style="fill:#FF5555;" d="M328.415,470.731c29.175,0,52.826-28.025,52.826-62.595s-23.651-62.595-52.826-62.595
	c-20.73,0-54.563,14.152-72.415,34.745c-17.852-20.593-51.684-34.745-72.414-34.745c-29.175,0-52.826,28.025-52.826,62.595
	s23.651,62.595,52.826,62.595c20.73,0,54.563-14.152,72.414-34.745C273.853,456.579,307.685,470.731,328.415,470.731z"/>
<path style="fill:#F44242;" d="M306.173,349.408c-17.967,5.548-37.866,16.681-50.173,30.877
	c-12.306-14.196-32.205-25.329-50.172-30.877c-16.583,14.188-27.123,35.244-27.123,58.728s10.54,44.54,27.123,58.728
	c17.967-5.548,37.867-16.681,50.173-30.877c12.306,14.196,32.206,25.329,50.173,30.877c16.583-14.188,27.123-35.244,27.123-58.727
	S322.756,363.596,306.173,349.408z"/>
<path style="fill:#E04141;" d="M324.971,426.933h-137.94c-10.339,0-18.797-8.459-18.797-18.797l0,0
	c0-10.339,8.459-18.797,18.797-18.797h137.94c10.339,0,18.797,8.459,18.797,18.797l0,0
	C343.769,418.474,335.31,426.933,324.971,426.933z"/>
<path style="fill:#C93939;" d="M187.031,389.338c-2.194,0-4.295,0.401-6.257,1.1c-1.338,5.688-2.068,11.607-2.068,17.697
	s0.73,12.009,2.068,17.697c1.962,0.699,4.063,1.1,6.257,1.1h137.94c2.195,0,4.295-0.401,6.258-1.1
	c1.338-5.688,2.068-11.607,2.068-17.697s-0.73-12.01-2.068-17.697c-1.962-0.699-4.063-1.1-6.257-1.1H187.031z"/>
<circle style="fill:#FF737D;" cx="256.001" cy="408.13" r="52.3"/>
<path style="fill:#FF9478;" d="M333.794,143.189c0,42.964-34.829,77.793-77.793,77.793s-77.793-34.829-77.793-77.793
	S213.036,7.5,256.001,7.5S333.794,100.225,333.794,143.189z"/>
<path style="fill:#FF7956;" d="M292.309,29.376C281.47,16.149,269.116,7.5,256.001,7.5c-42.964,0-77.793,92.726-77.793,135.689
	c0,42.964,34.829,77.793,77.793,77.793C224.081,104.44,292.309,29.377,292.309,29.376z"/>
<path style="fill:#FFEB99;" d="M296.593,156.68c0,22.419-18.174,40.592-40.592,40.592s-40.592-18.174-40.592-40.592
	s18.173-76.516,40.592-76.516S296.593,134.261,296.593,156.68z"/>
<path style="fill:#FFDE55;" d="M262.17,81.515c-2.012-0.877-4.072-1.351-6.169-1.351c-22.419,0-40.592,54.097-40.592,76.516
	c0,20.617,15.375,37.632,35.282,40.235C242.706,149.491,250.958,110.134,262.17,81.515z"/>
<path d="M256.001,72.664c-16.631,0-28.508,18.639-35.542,34.273c-7.389,16.423-12.55,36.878-12.55,49.742
	c0,26.519,21.574,48.093,48.092,48.093s48.092-21.574,48.092-48.093c0-12.864-5.16-33.319-12.549-49.742
	C284.509,91.303,272.632,72.664,256.001,72.664z M256.001,189.772c-18.247,0-33.092-14.846-33.092-33.093
	c0-9.258,3.857-27.203,11.229-43.587c7.057-15.686,15.435-25.429,21.863-25.429c6.428,0,14.807,9.743,21.863,25.429
	c7.372,16.384,11.229,34.329,11.229,43.587C289.093,174.927,274.248,189.772,256.001,189.772z"/>
<path d="M388.741,408.136c0-38.131-26.343-69.225-58.99-70.056v-24.155c8.555-6.419,14.1-16.643,14.1-28.137v-60.83
	c0-13.55-8.168-25.223-19.836-30.371c10.836-14.303,17.279-32.109,17.279-51.396c0-16.365-4.774-39.441-12.771-61.73
	c-1.398-3.898-5.694-5.923-9.593-4.526c-3.898,1.399-5.925,5.693-4.526,9.593c7.445,20.75,11.891,41.933,11.891,56.664
	c0,38.759-31.533,70.292-70.293,70.292s-70.293-31.533-70.293-70.292c0-21.194,9.052-54.354,22.012-80.64
	C222.62,32.331,240.217,15,256.001,15c14.801,0,31.513,15.594,45.852,42.783c1.932,3.664,6.467,5.07,10.132,3.136
	c3.664-1.932,5.068-6.469,3.136-10.133C302.902,27.618,282.728,0,256.001,0c-29.726,0-51.438,35.033-61.735,55.917
	c-14.091,28.578-23.558,63.65-23.558,87.272c0,19.287,6.443,37.093,17.279,51.396c-11.668,5.149-19.836,16.821-19.836,30.371v78.791
	c0,11.582,5.532,22.034,14.099,28.606v5.725c-32.647,0.831-58.99,31.926-58.99,70.056c0,14.496,3.849,28.356,10.892,40.224
	c3.405,5.738,9.084,3.28,10.295,2.55c3.547-2.139,4.689-6.748,2.55-10.296c-5.716-9.479-8.738-20.711-8.738-32.478
	c0-30.38,20.333-55.096,45.326-55.096c9.389,0,22.115,3.433,34.307,9.052c-6.491,5.381-11.823,12.108-15.58,19.746h-15.281
	c-14.5,0-26.297,11.797-26.297,26.298c0,14.5,11.797,26.297,26.297,26.297h15.283c3.756,7.638,9.089,14.365,15.58,19.747
	c-12.191,5.617-24.931,9.051-34.307,9.051c-6.179,0-12.168-1.491-17.803-4.432c-3.672-1.917-8.203-0.494-10.119,3.18
	c-1.917,3.672-0.493,8.202,3.179,10.119c7.406,3.865,15.29,5.897,23.447,6.094c0.846,18.787,16.388,33.81,35.378,33.81h76.664
	c18.989,0,34.531-15.023,35.377-33.808C362.376,477.386,388.741,446.281,388.741,408.136z M183.151,224.957
	c0-9.359,7.108-17.083,16.208-18.072c15.076,13.42,34.918,21.596,56.642,21.596s41.566-8.176,56.641-21.596
	c9.1,0.989,16.208,8.713,16.208,18.072v60.83c0,11.116-9.044,20.16-20.16,20.16s-20.159-9.044-20.159-20.16v-10.801
	c0-0.093-0.002-0.186-0.005-0.277c-0.383-10.331-7.673-29.869-32.525-29.869c-10.169,0-18.263,3.021-24.057,8.981
	c-8.185,8.418-8.381,19.374-8.353,21.223l-0.121,29.315c0,5.576-2.373,10.968-6.511,14.792c-4.185,3.866-9.611,5.744-15.271,5.304
	c-10.394-0.82-18.536-9.916-18.536-20.707v-78.791H183.151z M197.251,338.991c1.07,0.189,17.227,1.948,29.889-8.824
	c7.468-6.353,11.331-16.062,11.331-25.776l0.122-29.373c0-0.081,0-0.162-0.003-0.243c-0.002-0.061,0.012-6.281,4.11-10.497
	c2.862-2.944,7.338-4.438,13.302-4.438c15.707,0,17.361,12.618,17.53,15.337v10.61c0,41.536,39.25,34.971,41.22,34.627v19.108
	c-11.386,2.248-24.097,6.967-35.755,13.423c-7.083-2.962-14.85-4.604-22.995-4.604c-8.145,0-15.912,1.642-22.995,4.604
	C218.467,342.997,197.251,338.991,197.251,338.991z M187.031,419.433c-6.229,0-11.297-5.067-11.297-11.297
	s5.068-11.298,11.297-11.298h10.259c-0.703,3.661-1.085,7.435-1.085,11.298s0.382,7.636,1.085,11.297H187.031z M211.204,408.136
	c0-24.7,20.095-44.796,44.796-44.796c24.7,0,44.796,20.096,44.796,44.796s-20.096,44.796-44.796,44.796
	C231.299,452.932,211.204,432.836,211.204,408.136z M294.333,497h-76.664c-11.203,0-20.32-9.071-20.411-20.253
	c11.384-2.248,24.092-6.967,35.747-13.42c7.083,2.962,14.85,4.604,22.995,4.604c8.14,0,15.902-1.641,22.981-4.599
	c11.705,6.487,24.364,11.19,35.76,13.428C314.644,487.936,305.531,497,294.333,497z M328.415,463.23
	c-9.483,0-22.125-3.416-34.311-9.047c6.493-5.382,11.827-12.111,15.585-19.75h15.283c14.5,0,26.297-11.797,26.297-26.297
	c0-14.501-11.797-26.298-26.297-26.298h-15.284c-3.756-7.637-9.089-14.365-15.58-19.746c12.192-5.618,24.931-9.052,34.307-9.052
	c24.993,0,45.326,24.716,45.326,55.096C373.741,438.515,353.408,463.23,328.415,463.23z M314.712,396.838h10.26
	c6.229,0,11.297,5.068,11.297,11.298s-5.067,11.297-11.297,11.297h-10.259c0.703-3.661,1.085-7.434,1.085-11.297
	C315.797,404.273,315.415,400.499,314.712,396.838z"/>
<g>
</g>
<g>
</g>
<g>
</g>
<g>
</g>
<g>
</g>
<g>
</g>
<g>
</g>
<g>
</g>
<g>
</g>
<g>
</g>
<g>
</g>
<g>
</g>
<g>
</g>
<g>
</g>
<g>
</g>
</svg>
