<?xml version="1.0" encoding="iso-8859-1"?>
<!-- Generator: Adobe Illustrator 19.0.0, SVG Export Plug-In . SVG Version: 6.00 Build 0)  -->
<svg version="1.1" id="Capa_1" xmlns="http://www.w3.org/2000/svg" xmlns:xlink="http://www.w3.org/1999/xlink" x="0px" y="0px"
	 viewBox="0 0 511.999 511.999" style="enable-background:new 0 0 511.999 511.999;" xml:space="preserve">
<path style="fill:#FF5555;" d="M48.954,399.714c0,0-45.045-295.49,132.7-369.317c114.438-44.609,229.649,43.046,283.661,140.441
	c-1.217,2.435-22.555,30.026-22.555,30.026l-84.579-33.678c0,0,39.393,102.603,20.696,232.529H48.954V399.714z"/>
<path style="fill:#E04141;" d="M317.787,34.345c0.362-0.141,0.725-0.266,1.087-0.404c-43.001-17.855-90.174-21.883-137.22-3.544
	C3.91,104.224,48.954,399.714,48.954,399.714h135.591C179.989,364.482,152.132,103.151,317.787,34.345z"/>
<path style="fill:#57565C;" d="M194.797,282.996l-28.95-18.228c-10.272-6.468-13.992-19.964-7.894-30.46
	c6.403-11.02,20.605-14.448,31.297-7.715l14.716,9.266c6.058,3.814,13.767,3.814,19.825,0l14.716-9.266
	c10.465-6.589,24.285-3.447,30.874,7.016c6.588,10.463,3.446,24.286-7.017,30.874l-29.404,18.514
	C221.301,290.339,206.46,290.339,194.797,282.996z"/>
<path style="fill:#FFA5B5;" d="M246.705,274.348c-4.224-10.713-17.298-18.523-32.78-18.523c-15.5,0-28.587,7.829-32.795,18.561
	l13.674,8.61c11.662,7.343,26.503,7.343,38.166,0L246.705,274.348z"/>
<g>
	<path style="fill:#FFFFFF;" d="M106.695,266.584H86.779c-6.515,0-11.846-5.331-11.846-11.846l0,0
		c0-6.515,5.331-11.846,11.846-11.846h19.915c6.515,0,11.846,5.331,11.846,11.846l0,0
		C118.541,261.253,113.21,266.584,106.695,266.584z"/>
	<path style="fill:#FFFFFF;" d="M341.056,266.584h-19.915c-6.515,0-11.846-5.331-11.846-11.846l0,0
		c0-6.515,5.331-11.846,11.846-11.846h19.915c6.515,0,11.846,5.331,11.846,11.846l0,0
		C352.902,261.253,347.571,266.584,341.056,266.584z"/>
</g>
<circle style="fill:#CAE7FC;" cx="451.04" cy="186.15" r="53.46"/>
<path style="fill:#B3DBF4;" d="M489.537,210.533c-29.527,0-53.463-23.936-53.463-53.463c0-8.442,1.965-16.44,5.449-23.54
	c-24.985,4.491-43.949,26.341-43.949,52.619c0,29.527,23.936,53.463,53.463,53.463c21.085,0,39.319-12.207,48.022-29.938
	C495.97,210.229,492.786,210.533,489.537,210.533z"/>
<path style="fill:#CAE7FC;" d="M358.01,333.386L358.01,333.386c-12.447,0-24.073,3.698-33.832,10.05
	c-8.666,5.641-19.732,5.641-28.398,0c-9.759-6.352-21.384-10.05-33.832-10.05l0,0c-12.447,0-24.073,3.698-33.832,10.05
	c-8.666,5.641-19.732,5.641-28.398,0c-9.759-6.352-21.384-10.05-33.832-10.05l0,0c-12.447,0-24.073,3.698-33.832,10.05
	c-8.666,5.641-19.732,5.641-28.398,0c-9.759-6.352-21.384-10.05-33.832-10.05l0,0c-34.279,0-62.325,28.046-62.325,62.326v35.451
	c0,34.279,28.046,62.325,62.325,62.325l0,0c12.447,0,24.073-3.698,33.832-10.05c8.666-5.641,19.732-5.641,28.398,0
	c9.759,6.352,21.384,10.05,33.832,10.05l0,0c12.447,0,24.073-3.698,33.832-10.05c8.666-5.641,19.732-5.641,28.398,0
	c9.759,6.352,21.384,10.05,33.832,10.05l0,0c12.447,0,24.073-3.698,33.832-10.05c8.666-5.641,19.732-5.641,28.398,0
	c9.759,6.352,21.384,10.05,33.832,10.05l0,0c34.279,0,62.325-28.046,62.325-62.325v-35.452
	C420.335,361.433,392.289,333.386,358.01,333.386z"/>
<g>
	<path style="fill:#B3DBF4;" d="M133.261,413.438c0-52.09,46.839-78.397,46.839-78.397c-4.57-1.077-9.327-1.655-14.213-1.655l0,0
		c-12.447,0-24.073,3.698-33.832,10.05c-8.666,5.641-19.732,5.641-28.398,0c-9.759-6.352-21.384-10.05-33.832-10.05l0,0
		c-34.279,0-62.326,28.047-62.326,62.325v35.452c0,34.279,28.046,62.325,62.325,62.325l0,0c12.447,0,24.073-3.698,33.832-10.05
		c8.666-5.641,19.732-5.641,28.398,0c9.759,6.352,21.384,10.05,33.832,10.05l0,0c4.886,0,9.643-0.578,14.213-1.654
		C180.1,491.834,133.261,465.527,133.261,413.438z"/>
	<circle style="fill:#B3DBF4;" cx="239.21" cy="432.19" r="7.5"/>
	<circle style="fill:#B3DBF4;" cx="280.33" cy="399.16" r="7.5"/>
	<circle style="fill:#B3DBF4;" cx="326.37" cy="432.19" r="7.5"/>
</g>
<path d="M302.074,231.215v-12.45c0-4.143-3.358-7.5-7.5-7.5s-7.5,3.357-7.5,7.5v12.45c0,4.143,3.358,7.5,7.5,7.5
	S302.074,235.358,302.074,231.215z"/>
<path d="M140.761,231.215v-12.45c0-4.143-3.358-7.5-7.5-7.5s-7.5,3.357-7.5,7.5v12.45c0,4.143,3.358,7.5,7.5,7.5
	S140.761,235.358,140.761,231.215z"/>
<path d="M444.582,125.532c-32.119-42.128-72.841-75.827-115.096-95.157C278.794,7.184,226.732,4.777,178.93,23.409
	c-0.051,0.021-0.102,0.041-0.153,0.062c-20.821,8.649-39.712,20.711-56.148,35.852c-3.046,2.807-3.241,7.552-0.435,10.599
	c2.806,3.044,7.551,3.239,10.598,0.435c15.119-13.929,32.5-25.03,51.663-33c43.911-17.092,91.902-14.791,138.791,6.66
	c38.323,17.532,75.416,47.669,105.393,85.453c-18.423,7.306-32.458,23.335-36.99,42.97l-30.693-12.222
	c-2.767-1.103-5.925-0.461-8.045,1.632c-2.12,2.094-2.799,5.243-1.731,8.024c0.262,0.68,25.187,66.717,25.228,158.49
	c-5.866-1.604-12.03-2.478-18.398-2.478c-13.487,0-26.601,3.895-37.923,11.264c-6.14,3.999-14.075,3.995-20.215,0
	c-11.322-7.369-24.436-11.264-37.923-11.264s-26.601,3.895-37.923,11.264c-6.14,3.996-14.074,3.997-20.216,0
	c-11.322-7.369-24.436-11.264-37.923-11.264s-26.6,3.895-37.923,11.264c-6.14,3.997-14.076,3.995-20.216,0
	c-11.322-7.369-24.436-11.264-37.922-11.264c-6.366,0-12.53,0.873-18.395,2.477c-0.578-39.533,2.378-76.73,8.825-110.695
	c9.601-50.586,26.734-92.176,50.923-123.615c2.526-3.282,1.912-7.991-1.371-10.518c-3.283-2.526-7.993-1.913-10.518,1.371
	c-25.637,33.32-43.728,77.047-53.771,129.964c-6.948,36.607-9.956,76.783-8.976,119.472C14.794,346.184,0,369.252,0,395.711v35.452
	c0,38.502,31.324,69.825,69.826,69.825c13.487,0,26.6-3.895,37.923-11.264c6.14-3.996,14.076-3.996,20.216,0
	c11.322,7.369,24.436,11.264,37.923,11.264s26.6-3.895,37.923-11.264c6.14-3.998,14.075-3.996,20.215,0
	c11.322,7.369,24.436,11.264,37.923,11.264s26.601-3.895,37.923-11.264c6.141-3.995,14.075-3.996,20.216,0
	c11.322,7.369,24.436,11.264,37.923,11.264c10.959,0,21.899-2.636,31.639-7.623c3.687-1.888,5.146-6.407,3.258-10.094
	c-1.888-3.687-6.408-5.148-10.094-3.258c-7.743,3.965-16.088,5.975-24.803,5.975c-10.575,0-20.859-3.056-29.741-8.836
	c-11.111-7.231-25.469-7.231-36.581,0c-8.881,5.78-19.165,8.836-29.74,8.836s-20.859-3.056-29.74-8.836
	c-11.111-7.23-25.47-7.23-36.58,0c-8.882,5.78-19.166,8.836-29.741,8.836s-20.859-3.056-29.74-8.836
	c-11.111-7.231-25.469-7.231-36.58,0c-8.882,5.78-19.166,8.836-29.741,8.836C39.594,485.989,15,461.394,15,431.164v-35.452
	c0-30.23,24.595-54.825,54.826-54.825c10.575,0,20.859,3.056,29.74,8.836c11.11,7.23,25.468,7.231,36.58,0
	c8.882-5.78,19.166-8.836,29.741-8.836s20.859,3.056,29.74,8.836c11.111,7.231,25.469,7.231,36.581,0
	c8.881-5.78,19.165-8.836,29.74-8.836s20.859,3.056,29.74,8.836c11.111,7.231,25.471,7.231,36.58,0
	c8.882-5.78,19.166-8.836,29.741-8.836c30.231,0,54.825,24.595,54.825,54.825v35.452c0,10.854-3.206,21.366-9.271,30.4
	c-2.309,3.438-1.393,8.099,2.046,10.407c3.44,2.31,8.099,1.394,10.407-2.046c7.732-11.516,11.818-24.919,11.818-38.762v-35.452
	c0-26.427-14.758-49.469-36.464-61.325c0.812-71.733-13.101-128.21-20.987-154.27l19.737,7.859
	c0.971,32.771,27.914,59.136,60.916,59.136c33.615,0,60.963-27.348,60.963-60.962C512,152.535,484.283,120.128,444.582,125.532z
	 M451.037,232.112c-25.344,0-45.962-20.618-45.962-45.962s20.619-45.963,45.962-45.963c25.344,0,45.963,20.619,45.963,45.963
	S476.381,232.112,451.037,232.112z"/>
<path d="M190.801,289.342c7.011,4.415,15.044,6.622,23.08,6.621c8.033,0,16.069-2.207,23.079-6.621l29.403-18.513
	c13.945-8.78,18.148-27.271,9.367-41.218c-8.782-13.942-27.27-18.147-41.217-9.365l-14.717,9.266c-3.593,2.264-8.237,2.265-11.833,0
	l-14.716-9.266c-6.926-4.361-15.119-5.687-23.067-3.73c-7.947,1.955-14.592,6.936-18.711,14.024
	c-7.984,13.741-3.327,31.942,10.382,40.574L190.801,289.342z M164.439,238.076c2.055-3.536,10.3-10.678,20.816-5.136l14.716,9.266
	c8.449,5.319,19.368,5.321,27.817,0l14.716-9.266c6.948-4.375,16.157-2.28,20.531,4.665c4.374,6.947,2.281,16.157-4.666,20.531
	l-29.404,18.513c-9.165,5.771-21.009,5.771-30.172,0l0,0l-28.95-18.228C162.889,254.042,160.465,244.915,164.439,238.076z"/>
<g>
</g>
<g>
</g>
<g>
</g>
<g>
</g>
<g>
</g>
<g>
</g>
<g>
</g>
<g>
</g>
<g>
</g>
<g>
</g>
<g>
</g>
<g>
</g>
<g>
</g>
<g>
</g>
<g>
</g>
</svg>
