<?xml version="1.0" encoding="iso-8859-1"?>
<!-- Generator: Adobe Illustrator 19.0.0, SVG Export Plug-In . SVG Version: 6.00 Build 0)  -->
<svg xmlns="http://www.w3.org/2000/svg" xmlns:xlink="http://www.w3.org/1999/xlink" version="1.1" id="Layer_1" x="0px" y="0px" viewBox="0 0 512.045 512.045" style="enable-background:new 0 0 512.045 512.045;" xml:space="preserve" width="512" height="512">
<g id="sweater_x0A_">
	<g id="fill_39_">
		<rect x="166.697" y="74.58" style="fill:#C93939;" width="178.652" height="103.938"/>
		<path style="fill:#AF3333;" d="M166.697,178.518h138.896c-49.966-26.376-58.247-78.495-59.16-103.938h-79.737V178.518z"/>
		<path style="fill:#E04141;" d="M435.453,109.763c0,0,87.789,73.681,59.257,224.139l-76.819,25.353l-53.773-116.548l27.435-121.59    L435.453,109.763z"/>
		<path style="fill:#C93939;" d="M417.891,359.255l-53.773-116.548l27.435-121.59c0,0,60.263,71.917,63.385,225.911L417.891,359.255    z"/>
		<path style="fill:#E04141;" d="M76.592,109.763c0,0-87.789,73.681-59.257,224.139l76.819,25.353l53.773-116.548l-27.435-121.59    L76.592,109.763z"/>
		<path style="fill:#C93939;" d="M94.155,359.255l53.773-116.548l-27.435-121.59c0,0-60.263,71.917-63.385,225.911L94.155,359.255z"/>
		<path style="fill:#FF5555;" d="M417.982,96.738c-19.297-14.386-42.723-22.158-66.793-22.158h-28.981    c0,36.553-29.632,66.185-66.185,66.185c-36.553,0-66.185-29.632-66.185-66.185h-28.981c-24.069,0-47.496,7.771-66.793,22.158    l-17.471,13.025c0.001,0.001,47.192,28.913,47.192,103.536v197.534h264.476V213.299c0-74.623,47.191-103.535,47.192-103.536    L417.982,96.738z"/>
		<path style="fill:#F44242;" d="M76.592,109.763c0.001,0.001,47.192,28.912,47.192,103.536v197.534H263.13    C187.329,327.089,160.856,74.58,160.856,74.58c-24.069,0-47.496,7.771-66.793,22.158L76.592,109.763z"/>
		<path style="fill:#60C6B7;" d="M17.336,333.902l-8.93,28.212c-3.081,9.733,2.146,20.149,11.79,23.497l42.46,14.742    c10.447,3.627,21.757-2.476,24.462-13.198l7.037-27.9L17.336,333.902z"/>
		<path style="fill:#60C6B7;" d="M494.709,333.902l8.93,28.212c3.081,9.733-2.146,20.149-11.79,23.497l-42.46,14.742    c-10.447,3.627-21.757-2.476-24.462-13.198l-7.037-27.9L494.709,333.902z"/>
		<path style="fill:#71D8C5;" d="M361.082,437.465H150.963c-15.011,0-27.179-12.168-27.179-27.179V368.47h264.476v41.816    C388.261,425.297,376.092,437.465,361.082,437.465z"/>
		<path style="fill:#60C6B7;" d="M234.939,368.47H123.784v41.816c0,15.01,12.168,27.179,27.179,27.179h163.394    C282.141,437.465,255.955,409.208,234.939,368.47z"/>
		<path style="fill:#FFFFFF;" d="M391.656,180.216H120.389c1.019,4.731,1.839,9.728,2.419,15h266.43    C389.817,189.944,390.637,184.947,391.656,180.216z"/>
		<path style="fill:#D1E7F8;" d="M177.177,180.216h-56.788c1.019,4.731,1.839,9.728,2.419,15h57.354    C179.121,190.138,178.127,185.132,177.177,180.216z"/>
		<rect x="123.722" y="249.082" style="fill:#FFFFFF;" width="264.602" height="15"/>
		<path style="fill:#D1E7F8;" d="M192.509,249.082h-68.787v15h72.756C195.11,259.085,193.788,254.08,192.509,249.082z"/>
		<path style="fill:#85EDDB;" d="M386.429,217.817l-15.362-14.207c-1.383-1.279-3.517-1.279-4.9,0l-16.316,15.089l-16.316-15.089    c-1.383-1.279-3.517-1.279-4.9,0l-16.316,15.089l-16.316-15.089c-1.383-1.279-3.517-1.279-4.9,0l-16.316,15.089l-16.316-15.089    c-1.383-1.279-3.517-1.279-4.9,0l-16.316,15.089l-16.316-15.089c-1.383-1.279-3.517-1.279-4.9,0l-16.316,15.089L183.41,203.61    c-1.383-1.279-3.517-1.279-4.9,0l-16.316,15.089l-16.316-15.089c-1.383-1.279-3.517-1.279-4.9,0l-15.362,14.207    c-2.526,2.336-2.526,6.328,0,8.664l15.362,14.207c1.383,1.279,3.517,1.279,4.9,0l16.316-15.089l16.316,15.089    c1.383,1.279,3.517,1.279,4.9,0l16.316-15.089l16.316,15.089c1.383,1.279,3.517,1.279,4.9,0l16.316-15.089l16.316,15.089    c1.383,1.279,3.517,1.279,4.9,0l16.316-15.089l16.316,15.089c1.383,1.279,3.517,1.279,4.9,0L312.32,225.6l16.316,15.089    c1.383,1.279,3.517,1.279,4.9,0l16.316-15.089l16.316,15.089c1.383,1.279,3.517,1.279,4.9,0l15.362-14.207    C388.955,224.145,388.955,220.153,386.429,217.817z"/>
		<path style="fill:#D1E7F8;" d="M167.301,289.398h-1.815v-1.815c0-4.143-3.357-7.5-7.5-7.5s-7.5,3.357-7.5,7.5v1.815h-1.815    c-4.143,0-7.5,3.357-7.5,7.5s3.357,7.5,7.5,7.5h1.815v1.815c0,4.143,3.357,7.5,7.5,7.5s7.5-3.357,7.5-7.5v-1.815h1.815    c4.143,0,7.5-3.357,7.5-7.5S171.443,289.398,167.301,289.398z"/>
		<path style="fill:#85EDDB;" d="M216.319,289.398h-1.815v-1.815c0-4.143-3.357-7.5-7.5-7.5s-7.5,3.357-7.5,7.5v1.815h-1.815    c-4.143,0-7.5,3.357-7.5,7.5s3.357,7.5,7.5,7.5h1.815v1.815c0,4.143,3.357,7.5,7.5,7.5s7.5-3.357,7.5-7.5v-1.815h1.815    c4.143,0,7.5-3.357,7.5-7.5S220.462,289.398,216.319,289.398z"/>
		<path style="fill:#FFFFFF;" d="M265.338,289.398h-1.815v-1.815c0-4.143-3.357-7.5-7.5-7.5c-4.143,0-7.5,3.357-7.5,7.5v1.815    h-1.815c-4.143,0-7.5,3.357-7.5,7.5s3.357,7.5,7.5,7.5h1.815v1.815c0,4.143,3.357,7.5,7.5,7.5c4.143,0,7.5-3.357,7.5-7.5v-1.815    h1.815c4.143,0,7.5-3.357,7.5-7.5S269.481,289.398,265.338,289.398z"/>
		<path style="fill:#85EDDB;" d="M314.357,289.398h-1.815v-1.815c0-4.143-3.357-7.5-7.5-7.5s-7.5,3.357-7.5,7.5v1.815h-1.815    c-4.143,0-7.5,3.357-7.5,7.5s3.357,7.5,7.5,7.5h1.815v1.815c0,4.143,3.357,7.5,7.5,7.5s7.5-3.357,7.5-7.5v-1.815h1.815    c4.143,0,7.5-3.357,7.5-7.5S318.499,289.398,314.357,289.398z"/>
		<path style="fill:#FFFFFF;" d="M363.375,289.398h-1.815v-1.815c0-4.143-3.357-7.5-7.5-7.5s-7.5,3.357-7.5,7.5v1.815h-1.815    c-4.143,0-7.5,3.357-7.5,7.5s3.357,7.5,7.5,7.5h1.815v1.815c0,4.143,3.357,7.5,7.5,7.5s7.5-3.357,7.5-7.5v-1.815h1.815    c4.143,0,7.5-3.357,7.5-7.5S367.518,289.398,363.375,289.398z"/>
		<path style="fill:#4DB5A6;" d="M62.656,400.353c10.447,3.627,21.757-2.475,24.462-13.198l7.037-27.9l-37.047-12.227l-8.335,25.84    c0,0-3.537,13.013-12.464,18.338L62.656,400.353z"/>
		<path style="fill:#4DB5A6;" d="M449.389,400.353c-10.447,3.627-21.757-2.475-24.462-13.198l-7.037-27.9l37.047-12.227l0,0    l8.335,25.84c0,0,3.537,13.013,12.464,18.338L449.389,400.353z"/>
		<path style="fill:#4DB5A6;" d="M160.479,422.902c-4.143,0-7.5-3.357-7.5-7.5v-24.868c0-4.143,3.357-7.5,7.5-7.5s7.5,3.357,7.5,7.5    v24.868C167.979,419.545,164.621,422.902,160.479,422.902z"/>
		<path style="fill:#4DB5A6;" d="M192.326,422.902c-4.143,0-7.5-3.357-7.5-7.5v-24.868c0-4.143,3.357-7.5,7.5-7.5s7.5,3.357,7.5,7.5    v24.868C199.826,419.545,196.469,422.902,192.326,422.902z"/>
		<path style="fill:#4DB5A6;" d="M224.175,422.902c-4.143,0-7.5-3.357-7.5-7.5v-24.868c0-4.143,3.357-7.5,7.5-7.5s7.5,3.357,7.5,7.5    v24.868C231.675,419.545,228.317,422.902,224.175,422.902z"/>
		<path style="fill:#60C6B7;" d="M256.023,422.902c-4.143,0-7.5-3.357-7.5-7.5v-24.868c0-4.143,3.357-7.5,7.5-7.5    c4.143,0,7.5,3.357,7.5,7.5v24.868C263.523,419.545,260.165,422.902,256.023,422.902z"/>
		<path style="fill:#60C6B7;" d="M287.87,422.902c-4.143,0-7.5-3.357-7.5-7.5v-24.868c0-4.143,3.357-7.5,7.5-7.5s7.5,3.357,7.5,7.5    v24.868C295.37,419.545,292.013,422.902,287.87,422.902z"/>
		<path style="fill:#60C6B7;" d="M319.719,422.902c-4.143,0-7.5-3.357-7.5-7.5v-24.868c0-4.143,3.357-7.5,7.5-7.5s7.5,3.357,7.5,7.5    v24.868C327.219,419.545,323.861,422.902,319.719,422.902z"/>
		<path style="fill:#60C6B7;" d="M351.567,422.902c-4.143,0-7.5-3.357-7.5-7.5v-24.868c0-4.143,3.357-7.5,7.5-7.5s7.5,3.357,7.5,7.5    v24.868C359.067,419.545,355.709,422.902,351.567,422.902z"/>
		<path style="fill:#4DB5A6;" d="M263.523,415.402v-4.129c-5.233-5.728-10.229-12.266-15-19.464v23.593c0,4.143,3.357,7.5,7.5,7.5    C260.165,422.902,263.523,419.545,263.523,415.402z"/>
		<path style="fill:#71D8C5;" d="M201.679,282.303c-1.344,1.355-2.175,3.22-2.175,5.28v1.815h-1.815c-4.143,0-7.5,3.357-7.5,7.5    s3.357,7.5,7.5,7.5h1.815v1.815c0,4.143,3.357,7.5,7.5,7.5c1.62,0,3.116-0.519,4.343-1.392    C207.929,302.514,204.708,292.466,201.679,282.303z"/>
		<path style="fill:#71D8C5;" d="M181.727,202.741c-1.116-0.243-2.323,0.041-3.218,0.868l-16.316,15.089l-16.316-15.089    c-1.383-1.279-3.517-1.279-4.9,0l-15.362,14.207c-2.526,2.336-2.526,6.328,0,8.664l15.362,14.207c1.383,1.279,3.517,1.279,4.9,0    l16.316-15.089l16.316,15.089c1.383,1.279,3.517,1.279,4.9,0l5.699-5.27C186.44,224.366,183.983,213.42,181.727,202.741z"/>
	</g>
	<path id="stroke_39_" d="M510.789,359.85l-8.368-26.438c10.578-57.438,5.957-110.516-13.76-157.785   c-1.595-3.823-5.984-5.626-9.81-4.034c-3.822,1.595-5.629,5.986-4.034,9.81c18.292,43.853,22.767,93.211,13.315,146.771   l-66.236,21.86l-26.136-56.647v-80.088c0-29.073,7.335-54.25,21.803-74.832c6.519-9.275,13.094-15.467,17.301-18.932   c5.656,5.717,16.12,17.52,26.636,35.221c3.273,5.509,9.074,3.354,10.271,2.647c3.567-2.104,4.801-6.732,2.647-10.271   c-24.377-40.057-63.094-80.054-123.229-80.054H160.857c-25.511,0-50.824,8.397-71.275,23.646c0,0-32.474,19.038-60.042,71.365   c-18.045,34.251-34.401,92.526-19.911,171.31l-8.372,26.45c-4.338,13.704,2.9,28.132,16.479,32.846l42.46,14.742   c7.823,2.491,17.279,0.39,21.156-1.703c6.484-3.498,11.236-9.603,13.038-16.746l6.866-27.222l15.029-32.572v81.091   c0,19.122,15.557,34.68,34.679,34.68h210.119c19.122,0,34.679-15.558,34.679-34.68v-81.091l15.029,32.572l6.866,27.222   c1.802,7.144,6.554,13.248,13.038,16.746c3.877,2.093,13.277,3.946,21.156,1.703l42.46-14.742   C507.889,387.982,515.127,373.554,510.789,359.85z M98.546,102.751c17.88-13.33,40.009-20.671,62.311-20.671h21.852   c1.385,13.878,6.62,26.89,15.348,37.996c2.562,3.256,7.274,3.821,10.531,1.264c3.257-2.56,3.822-7.274,1.264-10.531   c-6.627-8.433-10.722-18.249-12.043-28.729h116.405c-3.696,28.828-28.373,51.186-58.19,51.186c-7.924,0-15.609-1.551-22.842-4.609   c-3.815-1.611-8.215,0.172-9.829,3.987c-1.613,3.814,0.172,8.216,3.987,9.829c9.091,3.844,18.741,5.793,28.684,5.793   c38.099,0,69.536-29.065,73.307-66.186h21.859c22.302,0,44.431,7.341,62.311,20.671l9.554,7.123   c-14.471,12.69-42.292,44.725-42.292,103.426V360.97H131.284V213.299c0-58.701-27.821-90.735-42.292-103.426L98.546,102.751z    M79.845,385.321c-0.787,3.122-2.782,5.685-5.616,7.214s-6.072,1.789-9.113,0.733l-42.46-14.742   c-5.85-2.03-8.968-8.245-7.099-14.148l6.639-20.974l62.979,20.785L79.845,385.321z M90.149,350.035l-66.235-21.86   C11.05,255.103,26.89,201.63,42.647,169.428c12.748-26.054,27.459-42.729,34.538-49.89c4.208,3.466,10.781,9.657,17.297,18.929   c14.468,20.582,21.803,45.759,21.803,74.832v80.089L90.149,350.035z M380.761,410.286c0,10.852-8.828,19.68-19.679,19.68H150.963   c-10.851,0-19.679-8.828-19.679-19.68V375.97h249.477V410.286z M489.39,378.526l-42.46,14.742c-3.043,1.056-6.28,0.796-9.113-0.733   c-2.834-1.529-4.829-4.092-5.616-7.214l-5.33-21.132l62.979-20.785l6.639,20.974C498.358,370.281,495.239,376.496,489.39,378.526z"/>
</g>















</svg>
