<?xml version="1.0" encoding="iso-8859-1"?>
<!-- Generator: Adobe Illustrator 19.0.0, SVG Export Plug-In . SVG Version: 6.00 Build 0)  -->
<svg version="1.1" id="Capa_1" xmlns="http://www.w3.org/2000/svg" xmlns:xlink="http://www.w3.org/1999/xlink" x="0px" y="0px"
	 viewBox="0 0 512.004 512.004" style="enable-background:new 0 0 512.004 512.004;" xml:space="preserve">
<path style="fill:#F44242;" d="M304.025,104.222c0,0,68.53,51.016,178.255,57.202c9.342,0.527,14.963,10.588,10.49,18.807
	l-13.129,24.124l21.277,22.088c8.04,8.346,1.674,22.213-9.895,21.562c-53.958-3.037-162.7-15.673-210.443-67.853
	C282.238,180.348,304.025,104.222,304.025,104.222z"/>
<path style="fill:#C93939;" d="M432.143,155.256c-80.056-15.267-128.118-51.034-128.118-51.034s-21.787,76.126-23.446,75.929
	c39.917,43.628,122.469,59.609,179.997,65.452C459.931,207.082,447.504,177.37,432.143,155.256z"/>
<path style="fill:#F44242;" d="M224.944,104.222c0,0-68.53,51.016-178.255,57.202c-9.342,0.527-14.963,10.588-10.49,18.807
	l13.129,24.124l-21.277,22.088c-8.04,8.346-1.674,22.213,9.895,21.562c53.958-3.037,162.7-15.673,210.443-67.853
	C246.731,180.348,224.944,104.222,224.944,104.222z"/>
<path style="fill:#C93939;" d="M248.39,180.15c-1.659,0.198-23.446-75.928-23.446-75.928s-54.304,40.424-143.628,53.667
	c-3.618,23.397-14.078,58.388-43.563,90.118c0.065-0.003,0.128,0,0.194-0.003C91.906,244.967,200.647,232.331,248.39,180.15z"/>
<circle style="fill:#D3B740;" cx="137.964" cy="387.973" r="42.979"/>
<path style="fill:#FFCD00;" d="M121.403,162.387c22.142-52.42,82.56-76.903,134.979-54.762s76.99,82.524,54.848,134.944
	c0,0-42.981,101.466-39.551,159.509c0.393,0.968-238.02-99.736-237.052-100.129C78.629,263.941,121.403,162.387,121.403,162.387z"/>
<path style="fill:#EEBF00;" d="M256.382,107.625c-7.495-3.166-15.154-5.375-22.841-6.688c-30.668,21.34-63.037,62.447-71.811,141.6
	c-4.616,41.639-16.918,74.317-32.612,99.914c66.176,28.013,142.785,60.176,142.562,59.627
	c-3.431-58.043,39.551-159.509,39.551-159.509C333.372,190.149,308.801,129.767,256.382,107.625z"/>
<path style="fill:#FFEB99;" d="M24.877,342.064l224.842,94.972c14.409,6.086,31.178-0.723,37.264-15.132l0,0
	c6.086-14.409-0.723-31.178-15.132-37.264L47.009,289.668C32.6,283.582,15.831,290.391,9.745,304.8l0,0
	C3.659,319.209,10.468,335.978,24.877,342.064z"/>
<path style="fill:#FFDE55;" d="M286.983,421.904L286.983,421.904c6.086-14.409-0.723-31.178-15.132-37.264l-135.73-57.332
	c0,0-25.146-10.621-38.712,10.086c-13.478,20.573,0.327,35.446,0.327,35.446l151.982,64.196
	C264.128,443.122,280.897,436.313,286.983,421.904z"/>
<circle style="fill:#E8CF64;" cx="357.444" cy="422.383" r="42.979"/>
<path style="fill:#FFD422;" d="M423.632,206.092c-9.962-56.025-63.443-93.302-119.468-83.34s-93.378,63.389-83.417,119.414
	c0,0,19.402,108.473,3.181,164.309c-0.598,0.857,254.214-44.451,253.358-45.049C442.812,314.604,423.632,206.092,423.632,206.092z"
	/>
<path style="fill:#EEBF00;" d="M260.379,347.525c-4.093,0-7.438-3.287-7.497-7.393c-0.682-47.674-8.438-93.271-9.986-101.928
	c-0.729-4.077,1.985-7.974,6.063-8.703c4.073-0.736,7.974,1.984,8.703,6.063c1.584,8.857,10.216,55.512,10.219,104.354
	C267.88,347.525,260.415,347.525,260.379,347.525z"/>
<path style="fill:#FFEB99;" d="M477.894,402.705l-240.307,42.728c-15.4,2.738-30.241-7.622-32.979-23.022l0,0
	c-2.738-15.4,7.622-30.241,23.022-32.979l240.307-42.728c15.4-2.738,30.241,7.622,32.979,23.022l0,0
	C503.654,385.126,493.294,399.967,477.894,402.705z"/>
<path style="fill:#FF5555;" d="M264.485,129.151l39.45,26.156c17.564,11.645,41.501,5.229,50.593-13.783
	c4.434-9.272,7.559-21.485,7.559-37.492s-3.124-28.22-7.559-37.492c-9.092-19.011-33.029-25.428-50.593-13.782l-39.45,26.155
	l-39.45-26.155c-17.564-11.645-41.501-5.229-50.593,13.782c-4.434,9.272-7.559,21.485-7.559,37.492s3.124,28.22,7.559,37.492
	c9.092,19.011,33.029,25.428,50.593,13.783L264.485,129.151z"/>
<path style="fill:#F44242;" d="M315.369,119.362h-101.77c-8.431,0-15.33-6.898-15.33-15.33l0,0c0-8.431,6.898-15.33,15.33-15.33
	h101.77c8.431,0,15.33,6.898,15.33,15.33l0,0C330.699,112.464,323.801,119.362,315.369,119.362z"/>
<circle style="fill:#FF737D;" cx="264.484" cy="104.033" r="40.36"/>
<path d="M491.444,240.516c-9.016-0.508-18.131-1.205-27.094-2.073c-4.1-0.415-7.788,2.619-8.188,6.742
	c-0.399,4.122,2.619,7.788,6.742,8.188c9.161,0.888,28.477,2.153,28.864,2.153c7.912-0.001,15.038-4.538,18.371-11.803
	c3.496-7.619,1.996-16.444-3.821-22.484l-17.463-18.128l10.501-19.295c3.333-6.125,3.298-13.419-0.094-19.511
	c-3.396-6.1-9.588-9.976-16.563-10.369c-31.533-1.779-62.675-7.52-92.566-17.061c-6.757-5.227-14.188-9.705-22.186-13.328
	c1.088-6.127,1.637-12.642,1.637-19.515c0-15.52-2.79-29.223-8.293-40.728c-5.235-10.949-14.975-19.09-26.719-22.335
	c-11.855-3.277-24.534-1.259-34.784,5.537L280.853,59.06c-5.11-1.866-10.623-2.886-16.371-2.886c-5.747,0-11.26,1.02-16.37,2.885
	l-18.935-12.553c-12.754-8.457-29.145-9.388-42.773-2.434c-3.689,1.883-5.155,6.399-3.272,10.089
	c1.882,3.69,6.401,5.153,10.089,3.272c8.816-4.499,19.419-3.896,27.668,1.574l12.762,8.461c-4.536,3.831-8.358,8.482-11.22,13.732
	h-8.833c-12.589,0-22.83,10.241-22.83,22.83s10.241,22.83,22.83,22.83h8.833c2.862,5.25,6.683,9.901,11.219,13.732l-12.762,8.461
	c-6.629,4.396-14.831,5.701-22.499,3.581c-7.559-2.089-13.821-7.318-17.184-14.349c-4.528-9.469-6.824-20.994-6.824-34.256
	c0-10.445,1.432-19.863,4.256-27.991c1.359-3.912-0.711-8.187-4.624-9.546c-3.912-1.361-7.972,0.792-9.546,4.624
	c-7.223,17.583-5.062,35.375-5.026,36.591c-14.019,8.405-25.99,19.895-35.043,33.443c-25.422,6.987-51.694,11.292-78.132,12.783
	c-6.975,0.394-13.166,4.27-16.563,10.369c-3.392,6.092-3.427,13.386-0.094,19.511l10.501,19.295l-17.464,18.128
	c-5.816,6.04-7.316,14.865-3.82,22.484c3.333,7.265,10.458,11.803,18.372,11.803c0.387-0.001,18.869-1.222,27.636-2.056
	c-6.479,9.891-13.291,19.312-20.244,27.516c-24.864-7.864-38.035,12.082-41.758,20.897c-7.71,18.255,0.868,39.38,19.124,47.092
	l66.708,28.177c-5.124,23.291,6.721,48.181,29.653,57.327c17.045,6.798,32.498,2.761,38.634,0.269
	c9.599-3.898,17.58-10.496,23.147-18.974l17.004,7.182c0.04,0.256,0.147,13.143,14.95,23.92c6.039,4.396,15.524,7.469,26.844,5.943
	l71.287-12.676c3.547,9.502,9.866,17.707,18.36,23.636c8.57,5.983,24.215,10.289,37.73,8.308
	c13.341-1.956,24.837-9.749,32.556-20.805c5.93-8.495,9.033-18.375,9.087-28.517l71.286-12.675
	c9.421-1.675,17.643-6.942,23.15-14.832s7.619-17.424,5.943-26.845c-3.135-17.633-18.716-29.99-36.083-29.641
	c-26.208-50.421-41.049-133.132-41.201-133.993c-3.058-17.197-9.939-32.968-19.867-46.411c23.125,5.661,46.809,9.197,70.709,10.545
	c2.611,0.147,3.878,1.931,4.301,2.69c0.421,0.756,1.266,2.76,0.023,5.043l-13.129,24.124c-1.564,2.874-1.084,6.432,1.187,8.788
	l21.276,22.087c2.24,2.325,1.439,4.847,0.991,5.823C496.059,238.445,494.692,240.699,491.444,240.516z M205.769,104.032
	c0.441-9.82,11.509-7.83,11.509-7.83c-0.422,2.55-0.651,5.163-0.651,7.83s0.23,5.281,0.651,7.83
	C217.278,111.862,205.328,113.852,205.769,104.032z M308.079,59.009c6.628-4.396,14.83-5.701,22.499-3.581
	c7.559,2.089,13.821,7.318,17.184,14.349c4.528,9.469,6.824,20.994,6.824,34.256s-2.296,24.787-6.824,34.257
	c-3.362,7.029-9.625,12.259-17.184,14.348c-7.672,2.12-15.871,0.813-22.499-3.581l-12.762-8.462
	c4.536-3.831,8.357-8.482,11.219-13.732h8.834c12.588,0,22.829-10.241,22.829-22.83s-10.241-22.83-22.829-22.83h-8.834
	c-2.862-5.25-6.683-9.901-11.219-13.732L308.079,59.009z M311.69,96.202c0,0,11.549-1.847,11.509,7.83s-11.509,7.83-11.509,7.83
	c0.422-2.55,0.651-5.163,0.651-7.83S312.112,98.752,311.69,96.202z M264.484,71.175c18.117,0,32.857,14.74,32.857,32.857
	s-14.74,32.857-32.857,32.857s-32.857-14.74-32.857-32.857S246.367,71.175,264.484,71.175z M37.526,240.516
	c-3.24,0.164-4.616-2.071-5.064-3.048c-0.447-0.977-1.248-3.498,0.991-5.823l21.277-22.087c2.271-2.356,2.751-5.914,1.187-8.788
	l-13.129-24.124c-1.242-2.283-0.397-4.287,0.023-5.043c0.423-0.76,1.689-2.543,4.301-2.69c22.763-1.284,45.41-4.571,67.536-9.788
	c-0.05,0.118-0.107,0.232-0.157,0.35c-0.239,0.567-16.84,39.701-39.593,77.87C62.621,238.732,50.076,239.809,37.526,240.516z
	 M16.654,307.718c2.164-5.123,11.704-17.091,27.438-11.141l30.592,12.921c3.811,1.61,8.216-0.174,9.827-3.991
	c1.611-3.815-0.176-8.216-3.991-9.827l-21.204-8.956c36.795-45.483,67.63-118.172,68.997-121.419
	c7.054-16.7,18.32-30.641,32.88-40.854c1.379,7.359,3.539,14.152,6.485,20.31c5.235,10.949,15.058,18.802,26.719,22.335
	c20.684,6.267,38.378-7.92,38.378-7.92c-17.429,23.968-24.745,54.305-19.41,84.312c0.039,0.221,3.975,22.394,6.757,51.312
	c2.172,22.571,3.052,43.125,2.66,60.973L109.99,308.13c-3.813-1.611-8.215,0.175-9.827,3.991c-1.611,3.815,0.175,8.215,3.991,9.827
	l117.88,49.792c-0.305,4.1-0.687,8.024-1.16,11.727c-17.457,3.321-21.591,20.058-22.681,23.665L27.797,335.155
	C17.16,330.662,12.162,318.355,16.654,307.718z M124.157,420.659c-15.087-6.373-23.471-22.028-21.337-37.531l63.12,26.661
	C156.314,422.129,139.245,427.033,124.157,420.659z M386.533,442.695c-5.425,7.771-13.551,12.964-22.881,14.623
	c-9.329,1.658-18.748-0.414-26.52-5.84c-5.185-3.619-9.214-8.446-11.82-14.026l67.481-11.999
	C392.271,431.591,390.153,437.51,386.533,442.695z M493.532,371.038c0.974,5.477-0.16,20.185-16.951,24.283L236.274,438.05
	c-5.478,0.972-11.027-0.26-15.633-3.476c-4.604-3.214-7.677-8-8.65-13.477c-2.021-11.367,5.583-22.26,16.95-24.281l240.308-42.729
	C483.263,352.514,491.73,360.906,493.532,371.038z M456.592,341.104l-220.244,39.161c6.107-58.183-7.597-135.944-8.218-139.411
	c-5.932-33.361,6.239-67.203,31.842-89.183c1.486,0.14,13.095,1.269,20.883-2.667l18.934,12.554
	c7.028,4.66,21.099,9.376,34.784,5.537c11.732-3.291,21.483-11.386,26.719-22.334c1-2.09,1.907-4.255,2.727-6.488
	c27.515,13.333,46.806,38.649,52.226,69.125C416.86,210.873,430.801,288.594,456.592,341.104z"/>
<g>
</g>
<g>
</g>
<g>
</g>
<g>
</g>
<g>
</g>
<g>
</g>
<g>
</g>
<g>
</g>
<g>
</g>
<g>
</g>
<g>
</g>
<g>
</g>
<g>
</g>
<g>
</g>
<g>
</g>
</svg>
