<?xml version="1.0" encoding="iso-8859-1"?>
<!-- Generator: Adobe Illustrator 19.0.0, SVG Export Plug-In . SVG Version: 6.00 Build 0)  -->
<svg version="1.1" id="Capa_1" xmlns="http://www.w3.org/2000/svg" xmlns:xlink="http://www.w3.org/1999/xlink" x="0px" y="0px"
	 viewBox="0 0 512.002 512.002" style="enable-background:new 0 0 512.002 512.002;" xml:space="preserve">
<path style="fill:#7EC66A;" d="M447.58,264.028c40.471-23.445,55.102-75.564,32.692-116.618
	c-9.317-17.07-23.472-29.723-39.791-37.247c-6.004-2.768-11.311-6.883-15.426-12.058c-16.954-21.313-46.992-28.776-72.473-16.327
	c-17.174,8.39-28.479,23.974-32.07,41.348c-1.844,8.924-5.72,17.328-11.789,24.126c-16.593,18.589-20.248,46.421-7.109,69.179
	c6.559,11.361,16.309,19.723,27.462,24.625c5.05,2.219,9.687,5.283,13.582,9.189C369.772,277.451,412.759,284.199,447.58,264.028z"
	/>
<path style="fill:#67B758;" d="M329.075,241.058c5.05,2.219,9.687,5.283,13.582,9.189c27.114,27.203,70.101,33.952,104.922,13.781
	c20.044-11.612,33.75-30.255,39.756-51.107c-16.452-10.623-40.956-20.551-65.248-20.551c-10.07,0-20.049,1.846-26.886,3.465
	c-5.557,1.316-11.304,1.762-16.97,1.044c-4.547-0.576-9.136-0.866-13.717-0.866c-0.002,0-0.004,0-0.007,0
	c-20.684,0-44.904,9.33-62.801,20.579C308.264,227.872,317.974,236.179,329.075,241.058z"/>
<path style="fill:#92DD7A;" d="M344.842,425.894c40.54,23.327,92.991,9.938,117.34-29.997c10.123-16.604,14.006-35.19,12.362-53.084
	c-0.605-6.583,0.306-13.237,2.729-19.388c9.98-25.339,1.425-55.085-22.097-70.926c-15.854-10.678-35.002-12.677-51.844-7.099
	c-8.65,2.865-17.867,3.71-26.788,1.854c-24.395-5.075-50.326,5.675-63.465,28.432c-6.559,11.361-8.926,23.985-7.594,36.096
	c0.603,5.483,0.269,11.032-1.167,16.357C294.313,365.222,309.962,405.825,344.842,425.894z"/>
<path style="fill:#7EC66A;" d="M305.483,311.781c0.603,5.483,0.269,11.032-1.167,16.357c-10.001,37.084,5.647,77.686,40.527,97.756
	c20.078,11.553,43.077,14.1,64.137,8.876c0.973-19.559-2.68-45.744-14.827-66.782c-5.035-8.721-11.624-16.44-16.445-21.551
	c-3.918-4.154-7.177-8.908-9.389-14.174c-1.775-4.226-3.818-8.345-6.108-12.313c-0.001-0.002-0.002-0.004-0.003-0.006
	c-10.343-17.913-30.533-34.224-49.222-44.097C306.496,287.166,304.157,299.729,305.483,311.781z"/>
<path style="fill:#67B758;" d="M153.292,417.854c0.068,46.772,37.889,85.501,84.648,86.62c19.442,0.465,37.478-5.465,52.153-15.837
	c5.399-3.816,11.617-6.353,18.155-7.33c26.934-4.026,48.417-26.308,50.376-54.6c1.32-19.069-6.522-36.651-19.774-48.447
	c-6.806-6.059-12.147-13.619-15-22.273c-7.802-23.664-30.078-40.746-56.356-40.746c-13.118,0-25.235,4.262-35.057,11.471
	c-4.447,3.263-9.419,5.748-14.75,7.167C180.572,343.759,153.233,377.612,153.292,417.854z"/>
<path style="fill:#5AAA4F;" d="M232.437,326.711c-4.447,3.263-9.419,5.748-14.75,7.167c-37.116,9.88-64.454,43.734-64.395,83.975
	c0.034,23.164,9.327,44.356,24.381,59.983c17.425-8.936,38.275-25.193,50.421-46.231c5.035-8.721,8.425-18.286,10.442-25.017
	c1.639-5.47,4.126-10.671,7.58-15.219c2.772-3.65,5.318-7.479,7.608-11.446c0.001-0.002,0.002-0.004,0.003-0.006
	c10.343-17.913,14.372-43.553,13.579-64.677C254.262,315.281,242.213,319.538,232.437,326.711z"/>
<path style="fill:#7EC66A;" d="M64.481,247.947C24.01,271.392,9.379,323.511,31.789,364.565
	c9.317,17.07,23.472,29.723,39.791,37.247c6.004,2.768,11.311,6.883,15.426,12.058c16.954,21.313,46.992,28.776,72.473,16.327
	c17.174-8.39,28.479-23.974,32.07-41.348c1.844-8.924,5.72-17.328,11.789-24.126c16.593-18.589,20.248-46.421,7.109-69.179
	c-6.558-11.361-16.309-19.723-27.462-24.625c-5.05-2.219-9.687-5.283-13.582-9.189C142.289,234.524,99.302,227.776,64.481,247.947z"
	/>
<path style="fill:#67B758;" d="M182.985,270.917c-5.05-2.219-9.687-5.283-13.582-9.189c-27.114-27.203-70.101-33.952-104.922-13.781
	c-20.044,11.612-33.75,30.255-39.756,51.107c16.452,10.623,40.956,20.551,65.248,20.551c10.07,0,20.049-1.846,26.886-3.465
	c5.557-1.316,11.304-1.762,16.97-1.044c4.547,0.576,9.136,0.866,13.717,0.866c0.002,0,0.004,0,0.007,0
	c20.684,0,44.904-9.33,62.801-20.579C203.796,284.103,194.085,275.796,182.985,270.917z"/>
<path style="fill:#92DD7A;" d="M167.218,86.081c-40.54-23.327-92.991-9.937-117.34,29.997
	c-10.123,16.605-14.006,35.19-12.362,53.084c0.605,6.583-0.306,13.237-2.729,19.388c-9.98,25.339-1.425,55.085,22.097,70.926
	c15.854,10.678,35.002,12.677,51.844,7.099c8.65-2.865,17.867-3.71,26.788-1.854c24.395,5.075,50.326-5.675,63.465-28.432
	c6.558-11.361,8.926-23.985,7.594-36.096c-0.603-5.483-0.269-11.032,1.167-16.357C217.746,146.753,202.098,106.15,167.218,86.081z"
	/>
<path style="fill:#7EC66A;" d="M206.578,200.194c-0.603-5.483-0.269-11.032,1.167-16.357c10.001-37.084-5.647-77.686-40.527-97.756
	c-20.078-11.553-43.077-14.1-64.137-8.876c-0.973,19.559,2.68,45.744,14.827,66.782c5.035,8.721,11.624,16.44,16.445,21.551
	c3.918,4.154,7.177,8.908,9.389,14.174c1.775,4.226,3.818,8.345,6.108,12.313c0.001,0.002,0.002,0.004,0.003,0.006
	c10.342,17.913,30.533,34.224,49.222,44.097C205.564,224.809,207.903,212.246,206.578,200.194z"/>
<path style="fill:#67B758;" d="M308.723,147.254c6.068-6.798,9.944-15.203,11.789-24.126c3.59-17.374,14.896-32.958,32.07-41.348
	c1.622-0.792-10.367-74.304-78.461-74.279c-19.447,0.007-37.478,5.465-52.153,15.837c-5.399,3.816-11.617,6.353-18.155,7.33
	c-26.934,4.026-48.417,26.308-50.376,54.6c-1.32,19.069,6.522,36.651,19.774,48.447c6.806,6.059,12.147,13.619,15,22.272
	c7.802,23.664,30.078,40.747,56.356,40.747c13.118,0,25.235-4.262,35.057-11.471c4.427-3.249,9.374-5.724,14.678-7.146
	C295.981,166.778,300.92,155.994,308.723,147.254z"/>
<path style="fill:#C93939;" d="M253.186,164.88c0.657-0.657,50.653-4.509,50.653-4.509s-14.732,33.078,22.135,66.024
	c4.588,4.1,1.983,11.719-4.148,12.241l-15.678,1.335l-6.439,21.78c-1.645,5.565-8.942,6.887-12.407,2.231
	C274.42,246.669,251.79,209.671,253.186,164.88z"/>
<path style="fill:#AF3333;" d="M301.471,184.621c-2.039-14.357,2.368-24.251,2.368-24.251s-49.996,3.852-50.653,4.509
	c-0.89,28.548,7.981,53.92,17.868,73.057C284.257,220.234,294.149,201.605,301.471,184.621z"/>
<path style="fill:#E04141;" d="M258.873,164.88c-0.657-0.657-50.653-4.509-50.653-4.509s14.732,33.078-22.135,66.024
	c-4.588,4.1-1.983,11.719,4.148,12.241l15.678,1.335l6.439,21.78c1.645,5.565,8.942,6.887,12.407,2.231
	C237.639,246.669,260.269,209.671,258.873,164.88z"/>
<path style="fill:#F44242;" d="M256.03,176.7l40.129,20.492c20.949,10.698,46.731,1.435,55.741-20.294
	c2.931-7.07,4.842-15.368,4.842-24.982c0-10.314-2.199-19.111-5.498-26.505c-9.316-20.882-34.69-29.185-55.055-18.787L256.03,127.13
	l-40.159-20.507c-20.365-10.399-45.738-2.096-55.055,18.787c-3.299,7.394-5.498,16.192-5.498,26.505
	c0,9.614,1.911,17.912,4.842,24.982c9.009,21.729,34.792,30.992,55.741,20.294L256.03,176.7z"/>
<path style="fill:#E04141;" d="M313.189,166.897H198.871c-8.25,0-15.001-6.75-15.001-15.001l0,0c0-8.25,6.75-15.001,15.001-15.001
	h114.318c8.25,0,15.001,6.75,15.001,15.001l0,0C328.19,160.147,321.439,166.897,313.189,166.897z"/>
<path style="fill:#FF737D;" d="M267.799,182.191h-23.537c-10.232,0-18.526-8.294-18.526-18.526v-23.537
	c0-10.232,8.294-18.526,18.526-18.526h23.537c10.231,0,18.526,8.294,18.526,18.526v23.537
	C286.325,173.896,278.03,182.191,267.799,182.191z"/>
<circle style="fill:#FFE477;" cx="256.034" cy="75.744" r="20.481"/>
<circle style="fill:#FFFFFF;" cx="99.937" cy="165.868" r="20.481"/>
<circle style="fill:#FFE477;" cx="99.937" cy="346.107" r="20.481"/>
<circle style="fill:#FFFFFF;" cx="256.034" cy="436.231" r="20.481"/>
<circle style="fill:#FFE477;" cx="412.132" cy="346.107" r="20.481"/>
<circle style="fill:#FFFFFF;" cx="412.132" cy="165.868" r="20.481"/>
<g>
	<circle style="fill:#7EC66A;" cx="83.416" cy="213.59" r="7.5"/>
	<circle style="fill:#7EC66A;" cx="140.319" cy="230.261" r="7.5"/>
</g>
<g>
	<circle style="fill:#67B758;" cx="180.331" cy="336.236" r="7.5"/>
	<circle style="fill:#67B758;" cx="147.819" cy="377.728" r="7.5"/>
</g>
<g>
	<circle style="fill:#5AAA4F;" cx="284.836" cy="382.549" r="7.5"/>
	<circle style="fill:#5AAA4F;" cx="311.277" cy="423.251" r="7.5"/>
</g>
<circle style="fill:#7EC66A;" cx="437.203" cy="294.504" r="7.5"/>
<circle style="fill:#67B758;" cx="398.861" cy="114.106" r="7.5"/>
<circle style="fill:#5AAA4F;" cx="311.407" cy="70.263" r="7.5"/>
<circle style="fill:#7EC66A;" cx="384.711" cy="283.234" r="7.5"/>
<path d="M470.547,255.766c29.368-29.289,36.416-75.112,16.307-111.949c-9.799-17.951-24.749-31.943-43.234-40.465
	c-4.968-2.289-9.357-5.718-12.696-9.914c-9.326-11.726-22.542-20.057-37.213-23.462c-11.586-2.69-23.706-2.182-34.999,1.337
	c-1.882-7.859-7.523-26.47-21.455-42.856C321.428,9.838,299.611,0,274.154,0c-0.012,0-0.026,0-0.037,0
	c-21.027,0.009-40.557,5.96-56.479,17.213c-4.466,3.157-9.63,5.244-14.935,6.036c-14.817,2.216-28.641,9.494-38.925,20.497
	c-7.079,7.574-12.262,16.714-15.199,26.575c-36.481-9.751-76.546,3.55-99.625,33.829c-2.511,3.295-1.876,8.001,1.418,10.513
	c1.358,1.035,2.956,1.535,4.541,1.535c2.26,0,4.494-1.018,5.97-2.953c19.672-25.809,54.03-36.933,85.047-28.076
	c-0.815,12.911,2.04,25.486,8.281,36.666c-0.081,0.175-6.397,10.327-6.397,30.081c0,9.816,1.822,19.189,5.414,27.855
	c5.057,12.198,15.095,21.821,27.539,26.403c3.706,1.364,7.541,2.242,11.413,2.661c-3.097,4.123-6.795,8.123-11.097,11.968
	c-4.376,3.911-5.938,9.808-4.075,15.391c1.133,3.396,3.437,6.17,6.387,7.923c-12.169,11.617-29.511,16.768-46.353,13.264
	c-9.805-2.04-20.413-1.322-30.675,2.076c-15.376,5.092-31.885,2.832-45.295-6.199c-20.019-13.483-28.138-39.54-19.309-61.957
	c2.82-7.159,3.934-15.052,3.22-22.823c-0.917-9.978,0.044-19.892,2.857-29.465c1.167-3.975-1.107-8.143-5.082-9.311
	c-3.977-1.166-8.143,1.107-9.31,5.082c-3.349,11.397-4.493,23.195-3.403,35.067c0.501,5.447-0.273,10.964-2.238,15.952
	c-5.491,13.94-6.098,29.551-1.712,43.958c3.02,9.918,8.343,18.977,15.416,26.451C12.08,285.509,5.006,331.156,25.205,368.16
	c9.798,17.949,24.748,31.942,43.234,40.465c4.968,2.29,9.358,5.718,12.696,9.914c9.326,11.726,22.543,20.057,37.213,23.462
	c4.948,1.148,17.646,3.055,30.634-0.136c4.756,17.742,14.697,33.93,28.647,46.323c16.669,14.81,39.053,23.813,62.463,23.813
	c19.6,0,38.339-5.937,54.328-17.237c4.466-3.157,9.63-5.244,14.935-6.037c14.817-2.215,28.641-9.493,38.926-20.497
	c10.438-11.167,16.768-25.728,17.825-41.003c1.439-20.798-6.677-40.687-22.27-54.567c-6.105-5.435-10.554-12.013-12.864-19.02
	c-3.687-11.182-10.104-20.868-18.371-28.422c0.753-4.613,0.87-9.387,0.335-14.254c-1.211-11.01,1.083-21.91,6.634-31.525
	c11.215-19.424,33.496-29.407,55.442-24.84c9.806,2.04,20.412,1.323,30.676-2.077c15.374-5.091,31.883-2.833,45.295,6.2
	c20.018,13.483,28.138,39.54,19.308,61.957c-2.819,7.159-3.934,15.052-3.22,22.823c1.565,17.035-2.34,33.805-11.296,48.492
	c-14.197,23.284-40.153,37.794-67.74,37.865c-4.142,0.011-7.491,3.377-7.48,7.52c0.011,4.136,3.366,7.48,7.5,7.48
	c0.006,0,0.013,0,0.02,0c32.767-0.085,63.615-17.351,80.509-45.057c10.647-17.462,15.289-37.405,13.427-57.674
	c-0.5-5.448,0.273-10.965,2.239-15.953c5.49-13.94,6.098-29.551,1.711-43.959C482.942,272.298,477.619,263.241,470.547,255.766z
	 M349.287,75.041L349.287,75.041L349.287,75.041L349.287,75.041z M160.919,85.786c1.667-24.077,20.173-44.139,44.002-47.7
	c7.612-1.137,15.004-4.119,21.376-8.623c13.377-9.453,29.914-14.455,47.826-14.462c0.012,0,0.021,0,0.032,0
	c24.376,0,43.571,10.193,57.049,30.292c8.692,12.964,12.3,26.023,13.505,32.216c-7.854,4.62-14.657,10.775-20.018,18.11
	c-10.424-2.164-21.67-0.904-31.912,4.325l-27.724,14.158h-18.046l-27.725-14.158c-11.775-6.012-25.676-6.937-38.141-2.535
	c-6.478,2.288-12.214,5.844-16.967,10.409C161.513,100.859,160.393,93.397,160.919,85.786z M301.096,207.176
	c4.474,8.522,10.868,16.604,19.064,24.074l-14.647,1.247c-3.077,0.262-5.68,2.384-6.556,5.346l-6.185,20.92
	c-8.473-11.523-22.873-34.238-29.082-62.435c0.432-2.184,0.823-4.396,1.161-6.638h0.129
	C264.979,189.691,298.234,206.34,301.096,207.176z M278.824,163.665c0,6.079-4.945,11.025-11.025,11.025h-23.538
	c-6.079,0-11.026-4.945-11.026-11.025v-23.537c0-6.079,4.946-11.026,11.026-11.026H267.8c6.079,0,11.025,4.946,11.025,11.026
	V163.665z M167.089,174.025c-2.833-6.835-4.271-14.275-4.271-22.11c0-8.35,1.631-16.239,4.847-23.449
	c3.548-7.952,10.107-13.96,18.47-16.913c8.602-3.036,18.195-2.399,26.324,1.751l14.499,7.404c-2.695,2.404-4.885,5.359-6.398,8.687
	h-21.69c-12.408,0-22.501,10.094-22.501,22.501c0,12.407,10.093,22.501,22.501,22.501h21.69c1.518,3.339,3.718,6.302,6.426,8.711
	l-14.497,7.402c-8.21,4.194-17.882,4.771-26.536,1.585C177.299,188.909,170.599,182.491,167.089,174.025z M198.87,159.397
	c-4.136,0-7.5-3.364-7.5-7.5c0-4.136,3.364-7.5,7.5-7.5h19.364v15.001H198.87z M210.963,207.176
	c2.863-0.837,38.693-17.486,38.693-17.486c-5.208,30.929-20.726,55.965-30.368,69.072l-6.184-20.919
	c-0.876-2.963-3.478-5.085-6.556-5.347l-14.648-1.248C200.096,223.778,206.489,215.7,210.963,207.176z M92.876,409.2
	c-4.79-6.021-11.069-10.933-18.156-14.199c-15.537-7.163-28.105-18.931-36.348-34.03c-17.195-31.5-10.876-70.454,14.664-95.053
	c11.142,7.408,23.913,11.218,36.873,11.218c7.082,0,14.221-1.136,21.178-3.44c7.758-2.568,15.678-3.134,22.902-1.63
	c11.427,2.378,23.032,1.657,33.754-1.735c3.63,2.975,7.722,5.475,12.224,7.454c10.14,4.456,18.434,11.895,23.984,21.509
	c11.214,19.423,8.718,43.709-6.209,60.434c-6.669,7.472-11.352,17.018-13.539,27.604c-3.277,15.861-13.49,29.028-28.017,36.127
	C134.502,434.05,107.875,428.056,92.876,409.2z M316.726,358.336c3.136,9.511,9.062,18.338,17.137,25.525
	c12.098,10.771,18.396,26.197,17.278,42.327c-1.667,24.078-20.173,44.139-44.003,47.699c-7.611,1.139-15.003,4.12-21.375,8.623
	c-13.971,9.874-30.441,14.861-47.643,14.464c-18.563-0.444-36.507-7.548-50.525-20.003c-12.079-10.732-20.6-24.819-24.459-40.228
	c18.536-9.193,31.563-26.07,35.76-46.378c1.654-8.004,5.125-15.146,10.039-20.65c7.84-8.783,13.02-19.184,15.43-30.12
	c4.372-1.655,8.565-3.94,12.512-6.837c8.928-6.552,19.517-10.016,30.62-10.016C289.922,322.742,309.708,337.045,316.726,358.336z
	 M306.582,271.936c-12.926,18.794-8.401,42.399-8.362,43.258c-9.277-4.794-19.754-7.454-30.724-7.454
	c-28.333,0-40.92,13.925-41.645,14.388c-0.487-10.432-3.663-20.699-8.906-30.335c-12.075-22.19-32.541-28.486-33.314-28.888
	c6.319-4.037,12-9.162,16.73-15.258l4.799,16.232c1.574,5.323,5.948,9.235,11.417,10.208c0.865,0.154,8.851,1.642,14.201-5.627
	c7.079-9.62,17.529-25.546,25.259-45.749c7.884,20.563,18.726,36.53,25.253,45.75c5.145,7.268,13.335,5.78,14.199,5.626
	c5.468-0.973,9.843-4.884,11.418-10.208l4.987-16.869l10.419-0.887c1.234,0.636,5.328,2.536,6.091,2.932
	C319.609,254.691,312.798,262.897,306.582,271.936z M400.972,238.28c-7.758,2.571-15.677,3.137-22.902,1.631
	c-11.526-2.398-23.124-1.683-33.801,1.698c-2.762-2.259-5.798-4.234-9.072-5.922c1.606-5.429,0.02-11.091-4.224-14.883
	c-4.299-3.842-7.991-7.845-11.09-11.97c3.868-0.42,7.702-1.297,11.406-2.661c12.444-4.581,22.481-14.205,27.537-26.401
	c3.594-8.666,5.415-18.038,5.415-27.855c0-4.143-3.357-7.5-7.5-7.5c-4.143,0-7.5,3.357-7.5,7.5c0,7.836-1.437,15.275-4.271,22.11
	c-3.511,8.466-10.21,14.884-18.864,18.071c-8.655,3.184-18.326,2.608-26.536-1.585l-14.497-7.403
	c2.708-2.408,4.908-5.372,6.425-8.711h21.69c12.407,0,22.501-10.094,22.501-22.501c0-12.407-10.094-22.501-22.501-22.501h-21.69
	c-1.513-3.328-3.703-6.283-6.398-8.687l14.5-7.404c15.632-7.981,33.975-2.263,43.233,12.117c3.52,5.467,9.068,3.396,10.257,2.703
	c3.579-2.086,4.789-6.678,2.703-10.256c-4.114-7.057-9.835-12.64-16.455-16.573c4.561-5.304,10.163-9.663,16.534-12.777
	c21.686-10.593,48.312-4.6,63.311,14.258c4.791,6.022,11.069,10.934,18.156,14.2c15.536,7.161,28.104,18.929,36.348,34.029
	c17.118,31.36,10.812,70.462-14.676,95.05C441.781,234.6,420.656,231.761,400.972,238.28z M293.825,144.396h19.364
	c4.136,0,7.5,3.364,7.5,7.5c0,4.136-3.364,7.5-7.5,7.5h-19.364V144.396z"/>
<path d="M256.03,103.723c15.429,0,27.98-12.553,27.98-27.98s-12.553-27.98-27.98-27.98s-27.98,12.553-27.98,27.98
	S240.601,103.723,256.03,103.723z M256.03,62.762c7.157,0,12.98,5.822,12.98,12.98s-5.822,12.98-12.98,12.98
	s-12.98-5.822-12.98-12.98S248.873,62.762,256.03,62.762z"/>
<path d="M99.886,193.84c9.677,0,19.103-5.019,24.279-13.985c7.713-13.361,3.119-30.508-10.242-38.224l0,0
	c-13.363-7.716-30.508-3.121-38.223,10.241c-7.714,13.363-3.12,30.509,10.242,38.224C90.338,192.635,95.14,193.84,99.886,193.84z
	 M88.691,159.374c2.401-4.159,6.773-6.487,11.264-6.487c2.2,0,4.429,0.56,6.467,1.736c6.198,3.579,8.33,11.534,4.751,17.732
	c-3.579,6.197-11.534,8.328-17.731,4.751C87.244,173.528,85.113,165.572,88.691,159.374z"/>
<path d="M85.942,321.878c-6.472,3.736-11.103,9.771-13.038,16.99c-1.934,7.219-0.941,14.761,2.795,21.232
	c3.737,6.473,9.77,11.104,16.99,13.038c2.411,0.646,4.856,0.965,7.287,0.965c4.848,0,9.634-1.271,13.946-3.761
	c13.362-7.714,17.956-24.86,10.242-38.223C116.45,318.759,99.304,314.164,85.942,321.878z M106.423,357.351
	c-3.002,1.732-6.5,2.195-9.849,1.297c-3.349-0.897-6.148-3.045-7.881-6.048c-1.733-3.003-2.194-6.5-1.297-9.849
	c0.897-3.35,3.045-6.148,6.048-7.882c2.039-1.177,4.267-1.736,6.468-1.736c4.489,0,8.861,2.328,11.264,6.487
	C114.752,345.819,112.62,353.773,106.423,357.351z"/>
<path d="M256.03,408.252c-15.429,0-27.98,12.553-27.98,27.98c0,15.428,12.553,27.98,27.98,27.98s27.98-12.553,27.98-27.98
	C284.011,420.805,271.458,408.252,256.03,408.252z M256.03,449.213c-7.157,0-12.98-5.822-12.98-12.98
	c0-7.157,5.823-12.98,12.98-12.98c7.157,0,12.98,5.822,12.98,12.98C269.01,443.391,263.188,449.213,256.03,449.213z"/>
<path d="M398.136,370.342c4.312,2.489,9.097,3.761,13.946,3.761c2.43,0,4.877-0.319,7.287-0.965
	c7.219-1.935,13.254-6.564,16.99-13.038c3.737-6.472,4.729-14.014,2.795-21.232c-1.934-7.218-6.563-13.254-13.037-16.99
	c-13.358-7.714-30.509-3.119-38.224,10.242C380.18,345.482,384.776,362.628,398.136,370.342z M400.885,339.621
	c3.579-6.197,11.532-8.328,17.732-4.751c3.002,1.733,5.15,4.532,6.048,7.882c0.896,3.349,0.437,6.847-1.297,9.849
	c-1.733,3.003-4.532,5.15-7.882,6.048c-3.348,0.897-6.847,0.437-9.85-1.297C399.438,353.773,397.307,345.819,400.885,339.621z"/>
<path d="M436.36,151.873c-7.714-13.361-24.86-17.954-38.225-10.241c-13.36,7.715-17.954,24.862-10.24,38.224
	c5.177,8.966,14.602,13.985,24.279,13.985c4.744,0,9.549-1.206,13.944-3.743C439.479,182.383,444.074,165.236,436.36,151.873z
	 M418.618,177.107c-6.199,3.575-14.153,1.447-17.732-4.751c-3.578-6.198-1.446-14.153,4.751-17.732
	c2.039-1.177,4.268-1.736,6.469-1.736c4.489,0,8.861,2.328,11.264,6.487C426.948,165.572,424.816,173.527,418.618,177.107z"/>
<g>
</g>
<g>
</g>
<g>
</g>
<g>
</g>
<g>
</g>
<g>
</g>
<g>
</g>
<g>
</g>
<g>
</g>
<g>
</g>
<g>
</g>
<g>
</g>
<g>
</g>
<g>
</g>
<g>
</g>
</svg>
