<?xml version="1.0" encoding="iso-8859-1"?>
<!-- Generator: Adobe Illustrator 19.0.0, SVG Export Plug-In . SVG Version: 6.00 Build 0)  -->
<svg version="1.1" id="Capa_1" xmlns="http://www.w3.org/2000/svg" xmlns:xlink="http://www.w3.org/1999/xlink" x="0px" y="0px"
	 viewBox="0 0 512 512" style="enable-background:new 0 0 512 512;" xml:space="preserve">
<path style="fill:#B77344;" d="M491.435,217.803H255.87v241.273h201.406c18.866,0,34.158-15.294,34.158-34.158L491.435,217.803
	L491.435,217.803z"/>
<g>
	<rect x="255.869" y="217.798" style="fill:#A5663C;" width="158.096" height="241.268"/>
	<rect x="255.869" y="346.053" style="fill:#A5663C;" width="235.568" height="52.935"/>
</g>
<rect x="255.869" y="346.053" style="fill:#915B36;" width="158.096" height="52.935"/>
<rect x="255.869" y="239.869" style="fill:#A5663C;" width="235.568" height="52.935"/>
<rect x="255.869" y="239.869" style="fill:#915B36;" width="158.096" height="52.935"/>
<path style="fill:#73B7DD;" d="M432.793,364.835h-37.651c-10.647,0-19.279-8.631-19.279-19.279v-55.685
	c0-10.647,8.631-19.279,19.279-19.279h37.651c10.647,0,19.279,8.631,19.279,19.279v55.685
	C452.071,356.204,443.44,364.835,432.793,364.835z"/>
<path style="fill:#5E9CD3;" d="M413.968,270.594h-18.826c-10.647,0-19.279,8.631-19.279,19.279v55.685
	c0,10.647,8.631,19.279,19.279,19.279h18.826V270.594z"/>
<path style="fill:#CAE7FC;" d="M408.116,52.929H187.502l78.28,72.06l-0.002,0.003h142.337c15.038,0,27.341-12.303,27.341-27.341
	V80.27C435.457,65.233,423.153,52.929,408.116,52.929z"/>
<path style="fill:#B3DBF4;" d="M384.906,97.651V80.27c0-15.038-12.303-27.341-27.341-27.341H187.502l78.28,72.06l-0.002,0.003
	h91.785C372.603,124.992,384.906,112.688,384.906,97.651z"/>
<path style="fill:#D3874F;" d="M336.5,459.078H72.662c-18.866,0-34.158-15.294-34.158-34.158V205.736L187.502,86.364L336.5,205.736
	L336.5,459.078L336.5,459.078z"/>
<g>
	<rect x="38.503" y="346.053" style="fill:#B77344;" width="298" height="52.935"/>
	<rect x="38.503" y="239.869" style="fill:#B77344;" width="298" height="52.935"/>
	<polygon style="fill:#B77344;" points="62.353,186.628 312.651,186.628 246.579,133.693 128.425,133.693 	"/>
</g>
<path style="fill:#915B36;" d="M237.229,459.078h-99.454V291.165c0-11.361,9.21-20.571,20.571-20.571h58.313
	c11.361,0,20.571,9.21,20.571,20.571L237.229,459.078L237.229,459.078z"/>
<path style="fill:#774B2D;" d="M216.658,270.594h-58.313c-11.361,0-20.571,9.209-20.571,20.571v81.763h99.454v-81.763
	C237.229,279.803,228.02,270.594,216.658,270.594z"/>
<g>
	<path style="fill:#94CBED;" d="M92.64,365.66h-9.368c-8.843,0-16.013-7.169-16.013-16.013v-63.041
		c0-8.843,7.169-16.013,16.013-16.013h9.368c8.843,0,16.013,7.169,16.013,16.013v63.041
		C108.652,358.491,101.483,365.66,92.64,365.66z"/>
	<path style="fill:#94CBED;" d="M291.732,365.66h-9.368c-8.843,0-16.013-7.169-16.013-16.013v-63.041
		c0-8.843,7.169-16.013,16.013-16.013h9.368c8.843,0,16.013,7.169,16.013,16.013v63.041
		C307.744,358.491,300.575,365.66,291.732,365.66z"/>
</g>
<path style="fill:#CAE7FC;" d="M211.563,372.928H163.44v-62.833c0-7.228,5.86-13.088,13.088-13.088h21.947
	c7.228,0,13.088,5.86,13.088,13.088L211.563,372.928L211.563,372.928z"/>
<path style="fill:#F4A651;" d="M446.767,111.317H248.214l56.219,72.06l-0.002,0.003h142.337c15.038,0,27.341-12.303,27.341-27.341
	v-17.381C474.108,123.621,461.805,111.317,446.767,111.317z"/>
<g>
	<path style="fill:#EF943A;" d="M417.475,156.039v-17.381c0-15.038-12.303-27.341-27.341-27.341h-141.92l56.219,72.06l-0.002,0.003
		h85.703C405.172,183.38,417.475,171.076,417.475,156.039z"/>
	<path style="fill:#EF943A;" d="M477.159,169.704H278.605l56.219,72.06l-0.002,0.003h142.337c15.038,0,27.341-12.303,27.341-27.341
		v-17.381C504.5,182.008,492.197,169.704,477.159,169.704z"/>
</g>
<path style="fill:#E28027;" d="M447.866,214.426v-17.381c0-15.038-12.303-27.341-27.341-27.341h-141.92l56.219,72.06l-0.002,0.003
	h85.703C435.563,241.767,447.866,229.464,447.866,214.426z"/>
<path style="fill:#FFB864;" d="M334.824,241.764c-7.406,0-14.854-2.504-20.974-7.632L187.501,128.247L61.153,234.132
	c-13.83,11.594-34.442,9.779-46.038-4.058c-11.592-13.832-9.775-34.444,4.057-46.037L166.511,60.562
	c12.143-10.175,29.837-10.177,41.98,0l147.339,123.475c13.832,11.592,15.65,32.204,4.057,46.037
	C353.424,237.788,344.157,241.764,334.824,241.764z"/>
<path style="fill:#F4A651;" d="M187.503,128.247l126.349,105.885c6.12,5.128,13.567,7.632,20.974,7.632
	c8.825,0,17.589-3.561,23.982-10.47c-0.923-0.993-150.314-126.315-150.314-126.315c-12.143-10.177-29.837-10.175-41.98,0
	c0,0-149.393,125.324-150.317,126.318c11.759,12.71,31.547,14.077,44.959,2.834L187.503,128.247z"/>
<path style="fill:#B3DBF4;" d="M446.767,111.317H248.214l23.595,30.243l29.775-2.983c0,0,30.371,8.772,93.332,8.772
	s79.193-8.69,79.193-8.69C474.108,123.621,461.805,111.317,446.767,111.317z"/>
<path style="fill:#94CBED;" d="M417.475,138.657c0-15.038-12.303-27.341-27.341-27.341h-141.92l23.595,30.243l29.775-2.983
	c0,0,24.414,7.041,74.796,8.503v30.997c0,8.345,6.828,15.173,15.173,15.173c8.344,0,15.173-6.828,15.173-15.173V147.24
	c3.776-0.071,7.356-0.175,10.749-0.307v-8.275H417.475z"/>
<path style="fill:#CAE7FC;" d="M208.492,60.562c-12.143-10.177-29.837-10.175-41.98,0L54.159,154.717l0,0
	c0,0,34.638,56.386,101.642,0.096l31.7-26.566l31.664,26.536c67.025,56.34,101.676-0.06,101.679-0.065L208.492,60.562z"/>
<path style="fill:#B3DBF4;" d="M208.492,104.979c-12.143-10.177-29.837-10.175-41.98,0l-85.258,71.45
	c17.035,6.493,42.005,5.771,74.658-21.708l27.989-23.456v51.317c0,8.345,6.828,15.173,15.173,15.173l0,0
	c8.345,0,15.173-6.828,15.173-15.173v-31.921l4.971,4.165c32.59,27.373,57.52,28.087,74.533,21.602L208.492,104.979z"/>
<path d="M480.996,162.42c0.744-7.989,0.613-23.762,0.613-23.762c0-19.212-15.63-34.841-34.841-34.841h-4.382
	c0.365-2.023,0.572-4.081,0.572-6.165V80.27c0-19.212-15.63-34.841-34.841-34.841H188.221c-9.404-0.168-18.855,2.954-26.528,9.384
	l-39.844,33.392c-3.175,2.66-3.591,7.391-0.931,10.565c2.66,3.176,7.392,3.591,10.565,0.931l39.843-33.391
	c4.686-3.928,10.43-5.891,16.174-5.891v0.01h0.245c5.661,0.055,11.308,2.009,15.928,5.88l93.172,78.082
	c0.008,0.006,0.015,0.013,0.023,0.019l13.612,11.407c-4.965,5.496-14.495,13.788-28.188,15.946
	c-17.456,2.755-37.047-4.877-58.232-22.664l-4.995-4.186c-4.611-3.429-12.319-2.11-12.319,5.747v31.921
	c0,4.23-3.442,7.672-7.672,7.672c-4.23,0-7.672-3.441-7.672-7.672v-51.317c0-7.956-7.609-9.58-12.318-5.749l-28.167,23.605
	c-21.177,17.774-40.758,25.395-58.212,22.641c-13.69-2.158-23.218-10.448-28.182-15.944l42.648-35.74
	c3.175-2.66,3.591-7.391,0.931-10.565c-2.661-3.176-7.393-3.593-10.566-0.931l-83.18,69.707
	c-16.98,14.23-19.218,39.621-4.988,56.603c5.66,6.754,13.201,11.362,21.636,13.318v176.708c0,22.972,18.689,41.659,41.659,41.659
	h263.838h120.777c22.971,0,41.659-18.689,41.659-41.659V241.595c7.957-6.391,13.064-16.193,13.064-27.169v-17.381
	C512,179.131,498.408,164.336,480.996,162.42z M497,197.045v17.381c0,10.94-8.9,19.842-19.841,19.842H366.134
	c25.418-29.732-6.78-57.063-6.78-57.063h9.525c0,0-1.111,23.546,22.673,23.546c23.784,0,22.673-23.546,22.673-23.546h62.933
	C488.1,177.205,497,186.105,497,197.045z M368.879,162.204h-27.425l-13.367-11.202c10.581,1.361,24.151,2.635,40.792,3.321
	L368.879,162.204L368.879,162.204z M465.609,162.204h-51.383v-7.655c26.786-0.858,43.035-3.429,52.383-5.662
	C466.609,148.887,467.24,157.721,465.609,162.204z M465.922,133.567c-7.549,2.08-25.033,5.532-59.336,6.174
	c-0.061,0.001-7.36-0.276-7.36,7.499v30.837c0,4.23-3.442,7.672-7.672,7.672s-7.672-3.441-7.672-7.672v-30.997
	c0-7.615-7.505-7.5-7.508-7.5c-41.81-1.229-65.434-6.403-71.268-7.839l-15.421-12.923h157.085
	C455.945,118.818,463.666,125.091,465.922,133.567z M408.116,60.43c10.94,0,19.841,8.9,19.841,19.841v17.382
	c0,2.114-0.347,4.188-1,6.165H271.783L220.01,60.43C220.01,60.43,408.116,60.43,408.116,60.43z M321.994,165.466l29.019,24.319
	c10.641,8.917,12.043,24.83,3.126,35.471c-4.797,5.724-20.377,14.436-35.471,3.127l-49.348-41.355
	C271.278,187.21,303.346,189.524,321.994,165.466z M20.864,225.256c-8.917-10.641-7.515-26.553,3.125-35.471l29.016-24.317
	c22.015,27.064,50.718,21.73,52.692,21.546l-49.365,41.369C41.438,240.105,25.185,230.414,20.864,225.256z M229.729,365.427h-10.665
	v-55.333c0-11.353-9.236-20.589-20.589-20.589h-21.947c-11.352,0-20.589,9.235-20.589,20.589v55.333h-10.665v-74.264
	c0-7.206,5.863-13.069,13.07-13.069h58.313c7.207,0,13.07,5.863,13.07,13.069L229.729,365.427L229.729,365.427z M204.063,365.427
	h-33.123v-55.333c0-3.081,2.507-5.588,5.588-5.588h21.947c3.081,0,5.588,2.507,5.588,5.588L204.063,365.427L204.063,365.427z
	 M145.275,380.428h84.455v71.148h-84.455L145.275,380.428L145.275,380.428z M483.935,424.918c0,14.7-11.958,26.659-26.659,26.659
	H336.5h-91.771V291.165c0-15.479-12.592-28.07-28.071-28.07h-58.313c-15.479,0-28.071,12.592-28.071,28.07v160.413H72.662
	c-14.7,0-26.659-11.959-26.659-26.659V248.847c7.295-1.058,14.176-4.112,19.967-8.967l110.43-92.545v35.246
	c0,12.501,10.171,22.673,22.673,22.673s22.673-10.171,22.673-22.673V166.73l87.287,73.151c5.719,4.792,12.655,7.87,19.967,8.947
	v178.273c0,4.143,3.358,7.5,7.5,7.5c4.142,0,7.5-3.357,7.5-7.5V249.267h133.159c2.318,0,4.583-0.233,6.775-0.667v176.318H483.935z"
	/>
<path d="M432.794,263.094h-37.651c-14.766,0-26.779,12.013-26.779,26.778v55.685c0,14.767,12.013,26.779,26.779,26.779h37.651
	c14.766,0,26.778-12.013,26.778-26.779v-55.685C459.572,275.107,447.559,263.094,432.794,263.094z M444.571,345.557
	c0,6.494-5.283,11.778-11.777,11.778h-37.651c-6.494,0-11.778-5.284-11.778-11.778v-55.685c0-6.494,5.284-11.777,11.778-11.777
	h37.651c6.494,0,11.777,5.283,11.777,11.777V345.557z"/>
<path d="M92.64,263.094h-9.368c-12.964,0-23.513,10.547-23.513,23.513v63.041c0,12.965,10.547,23.513,23.513,23.513h9.368
	c12.965,0,23.513-10.547,23.513-23.513v-63.041C116.153,273.641,105.605,263.094,92.64,263.094z M101.152,349.648
	c0,4.693-3.818,8.512-8.512,8.512h-9.368c-4.693,0-8.512-3.818-8.512-8.512v-63.041c0-4.693,3.818-8.512,8.512-8.512h9.368
	c4.694,0,8.512,3.818,8.512,8.512V349.648z"/>
<path d="M291.732,263.094h-9.368c-12.964,0-23.513,10.547-23.513,23.513v63.041c0,12.965,10.547,23.513,23.513,23.513h9.368
	c12.964,0,23.513-10.547,23.513-23.513v-63.041C315.245,273.641,304.696,263.094,291.732,263.094z M300.244,349.648
	c0,4.693-3.818,8.512-8.512,8.512h-9.368c-4.693,0-8.512-3.818-8.512-8.512v-63.041c0-4.693,3.818-8.512,8.512-8.512h9.368
	c4.693,0,8.512,3.818,8.512,8.512V349.648z"/>
<circle cx="211.568" cy="406.145" r="7.586"/>
<g>
</g>
<g>
</g>
<g>
</g>
<g>
</g>
<g>
</g>
<g>
</g>
<g>
</g>
<g>
</g>
<g>
</g>
<g>
</g>
<g>
</g>
<g>
</g>
<g>
</g>
<g>
</g>
<g>
</g>
</svg>
