<?xml version="1.0" encoding="iso-8859-1"?>
<!-- Generator: Adobe Illustrator 19.0.0, SVG Export Plug-In . SVG Version: 6.00 Build 0)  -->
<svg version="1.1" id="Capa_1" xmlns="http://www.w3.org/2000/svg" xmlns:xlink="http://www.w3.org/1999/xlink" x="0px" y="0px"
	 viewBox="0 0 512 512" style="enable-background:new 0 0 512 512;" xml:space="preserve">
<g>
	<path style="fill:#C93939;" d="M419.471,212.16c0,0,52.721,25.685,84.045,100.295c3.503,8.343-2.783,17.508-11.824,17.146
		l-20.564-0.823l-3.945,14.934c-2.68,10.147-16.01,12.517-22.009,3.907c-16.027-23-42.408-57.468-66.624-73.627
		C377.207,273.209,419.471,212.16,419.471,212.16z"/>
	<path style="fill:#C93939;" d="M92.529,212.16c0,0-52.721,25.685-84.045,100.295c-3.503,8.343,2.783,17.508,11.824,17.146
		l20.564-0.823l3.945,14.934c2.68,10.147,16.01,12.517,22.009,3.907c16.027-23,42.408-57.468,66.624-73.627
		C134.793,273.209,92.529,212.16,92.529,212.16z"/>
</g>
<g>
	<path style="fill:#AF3333;" d="M42.005,255.951c2.995,25.341,10.343,57.974,27.699,87.576
		c16.189-22.827,40.927-54.308,63.747-69.535c1.342-0.783-40.922-61.831-40.922-61.831S67.705,224.256,42.005,255.951z"/>
	<path style="fill:#AF3333;" d="M469.995,255.951c-2.995,25.341-10.343,57.974-27.699,87.576
		c-16.189-22.827-40.927-54.308-63.747-69.535c-1.342-0.783,40.922-61.831,40.922-61.831S444.295,224.256,469.995,255.951z"/>
</g>
<path style="fill:#C93939;" d="M379.583,90.016c-7.492-29.819-42.573-46.703-78.355-37.713
	c-19.916,5.004-35.842,16.973-44.766,31.742c-8.925-14.769-24.85-26.738-44.767-31.742c-35.782-8.99-70.863,7.894-78.355,37.713
	c-7.492,29.819,15.442,61.279,51.224,70.27c29.434,7.395,58.378-2.727,71.897-23.144c13.519,20.417,42.463,30.54,71.897,23.144
	C364.141,151.295,387.075,119.835,379.583,90.016z"/>
<g>
	<path style="fill:#AF3333;" d="M322.423,121.534c0-27.683-17.087-51.386-41.262-61.17c-10.55,6.055-19.028,14.298-24.699,23.681
		c-5.67-9.383-14.149-17.626-24.699-23.681c-24.175,9.784-41.262,33.487-41.262,61.17c0,15.576,5.404,29.873,14.433,41.158
		c21.749-0.309,41.17-9.909,51.528-25.551c10.358,15.642,29.784,25.242,51.533,25.551
		C317.023,151.407,322.423,137.11,322.423,121.534z"/>
	<path style="fill:#AF3333;" d="M304.276,89.116c12.914-5.589,27.914,0.35,33.503,13.264s-0.35,27.914-13.264,33.503
		c-12.914,5.589-45.207,7.134-50.795-5.781S291.362,94.705,304.276,89.116z"/>
	<path style="fill:#AF3333;" d="M208.646,89.116c-12.914-5.589-27.914,0.35-33.503,13.264c-5.589,12.914,0.35,27.914,13.264,33.503
		s45.207,7.134,50.795-5.781C244.791,117.188,221.56,94.705,208.646,89.116z"/>
</g>
<g>
	<path style="fill:#933232;" d="M208.646,89.116c-2.757-1.193-5.609-1.856-8.444-2.043c-6.151,10.026-9.703,21.818-9.703,34.442
		c0,5.446,0.673,10.733,1.918,15.796c14.607,4.323,41.709,4.522,46.785-7.208C244.791,117.188,221.56,94.705,208.646,89.116z"/>
	<path style="fill:#933232;" d="M304.276,89.116c2.757-1.193,5.609-1.856,8.444-2.043c6.151,10.026,9.703,21.818,9.703,34.442
		c0,5.446-0.673,10.733-1.918,15.796c-14.607,4.323-41.709,4.522-46.785-7.208C268.131,117.188,291.362,94.705,304.276,89.116z"/>
</g>
<circle style="fill:#F44242;" cx="256.461" cy="121.519" r="37.47"/>
<path style="fill:#E04141;" d="M256.461,121.515c0-13.867,7.538-25.978,18.735-32.457c-5.513-3.19-11.908-5.013-18.735-5.013
	c-20.694,0-37.47,16.776-37.47,37.47s16.776,37.47,37.47,37.47c6.827,0,13.236-1.831,18.749-5.021
	C264.013,147.484,256.461,135.381,256.461,121.515z"/>
<path style="fill:#4DB5A6;" d="M365.609,462.121H146.391c-27.832,0-50.395-22.563-50.395-50.395V181.069h320.009v230.655
	C416.004,439.558,393.441,462.121,365.609,462.121z"/>
<rect x="96.001" y="181.069" style="fill:#3DA094;" width="320.012" height="131.541"/>
<path style="fill:#71D8C5;" d="M417.013,248.549H94.987c-22.31,0-40.397-18.086-40.397-40.397v-42.525
	c0-22.31,18.086-40.397,40.397-40.397h322.026c22.31,0,40.397,18.086,40.397,40.397v42.525
	C457.41,230.463,439.324,248.549,417.013,248.549z"/>
<rect x="202.431" y="125.229" style="fill:#FF737D;" width="107.131" height="336.892"/>
<rect x="202.431" y="248.549" style="fill:#F44242;" width="107.131" height="213.571"/>
<rect x="202.431" y="248.549" style="fill:#C93939;" width="107.131" height="64.06"/>
<path d="M510.432,309.552c-15.424-36.739-36.002-61.833-52.021-77.353c4.124-7.073,6.5-15.285,6.5-24.046v-42.524
	c0-26.41-21.486-47.896-47.896-47.896h-70.082c0.981-6.138,0.247-12.519-2.267-18.33c-7.223-16.689-26.677-24.391-43.365-17.168
	c-3.865,1.672-8.261,4.441-12.651,7.919c-5.125-5.258-11.517-9.273-18.685-11.534c8.438-9.019,20.009-15.754,33.094-19.041
	c15.608-3.921,31.485-2.576,44.706,3.787c12.758,6.141,21.476,16.255,24.547,28.479c0.312,1.243,0.999,12.209,9.285,10.078
	c8.228-2.116,5.693-12.019,5.263-13.732c-4.175-16.619-15.749-30.235-32.589-38.341c-16.377-7.881-35.862-9.593-54.867-4.818
	c-17.204,4.322-32.354,13.652-42.939,26.202c-10.584-12.55-25.734-21.88-42.938-26.202c-19.005-4.777-38.49-3.063-54.867,4.818
	c-16.84,8.105-28.414,21.722-32.589,38.341c-2.436,9.696-2.149,19.764,0.767,29.543H94.987c-26.41,0-47.896,21.486-47.896,47.896
	v42.524c0,8.761,2.376,16.974,6.5,24.047c-15.978,15.479-36.582,40.576-52.022,77.352c-2.652,6.317-1.908,13.441,1.99,19.058
	c3.877,5.586,10.244,8.745,17.049,8.486l14.55-0.582l2.408,9.114c1.996,7.557,8.017,13.097,15.712,14.459
	c1.189,0.21,11.97,1.945,19.702-8.18c5.531-7.242,10.395-14.552,15.516-21.201v81.019c0,31.924,25.972,57.896,57.895,57.896h219.218
	c31.923,0,57.895-25.972,57.895-57.896v-81.018c5.119,6.647,10.391,13.664,15.516,21.201c6.647,9.776,18.513,8.39,19.702,8.18
	c7.695-1.362,13.716-6.902,15.712-14.459l2.408-9.114l14.55,0.582c6.807,0.272,13.173-2.899,17.049-8.486
	C512.34,322.993,513.084,315.869,510.432,309.552z M449.91,165.628v42.524c0,18.14-14.757,32.896-32.896,32.896h-99.95V132.731
	h99.95C435.152,132.731,449.91,147.488,449.91,165.628z M181.319,117.731c-1.242-4.038-1.021-8.38,0.707-12.373
	c3.938-9.098,14.543-13.297,23.642-9.358c2.803,1.212,6.426,3.583,10.042,6.525c-2.193,4.688-3.597,9.813-4.049,15.207
	L181.319,117.731L181.319,117.731z M302.063,132.731v108.319h-92.134V132.731H302.063z M307.255,95.999
	c9.101-3.938,19.704,0.262,23.642,9.359c1.727,3.992,1.948,8.335,0.707,12.373h-30.343c-0.452-5.393-1.855-10.518-4.048-15.205
	C300.814,99.595,304.412,97.23,307.255,95.999z M286.184,117.731h-59.446c1.867-14.745,14.479-26.187,29.723-26.187
	C271.705,91.545,284.318,102.987,286.184,117.731z M140.613,91.843c3.071-12.224,11.789-22.338,24.547-28.479
	c13.222-6.363,29.1-7.711,44.707-3.787c13.085,3.287,24.656,10.022,33.094,19.041c-7.17,2.261-13.564,6.278-18.69,11.539
	c-4.417-3.499-8.8-6.26-12.646-7.924c-16.687-7.224-36.143,0.479-43.365,17.168c-2.515,5.811-3.249,12.192-2.268,18.33h-23.276
	C139.227,109.189,138.492,100.285,140.613,91.843z M60.672,343.331c-1.585,2.274-3.873,2.144-4.781,1.985
	c-0.913-0.162-3.113-0.828-3.823-3.519l-3.945-14.934c-0.898-3.401-4.054-5.726-7.551-5.579l-20.565,0.822
	c-2.375,0.084-3.676-1.402-4.126-2.05c-0.46-0.663-1.427-2.447-0.482-4.699c14.19-33.8,32.949-56.996,47.714-71.493
	c6.948,6.208,15.71,10.416,25.382,11.733v51.149C79.437,317.53,70.078,329.833,60.672,343.331z M103.496,411.724V256.049h22.012
	c4.142,0,7.5-3.357,7.5-7.5c0-4.143-3.358-7.5-7.5-7.5H94.987c-18.139,0-32.896-14.757-32.896-32.896v-42.524
	c0-18.14,14.757-32.896,32.896-32.896h99.943v108.317h-36.974c-4.142,0-7.5,3.357-7.5,7.5c0,4.143,3.358,7.5,7.5,7.5h36.974v198.571
	h-48.538C122.739,454.621,103.496,435.378,103.496,411.724z M365.609,454.621H209.93V256.049h92.134v172.89
	c0,4.143,3.358,7.5,7.5,7.5s7.5-3.357,7.5-7.5v-172.89h91.441v155.676C408.504,435.378,389.261,454.621,365.609,454.621z
	 M496.119,320.057c-0.45,0.647-1.767,2.149-4.126,2.05l-20.564-0.822c-3.512-0.144-6.653,2.18-7.551,5.579l-3.945,14.934
	c-0.71,2.69-2.91,3.356-3.823,3.519c-0.91,0.159-3.196,0.289-4.781-1.985c-9.412-13.505-18.77-25.808-27.823-36.583v-51.15
	c9.672-1.317,18.434-5.525,25.381-11.732c14.802,14.532,33.537,37.721,47.715,71.493
	C497.546,317.61,496.579,319.394,496.119,320.057z"/>
<g>
</g>
<g>
</g>
<g>
</g>
<g>
</g>
<g>
</g>
<g>
</g>
<g>
</g>
<g>
</g>
<g>
</g>
<g>
</g>
<g>
</g>
<g>
</g>
<g>
</g>
<g>
</g>
<g>
</g>
</svg>
