<?xml version="1.0" encoding="iso-8859-1"?>
<!-- Generator: Adobe Illustrator 19.0.0, SVG Export Plug-In . SVG Version: 6.00 Build 0)  -->
<svg version="1.1" id="Capa_1" xmlns="http://www.w3.org/2000/svg" xmlns:xlink="http://www.w3.org/1999/xlink" x="0px" y="0px"
	 viewBox="0 0 512 512" style="enable-background:new 0 0 512 512;" xml:space="preserve">
<path style="fill:#B3DBF4;" d="M406.406,264.719c4.555,0,10.831,0.844,14.863,4.863c5.465,5.448,5.221,14.901,4.589,20.051
	c-1.638,13.345-9.164,27.605-20.646,39.125c-13.175,13.218-29.719,21.108-44.255,21.108c-4.557,0-10.837-0.844-14.869-4.863
	c-5.465-5.448-5.221-14.901-4.589-20.051c1.638-13.345,9.164-27.605,20.646-39.125c13.174-13.217,29.719-21.108,44.255-21.108
	H406.406 M406.406,214.719c-0.002,0-0.003,0-0.006,0c-26.753,0.001-56.24,12.307-79.667,35.809
	c-40.256,40.384-47.395,98.536-15.945,129.886c13.147,13.105,30.951,19.451,50.168,19.451c26.753,0,56.24-12.307,79.667-35.81
	c40.256-40.384,47.395-98.536,15.945-129.886C443.422,221.067,425.62,214.719,406.406,214.719L406.406,214.719z"/>
<path style="fill:#94CBED;" d="M450.671,292.678c2.051-16.711-2.123-31.201-11.753-40.801c-7.978-7.953-19.221-12.157-32.513-12.157
	h-0.006c-21.35,0-43.934,10.373-61.96,28.459c-15.337,15.384-25.453,34.968-27.755,53.725c-2.054,16.713,2.12,31.205,11.753,40.806
	c7.978,7.953,19.223,12.157,32.518,12.157c21.349,0,43.933-10.373,61.962-28.459C438.251,331.023,448.368,311.44,450.671,292.678z
	 M360.956,349.866c-4.558,0-10.837-0.844-14.869-4.863c-5.465-5.448-5.221-14.901-4.589-20.051
	c1.638-13.345,9.164-27.605,20.646-39.125c13.174-13.217,29.719-21.108,44.256-21.108h0.006c4.555,0,10.831,0.844,14.863,4.863
	c5.465,5.448,5.221,14.901,4.589,20.051c-1.638,13.345-9.164,27.605-20.646,39.125C392.036,341.975,375.492,349.866,360.956,349.866
	z"/>
<path style="fill:#B3DBF4;" d="M292.707,440.768H118.688c0,0-9.346,5.961-18.511,17.074c-15.329,18.586-1.903,46.658,22.188,46.658
	H289.03c24.092,0,37.518-28.072,22.188-46.658C302.053,446.73,292.707,440.768,292.707,440.768z"/>
<path style="fill:#94CBED;" d="M118.688,440.768c0,0-9.346,5.961-18.511,17.074c-15.329,18.586-1.904,46.658,22.188,46.658H236.91
	c-7.045-23.309,9.536-35.871,9.536-35.871l0.165-27.861H118.688z"/>
<path style="fill:#CAE7FC;" d="M35.818,141.679V301.5c0,94.396,77.233,171.628,171.628,171.628l0,0
	c94.396,0,171.628-77.233,171.628-171.628V141.679c0-21.882-17.739-39.621-39.621-39.621H75.439
	C53.557,102.058,35.818,119.797,35.818,141.679z"/>
<path style="fill:#B3DBF4;" d="M196.753,102.058H75.439c-21.882,0-39.621,17.739-39.621,39.62V301.5
	c0,94.396,77.233,171.628,171.628,171.628l0,0c13.402,0,26.456-1.561,38.994-4.502c-54.365-30.903-91.318-89.36-91.318-156.039
	v-168.9C155.123,120.697,173.761,102.058,196.753,102.058z"/>
<path style="fill:#E86752;" d="M35.818,178.819V301.5c0,94.396,77.233,171.628,171.628,171.628l0,0
	c94.396,0,171.628-77.233,171.628-171.628V178.819H35.818z"/>
<g>
	<path style="fill:#DB543E;" d="M35.818,178.819V301.5c0,94.396,77.233,171.628,171.628,171.628l0,0
		c13.402,0,26.456-1.561,38.994-4.502c-54.365-30.903-91.318-89.36-91.318-156.039V178.819H35.818z"/>
	<path style="fill:#DB543E;" d="M250.535,436.626c-1.475-3.87,0.468-8.204,4.339-9.679c17.707-6.746,33.61-17.092,47.269-30.751
		c6.313-6.313,12-13.221,16.905-20.532c2.308-3.44,6.966-4.357,10.407-2.05c3.439,2.309,4.357,6.968,2.05,10.407
		c-5.447,8.117-11.757,15.782-18.755,22.781c-15.164,15.164-33.034,26.167-52.536,34.162
		C255.033,443.089,251.675,439.618,250.535,436.626z"/>
</g>
<g>
	<path style="fill:#FFFFFF;" d="M99.205,319.58H81.326c-7.075,0-12.864-5.789-12.864-12.864l0,0c0-7.075,5.789-12.864,12.864-12.864
		h17.879c7.075,0,12.864,5.789,12.864,12.864l0,0C112.07,313.791,106.281,319.58,99.205,319.58z"/>
	<path style="fill:#FFFFFF;" d="M333.567,319.58h-17.879c-7.075,0-12.864-5.789-12.864-12.864l0,0
		c0-7.075,5.789-12.864,12.864-12.864h17.879c7.075,0,12.864,5.789,12.864,12.864l0,0
		C346.431,313.791,340.642,319.58,333.567,319.58z"/>
</g>
<g>
	<path style="fill:#FFBCAB;" d="M207.447,84.277L207.447,84.277c-8.087,0-14.703-6.616-14.703-14.703v-47.37
		c0-8.087,6.616-14.703,14.703-14.703l0,0c8.087,0,14.703,6.616,14.703,14.703v47.37C222.15,77.66,215.533,84.277,207.447,84.277z"
		/>
	<path style="fill:#FFBCAB;" d="M148.55,72.496L148.55,72.496c-8.087,0-14.703-6.616-14.703-14.703V33.985
		c0-8.087,6.616-14.703,14.703-14.703l0,0c8.087,0,14.703,6.616,14.703,14.703v23.808C163.254,65.879,156.637,72.496,148.55,72.496z
		"/>
	<path style="fill:#FFBCAB;" d="M266.343,72.496L266.343,72.496c-8.087,0-14.703-6.616-14.703-14.703V33.985
		c0-8.087,6.616-14.703,14.703-14.703l0,0c8.087,0,14.703,6.616,14.703,14.703v23.808C281.046,65.879,274.429,72.496,266.343,72.496
		z"/>
</g>
<path d="M288.103,258.89c-4.143,0-7.5,3.357-7.5,7.5v12.45c0,4.143,3.357,7.5,7.5,7.5s7.5-3.357,7.5-7.5v-12.45
	C295.603,262.247,292.245,258.89,288.103,258.89z"/>
<path d="M126.79,258.89c-4.143,0-7.5,3.357-7.5,7.5v12.45c0,4.143,3.357,7.5,7.5,7.5c4.143,0,7.5-3.357,7.5-7.5v-12.45
	C134.29,262.247,130.933,258.89,126.79,258.89z"/>
<path d="M225.766,272.917c-10.786,8.364-25.852,8.366-36.64,0c-3.272-2.542-7.985-1.944-10.522,1.329
	c-2.539,3.272-1.944,7.984,1.329,10.522c8.1,6.283,17.807,9.425,27.513,9.425c9.707,0,19.414-3.142,27.514-9.425
	c3.273-2.538,3.868-7.25,1.329-10.522C233.751,270.972,229.039,270.378,225.766,272.917z"/>
<path d="M461.863,228.858c-14.201-14.156-33.378-21.639-55.463-21.639c-6.519,0-13.156,0.686-19.825,2.014v-67.555
	c0-25.982-21.138-47.12-47.12-47.12H75.439c-25.982,0-47.121,21.138-47.121,47.12V301.5c0,47.657,18.685,92.588,52.613,126.516
	c6.402,6.402,13.196,12.259,20.325,17.552c-2.189,2.17-4.528,4.668-6.866,7.502c-8.921,10.816-10.736,25.438-4.739,38.158
	C95.692,504.041,108.227,512,122.365,512H289.03c14.138,0,26.673-7.959,32.714-20.771c5.997-12.721,4.182-27.342-4.739-38.158
	c-1.71-2.073-3.523-4.078-5.407-6.023c7.874-5.677,15.357-12.023,22.365-19.031c6.626-6.626,12.662-13.677,18.1-21.081
	c2.925,0.284,38.784,3.798,78.17-23.998c3.384-2.388,4.021-7.166,1.553-10.492c-2.47-3.325-7.165-4.021-10.492-1.553
	c-18.427,13.674-39.549,21.267-59.573,21.456c7.123-11.995,12.785-24.735,16.894-38.002c11.293-3.748,22.479-10.834,31.91-20.294
	c12.639-12.679,20.94-28.536,22.779-43.507c0.799-6.508,0.985-18.576-6.738-26.275c-4.627-4.612-11.598-7.051-20.158-7.051
	c-0.002,0-0.004,0-0.006,0c-6.389,0-13.104,1.296-19.825,3.78v-36.427c6.696-1.554,13.346-2.353,19.831-2.353
	c18.023,0,33.538,5.969,44.867,17.262c12.69,12.65,18.779,30.977,17.145,51.603c-1.675,21.135-11.212,42.774-26.854,60.933
	c-2.703,3.138-2.351,7.873,0.788,10.577c1.416,1.22,6.675,3.673,10.577-0.788c17.86-20.419,28.517-45.249,30.441-69.536
	C485.359,267.186,477.72,244.665,461.863,228.858z M305.432,462.615c5.267,6.385,6.292,14.69,2.743,22.217
	C304.583,492.451,297.426,497,289.03,497H122.365c-8.396,0-15.554-4.549-19.146-12.168c-3.549-7.526-2.523-15.832,2.742-22.217
	c2.776-3.365,5.566-6.202,7.988-8.451c27.912,17.238,60.029,26.465,93.497,26.465c32.615,0,63.95-8.755,91.358-25.154
	C301.15,457.743,303.378,460.123,305.432,462.615z M323.356,417.409c-31.095,31.095-72.259,48.22-115.909,48.22
	s-84.814-17.125-115.909-48.22S43.318,345.15,43.318,301.5V141.679c0-17.711,14.409-32.12,32.121-32.12h264.016
	c17.711,0,32.12,14.409,32.12,32.12v29.641H68.462c-4.143,0-7.5,3.357-7.5,7.5s3.357,7.5,7.5,7.5h303.112V301.5
	C371.575,345.15,354.451,386.314,323.356,417.409z M406.406,272.22c4.376,0,7.863,0.975,9.568,2.674
	c2.308,2.301,3.22,7.469,2.439,13.825c-1.438,11.721-8.188,24.384-18.514,34.744c-5.118,5.134-10.802,9.396-16.669,12.575
	c2.208-11.266,3.344-22.819,3.344-34.538v-24.206C393.399,273.971,400.193,272.22,406.406,272.22z"/>
<path d="M207.447,91.776c12.243,0,22.203-9.96,22.203-22.203V22.204C229.65,9.961,219.69,0,207.447,0s-22.203,9.961-22.203,22.204
	v47.369C185.244,81.816,195.204,91.776,207.447,91.776z M200.244,22.204c0-3.973,3.231-7.204,7.203-7.204s7.203,3.231,7.203,7.204
	v47.369c0,3.972-3.231,7.203-7.203,7.203s-7.203-3.231-7.203-7.203V22.204z"/>
<path d="M148.55,79.995c12.243,0,22.203-9.96,22.203-22.203V33.984c0-12.243-9.96-22.203-22.203-22.203s-22.203,9.96-22.203,22.203
	v23.808C126.347,70.035,136.307,79.995,148.55,79.995z M141.347,33.984c0-3.972,3.231-7.203,7.203-7.203s7.203,3.231,7.203,7.203
	v23.808c0,3.972-3.231,7.203-7.203,7.203s-7.203-3.231-7.203-7.203V33.984z"/>
<path d="M266.342,79.995c12.243,0,22.204-9.96,22.204-22.203V33.984c0-12.243-9.961-22.203-22.204-22.203
	c-12.243,0-22.203,9.96-22.203,22.203v23.808C244.139,70.035,254.099,79.995,266.342,79.995z M259.139,33.984
	c0-3.972,3.231-7.203,7.203-7.203c3.973,0,7.204,3.231,7.204,7.203v23.808c0,3.972-3.231,7.203-7.204,7.203
	c-3.972,0-7.203-3.231-7.203-7.203V33.984z"/>
<g>
</g>
<g>
</g>
<g>
</g>
<g>
</g>
<g>
</g>
<g>
</g>
<g>
</g>
<g>
</g>
<g>
</g>
<g>
</g>
<g>
</g>
<g>
</g>
<g>
</g>
<g>
</g>
<g>
</g>
</svg>
