<?xml version="1.0" encoding="iso-8859-1"?>
<!-- Generator: Adobe Illustrator 19.0.0, SVG Export Plug-In . SVG Version: 6.00 Build 0)  -->
<svg version="1.1" id="Capa_1" xmlns="http://www.w3.org/2000/svg" xmlns:xlink="http://www.w3.org/1999/xlink" x="0px" y="0px"
	 viewBox="0 0 511.999 511.999" style="enable-background:new 0 0 511.999 511.999;" xml:space="preserve">
<path style="fill:#2F7531;" d="M376.536,318.684H135.464V92.195c0-17.532,14.212-31.744,31.744-31.744h177.584
	c17.532,0,31.744,14.212,31.744,31.744L376.536,318.684L376.536,318.684z"/>
<path style="fill:#FFDAAA;" d="M195.844,281.342L195.844,281.342c-11.029,0-20.052-9.023-20.052-20.052V27.553
	c0-11.029,9.023-20.052,20.052-20.052l0,0c11.029,0,20.052,9.023,20.052,20.052V261.29
	C215.896,272.319,206.872,281.342,195.844,281.342z"/>
<path style="fill:#FFB864;" d="M195.843,261.29V27.552c0-7.379,4.05-13.844,10.026-17.325c-2.956-1.722-6.376-2.727-10.026-2.727
	l0,0c-11.029,0-20.052,9.023-20.052,20.052V261.29c0,11.029,9.023,20.052,20.052,20.052l0,0c3.65,0,7.07-1.005,10.026-2.727
	C199.893,275.133,195.843,268.669,195.843,261.29z"/>
<path style="fill:#FF5555;" d="M195.843,7.5c-11.029,0-20.052,9.023-20.052,20.052v44.652c0,11.029,9.023,20.052,20.052,20.052
	s20.052-9.023,20.052-20.052V27.553C215.896,16.524,206.872,7.5,195.843,7.5z"/>
<path style="fill:#E04141;" d="M205.869,10.227c-2.956-1.722-6.376-2.727-10.026-2.727c-11.029,0-20.052,9.023-20.052,20.052v44.652
	c0,11.029,9.023,20.052,20.052,20.052V27.553C195.843,20.174,199.893,13.709,205.869,10.227z"/>
<path style="fill:#EF943A;" d="M235.948,315.741L235.948,315.741c-11.029,0-20.052-9.023-20.052-20.052V61.951
	c0-11.029,9.023-20.052,20.052-20.052l0,0c11.029,0,20.052,9.023,20.052,20.052v233.737
	C256,306.717,246.977,315.741,235.948,315.741z"/>
<path style="fill:#D66E18;" d="M235.948,295.688V61.951c0-7.379,4.05-13.844,10.026-17.325c-2.956-1.722-6.376-2.727-10.026-2.727
	l0,0c-11.029,0-20.052,9.023-20.052,20.052v233.738c0,11.029,9.023,20.052,20.052,20.052l0,0c3.65,0,7.07-1.005,10.026-2.727
	C239.998,309.532,235.948,303.067,235.948,295.688z"/>
<path style="fill:#E04141;" d="M235.948,41.899c-11.029,0-20.052,9.023-20.052,20.052v44.652c0,11.029,9.023,20.052,20.052,20.052
	S256,117.631,256,106.603V61.951C256,50.922,246.977,41.899,235.948,41.899z"/>
<path style="fill:#C93939;" d="M245.974,44.626c-2.956-1.722-6.376-2.727-10.026-2.727c-11.029,0-20.052,9.023-20.052,20.052v44.652
	c0,11.029,9.023,20.052,20.052,20.052V61.951C235.948,54.572,239.997,48.107,245.974,44.626z"/>
<path style="fill:#FFDAAA;" d="M276.052,341.674L276.052,341.674c-11.029,0-20.052-9.023-20.052-20.052V87.885
	c0-11.029,9.023-20.052,20.052-20.052l0,0c11.029,0,20.052,9.023,20.052,20.052v233.737
	C296.104,332.651,287.081,341.674,276.052,341.674z"/>
<path style="fill:#FFB864;" d="M276.052,321.622V87.884c0-7.379,4.05-13.844,10.026-17.325c-2.956-1.722-6.376-2.727-10.026-2.727
	l0,0c-11.029,0-20.052,9.023-20.052,20.052v233.738c0,11.029,9.023,20.052,20.052,20.052l0,0c3.65,0,7.07-1.005,10.026-2.727
	C280.102,335.466,276.052,329.001,276.052,321.622z"/>
<path style="fill:#FF5555;" d="M276.052,67.832c-11.029,0-20.052,9.023-20.052,20.052v44.652c0,11.029,9.023,20.052,20.052,20.052
	s20.052-9.023,20.052-20.052V87.885C296.104,76.856,287.081,67.832,276.052,67.832z"/>
<path style="fill:#E04141;" d="M286.078,70.559c-2.956-1.722-6.376-2.727-10.026-2.727c-11.029,0-20.052,9.023-20.052,20.052v44.652
	c0,11.029,9.023,20.052,20.052,20.052V87.885C276.052,80.506,280.102,74.041,286.078,70.559z"/>
<path style="fill:#EF943A;" d="M316.157,370.268L316.157,370.268c-11.029,0-20.052-9.023-20.052-20.052V116.478
	c0-11.029,9.023-20.052,20.052-20.052l0,0c11.029,0,20.052,9.023,20.052,20.052v233.737
	C336.209,361.244,327.185,370.268,316.157,370.268z"/>
<path style="fill:#D66E18;" d="M316.156,350.216V116.478c0-7.379,4.05-13.844,10.026-17.325c-2.956-1.722-6.376-2.727-10.026-2.727
	l0,0c-11.029,0-20.052,9.023-20.052,20.052v233.738c0,11.029,9.023,20.052,20.052,20.052l0,0c3.65,0,7.07-1.005,10.026-2.727
	C320.206,364.059,316.156,357.594,316.156,350.216z"/>
<path style="fill:#E04141;" d="M316.156,96.426c-11.029,0-20.052,9.023-20.052,20.052v44.652c0,11.029,9.023,20.052,20.052,20.052
	s20.052-9.023,20.052-20.052v-44.652C336.209,105.45,327.185,96.426,316.156,96.426z"/>
<path style="fill:#C93939;" d="M326.182,99.153c-2.956-1.722-6.376-2.727-10.026-2.727c-11.029,0-20.052,9.023-20.052,20.052v44.652
	c0,11.029,9.023,20.052,20.052,20.052v-64.704C316.156,109.099,320.206,102.635,326.182,99.153z"/>
<path style="fill:#67B758;" d="M365.517,504.5H146.483c-21.624,0-39.154-17.53-39.154-39.154V217.884
	c0-15.638,12.677-28.316,28.316-28.316h240.71c15.638,0,28.316,12.678,28.316,28.316v247.463
	C404.671,486.971,387.141,504.5,365.517,504.5z"/>
<path style="fill:#4A994A;" d="M256,465.347V217.883c0-15.638,12.677-28.316,28.316-28.316H135.645
	c-15.638,0-28.316,12.677-28.316,28.316v247.463c0,21.624,17.53,39.154,39.154,39.154h148.671C273.53,504.5,256,486.971,256,465.347
	z"/>
<path style="fill:#FFFFFF;" d="M340.48,364.463c-29.214-23.048-31.546-31.103-31.546-31.103
	c12.52-4.801,20.446-13.536,25.258-20.324c3.213-4.533,1.374-10.893-3.779-12.969c-27.692-11.153-49.28-33.875-61.912-49.911
	c-6.369-8.085-18.633-8.085-25.002,0c-12.632,16.036-34.221,38.759-61.912,49.911c-5.154,2.076-6.993,8.436-3.779,12.969
	c4.812,6.788,12.738,15.523,25.258,20.324c0,0-2.332,8.054-31.546,31.103c-8.53,6.73-7.539,19.968,1.936,25.286
	c13.963,7.837,35.471,16.872,62.786,19.979v20.032c0,10.245,7.618,19.131,17.815,20.12c11.73,1.137,21.702-8.156,21.702-19.664
	v-20.487c27.314-3.107,48.822-12.142,62.786-19.979C348.02,384.431,349.011,371.194,340.48,364.463z"/>
<g>
	<path style="fill:#D1E7F8;" d="M243.499,250.157c-12.632,16.036-34.22,38.759-61.912,49.911c-5.154,2.076-6.993,8.436-3.779,12.969
		c4.812,6.788,12.738,15.523,25.258,20.324c0,0-2.333,8.054-31.546,31.103c-8.53,6.73-7.539,19.968,1.936,25.286
		c13.963,7.837,35.471,16.872,62.786,19.979v20.032c0,10.245,7.618,19.131,17.815,20.12c0.654,0.063,1.302,0.089,1.944,0.089
		V244.093C251.342,244.093,246.683,246.115,243.499,250.157z"/>
	<path style="fill:#D1E7F8;" d="M182.097,236.594h-8.906v-8.906c0-4.143-3.358-7.5-7.5-7.5s-7.5,3.357-7.5,7.5v8.906h-8.906
		c-4.142,0-7.5,3.357-7.5,7.5s3.358,7.5,7.5,7.5h8.906v8.905c0,4.143,3.358,7.5,7.5,7.5s7.5-3.357,7.5-7.5v-8.905h8.906
		c4.142,0,7.5-3.357,7.5-7.5S186.239,236.594,182.097,236.594z"/>
</g>
<path style="fill:#FFFFFF;" d="M357.823,446.308h-8.906v-8.906c0-4.143-3.357-7.5-7.5-7.5s-7.5,3.357-7.5,7.5v8.906h-8.905
	c-4.143,0-7.5,3.357-7.5,7.5s3.357,7.5,7.5,7.5h8.905v8.905c0,4.143,3.357,7.5,7.5,7.5s7.5-3.357,7.5-7.5v-8.905h8.906
	c4.143,0,7.5-3.357,7.5-7.5S361.966,446.308,357.823,446.308z"/>
<path d="M404.671,351.202c4.143,0,7.5-3.357,7.5-7.5V217.884c0-19.749-16.066-35.816-35.815-35.816H343.71v-65.589
	c0-15.192-12.36-27.553-27.553-27.553c-4.52,0-8.784,1.101-12.552,3.038v-4.079c0-7.835-3.293-14.912-8.562-19.934h49.749
	c13.368,0,24.244,10.876,24.244,24.244v65.049c0,4.143,3.357,7.5,7.5,7.5s7.5-3.357,7.5-7.5V92.195
	c0-21.64-17.604-39.244-39.244-39.244h-82.809c-3.739-10.785-13.994-18.553-26.035-18.553c-4.52,0-8.785,1.101-12.552,3.038v-9.884
	C223.396,12.36,211.036,0,195.843,0c-15.192,0-27.552,12.36-27.552,27.553v25.398c0,0-40.328,1.57-40.328,39.244v90.71
	c-16.069,3.526-28.135,17.866-28.135,34.978v247.463c0,25.725,20.929,46.653,46.654,46.653h219.035
	c25.725,0,46.653-20.929,46.653-46.653v-89.75c0-4.143-3.357-7.5-7.5-7.5s-7.5,3.357-7.5,7.5v89.75
	c0,17.454-14.199,31.653-31.653,31.653H146.483c-17.454,0-31.654-14.199-31.654-31.653V217.884c0-11.479,9.338-20.816,20.816-20.816
	h240.71c11.478,0,20.815,9.338,20.815,20.816v125.818C397.171,347.845,400.528,351.202,404.671,351.202z M183.292,96.719
	c3.767,1.937,8.032,3.038,12.552,3.038s8.785-1.101,12.552-3.038v60.525c0,4.143,3.358,7.5,7.5,7.5s7.5-3.357,7.5-7.5v-26.127
	c3.768,1.937,8.032,3.038,12.552,3.038s8.785-1.101,12.552-3.038v50.95h-65.208L183.292,96.719L183.292,96.719z M263.5,87.885
	c0-6.922,5.631-12.553,12.552-12.553c6.922,0,12.553,5.631,12.553,12.553v44.651c0,6.922-5.631,12.553-12.553,12.553
	c-6.921,0-12.552-5.631-12.552-12.553V87.885z M263.5,157.051c3.767,1.937,8.032,3.038,12.552,3.038s8.785-1.101,12.553-3.038
	v25.017H263.5V157.051z M316.156,103.926c6.922,0,12.553,5.631,12.553,12.553v44.651c0,6.921-5.631,12.552-12.553,12.552
	c-6.921,0-12.552-5.631-12.552-12.552v-44.651C303.604,109.557,309.235,103.926,316.156,103.926z M235.948,49.398
	c6.921,0,12.552,5.631,12.552,12.553v44.651c0,6.922-5.631,12.553-12.552,12.553s-12.552-5.631-12.552-12.553V61.951
	C223.396,55.029,229.026,49.398,235.948,49.398z M183.292,27.553c0-6.922,5.631-12.553,12.552-12.553s12.552,5.631,12.552,12.553
	v44.651c0,6.922-5.631,12.553-12.552,12.553s-12.552-5.631-12.552-12.553V27.553z M168.292,67.951v114.116h-25.328V92.195
	C142.964,69.247,168.292,67.951,168.292,67.951z"/>
<path d="M255.95,457.472c6.741-0.001,27.309-3.665,27.309-27.256v-13.917c26.173-3.966,46.317-12.916,58.955-20.009
	c6.622-3.717,10.931-10.457,11.524-18.03c0.597-7.601-2.623-14.959-8.612-19.684c-13.631-10.755-21.011-17.941-24.942-22.331
	c7.675-4.501,14.42-10.819,20.127-18.87c2.874-4.054,3.72-9.113,2.319-13.881c-1.396-4.751-4.827-8.536-9.415-10.383
	c-25.822-10.399-46.24-31.622-58.822-47.596c-4.467-5.67-11.171-8.922-18.393-8.922s-13.925,3.252-18.392,8.923
	c-12.583,15.973-33.001,37.195-58.822,47.595c-4.588,1.847-8.02,5.632-9.415,10.382c-1.4,4.768-0.556,9.827,2.318,13.882
	c5.708,8.051,12.454,14.37,20.127,18.87c-3.932,4.39-11.313,11.577-24.942,22.33c-5.989,4.726-9.209,12.084-8.613,19.685
	c0.594,7.573,4.902,14.313,11.523,18.029c12.639,7.094,32.784,16.044,58.957,20.01v13.462
	C228.741,458.25,255.079,457.472,255.95,457.472z M177.126,383.209c-2.28-1.28-3.706-3.512-3.911-6.122
	c-0.207-2.638,0.868-5.093,2.95-6.735c28.072-22.147,33.202-31.788,34.105-34.905c1.084-3.743-0.88-7.693-4.519-9.089
	c-8.479-3.251-22.06-18.395-21.989-18.637c0.098-0.333,34.718-10.198,65.628-52.923c1.52-2.1,4.013-3.204,6.609-3.204
	c2.596,0,5.007,1.167,6.61,3.204c34.391,43.715,65.53,52.59,65.629,52.923c0.07,0.241-13.508,15.385-21.989,18.637
	c-3.639,1.396-5.603,5.346-4.519,9.089c0.902,3.116,6.032,12.757,34.104,34.905v0.001c2.081,1.642,3.156,4.097,2.949,6.734
	c-0.204,2.61-1.63,4.842-3.911,6.122c-12.485,7.008-33.023,16.004-59.962,19.067c-3.79,0.432-6.652,3.638-6.652,7.452v20.487
	c-0.102,10.999-9.996,12.539-13.479,12.199c-6.19-0.601-11.039-6.158-11.039-12.654v-20.032c0-3.814-2.863-7.021-6.652-7.452
	C210.15,399.213,189.612,390.217,177.126,383.209z"/>
<g>
</g>
<g>
</g>
<g>
</g>
<g>
</g>
<g>
</g>
<g>
</g>
<g>
</g>
<g>
</g>
<g>
</g>
<g>
</g>
<g>
</g>
<g>
</g>
<g>
</g>
<g>
</g>
<g>
</g>
</svg>
