<?xml version="1.0" encoding="iso-8859-1"?>
<!-- Generator: Adobe Illustrator 19.0.0, SVG Export Plug-In . SVG Version: 6.00 Build 0)  -->
<svg version="1.1" id="Capa_1" xmlns="http://www.w3.org/2000/svg" xmlns:xlink="http://www.w3.org/1999/xlink" x="0px" y="0px"
	 viewBox="0 0 512.002 512.002" style="enable-background:new 0 0 512.002 512.002;" xml:space="preserve">
<g>
	<path style="fill:#D1E7F8;" d="M387.72,256.056c6.838-29.223,27.073-49.052,45.363-61.503
		c18.002-12.253,41.905-11.784,59.251,1.382c4.72,3.583,8.654,7.573,10.623,12.666c5.565,14.399-5.669,32.234-5.669,47.455
		c0,15.22,11.235,33.054,5.669,47.455c-1.814,4.692-5.296,8.448-9.522,11.812c-17.703,14.087-42.482,14.568-61.104,1.721
		C414.24,304.563,394.463,284.878,387.72,256.056z"/>
	<path style="fill:#D1E7F8;" d="M124.283,256.056c-6.838-29.223-27.073-49.052-45.363-61.503
		c-18.002-12.253-41.905-11.784-59.251,1.382c-4.72,3.583-8.654,7.573-10.623,12.666C3.48,223,14.714,240.835,14.714,256.056
		c0,15.22-11.235,33.054-5.669,47.455c1.814,4.692,5.296,8.448,9.522,11.812c17.703,14.087,42.482,14.568,61.104,1.721
		C97.763,304.563,117.54,284.878,124.283,256.056z"/>
</g>
<g>
	<path style="fill:#B9D8F4;" d="M78.919,194.558c-5.635-3.836-11.849-6.423-18.258-7.767
		c-18.041,16.248-29.596,41.212-29.596,69.213c0,27.996,11.551,52.957,29.587,69.205c6.675-1.393,13.153-4.114,19.02-8.162
		c18.091-12.479,37.867-32.165,44.611-60.987C117.446,226.837,97.211,207.008,78.919,194.558z"/>
	<path style="fill:#B9D8F4;" d="M433.083,194.558c5.635-3.836,11.849-6.423,18.258-7.767c18.041,16.248,29.596,41.212,29.596,69.213
		c0,27.996-11.551,52.957-29.587,69.205c-6.675-1.393-13.153-4.114-19.02-8.162c-18.091-12.479-37.867-32.165-44.611-60.987
		C394.556,226.837,414.791,207.008,433.083,194.558z"/>
</g>
<g>
	<path style="fill:#96C8EF;" d="M93.088,298.45L93.088,298.45c-20.179,0-36.689-16.51-36.689-36.689v-11.356
		c0-20.179,16.51-36.689,36.689-36.689l0,0c20.179,0,36.689,16.51,36.689,36.689v11.356
		C129.777,281.94,113.267,298.45,93.088,298.45z"/>
	<path style="fill:#96C8EF;" d="M419.395,298.45L419.395,298.45c-20.179,0-36.689-16.51-36.689-36.689v-11.356
		c0-20.179,16.51-36.689,36.689-36.689l0,0c20.179,0,36.689,16.51,36.689,36.689v11.356
		C456.084,281.94,439.574,298.45,419.395,298.45z"/>
</g>
<path style="fill:#D1E7F8;" d="M354.764,173.052H157.718c-16.207,0-31.42,7.812-40.863,20.982l-27.106,37.8
	c-10.358,14.445-10.358,33.885,0,48.331l27.105,37.8c9.444,13.171,24.657,20.982,40.863,20.982h197.046
	c16.207,0,31.42-7.812,40.863-20.982l27.105-37.8c10.358-14.445,10.358-33.885,0-48.331l-27.105-37.8
	C386.184,180.863,370.971,173.052,354.764,173.052z"/>
<path style="fill:#B9D8F4;" d="M116.855,194.034l-27.106,37.8c-10.358,14.445-10.358,33.885,0,48.331l27.105,37.8
	c9.444,13.17,24.657,20.982,40.863,20.982h116.395C152.593,338.947,116.855,194.034,116.855,194.034z"/>
<path style="fill:#FFA5B5;" d="M182.55,173.052L95.143,287.686l21.712,30.28c1.759,2.452,3.719,4.719,5.847,6.784l115.667-151.696
	h-55.82V173.052z"/>
<polygon style="fill:#92DD7A;" points="291.578,173.052 165.084,338.947 220.904,338.947 347.398,173.052 "/>
<path style="fill:#FFA5B5;" d="M395.628,194.034c-1.759-2.452-3.719-4.718-5.847-6.784L274.113,338.947h55.82l87.407-114.633
	L395.628,194.034z"/>
<path style="fill:#FF737D;" d="M116.855,317.966c1.759,2.452,3.719,4.719,5.847,6.784l35.544-46.615
	c-10.468-13.648-18.635-27.854-24.84-40.628l-38.263,50.18L116.855,317.966z"/>
<path style="fill:#7EC66A;" d="M220.904,338.947l6.153-8.07c-14.722-5.342-27.669-13.016-39.011-22.044l-22.962,30.114H220.904z"/>
<path style="fill:#57565C;" d="M237.102,299.496l-28.978-18.246c-10.282-6.474-14.006-19.984-7.902-30.49
	c6.409-11.031,20.625-14.462,31.328-7.723l14.73,9.275c6.064,3.818,13.781,3.818,19.844,0l14.73-9.275
	c10.475-6.595,24.309-3.45,30.904,7.023c6.594,10.473,3.449,24.31-7.024,30.904l-29.433,18.532
	C263.632,306.847,248.777,306.847,237.102,299.496z"/>
<path style="fill:#FF737D;" d="M289.061,290.84c-4.228-10.724-17.315-18.541-32.812-18.541c-15.515,0-28.615,7.837-32.827,18.579
	l13.687,8.618c11.673,7.35,26.529,7.35,38.203,0L289.061,290.84z"/>
<path d="M344.484,247.665v-12.462c0-4.147-3.361-7.507-7.507-7.507c-4.146,0-7.507,3.36-7.507,7.507v12.462
	c0,4.147,3.361,7.507,7.507,7.507C341.123,255.172,344.484,251.812,344.484,247.665z"/>
<path d="M167.998,235.202v12.462c0,4.147,3.361,7.507,7.507,7.507c4.146,0,7.507-3.36,7.507-7.507v-12.462
	c0-4.147-3.361-7.507-7.507-7.507C171.36,227.695,167.998,231.055,167.998,235.202z"/>
<path d="M256.204,312.476c8.042,0,16.086-2.209,23.102-6.628l29.432-18.532c13.96-8.79,18.166-27.298,9.376-41.257
	c-8.791-13.958-27.298-18.164-41.257-9.375l-14.73,9.276c-3.598,2.266-8.246,2.267-11.845,0l-14.73-9.276
	c-6.933-4.365-15.134-5.694-23.091-3.733c-7.954,1.957-14.605,6.943-18.728,14.038c-7.992,13.754-3.33,31.973,10.392,40.614
	l28.977,18.246C240.12,310.268,248.16,312.477,256.204,312.476z M206.714,254.531c2.057-3.539,11.158-11.507,20.836-5.142
	l14.73,9.276c8.457,5.324,19.387,5.326,27.845,0l14.73-9.276c6.954-4.378,16.172-2.282,20.551,4.671
	c2.121,3.368,5.447,12.429-4.671,20.55l-29.433,18.532c-9.173,5.777-21.029,5.777-30.202,0l0,0l-28.978-18.246
	C205.163,270.514,202.736,261.378,206.714,254.531z"/>
<path d="M504.796,256.056c0-5.054,1.609-10.894,3.312-17.077c2.856-10.365,6.092-22.115,1.853-33.084
	c-2.945-7.618-8.88-12.745-13.087-15.94c-17.267-13.107-40.251-15.481-59.983-6.194c-3.752,1.766-5.361,6.237-3.597,9.989
	c1.765,3.751,6.239,5.359,9.989,3.597c14.656-6.897,31.713-5.149,44.512,4.567c4.373,3.319,6.966,6.305,8.16,9.394
	c2.453,6.346,0.133,14.767-2.323,23.683c-1.893,6.873-3.851,13.98-3.851,21.064c0,7.084,1.958,14.191,3.851,21.064
	c2.456,8.916,4.776,17.337,2.323,23.684c-1.111,2.875-3.398,5.622-7.195,8.643c-15.059,11.985-36.023,12.554-52.167,1.416
	c-2.749-1.896-5.377-3.869-7.895-5.899c19.917-4.285,34.893-22.024,34.893-43.203v-11.355c0-24.371-19.826-44.196-44.196-44.196
	c-1.857,0-3.709,0.123-5.544,0.355l-12.122-16.906c-10.828-15.099-28.384-24.114-46.964-24.114H157.718
	c-18.58,0-36.137,9.015-46.965,24.115l-9.51,13.263c-5.432-5.192-11.491-10.078-18.1-14.575
	c-20.78-14.142-48.112-13.497-68.015,1.609c-4.208,3.193-10.142,8.321-13.087,15.94c-4.24,10.97-1.003,22.718,1.852,33.084
	c1.704,6.183,3.312,12.023,3.312,17.077c0,5.054-1.609,10.894-3.312,17.077c-2.856,10.366-6.092,22.116-1.852,33.085
	c2.113,5.467,5.879,10.227,11.851,14.98c10.599,8.433,23.351,12.679,36.198,12.679c11.723,0,34.742-6.213,51.194-24.74l9.468,13.205
	c10.828,15.099,28.384,24.114,46.964,24.114h23.785c4.146,0,7.507-3.36,7.507-7.507s-3.361-7.507-7.507-7.507h-23.785
	c-13.752,0-26.748-6.673-34.763-17.849l-27.105-37.8c-8.488-11.838-8.488-27.745,0-39.583l27.105-37.799
	c8.015-11.177,21.011-17.85,34.763-17.85h197.046c13.753,0,26.748,6.673,34.763,17.848l27.105,37.8
	c8.488,11.838,8.488,27.745,0,39.583l-27.105,37.799c-8.015,11.177-21.011,17.85-34.763,17.85H213.014
	c-4.146,0-7.507,3.36-7.507,7.507s3.361,7.507,7.507,7.507h141.75c18.58,0,36.137-9.015,46.965-24.115l9.273-12.932
	c5.154,4.902,25.263,24.468,50.909,24.468c12.846,0,25.6-4.247,36.198-12.68c5.972-4.752,9.738-9.511,11.851-14.979
	c4.239-10.97,1.003-22.718-1.853-33.085C506.405,266.95,504.796,261.11,504.796,256.056z M83.649,284.54l4.254,5.933
	c-13.624-2.454-23.997-14.39-23.997-28.711v-11.356c0-14.273,10.302-26.177,23.858-28.686l-4.116,5.741
	C71.409,244.53,71.409,267.469,83.649,284.54z M23.242,309.448c-3.797-3.023-6.083-5.769-7.195-8.644
	c-2.453-6.347-0.133-14.768,2.322-23.684c1.894-6.873,3.851-13.98,3.851-21.064c0-7.084-1.958-14.191-3.851-21.064
	c-2.456-8.916-4.776-17.337-2.322-23.683c1.194-3.089,3.787-6.074,8.16-9.394c14.756-11.2,35.046-11.665,50.488-1.155
	c3.066,2.087,5.994,4.263,8.779,6.515c-19.76,4.402-34.582,22.063-34.582,43.131v11.356c0,21.046,14.791,38.691,34.519,43.116
	c-2.549,2.061-5.213,4.062-8.002,5.985C59.268,321.999,38.303,321.43,23.242,309.448z M448.576,250.405v11.356
	c0,14.321-10.372,26.257-23.997,28.711l4.254-5.933c12.241-17.071,12.241-40.01,0-57.08l-4.116-5.741
	C438.274,224.23,448.576,236.133,448.576,250.405z"/>
<g>
</g>
<g>
</g>
<g>
</g>
<g>
</g>
<g>
</g>
<g>
</g>
<g>
</g>
<g>
</g>
<g>
</g>
<g>
</g>
<g>
</g>
<g>
</g>
<g>
</g>
<g>
</g>
<g>
</g>
</svg>
