<?xml version="1.0" encoding="iso-8859-1"?>
<!-- Generator: Adobe Illustrator 19.0.0, SVG Export Plug-In . SVG Version: 6.00 Build 0)  -->
<svg version="1.1" id="Capa_1" xmlns="http://www.w3.org/2000/svg" xmlns:xlink="http://www.w3.org/1999/xlink" x="0px" y="0px"
	 viewBox="0 0 512 512" style="enable-background:new 0 0 512 512;" xml:space="preserve">
<path style="fill:#57565C;" d="M324.864,167.943H187.135V96.602c0-14.522,11.772-26.294,26.294-26.294h85.141
	c14.522,0,26.294,11.772,26.294,26.294V167.943z"/>
<path style="fill:#3E3D42;" d="M267.048,70.308h-53.619c-14.522,0-26.294,11.772-26.294,26.294v71.341h53.619V96.602
	C240.754,82.08,252.527,70.308,267.048,70.308z"/>
<circle style="fill:#FF5555;" cx="256" cy="309.98" r="194.52"/>
<path style="fill:#E04141;" d="M221.305,311.167c0-78.054,42.64-146.144,105.893-182.264c-22.05-8.677-46.067-13.444-71.198-13.444
	c-107.43,0-194.52,87.09-194.52,194.52S148.569,504.5,256,504.5c24.2,0,47.362-4.432,68.735-12.508
	C262.844,455.524,221.305,388.202,221.305,311.167z"/>
<path style="fill:#FFFFFF;" d="M297.584,312.358l11.327-21.485c3.487-6.615-1.125-14.604-8.597-14.891l-21.462-0.826l-12.943-20.552
	c-3.985-6.328-13.209-6.328-17.195,0l-11.446,18.174l-24.27,0.934c-7.472,0.287-12.085,8.276-8.597,14.891l10.016,18.999
	l-11.327,21.485c-3.487,6.615,1.125,14.604,8.597,14.891l21.462,0.826l12.944,20.552c3.985,6.328,13.209,6.328,17.195,0
	l11.446-18.174l24.27-0.934c7.472-0.287,12.085-8.276,8.597-14.891L297.584,312.358z"/>
<path style="fill:#D1E7F8;" d="M221.305,311.167c0-12.944,1.179-25.611,3.424-37.907l-11.733,0.451
	c-7.472,0.287-12.084,8.276-8.597,14.891l10.016,18.999l-11.327,21.485c-3.487,6.615,1.125,14.604,8.597,14.891l12.253,0.471
	C222.21,333.609,221.305,322.494,221.305,311.167z"/>
<circle style="fill:#FF5555;" cx="256" cy="309.98" r="18.945"/>
<path style="fill:#D1E7F8;" d="M123.811,273.075l-18.994,30.462c-2.459,3.943-2.459,8.942,0,12.885l18.994,30.462
	c4.767,7.645,15.898,7.645,20.665,0l18.994-30.462c2.459-3.943,2.459-8.942,0-12.885l-18.994-30.462
	C139.708,265.43,128.577,265.43,123.811,273.075z"/>
<path style="fill:#FFFFFF;" d="M367.523,273.075l-18.994,30.462c-2.459,3.943-2.459,8.942,0,12.885l18.994,30.462
	c4.767,7.645,15.898,7.645,20.665,0l18.994-30.462c2.459-3.943,2.459-8.942,0-12.885l-18.994-30.462
	C383.422,265.43,372.29,265.43,367.523,273.075z"/>
<path style="fill:#5AAA4F;" d="M83.619,219.796H428.38c-32.513-62.019-97.5-104.337-172.381-104.337S116.132,157.778,83.619,219.796
	z"/>
<path style="fill:#4A994A;" d="M327.189,128.909C305.142,120.232,281.13,115.46,256,115.46
	c-74.881,0-139.868,42.318-172.381,104.337h158.587C260.721,181.6,290.483,149.871,327.189,128.909z"/>
<path style="fill:#92DD7A;" d="M437.023,238.641c-3.568-9.045-7.799-17.755-12.625-26.078c-2.199,0.658-4.714,1.012-7.924,1.012
	c-8.73,0-12.345-2.598-18.333-6.903c-7.236-5.201-17.146-12.326-35.166-12.326c-18.018,0-27.928,7.124-35.164,12.327
	c-5.987,4.304-9.6,6.902-18.327,6.902c-8.728,0-12.342-2.598-18.329-6.903c-7.236-5.201-17.145-12.326-35.164-12.326
	s-27.928,7.124-35.164,12.327c-5.987,4.304-9.6,6.902-18.326,6.902c-8.727,0-12.34-2.598-18.327-6.902
	c-7.235-5.202-17.144-12.327-35.163-12.327s-27.928,7.124-35.164,12.327c-5.987,4.304-9.601,6.902-18.328,6.902
	c-3.207,0-5.72-0.354-7.917-1.011c-4.825,8.323-9.057,17.033-12.625,26.079c5.443,2.2,12.093,3.775,20.542,3.775
	c18.019,0,27.928-7.124,35.164-12.327c5.987-4.304,9.601-6.902,18.328-6.902c8.726,0,12.339,2.598,18.326,6.902
	c7.235,5.202,17.144,12.327,35.164,12.327c18.018,0,27.927-7.124,35.163-12.327c5.987-4.304,9.6-6.902,18.327-6.902
	s12.341,2.598,18.328,6.902c7.236,5.202,17.146,12.327,35.165,12.327c18.018,0,27.928-7.124,35.164-12.327
	c5.987-4.304,9.6-6.902,18.327-6.902c8.729,0,12.344,2.598,18.332,6.903c7.236,5.201,17.147,12.326,35.167,12.326
	C424.926,242.418,431.578,240.842,437.023,238.641z"/>
<path style="fill:#7EC66A;" d="M255.991,194.346c-18.019,0-27.928,7.124-35.164,12.327c-5.987,4.304-9.6,6.902-18.326,6.902
	c-8.727,0-12.34-2.598-18.327-6.902c-7.235-5.202-17.144-12.327-35.163-12.327s-27.928,7.124-35.164,12.327
	c-5.987,4.304-9.601,6.902-18.328,6.902c-3.207,0-5.72-0.354-7.917-1.011c-4.825,8.323-9.057,17.033-12.625,26.079
	c5.443,2.2,12.093,3.775,20.542,3.775c18.02,0,27.928-7.124,35.165-12.327c5.987-4.304,9.601-6.902,18.328-6.902
	c8.726,0,12.339,2.598,18.326,6.902c7.235,5.202,17.144,12.327,35.164,12.327c17.896,0,27.789-7.026,35.011-12.219
	c5.285-12.618,11.766-24.609,19.304-35.832C256.538,194.363,256.273,194.346,255.991,194.346z"/>
<path style="fill:#5AAA4F;" d="M83.619,400.163H428.38C395.868,462.182,330.881,504.5,256,504.5S116.132,462.182,83.619,400.163z"/>
<path style="fill:#4A994A;" d="M256,504.5c24.201,0,47.365-4.426,68.737-12.503c-0.001-0.002-0.001-0.003-0.002-0.005
	c-36.326-21.404-65.635-53.441-83.655-91.829H83.619C116.132,462.182,181.119,504.5,256,504.5z"/>
<path style="fill:#92DD7A;" d="M437.023,381.319c-3.568,9.045-7.799,17.755-12.625,26.078c-2.199-0.658-4.714-1.012-7.924-1.012
	c-8.73,0-12.345,2.598-18.333,6.903c-7.236,5.201-17.146,12.326-35.166,12.326c-18.018,0-27.928-7.124-35.164-12.327
	c-5.987-4.304-9.6-6.902-18.327-6.902c-8.728,0-12.342,2.598-18.329,6.903c-7.236,5.201-17.145,12.326-35.164,12.326
	s-27.928-7.124-35.164-12.327c-5.987-4.304-9.6-6.902-18.326-6.902c-8.727,0-12.34,2.598-18.327,6.902
	c-7.235,5.202-17.144,12.327-35.163,12.327s-27.928-7.124-35.164-12.327c-5.987-4.304-9.601-6.902-18.328-6.902
	c-3.207,0-5.72,0.354-7.917,1.011c-4.825-8.323-9.057-17.033-12.625-26.079c5.443-2.2,12.093-3.775,20.542-3.775
	c18.019,0,27.928,7.124,35.164,12.327c5.987,4.304,9.601,6.902,18.328,6.902c8.726,0,12.339-2.598,18.326-6.902
	c7.235-5.202,17.144-12.327,35.164-12.327c18.018,0,27.927,7.124,35.163,12.327c5.987,4.304,9.6,6.902,18.327,6.902
	s12.341-2.598,18.328-6.902c7.236-5.202,17.146-12.327,35.165-12.327c18.018,0,27.928,7.124,35.164,12.327
	c5.987,4.304,9.6,6.902,18.327,6.902c8.729,0,12.344-2.598,18.332-6.903c7.236-5.201,17.147-12.326,35.167-12.326
	C424.926,377.542,431.578,379.117,437.023,381.319z"/>
<path style="fill:#7EC66A;" d="M236.142,388.78c-7.105-5.053-16.851-11.238-33.641-11.238c-18.019,0-27.928,7.124-35.163,12.327
	c-5.987,4.304-9.6,6.902-18.326,6.902c-8.727,0-12.341-2.598-18.328-6.902c-7.236-5.202-17.145-12.327-35.164-12.327
	c-8.449,0-15.098,1.575-20.542,3.775c3.568,9.046,7.799,17.756,12.625,26.079c2.197-0.657,4.71-1.011,7.917-1.011
	c8.727,0,12.341,2.598,18.328,6.902c7.236,5.202,17.145,12.327,35.164,12.327c18.018,0,27.927-7.124,35.163-12.327
	c5.987-4.304,9.6-6.902,18.327-6.902c8.726,0,12.339,2.598,18.326,6.902c7.133,5.129,16.882,12.113,34.424,12.308
	C247.726,414.06,241.308,401.737,236.142,388.78z"/>
<circle style="fill:#D1E7F8;" cx="202.37" cy="165.42" r="14.421"/>
<circle style="fill:#FFFFFF;" cx="309.62" cy="167.6" r="14.421"/>
<g>
	<circle style="fill:#D1E7F8;" cx="256" cy="167.6" r="7.498"/>
	<circle style="fill:#D1E7F8;" cx="202.38" cy="452.36" r="14.421"/>
</g>
<circle style="fill:#FFFFFF;" cx="309.62" cy="454.54" r="14.421"/>
<circle style="fill:#D1E7F8;" cx="256" cy="454.54" r="7.498"/>
<path d="M332.364,122.962v-26.36c0-18.634-15.16-33.794-33.794-33.794h-24.709c7.234-9.566,11.915-23.285,11.915-33.029
	C285.776,13.333,272.443,0,255.997,0s-29.779,13.333-29.779,29.779c0,9.744,4.681,23.464,11.915,33.029H213.43
	c-18.634,0-33.794,15.16-33.794,33.794c0,4.143,3.357,7.5,7.5,7.5s7.5-3.357,7.5-7.5c0-10.363,8.431-18.794,18.794-18.794h85.141
	c10.363,0,18.794,8.431,18.794,18.794v20.896c-19.361-6.187-39.977-9.539-61.364-9.539c-111.395,0-202.021,90.626-202.021,202.021
	c0,59.65,26.17,115.947,71.8,154.455c3.164,2.673,7.897,2.271,10.568-0.895c2.672-3.165,2.271-7.897-0.895-10.568
	c-13.408-11.315-24.993-24.294-34.573-38.499c2.808,0.757,4.959,2.295,8.589,4.904c7.608,5.47,19.106,13.736,39.542,13.736
	c20.435,0,31.932-8.267,39.544-13.739c5.557-3.994,7.637-5.489,13.945-5.489c6.308,0,8.387,1.494,13.948,5.492
	c7.607,5.47,19.105,13.736,39.542,13.736c20.435,0,31.933-8.266,39.543-13.736c5.559-3.997,7.639-5.492,13.95-5.492
	c6.309,0,8.388,1.494,13.949,5.492c7.607,5.47,19.105,13.736,39.542,13.736c20.434,0,31.932-8.265,39.544-13.735
	c3.591-2.581,5.734-4.114,8.5-4.88C377.374,464.238,320.441,497,256,497c-32.975,0-65.387-8.696-93.733-25.147
	c-3.582-2.082-8.172-0.861-10.251,2.722c-2.079,3.582-0.861,8.172,2.722,10.251C185.368,502.603,220.384,512,256,512
	c111.395,0,202.021-90.626,202.021-202.02C458.02,225.596,406.008,153.143,332.364,122.962z M255.997,15
	c8.149,0,14.779,6.63,14.779,14.779c0,4.388-1.935,12.479-6.182,19.875c-4.172,7.265-7.84,9.222-8.597,9.346
	c-0.757-0.125-4.425-2.081-8.597-9.346c-4.247-7.396-6.182-15.488-6.182-19.875C241.218,21.63,247.847,15,255.997,15z M256,122.96
	c64.441,0,121.374,32.761,155.019,82.503c-2.766-0.766-4.909-2.299-8.5-4.88c-4.488-3.227-10.074-7.243-18.043-10.141
	c-3.891-1.42-8.196,0.592-9.611,4.484c-1.416,3.893,0.592,8.196,4.484,9.611c6.021,2.19,10.542,5.312,14.414,8.225
	c12.655,9.519,25.381,8.235,26.636,8.119c2.308,4.242,4.45,8.588,6.432,13.019c-3.256,0.673-6.684,1.017-10.357,1.017
	c-15.606,0-24.024-6.053-30.789-10.916c-6.461-4.645-11.563-8.313-22.71-8.313c-11.142,0-16.243,3.667-22.706,8.313
	c-6.763,4.863-15.18,10.916-30.785,10.916c-15.604,0-24.022-6.053-30.787-10.917c-6.461-4.644-11.563-8.312-22.706-8.312
	c-11.142,0-16.243,3.667-22.706,8.313c-6.763,4.863-15.18,10.916-30.784,10.916s-24.021-6.053-30.787-10.918
	c-6.459-4.644-11.562-8.311-22.702-8.311c-11.143,0-16.245,3.667-22.706,8.313c-6.765,4.863-15.183,10.916-30.787,10.916
	c-3.67,0-7.096-0.344-10.35-1.016c1.982-4.432,4.123-8.777,6.432-13.02c1.253,0.115,13.292,1.085,26.625-8.12
	c6.856-4.733,15.183-10.916,30.787-10.916s24.021,6.053,30.786,10.918c6.459,4.644,11.562,8.311,22.703,8.311
	s16.242-3.667,22.705-8.313c6.763-4.863,15.18-10.916,30.785-10.916c15.604,0,24.021,6.053,30.786,10.916
	c6.46,4.644,11.562,8.313,22.707,8.313c11.142,0,16.243-3.667,22.706-8.313c5.459-3.926,11.646-8.375,21.613-10.146
	c4.078-0.725,6.797-4.618,6.073-8.696c-0.726-4.078-4.623-6.789-8.696-6.073c-13.329,2.368-21.663,8.361-27.75,12.738
	c-5.557,3.995-7.636,5.489-13.946,5.489c-6.313,0-8.393-1.495-13.951-5.492c-7.607-5.47-19.105-13.736-39.542-13.736
	c-20.438,0-31.936,8.268-39.545,13.739c-5.557,3.995-7.636,5.489-13.945,5.489c-6.311,0-8.39-1.495-13.948-5.49
	c-7.607-5.471-19.104-13.738-39.541-13.738c-20.438,0-31.936,8.268-39.544,13.738c-3.584,2.576-5.726,4.108-8.485,4.875
	C134.628,155.72,191.56,122.96,256,122.96z M79.55,247.999c5.02,1.277,10.296,1.919,15.969,1.919
	c20.438,0,31.936-8.268,39.544-13.738c5.559-3.995,7.638-5.49,13.949-5.49c6.31,0,8.389,1.495,13.947,5.49
	c7.607,5.471,19.104,13.738,39.542,13.738s31.935-8.268,39.544-13.739c5.557-3.994,7.636-5.489,13.946-5.489
	c6.312,0,8.392,1.495,13.95,5.49c7.607,5.471,19.105,13.738,39.543,13.738s31.936-8.268,39.545-13.739
	c5.557-3.994,7.636-5.489,13.946-5.489c6.314,0,8.395,1.495,13.954,5.492c7.607,5.47,19.105,13.736,39.545,13.736
	c5.675,0,10.953-0.642,15.975-1.92c6.837,19.407,10.571,40.266,10.571,61.982c0,21.717-3.733,42.575-10.571,61.982
	c-5.023-1.278-10.301-1.921-15.975-1.921c-20.439,0-31.938,8.267-39.545,13.736c-5.56,3.997-7.64,5.492-13.954,5.492
	c-6.311,0-8.39-1.495-13.948-5.49c-7.607-5.471-19.104-13.738-39.543-13.738c-20.438,0-31.936,8.268-39.543,13.737
	c-5.559,3.996-7.639,5.491-13.95,5.491c-6.311,0-8.39-1.495-13.948-5.49c-7.607-5.471-19.104-13.738-39.542-13.738
	s-31.935,8.268-39.542,13.738c-5.559,3.995-7.638,5.49-13.947,5.49c-6.312,0-8.391-1.495-13.95-5.49
	c-7.607-5.471-19.105-13.738-39.543-13.738c-5.677,0-10.957,0.643-15.981,1.923c-6.908-19.68-10.558-40.597-10.558-61.985
	C68.979,288.264,72.713,267.406,79.55,247.999z M393.762,407.2c-6.725,4.917-15.184,10.913-30.786,10.913
	c-15.604,0-24.021-6.053-30.793-10.921c-6.457-4.642-11.558-8.308-22.698-8.308c-11.144,0-16.246,3.669-22.708,8.314
	c-6.765,4.862-15.183,10.914-30.785,10.914c-15.604,0-24.021-6.053-30.793-10.921c-6.457-4.642-11.558-8.308-22.697-8.308
	c-11.141,0-16.242,3.667-22.705,8.313c-6.765,4.862-15.183,10.915-30.784,10.915c-15.603,0-24.018-6.057-30.791-10.919
	c-14.91-10.704-25.4-8.23-26.667-8.112c-2.307-4.256-4.445-8.598-6.413-13.018c3.262-0.676,6.698-1.022,10.378-1.022
	c15.604,0,24.022,6.053,30.789,10.918c6.459,4.644,11.562,8.311,22.704,8.311c11.141,0,16.243-3.667,22.705-8.313
	c6.763-4.863,15.18-10.916,30.784-10.916s24.021,6.053,30.789,10.919c6.458,4.643,11.56,8.31,22.701,8.31
	c11.143,0,16.245-3.668,22.706-8.313c6.765-4.863,15.183-10.916,30.787-10.916c15.605,0,24.022,6.053,30.79,10.919
	c6.458,4.643,11.56,8.31,22.701,8.31c11.146,0,16.249-3.668,22.71-8.313c6.765-4.863,15.183-10.916,30.789-10.916
	c3.672,0,7.101,0.344,10.357,1.017c-1.981,4.432-4.123,8.777-6.432,13.019C419.144,398.962,409.065,396.01,393.762,407.2z"/>
<path d="M196.782,342.654c3.052,5.287,8.516,8.584,14.616,8.818l17.511,0.674l10.836,17.206c3.254,5.165,8.84,8.249,14.944,8.249
	s11.69-3.084,14.944-8.249l9.338-14.828l20.319-0.782c6.1-0.234,11.563-3.529,14.615-8.815s3.175-11.667,0.328-17.066l-8.172-15.502
	l9.483-17.988c2.847-5.399,2.724-11.778-0.328-17.064c-3.052-5.287-8.516-8.583-14.616-8.818l-17.511-0.674l-10.837-17.206
	c-3.253-5.165-8.839-8.248-14.943-8.248s-11.69,3.083-14.944,8.248l-9.338,14.828l-20.319,0.782
	c-6.1,0.234-11.563,3.529-14.615,8.815s-3.175,11.667-0.328,17.066l8.172,15.502l-9.483,17.988
	C193.607,330.989,193.73,337.368,196.782,342.654z M209.723,332.585L221.05,311.1c1.153-2.189,1.153-4.807,0-6.995l-10.016-18.999
	c-0.597-1.131-0.226-2.097,0.049-2.571s0.925-1.278,2.201-1.328l24.271-0.934c2.473-0.095,4.739-1.403,6.059-3.497l11.444-18.174
	c0.682-1.081,1.703-1.242,2.252-1.242s1.57,0.161,2.251,1.242l12.943,20.552c1.319,2.094,3.586,3.402,6.059,3.497l21.461,0.825
	c1.277,0.05,1.929,0.854,2.203,1.329c0.273,0.475,0.645,1.44,0.049,2.57l-11.327,21.485c-1.153,2.189-1.153,4.807,0,6.995
	l10.016,18.999c0.597,1.131,0.226,2.097-0.049,2.571s-0.925,1.278-2.201,1.328l-24.271,0.934c-2.473,0.095-4.739,1.403-6.059,3.497
	l-11.445,18.174c-0.681,1.082-1.702,1.243-2.251,1.243s-1.57-0.161-2.251-1.243l-12.943-20.552
	c-1.319-2.094-3.586-3.402-6.059-3.497l-21.461-0.825c-1.277-0.05-1.929-0.854-2.203-1.329
	C209.499,334.68,209.128,333.714,209.723,332.585z"/>
<path d="M98.452,320.391l18.994,30.461c3.617,5.802,9.858,9.266,16.695,9.267c0.001,0,0.001,0,0.001,0
	c6.837,0,13.079-3.464,16.697-9.266l18.994-30.462c3.944-6.325,3.943-14.499,0-20.821l-18.994-30.464
	c-3.618-5.802-9.86-9.266-16.698-9.266c-6.837,0.001-13.078,3.465-16.695,9.267L98.452,299.57
	C94.51,305.893,94.51,314.065,98.452,320.391z M111.18,307.505l18.994-30.463c1.239-1.987,3.188-2.202,3.968-2.202
	s2.729,0.215,3.969,2.202l18.995,30.464c0.937,1.503,0.937,3.444-0.001,4.947l-18.994,30.462c-1.239,1.988-3.188,2.203-3.969,2.203
	s-2.729-0.215-3.968-2.203l-18.993-30.461C110.244,310.952,110.244,309.008,111.18,307.505z"/>
<path d="M361.16,350.852c3.617,5.802,9.858,9.266,16.695,9.267c0.001,0,0.001,0,0.001,0c6.837,0,13.079-3.464,16.697-9.266
	l18.995-30.463c3.941-6.325,3.941-14.497-0.001-20.82l-18.994-30.464c-3.618-5.802-9.86-9.266-16.698-9.266
	c-6.837,0.001-13.078,3.465-16.695,9.267l-18.993,30.462c-3.944,6.323-3.945,14.497-0.001,20.822L361.16,350.852z M354.894,307.505
	l18.994-30.463c1.239-1.987,3.188-2.202,3.968-2.202s2.729,0.215,3.969,2.202l18.994,30.463c0.937,1.503,0.937,3.446,0,4.948
	l-18.994,30.462c-1.239,1.988-3.188,2.203-3.969,2.203s-2.729-0.215-3.968-2.203l-18.994-30.462
	C353.957,310.951,353.957,309.009,354.894,307.505z"/>
<path d="M202.375,187.343c12.088,0,21.922-9.834,21.922-21.921c0-12.088-9.834-21.922-21.922-21.922s-21.922,9.834-21.922,21.922
	C180.453,177.509,190.287,187.343,202.375,187.343z M202.375,158.501c3.816,0,6.922,3.105,6.922,6.922s-3.105,6.921-6.922,6.921
	s-6.922-3.104-6.922-6.921S198.558,158.501,202.375,158.501z"/>
<path d="M309.618,189.517c12.087,0,21.921-9.834,21.921-21.921c0-12.088-9.834-21.922-21.921-21.922
	c-12.088,0-21.922,9.834-21.922,21.922C287.697,179.683,297.531,189.517,309.618,189.517z M309.618,160.674
	c3.816,0,6.921,3.105,6.921,6.922s-3.104,6.921-6.921,6.921s-6.922-3.104-6.922-6.921S305.803,160.674,309.618,160.674z"/>
<path d="M224.3,452.364c0-12.088-9.834-21.922-21.922-21.922c-12.087,0-21.921,9.834-21.921,21.922
	c0,12.087,9.834,21.921,21.921,21.921C214.466,474.285,224.3,464.451,224.3,452.364z M195.457,452.364
	c0-3.816,3.104-6.922,6.921-6.922s6.922,3.105,6.922,6.922s-3.105,6.921-6.922,6.921S195.457,456.18,195.457,452.364z"/>
<path d="M331.543,454.537c0-12.087-9.834-21.921-21.921-21.921c-12.088,0-21.922,9.834-21.922,21.921
	c0,12.088,9.834,21.922,21.922,21.922C321.709,476.459,331.543,466.625,331.543,454.537z M302.7,454.537
	c0-3.816,3.105-6.921,6.922-6.921s6.921,3.104,6.921,6.921s-3.104,6.922-6.921,6.922S302.7,458.353,302.7,454.537z"/>
<path d="M256,336.424c14.582,0,26.445-11.863,26.445-26.444c0-14.582-11.863-26.445-26.445-26.445s-26.445,11.863-26.445,26.445
	C229.555,324.561,241.418,336.424,256,336.424z M256,298.535c6.311,0,11.445,5.135,11.445,11.445S262.31,321.424,256,321.424
	s-11.445-5.134-11.445-11.444S249.689,298.535,256,298.535z"/>
<g>
</g>
<g>
</g>
<g>
</g>
<g>
</g>
<g>
</g>
<g>
</g>
<g>
</g>
<g>
</g>
<g>
</g>
<g>
</g>
<g>
</g>
<g>
</g>
<g>
</g>
<g>
</g>
<g>
</g>
</svg>
