<?xml version="1.0" encoding="iso-8859-1"?>
<!-- Generator: Adobe Illustrator 19.0.0, SVG Export Plug-In . SVG Version: 6.00 Build 0)  -->
<svg version="1.1" id="Capa_1" xmlns="http://www.w3.org/2000/svg" xmlns:xlink="http://www.w3.org/1999/xlink" x="0px" y="0px"
	 viewBox="0 0 511.999 511.999" style="enable-background:new 0 0 511.999 511.999;" xml:space="preserve">
<path style="fill:#D3874F;" d="M430.663,244.266l-61.086-14.801c16.631-23.015,26.445-51.281,26.463-81.843
	C396.084,71.38,334.203,8.56,257.968,7.514C179.725,6.44,115.962,69.543,115.962,147.54c0,30.593,9.817,58.889,26.463,81.926
	l-61.086,14.801c-25.769,6.244-41.746,32.437-35.502,58.206l0,0c6.244,25.769,32.437,41.746,58.206,35.502l43.52-10.545
	c3.883-0.941,7.622,2.001,7.622,5.996v15.655c0,3.977-0.617,7.93-1.828,11.717L127.516,441.6
	c-8.077,25.255,5.979,52.526,31.234,60.603l0,0c25.255,8.077,52.526-5.979,60.603-31.234l29.607-77.504
	c2.468-6.461,11.609-6.462,14.078,0l29.612,77.504c8.077,25.255,35.348,39.311,60.603,31.234l0,0
	c25.255-8.077,39.311-35.348,31.234-60.603l-25.841-80.804c-1.211-3.788-1.828-7.741-1.828-11.717v-15.655
	c0-3.995,3.739-6.936,7.622-5.996l43.52,10.545c25.77,6.244,51.962-9.732,58.206-35.502l0,0
	C472.408,276.703,456.432,250.51,430.663,244.266z"/>
<g>
	<path style="fill:#B77344;" d="M466.164,302.472L466.164,302.472c1.044-4.31,1.454-8.63,1.313-12.869
		c-16.573,5.466-33.694,2.039-33.694,2.039l-52.34-7.803c-12.129-1.808-23.131,7.342-23.564,19.597l-1.06,29.987
		c0-3.995,3.739-6.936,7.622-5.996l43.52,10.545C433.727,344.218,459.92,328.242,466.164,302.472z"/>
	<path style="fill:#B77344;" d="M353.279,502.203L353.279,502.203c3.908-1.25,7.545-2.961,10.876-5.051
		c-13.549-11-20.227-29.186-20.227-29.186l-19.89-61.312c-3.483-10.752-13.498-18.034-24.8-18.034h-43.21l0,0
		c2.901,0.001,5.802,1.616,7.036,4.846l29.612,77.505C300.753,496.225,328.024,510.28,353.279,502.203z"/>
	<path style="fill:#B77344;" d="M176.802,319.395l-29.212,8.035c3.883-0.941,7.622,2.001,7.622,5.996v15.654
		c0,3.977-0.617,7.93-1.828,11.718l-25.841,80.805c-8.077,25.255,5.979,52.526,31.234,60.603l0,0
		c6.478,2.072,13.09,2.684,19.475,2.028c-5.804-13.523-3.656-29.908-3.656-29.908l22.77-136.381
		C199.342,326.104,188.373,316.212,176.802,319.395z"/>
	<path style="fill:#B77344;" d="M161.429,255.914l8.677-2.102c13.843-3.354,21.151-18.378,15.48-31.444
		c-6.873-15.833-10.686-33.302-10.686-51.663c0-72.353,59.15-130.89,131.731-129.893c18.533,0.254,36.122,4.438,52.031,11.756
		C333.466,25.348,297.693,8.059,257.995,7.514C179.752,6.44,115.989,69.543,115.989,147.54c0,30.593,9.817,58.889,26.463,81.926
		l-61.086,14.801c-25.77,6.244-41.746,32.437-35.502,58.206l0,0c6.244,25.769,32.437,41.746,58.206,35.502l18.109-4.388
		C122.18,333.586,114.52,268.149,161.429,255.914z"/>
	<path style="fill:#B77344;" d="M354.943,120.705c-4.415-16.922-13.619-32.439-26.028-45.032c-2.907-2.95-2.873-7.699,0.077-10.606
		c2.949-2.907,7.697-2.874,10.606,0.077c14.209,14.419,24.518,32.262,29.812,51.6c1.094,3.995-1.258,8.12-5.253,9.214
		C363.493,126.14,356.722,127.525,354.943,120.705z"/>
</g>
<path style="fill:#FFFFFF;" d="M256.028,190.248c-12.952,0-25.899-4.19-36.707-12.574c-9.818-7.616-11.604-21.75-3.987-31.568
	c7.617-9.819,21.75-11.604,31.568-3.987c5.373,4.169,12.878,4.169,18.251,0c9.817-7.616,23.951-5.832,31.567,3.988
	c7.616,9.818,5.831,23.951-3.988,31.567C281.929,186.057,268.977,190.248,256.028,190.248z"/>
<path style="fill:#FF728B;" d="M116.072,152.235c0.948,28.756,10.567,55.315,26.325,77.154c9.988-7.926,16.402-20.16,16.402-33.902
	C158.799,171.773,139.718,152.526,116.072,152.235z"/>
<path style="fill:#FFA5B5;" d="M395.928,152.312c-0.948,28.756-10.567,55.315-26.325,77.154
	c-9.988-7.926-16.402-20.16-16.402-33.902C353.202,171.85,372.284,152.603,395.928,152.312z"/>
<g>
	<circle style="fill:#94CBED;" cx="256.022" cy="294.641" r="14.985"/>
	<circle style="fill:#94CBED;" cx="256.022" cy="344.28" r="14.985"/>
</g>
<path style="fill:#FF728B;" d="M256,252.263l16.727,10.993c6.328,4.159,14.696,3.334,19.899-1.958
	c4.245-4.316,6.397-9.798,6.397-16.292c0-6.494-2.152-11.976-6.397-16.292c-5.204-5.292-13.572-6.119-19.899-1.958L256,237.749
	l-16.726-10.993c-6.327-4.158-14.696-3.336-19.9,1.958c-4.244,4.317-6.396,9.799-6.396,16.292c0,6.493,2.152,11.975,6.396,16.292
	c5.204,5.292,13.573,6.117,19.9,1.958L256,252.263z"/>
<circle style="fill:#FFA5B5;" cx="256.032" cy="245.003" r="14.985"/>
<path style="fill:#FFDA44;" d="M413.788,254.129c4.998-1.844,11.432-4.24,15.29-10.253l-18.637-4.516
	c-0.568,0.221-15.759,2.159-19.657,16.784c-2.798,10.494,3.362,17.558,7.799,22.7c4.172,4.835,5.286,6.622,4.633,9.151
	c-0.653,2.53-2.494,3.556-8.485,5.768c-6.372,2.353-15.099,5.573-17.813,16.089c-2.668,10.333,3.15,17.309,7.563,22.428
	l19.759,4.788c-1.092-6.086-5.032-10.677-8.167-14.312c-4.172-4.836-5.286-6.624-4.633-9.154c0.653-2.53,2.494-3.556,8.485-5.767
	c6.372-2.353,15.099-5.574,17.813-16.09c2.715-10.515-3.361-17.557-7.799-22.699c-4.172-4.835-5.286-6.623-4.633-9.152
	C405.959,257.365,407.799,256.339,413.788,254.129z"/>
<path style="fill:#DDB200;" d="M399.923,307.834c6.372-2.353,15.099-5.574,17.813-16.09c0.215-0.832,0.357-1.634,0.467-2.424
	l-14.835-2.212c-0.025,0.289-0.077,0.582-0.155,0.885c-0.653,2.53-2.494,3.556-8.485,5.768c-6.372,2.353-15.099,5.573-17.813,16.089
	c-2.667,10.333,3.15,17.309,7.563,22.428l19.759,4.788c-1.092-6.086-5.032-10.677-8.167-14.312
	c-4.172-4.836-5.286-6.624-4.633-9.154C392.091,311.071,393.932,310.045,399.923,307.834z"/>
<path style="fill:#FFDA44;" d="M98.267,254.129c-4.998-1.844-11.432-4.24-15.29-10.253l18.637-4.516
	c0.568,0.221,15.759,2.159,19.657,16.784c2.798,10.494-3.362,17.558-7.799,22.7c-4.172,4.835-5.286,6.622-4.633,9.151
	c0.653,2.53,2.494,3.556,8.485,5.768c6.372,2.353,15.099,5.573,17.813,16.089c2.668,10.333-3.15,17.309-7.563,22.428l-19.759,4.788
	c1.092-6.086,5.032-10.677,8.167-14.312c4.172-4.836,5.286-6.624,4.633-9.154c-0.653-2.53-2.494-3.556-8.485-5.767
	c-6.372-2.353-15.099-5.574-17.813-16.09c-2.715-10.515,3.361-17.557,7.799-22.699c4.172-4.835,5.286-6.623,4.633-9.152
	C106.097,257.365,104.257,256.339,98.267,254.129z"/>
<path style="fill:#DDB200;" d="M121.272,256.142c-3.899-14.625-19.089-16.563-19.657-16.784l-18.637,4.516
	c3.858,6.013,10.292,8.409,15.29,10.253c5.99,2.211,7.83,3.235,8.483,5.765c0.653,2.53-0.461,4.317-4.633,9.152
	c-4.438,5.143-10.514,12.186-7.799,22.699c2.716,10.516,11.442,13.737,17.813,16.09c5.991,2.211,7.832,3.236,8.485,5.767
	c0.653,2.531-0.461,4.318-4.633,9.154c-3.135,3.635-7.075,8.226-8.167,14.312l14.363-3.48c0-0.002-2.083-17.832,2.594-36.617
	c-2.527-1.384-5.141-2.356-7.448-3.207c-5.991-2.212-7.832-3.237-8.485-5.768c-0.653-2.529,0.461-4.316,4.633-9.151
	C117.91,273.701,124.07,266.636,121.272,256.142z"/>
<path style="fill:#FFDA44;" d="M227.042,450.912c-0.261-0.967,0-16.882-14.407-23.19c-9.951-4.358-17.849,1.002-23.535,4.718
	c-5.346,3.492-7.266,4.359-9.688,3.377c-2.421-0.982-3.192-2.942-4.589-9.174c-1.486-6.628-3.521-15.705-13.582-19.79
	c-10.061-4.084-17.848,1.004-23.534,4.719c-0.246,0.161-0.478,0.311-0.71,0.461l-5.846,18.279c5.952-0.425,10.854-3.63,14.762-6.184
	c5.344-3.492,7.267-4.358,9.685-3.377c2.421,0.982,3.192,2.942,4.589,9.174c1.486,6.627,3.521,15.704,13.582,19.79
	c10.063,4.085,17.849-1.003,23.535-4.718c5.345-3.493,7.266-4.362,9.688-3.377c2.421,0.983,3.193,2.943,4.591,9.175
	c1.222,5.449,2.825,12.548,8.944,17.173L227.042,450.912z"/>
<path style="fill:#DDB200;" d="M179.413,435.815c-2.421-0.982-3.192-2.942-4.589-9.174c-1.486-6.628-3.521-15.705-13.582-19.79
	c-10.061-4.084-17.848,1.004-23.534,4.719c-0.246,0.161-0.478,0.311-0.71,0.461l-5.846,18.279c5.952-0.425,10.854-3.63,14.762-6.184
	c5.344-3.492,7.267-4.358,9.685-3.377c2.421,0.982,3.192,2.942,4.589,9.174c1.486,6.627,3.521,15.704,13.582,19.79
	c1.635,0.664,3.204,1.064,4.72,1.289l2.475-14.823C180.444,436.149,179.939,436.029,179.413,435.815z"/>
<path style="fill:#FFDA44;" d="M285.014,450.912c0.261-0.967,0-16.882,14.407-23.19c9.951-4.358,17.849,1.002,23.535,4.718
	c5.346,3.492,7.266,4.359,9.688,3.377c2.421-0.982,3.192-2.942,4.589-9.174c1.486-6.628,3.521-15.705,13.582-19.79
	c10.061-4.084,17.848,1.004,23.534,4.719c0.246,0.161,0.478,0.311,0.71,0.461l5.846,18.279c-5.952-0.425-10.854-3.63-14.762-6.184
	c-5.344-3.492-7.267-4.358-9.685-3.377c-2.421,0.982-3.192,2.942-4.589,9.174c-1.486,6.627-3.521,15.704-13.582,19.79
	c-10.063,4.085-17.849-1.003-23.535-4.718c-5.345-3.493-7.266-4.362-9.688-3.377c-2.421,0.983-3.193,2.943-4.591,9.175
	c-1.222,5.449-2.825,12.548-8.944,17.173L285.014,450.912z"/>
<path style="fill:#DDB200;" d="M338.036,449.803l-4.656-14.353c-0.229,0.135-0.47,0.257-0.735,0.365
	c-2.421,0.982-4.342,0.115-9.688-3.377c-5.686-3.716-13.585-9.076-23.535-4.718c-14.407,6.309-14.146,22.224-14.407,23.19
	l6.515,17.055c6.119-4.626,7.723-11.725,8.944-17.173c1.397-6.231,2.169-8.191,4.591-9.175c2.422-0.985,4.343-0.116,9.688,3.377
	C320.39,448.679,328.097,453.7,338.036,449.803z"/>
<path d="M182.87,159.893v-12.45c0-4.143-3.358-7.5-7.5-7.5s-7.5,3.357-7.5,7.5v12.45c0,4.143,3.358,7.5,7.5,7.5
	S182.87,164.036,182.87,159.893z"/>
<path d="M344.179,159.893v-12.45c0-4.143-3.357-7.5-7.5-7.5s-7.5,3.357-7.5,7.5v12.45c0,4.143,3.357,7.5,7.5,7.5
	S344.179,164.036,344.179,159.893z"/>
<path d="M256.024,175.247c9.706,0,19.414-3.143,27.513-9.425c3.273-2.538,3.868-7.25,1.329-10.522
	c-2.538-3.274-7.251-3.867-10.522-1.329c-10.787,8.367-25.853,8.367-36.639,0c-3.274-2.539-7.984-1.945-10.523,1.329
	c-2.539,3.272-1.943,7.984,1.329,10.522C236.613,172.106,246.316,175.247,256.024,175.247z"/>
<path d="M432.429,236.977l-50.658-12.274c14.258-23.151,21.752-49.581,21.768-77.076C403.586,67.335,338.33,1.116,258.071,0.015
	C257.388,0.005,256.708,0,256.025,0c-35.86,0-70.338,12.953-97.286,36.595c-3.114,2.731-3.423,7.47-0.691,10.584
	c2.731,3.114,7.47,3.423,10.584,0.691c24.666-21.64,56.363-33.269,89.233-32.857c71.37,0.98,129.524,59.285,130.647,130.431
	c-24.184,3.852-42.811,24.963-42.811,50.121c0,15.363,5.535,37.395,22.106,41.19l61.087,14.802
	c10.517,2.548,19.437,9.082,25.118,18.396c5.683,9.316,7.408,20.237,4.86,30.753c-0.635,2.619-1.529,5.174-2.659,7.594
	c-1.751,3.754-0.128,8.217,3.625,9.969c1.026,0.479,2.104,0.705,3.167,0.705c2.823,0,5.528-1.603,6.802-4.33
	c1.549-3.32,2.774-6.819,3.644-10.403C480.687,274.385,462.283,244.212,432.429,236.977z M387.855,160.874
	c-2.015,20.258-8.617,39.594-19.443,56.865c-4.963-6.251-7.71-14.003-7.71-22.175C360.702,178.9,372.306,164.761,387.855,160.874z"
	/>
<path d="M436.199,328.101c-8.394,3.854-17.547,4.748-26.476,2.583l-43.518-10.544c-4.101-0.992-8.354-0.068-11.671,2.54
	c-3.317,2.608-5.219,6.524-5.219,10.744v15.654c0,4.757,0.734,9.468,2.185,14.002l25.841,80.805
	c6.838,21.381-4.994,44.339-26.374,51.177c-21.384,6.837-44.339-4.996-51.177-26.375c-0.042-0.133-0.088-0.264-0.138-0.393
	l-29.612-77.504c-2.244-5.874-7.757-9.669-14.044-9.669c-6.288,0-11.801,3.795-14.045,9.669l-29.607,77.504
	c-0.049,0.13-0.095,0.261-0.137,0.393c-6.838,21.381-29.796,33.212-51.175,26.375c-10.307-3.296-35.773-20.619-26.374-51.177
	l25.841-80.805c1.45-4.532,2.185-9.243,2.185-14.002v-15.654c0-4.22-1.902-8.136-5.219-10.744c-3.317-2.608-7.571-3.534-11.669-2.54
	l-43.52,10.544c-10.518,2.548-21.438,0.822-30.754-4.859c-9.316-5.681-15.85-14.603-18.396-25.118
	c-2.548-10.518-0.822-21.438,4.86-30.755c5.682-9.315,14.603-15.85,25.119-18.396l61.086-14.802
	c17.238-4.365,22.107-26.107,22.107-41.268c0-25.152-18.618-46.26-42.796-50.119c0.428-26.687,8.702-52.242,24.039-74.03
	c2.384-3.387,1.571-8.065-1.815-10.45c-3.387-2.384-8.065-1.572-10.45,1.815c-17.542,24.92-26.815,54.255-26.815,84.836
	c0,27.527,7.495,53.986,21.768,77.164l-50.658,12.274c-14.411,3.491-26.624,12.429-34.393,25.164s-10.124,27.687-6.632,42.097
	c3.491,14.411,12.429,26.625,25.164,34.393c12.737,7.769,27.687,10.125,42.097,6.632l41.875-10.146v13.962
	c0,3.206-0.495,6.38-1.472,9.434l-25.841,80.805c-9.357,29.258,6.834,60.674,36.093,70.031c5.622,1.798,11.322,2.652,16.932,2.652
	c23.517-0.001,45.415-15.021,53.034-38.54l29.55-77.34c0.016,0,0.03-0.001,0.045,0.001c0,0.005,0.002,0.012,0.006,0.021
	l29.54,77.316c7.621,23.521,29.516,38.543,53.034,38.541c5.607-0.001,11.312-0.855,16.931-2.652
	c29.259-9.357,45.45-40.773,36.093-70.031L365.79,358.51c-0.977-3.055-1.472-6.229-1.472-9.434v-13.962l41.875,10.146
	c12.062,2.923,24.941,1.671,36.266-3.528c3.765-1.729,5.415-6.182,3.688-9.945C444.416,328.024,439.964,326.375,436.199,328.101z
	 M124.138,160.795c15.554,3.884,27.161,18.024,27.161,34.691c0,8.189-2.756,15.955-7.737,22.211
	C132.737,200.414,126.142,181.066,124.138,160.795z"/>
<path d="M204.978,245.006c0,8.544,3.005,16.117,8.692,21.9c4.53,4.606,10.628,6.985,16.803,6.984c4.558,0,9.158-1.297,13.197-3.95
	l5.409-3.556c2.19,0.714,4.525,1.104,6.95,1.104c2.412,0,4.734-0.386,6.914-1.092l5.392,3.543c4.039,2.654,8.638,3.951,13.196,3.951
	c6.174,0,12.273-2.379,16.801-6.985c5.688-5.783,8.693-13.356,8.693-21.9c0-8.545-3.006-16.118-8.692-21.899
	c-7.872-8.008-20.488-9.285-29.998-3.035l-5.391,3.543c-2.18-0.706-4.503-1.093-6.915-1.093c-2.425,0-4.76,0.391-6.951,1.105
	l-5.409-3.555c-9.51-6.249-22.125-4.974-29.999,3.035C207.984,228.889,204.978,236.462,204.978,245.006z M287.635,233.622
	c2.847,3.104,4.389,6.727,4.389,11.384s-1.384,8.432-4.389,11.385c-5.283,5.191-12.334,0.181-12.334,0.181
	c2.037-3.382,3.211-7.339,3.211-11.566c0-4.227-1.174-8.184-3.211-11.566C275.302,233.44,282.352,227.863,287.635,233.622z
	 M263.513,245.006c0,4.127-3.358,7.484-7.485,7.484s-7.485-3.357-7.485-7.484s3.358-7.485,7.485-7.485
	C260.155,237.521,263.513,240.879,263.513,245.006z M224.366,233.621c5.224-5.617,12.374-0.155,12.374-0.155
	c-2.027,3.376-3.196,7.324-3.196,11.54c0,4.216,1.169,8.164,3.196,11.54c0,0-7.574,5.036-12.375-0.155
	c-2.86-3.092-4.388-6.728-4.388-11.385S221.497,236.705,224.366,233.621z"/>
<path d="M256.024,272.159c-12.398,0-22.484,10.087-22.484,22.484c0,12.397,10.086,22.483,22.484,22.483
	c12.398,0,22.484-10.087,22.484-22.483C278.508,282.246,268.422,272.159,256.024,272.159z M256.024,302.128
	c-4.127,0-7.485-3.357-7.485-7.484s3.358-7.485,7.485-7.485c4.127,0,7.485,3.358,7.485,7.485S260.152,302.128,256.024,302.128z"/>
<path d="M256.021,321.798c-12.398,0-22.484,10.087-22.484,22.483c0,12.398,10.086,22.484,22.484,22.484
	c12.398,0,22.484-10.087,22.484-22.484C278.505,331.884,268.419,321.798,256.021,321.798z M256.021,351.766
	c-4.127,0-7.485-3.358-7.485-7.485s3.358-7.484,7.485-7.484c4.127,0,7.485,3.357,7.485,7.484S260.149,351.766,256.021,351.766z"/>
<g>
</g>
<g>
</g>
<g>
</g>
<g>
</g>
<g>
</g>
<g>
</g>
<g>
</g>
<g>
</g>
<g>
</g>
<g>
</g>
<g>
</g>
<g>
</g>
<g>
</g>
<g>
</g>
<g>
</g>
</svg>
