<?xml version="1.0" encoding="iso-8859-1"?>
<!-- Generator: Adobe Illustrator 19.0.0, SVG Export Plug-In . SVG Version: 6.00 Build 0)  -->
<svg version="1.1" id="Capa_1" xmlns="http://www.w3.org/2000/svg" xmlns:xlink="http://www.w3.org/1999/xlink" x="0px" y="0px"
	 viewBox="0 0 512.005 512.005" style="enable-background:new 0 0 512.005 512.005;" xml:space="preserve">
<path style="fill:#3E8942;" d="M423.144,486.436c12.296-14.467,35.809-34.873,71.764-33.495c7.386,0.283,12.128-7.931,8.19-14.187
	c-19.171-30.447-13.254-61.014-6.874-78.896c2.869-8.041-1.786-16.78-10.048-18.931c-45.015-11.722-64.989-47.682-73.739-72.336
	c-3.22-9.074-14.8-11.88-21.588-5.052c-36.125,36.338-80.5,17.082-80.5,17.082l-48.764,84.462c0,0,38.863,28.801,25.457,78.256
	c-2.519,9.293,5.701,17.918,15.17,16.17c25.725-4.749,66.854-5.43,99.514,27.692C407.72,493.279,417.614,492.941,423.144,486.436z"
	/>
<path style="fill:#2F7531;" d="M358.668,430.971c4.066,4.124,10.778,3.894,14.529-0.518c8.341-9.812,24.29-23.655,48.678-22.72
	c5.01,0.192,8.227-5.379,5.555-9.622c-13.003-20.653-8.99-41.387-4.663-53.517c1.946-5.454-1.211-11.381-6.816-12.841
	c-30.534-7.951-50.585-50.377-50.957-50.955c-28.495,11.167-54.646-0.178-54.646-0.178l-48.764,84.462
	c0,0,22.901,16.976,27.478,47.236C289.748,412.352,336.515,408.505,358.668,430.971z"/>
<path style="fill:#3E8942;" d="M329.088,70.696c-18.677-3.416-48.107-13.576-64.889-45.402c-3.448-6.538-12.932-6.538-16.381,0
	c-16.783,31.826-46.213,41.986-64.889,45.402c-8.398,1.536-13.639,9.936-11.37,18.168c12.355,44.845-8.799,80.124-25.775,100.028
	c-6.248,7.326-2.889,18.758,6.418,21.222c49.532,13.116,55.043,61.174,55.043,61.174h97.528c0,0,5.51-48.058,55.043-61.174
	c9.307-2.465,12.666-13.897,6.418-21.222c-16.976-19.904-38.13-55.183-25.775-100.028C342.726,80.632,337.487,72.232,329.088,70.696
	z"/>
<path style="fill:#2F7531;" d="M313.292,154.265c1.538-5.583-2.016-11.281-7.713-12.323c-12.668-2.317-32.631-9.208-44.016-30.796
	c-2.339-4.435-8.772-4.435-11.111,0c-11.384,21.588-31.346,28.479-44.016,30.796c-5.696,1.042-9.251,6.74-7.713,12.323
	c8.38,30.419-18.336,68.997-18.649,69.608c23.918,19.094,27.169,47.414,27.169,47.414h97.528c0,0,3.25-28.32,27.169-47.414
	C331.628,223.263,304.912,184.684,313.292,154.265z"/>
<path style="fill:#3E8942;" d="M15.794,359.859c6.38,17.883,12.296,48.449-6.874,78.896c-3.938,6.255,0.804,14.47,8.19,14.187
	c35.953-1.379,59.467,19.029,71.764,33.495c5.529,6.505,15.425,6.843,21.419,0.763c32.659-33.122,73.789-32.441,99.514-27.692
	c9.468,1.748,17.689-6.876,15.17-16.17c-13.406-49.455,25.457-78.256,25.457-78.256l-48.764-84.462c0,0-44.375,19.257-80.5-17.082
	c-6.788-6.828-18.368-4.021-21.588,5.052c-8.749,24.654-28.724,60.613-73.739,72.336C17.58,343.079,12.925,351.817,15.794,359.859z"
	/>
<path style="fill:#2F7531;" d="M96.065,331.754c-5.604,1.459-8.761,7.386-6.816,12.841c4.327,12.129,8.341,32.863-4.663,53.517
	c-2.671,4.243,0.545,9.814,5.555,9.622c24.388-0.935,40.337,12.908,48.678,22.72c3.751,4.412,10.462,4.642,14.529,0.518
	c22.153-22.468,68.921-18.62,69.607-18.653c4.576-30.26,27.478-47.236,27.478-47.236l-48.764-84.462c0,0-26.152,11.345-54.646,0.178
	C146.651,281.377,126.599,323.802,96.065,331.754z"/>
<circle style="fill:#AF3333;" cx="219.917" cy="274.492" r="56.808"/>
<circle style="fill:#E04141;" cx="295.98" cy="274.492" r="64.082"/>
<path style="fill:#C93939;" d="M349.312,310.034c-4.315-46.443-39.835-83.854-85.381-91.05
	c-19.158,11.08-32.039,31.787-32.039,55.51c0,35.393,28.692,64.085,64.085,64.085C318.224,338.578,337.821,327.247,349.312,310.034z
	"/>
<circle style="fill:#FF5555;" cx="252.088" cy="318.393" r="75.043"/>
<path style="fill:#E04141;" d="M247.932,309.231c0-25.05,12.307-47.232,31.17-60.862c-8.379-3.233-17.496-5.01-27.015-5.01
	c-41.443,0-75.039,33.596-75.039,75.039s33.596,75.039,75.039,75.039c16.393,0,31.565-5.262,43.91-14.182
	C267.897,368.413,247.932,341.155,247.932,309.231z"/>
<path d="M509.444,434.759c-16.873-26.796-12.66-54.15-6.157-72.38c2.068-5.798,1.604-12.241-1.273-17.68
	c-2.885-5.452-7.969-9.473-13.95-11.029c-40.592-10.571-59.689-42.589-68.561-67.587c-2.405-6.776-8.027-11.762-15.039-13.335
	c-6.894-1.546-13.974,0.511-18.938,5.503c-5.516,5.549-11.557,9.966-18.044,13.223c-0.782-18.752-8.807-35.658-21.352-47.994
	c4.791-2.577,10.006-4.635,15.602-6.118c6.805-1.802,12.126-6.903,14.235-13.646c2.144-6.858,0.637-14.221-4.029-19.692
	c-17.213-20.182-35.392-52.729-24.251-93.168c1.642-5.958,0.702-12.371-2.578-17.597c-3.271-5.21-8.619-8.833-14.674-9.94
	c-19.039-3.482-44.835-13.513-59.604-41.523c-2.896-5.493-8.576-8.905-14.825-8.905c-6.247,0-11.928,3.412-14.826,8.905
	c-14.771,28.01-40.566,38.039-59.603,41.523c-6.055,1.107-11.403,4.73-14.675,9.94c-3.28,5.225-4.22,11.638-2.578,17.597
	c11.141,40.439-7.038,72.986-24.251,93.168c-4.667,5.472-6.173,12.833-4.029,19.692c2.108,6.743,7.429,11.845,14.235,13.646
	c2.455,0.65,4.868,1.417,7.173,2.28c3.879,1.457,8.202-0.514,9.654-4.394c1.453-3.879-0.514-8.201-4.393-9.653
	c-2.769-1.037-5.67-1.923-8.595-2.733c-4.21-1.166-4.506-6.905-2.631-9.104c19.567-22.943,40.188-60.11,27.299-106.888
	c-0.534-1.939-0.243-3.941,0.821-5.637c1.055-1.68,2.712-2.802,4.668-3.159c22.31-4.081,52.594-15.943,70.174-49.282
	c0.393-0.745,1.063-0.901,1.556-0.901c0.493,0,1.162,0.156,1.555,0.901c17.581,33.339,47.865,45.201,70.175,49.282
	c1.955,0.357,3.612,1.479,4.667,3.159c1.064,1.695,1.355,3.697,0.821,5.637c-12.887,46.778,7.732,83.944,27.299,106.888
	c1.875,2.198,1.412,4.566,1.125,5.482c-0.269,0.861-1.174,2.938-3.757,3.621c-8.937,2.367-17.132,5.965-24.418,10.686
	c-20.893-13.848-41.883-10.532-44.047-10.333l14.109-15.071c2.831-3.024,2.674-7.771-0.35-10.602
	c-3.023-2.83-7.769-2.674-10.601,0.35l-29.08,31.063v-47.776l40.03-42.759c2.831-3.024,2.674-7.771-0.35-10.602
	c-3.023-2.828-7.769-2.674-10.601,0.35l-29.08,31.063V86.868c0-4.143-3.358-7.5-7.5-7.5c-4.142,0-7.5,3.357-7.5,7.5v52.364
	l-29.08-31.063c-2.832-3.024-7.578-3.179-10.601-0.35c-3.024,2.831-3.181,7.577-0.35,10.602l40.03,42.759v47.776l-29.08-31.063
	c-2.832-3.024-7.578-3.179-10.601-0.35c-3.024,2.831-3.181,7.577-0.35,10.602l21.349,22.805c-3.258-0.504-6.569-0.765-9.912-0.765
	c-35.459,0-64.308,28.849-64.308,64.308c0,0.429-14.655-1.639-29.118-16.242c-4.955-5.002-12.043-7.052-18.938-5.503
	c-7.011,1.573-12.632,6.559-15.038,13.335c-8.872,24.998-27.969,57.015-68.562,67.587c-5.98,1.557-11.064,5.577-13.95,11.029
	c-2.877,5.438-3.341,11.881-1.272,17.68c6.503,18.23,10.715,45.584-6.157,72.38c-3.309,5.255-3.423,11.881-0.3,17.292
	c3.124,5.41,8.913,8.63,15.125,8.385c31.624-1.202,53.227,16.111,65.761,30.857c3.987,4.69,9.799,7.511,15.947,7.737
	c0.27,0.01,11.187,0.195,16.528-6.565c7.751-9.814,18.849-15.771,29.924-20.403c3.821-1.599,5.624-5.992,4.025-9.813
	c-1.598-3.819-5.991-5.622-9.813-4.024c-12.919,5.404-24.634,13.382-34.817,23.71c-1.413,1.433-3.29,2.169-5.292,2.107
	c-1.982-0.073-3.784-0.948-5.071-2.463c-14.689-17.281-40.115-37.589-77.766-36.131c-0.83,0.023-1.313-0.471-1.559-0.896
	c-0.247-0.427-0.446-1.086,0.003-1.799c20.083-31.894,15.213-64.052,7.591-85.413c-0.668-1.872-0.525-3.869,0.403-5.622
	c0.936-1.769,2.524-3.022,4.471-3.529c46.954-12.228,68.832-48.669,78.918-77.086c0.966-2.723,3.249-3.505,4.185-3.716
	c0.879-0.197,3.13-0.453,5.015,1.443c12.101,12.172,26.25,19.85,42.105,22.899c2.303,8.287,6.263,16.069,11.69,22.867
	c-0.517,7.361,0.353,13.458,1.169,18.107l-40.532-9.44c-4.035-0.94-8.067,1.569-9.006,5.604c-0.939,4.033,1.569,8.065,5.603,9.006
	l41.442,9.652l-41.376,23.888L69.89,358.123c-4.035-0.94-8.067,1.569-9.006,5.604c-0.938,4.032,1.569,8.065,5.603,9.006
	l41.442,9.652l-45.348,26.182c-3.588,2.071-4.816,6.658-2.745,10.245c2.071,3.587,6.658,4.817,10.245,2.745l45.348-26.182
	l-12.361,40.715c-1.203,3.964,1.036,8.152,4.998,9.355c3.964,1.203,8.152-1.034,9.356-4.998l17.015-56.047l41.376-23.888
	l-12.361,40.716c-1.203,3.964,1.036,8.152,4.998,9.355c3.964,1.203,8.152-1.034,9.356-4.998l10.558-34.777
	c8.43,10.229,19.27,18.403,31.643,23.641c-6.304,16.084-7.075,33.153-2.278,50.851c0.699,2.579-0.647,4.401-1.258,5.065
	c-0.649,0.706-2.469,2.292-5.31,1.767c-13.643-2.519-26.963-3.143-39.591-1.858c-4.121,0.42-7.122,4.101-6.702,8.222
	c0.419,4.12,4.104,7.105,8.221,6.702c11.216-1.144,23.114-0.604,35.349,1.685c8.15,1.525,15.08-2.025,19.068-6.354
	c4.787-5.197,6.544-12.356,4.703-19.152c-4.017-14.819-3.28-29.046,2.153-42.376c5.711,1.255,11.635,1.936,17.719,1.936
	c8.629,0,16.952-1.337,24.776-3.805c6.155,13.849,7.151,28.703,2.938,44.245c-1.842,6.795-0.084,13.955,4.703,19.152
	c4.868,5.284,11.994,7.66,19.067,6.354c26.084-4.813,63.868-4.778,92.812,25.582c7.481,7.847,16.258,6.575,16.527,6.565
	c6.147-0.227,11.96-3.047,15.947-7.737c12.535-14.747,34.136-32.05,65.761-30.857c6.214,0.269,12-2.975,15.125-8.385
	C512.86,446.642,512.754,440.014,509.444,434.759z M170.607,274.494c0-27.189,22.12-49.308,49.308-49.308
	c7.084,0,13.986,1.504,20.33,4.379c-2.079,2.575-3.992,5.31-5.718,8.193c-28.468,6.195-51.485,27.116-60.663,54.358
	C171.73,286.539,170.607,280.574,170.607,274.494z M184.549,318.398c0-37.24,30.297-67.539,67.539-67.539
	c18.719,0,36.764,7.872,49.508,21.6c2.819,3.036,7.563,3.212,10.6,0.394c3.036-2.817,3.211-7.563,0.394-10.599
	c-15.006-16.164-36.03-25.657-58.009-26.329c10.579-11.336,25.518-18.017,41.397-18.017c31.201,0,56.585,25.384,56.585,56.585
	c0,15.889-6.667,30.804-17.992,41.377c-0.278-9.278-2.07-18.343-5.374-26.973c-1.48-3.869-5.818-5.803-9.686-4.324
	c-3.868,1.481-5.804,5.817-4.323,9.686c2.946,7.696,4.439,15.819,4.439,24.141c0,37.24-30.297,67.538-67.539,67.538
	C214.847,385.936,184.549,355.639,184.549,318.398z M496.754,444.55c-0.246,0.427-0.723,0.946-1.559,0.896
	c-37.669-1.465-63.077,18.852-77.766,36.131c-1.288,1.515-3.089,2.39-5.071,2.463c-2.004,0.062-3.879-0.675-5.292-2.107
	c-34.065-34.549-76.565-35.276-106.217-29.801c-2.842,0.524-4.66-1.061-5.31-1.767c-0.611-0.664-1.958-2.486-1.258-5.065
	c5.046-18.615,3.789-37.119-3.588-53.978c12.449-6.617,23.003-16.329,30.649-28.102l12.862,42.367
	c1.204,3.964,5.392,6.201,9.356,4.998c3.963-1.203,6.2-5.391,4.998-9.355l-12.361-40.716l41.376,23.888l17.015,56.047
	c1.204,3.964,5.392,6.201,9.356,4.998c3.961-1.204,6.2-5.391,4.997-9.355l-12.361-40.715l45.348,26.182
	c3.588,2.071,8.174,0.842,10.245-2.745c2.071-3.587,0.842-8.174-2.745-10.245l-45.348-26.182l41.442-9.652
	c4.035-0.94,6.542-4.974,5.603-9.006c-0.94-4.034-4.972-6.543-9.006-5.604l-57.046,13.289l-41.376-23.888l41.442-9.652
	c4.035-0.94,6.542-4.974,5.603-9.006c-0.94-4.034-4.972-6.543-9.006-5.604l-45.893,10.689c15.841-10.631,26.704-27.083,30.358-45.59
	c11.031-4.057,21.093-10.605,29.967-19.532c1.884-1.896,4.135-1.641,5.015-1.443c0.937,0.211,3.219,0.993,4.186,3.717
	c10.085,28.416,31.963,64.856,78.917,77.085c1.947,0.507,3.535,1.761,4.471,3.529c0.928,1.753,1.071,3.75,0.403,5.622
	c-7.621,21.361-12.49,53.52,7.591,85.413C497.199,443.464,497,444.124,496.754,444.55z"/>
<g>
</g>
<g>
</g>
<g>
</g>
<g>
</g>
<g>
</g>
<g>
</g>
<g>
</g>
<g>
</g>
<g>
</g>
<g>
</g>
<g>
</g>
<g>
</g>
<g>
</g>
<g>
</g>
<g>
</g>
</svg>
