<?xml version="1.0" encoding="iso-8859-1"?>
<!-- Generator: Adobe Illustrator 19.0.0, SVG Export Plug-In . SVG Version: 6.00 Build 0)  -->
<svg version="1.1" id="Capa_1" xmlns="http://www.w3.org/2000/svg" xmlns:xlink="http://www.w3.org/1999/xlink" x="0px" y="0px"
	 viewBox="0 0 512 512" style="enable-background:new 0 0 512 512;" xml:space="preserve">
<path style="fill:#D1E7F8;" d="M351.334,504.5c-25.545,0-46.254-20.708-46.254-46.254V149.089c0-27.064-22.018-49.081-49.081-49.081
	c-27.063,0-49.081,22.017-49.081,49.081c0,25.546-20.709,46.254-46.254,46.254c-25.545,0-46.254-20.708-46.254-46.254
	C114.41,71.017,177.926,7.5,255.999,7.5s141.589,63.517,141.589,141.589v309.157C397.588,483.792,376.879,504.5,351.334,504.5z"/>
<path style="fill:#B9D8F4;" d="M350.178,458.246V149.089c0-51.93-42.249-94.178-94.179-94.178
	c-51.832,0-91.203,42.174-94.178,93.884c-0.995,17.298,3.646,35.22,7.081,45.803c21.613-3.887,38.017-22.775,38.017-45.508
	c0-27.064,22.018-49.081,49.081-49.081c27.064,0,49.081,22.017,49.081,49.081v309.157c0,25.546,20.709,46.254,46.254,46.254
	c4.615,0,9.069-0.685,13.275-1.943C348.72,488.416,350.178,458.246,350.178,458.246z"/>
<g>
	<path style="fill:#FF5555;" d="M397.588,341.771l-92.508,57.525v58.95c0,6.748,1.457,13.152,4.055,18.933l88.454-55.003v-80.405
		H397.588z"/>
	<polygon style="fill:#FF5555;" points="397.588,280.109 397.588,199.705 305.08,257.23 305.08,337.634 	"/>
	<path style="fill:#FF5555;" d="M305.08,149.089v46.479l92.1-57.271c-1.844-24.358-9.886-47.009-22.537-66.39l-78.59,48.87
		C301.729,128.783,305.08,138.549,305.08,149.089z"/>
	<path style="fill:#FF5555;" d="M150.865,54.36c-15.412,17.088-26.721,37.939-32.378,60.988L199,174.982
		c5.001-7.388,7.922-16.299,7.922-25.893c0-15.853,7.561-29.965,19.259-38.944L150.865,54.36z"/>
	<path style="fill:#FF5555;" d="M255.999,7.5c-5.957,0-11.827,0.374-17.593,1.092l-10.678,100.413
		c7.999-5.658,17.749-8.997,28.271-8.997c16.036,0,30.298,7.731,39.26,19.66l10.949-102.962C290.594,10.765,273.672,7.5,255.999,7.5
		z"/>
</g>
<g>
	<path style="fill:#E04141;" d="M305.08,458.246c0,6.748,1.457,13.152,4.055,18.933l41.043-25.522v-80.404l-45.098,28.043V458.246z"
		/>
	<polygon style="fill:#E04141;" points="305.08,337.634 350.178,309.591 350.178,229.186 305.08,257.23 	"/>
	<path style="fill:#E04141;" d="M305.08,149.089v46.479l45.098-28.043V149.09c0-19.272-5.828-37.203-15.801-52.144l-38.324,23.831
		C301.729,128.783,305.08,138.549,305.08,149.089z"/>
	<path style="fill:#E04141;" d="M206.922,149.089c0-15.853,7.561-29.965,19.259-38.944l-36.323-26.904
		c-15.991,16.658-26.204,39.315-27.935,64.278L199,174.981C204,167.593,206.922,158.683,206.922,149.089z"/>
	<path style="fill:#E04141;" d="M255.999,100.009c16.036,0,30.298,7.731,39.26,19.66l5.671-53.33
		c-13.362-7.284-28.671-11.428-44.931-11.428c-7.929,0-15.562,0.997-22.822,2.854l-5.449,51.241
		C235.727,103.347,245.477,100.009,255.999,100.009z"/>
</g>
<path d="M255.999,0c-82.208,0-149.088,66.881-149.088,149.089c0,29.641,24.114,53.755,53.754,53.755
	c29.64,0,53.754-24.114,53.754-53.755c0-22.928,18.653-41.58,41.581-41.58s41.582,18.652,41.582,41.58v309.157
	c0,29.64,24.114,53.754,53.754,53.754s53.754-24.114,53.754-53.754V149.089C405.088,66.881,338.207,0,255.999,0z M390.088,418.008
	l-76.773,47.74c-0.478-2.428-0.735-4.935-0.735-7.501v-54.782l77.508-48.197V418.008z M312.58,199.736l77.508-48.197v43.998
	l-77.508,48.197V199.736z M312.58,182.072v-32.983c0-9.312-2.276-18.098-6.278-25.854l65.909-40.984
	c9.044,15.663,15.005,33.317,17.067,52.127L312.58,182.072z M390.088,337.603L312.58,385.8v-43.998l60.202-37.435
	c3.518-2.188,4.596-6.813,2.409-10.329c-2.188-3.518-6.812-4.598-10.33-2.409l-52.281,32.509v-62.741l77.508-48.197V337.603z
	 M363.989,69.7l-59.83,37.204l8.438-79.355C333.055,37.115,350.716,51.693,363.989,69.7z M162.169,53.399
	c18.284-17.932,41.663-30.68,67.741-35.844l-8.479,79.737L162.169,53.399z M199.418,149.089c0,21.369-17.385,38.755-38.754,38.755
	c-21.369,0-38.754-17.386-38.754-38.755c0-7.035,0.548-13.944,1.597-20.689l46.792,34.657c4.936,3.252,9.02,0.424,10.491-1.563
	c2.465-3.328,1.766-8.025-1.563-10.491l-52.198-38.661c5.048-17.692,13.652-33.897,24.978-47.802l62.411,46.226
	C205.115,120.854,199.418,134.316,199.418,149.089z M255.999,92.509c-6.788,0-13.3,1.204-19.336,3.406l8.558-80.48
	C248.777,15.15,252.37,15,255.999,15c14.711,0,28.872,2.388,42.127,6.786l-8.687,81.699
	C280.063,96.592,268.501,92.509,255.999,92.509z M351.334,497c-13.402,0-25.234-6.84-32.196-17.21l70.95-44.119v22.575
	C390.088,479.615,372.703,497,351.334,497z"/>
<g>
</g>
<g>
</g>
<g>
</g>
<g>
</g>
<g>
</g>
<g>
</g>
<g>
</g>
<g>
</g>
<g>
</g>
<g>
</g>
<g>
</g>
<g>
</g>
<g>
</g>
<g>
</g>
<g>
</g>
</svg>
