<?xml version="1.0" encoding="iso-8859-1"?>
<!-- Generator: Adobe Illustrator 19.0.0, SVG Export Plug-In . SVG Version: 6.00 Build 0)  -->
<svg version="1.1" id="Capa_1" xmlns="http://www.w3.org/2000/svg" xmlns:xlink="http://www.w3.org/1999/xlink" x="0px" y="0px"
	 viewBox="0 0 512 512" style="enable-background:new 0 0 512 512;" xml:space="preserve">
<path style="fill:#DB543E;" d="M488.163,321.453c0,56.209-45.567,101.776-101.776,101.776s-101.776-45.567-101.776-101.776
	c0-38.589,47.969-129.681,78.043-183c10.43-18.492,37.037-18.492,47.467,0C440.195,191.772,488.163,282.864,488.163,321.453z"/>
<path style="fill:#B73E2A;" d="M362.654,138.453c-30.074,53.319-78.043,144.411-78.043,183c0,56.209,45.567,101.776,101.776,101.776
	c15.854,0,30.86-3.626,44.237-10.092c30.854-82.751,14.252-180.414-2.625-242.217c-6.289-11.715-12.383-22.723-17.879-32.467
	C399.69,119.962,373.083,119.962,362.654,138.453z"/>
<path style="fill:#DB543E;" d="M237.784,321.453c0,56.209-45.567,101.776-101.776,101.776S34.232,377.663,34.232,321.453
	c0-36.486,42.883-99.253,72.978-138.808c14.491-19.047,43.106-19.047,57.597,0C194.901,222.2,237.784,284.967,237.784,321.453z"/>
<path style="fill:#B73E2A;" d="M237.784,321.453c0-36.486-42.883-99.253-72.978-138.808c-14.491-19.047-43.106-19.047-57.597,0
	c-9.129,12-19.435,26.137-29.364,41.026c-16.791,59.158-25.265,143.184,35.482,197.018c7.294,1.66,14.884,2.54,22.68,2.54
	C192.218,423.229,237.784,377.663,237.784,321.453z"/>
<path style="fill:#B26632;" d="M264.791,458.987H45.217c-20.83,0-37.717-16.886-37.717-37.717v-15.026
	c0-20.83,16.886-37.717,37.717-37.717h219.575c20.83,0,37.717,16.886,37.717,37.717v15.026
	C302.508,442.101,285.622,458.987,264.791,458.987z"/>
<path style="fill:#995628;" d="M182.281,430.73H66.39c-4.143,0-7.5-3.358-7.5-7.5s3.357-7.5,7.5-7.5h115.892
	c4.143,0,7.5,3.358,7.5,7.5S186.424,430.73,182.281,430.73z"/>
<path style="fill:#FF7956;" d="M407.527,307.46c0,83.686-67.841,151.527-151.527,151.527S104.473,391.146,104.473,307.46
	c0-61.957,83.055-182.96,126.185-241.62c12.575-17.102,38.109-17.102,50.684,0C324.472,124.5,407.527,245.503,407.527,307.46z"/>
<path style="fill:#FF5023;" d="M248.5,307.46c0-43.225,40.424-115.187,79.514-174.67c-16.941-25.779-33.631-49.214-46.672-66.95
	c-12.575-17.102-38.109-17.102-50.684,0c-43.13,58.66-126.185,179.663-126.185,241.62c0,83.686,67.841,151.527,151.527,151.527
	c26.066,0,50.593-6.584,72.014-18.176C280.663,415.186,248.5,365.08,248.5,307.46z"/>
<path style="fill:#FFEB99;" d="M349.043,340.928c0,51.386-41.657,93.043-93.043,93.043s-93.043-41.657-93.043-93.043
	c0-35.013,43.197-103.12,70.724-142.967c10.789-15.618,33.848-15.618,44.637,0C305.846,237.808,349.043,305.915,349.043,340.928z"/>
<path style="fill:#FFDE55;" d="M248.5,307.46c0-26.258,14.92-63.121,35.394-101.35c-1.914-2.825-3.779-5.548-5.575-8.149
	c-10.789-15.618-33.848-15.618-44.637,0c-27.527,39.847-70.724,107.954-70.724,142.967c0,51.386,41.657,93.043,93.043,93.043
	c16.39,0,31.786-4.243,45.161-11.683C268.916,394.5,248.5,353.365,248.5,307.46z"/>
<path style="fill:#C9753D;" d="M466.039,458.987H275.155c-21.242,0-38.461-17.22-38.461-38.461v-13.537
	c0-21.242,17.22-38.461,38.461-38.461h190.883c21.242,0,38.461,17.22,38.461,38.461v13.537
	C504.5,441.767,487.28,458.987,466.039,458.987z"/>
<g>
	<path style="fill:#B26632;" d="M416.958,410.605h-25.565c-4.143,0-7.5-3.358-7.5-7.5s3.357-7.5,7.5-7.5h25.565
		c4.143,0,7.5,3.358,7.5,7.5S421.101,410.605,416.958,410.605z"/>
	<path style="fill:#B26632;" d="M359.436,395.605H238.408c-1.113,3.598-1.714,7.421-1.714,11.384v3.616h122.742
		c4.143,0,7.5-3.358,7.5-7.5S363.578,395.605,359.436,395.605z"/>
	<path style="fill:#B26632;" d="M504.041,426.471h-96.514c-4.143,0-7.5,3.358-7.5,7.5s3.357,7.5,7.5,7.5h90.762
		C501.186,437.021,503.193,431.939,504.041,426.471z"/>
</g>
<path d="M486.293,365.744c6.142-13.871,9.37-29.018,9.37-44.291c0-8.269-1.857-18.518-5.678-31.332
	c-1.185-3.97-5.359-6.229-9.33-5.045c-3.97,1.184-6.229,5.361-5.045,9.331c3.353,11.245,5.053,20.345,5.053,27.046
	c0,13.821-3.055,27.521-8.864,39.948c-1.889-0.237-66.03-0.374-66.03-0.374c6.141-17.141,9.257-35.117,9.257-53.568
	c0-36.322-26.543-90.941-58.161-143.118c3.976-7.285,8.102-14.726,12.319-22.204c3.551-6.295,9.981-10.053,17.202-10.053
	c7.22,0,13.65,3.758,17.201,10.053c19.163,33.976,45.32,83.126,61.941,123.993c2.497,6.14,8.84,4.526,9.758,4.157
	c3.843-1.547,5.703-5.916,4.156-9.758c-16.778-41.679-43.407-91.394-62.791-125.76c-6.246-11.073-17.561-17.684-30.266-17.684
	c-12.706,0-24.021,6.611-30.268,17.685c-2.816,4.994-5.59,9.971-8.312,14.901C327.03,116.611,305,85.359,287.382,61.397
	C279.963,51.302,268.523,45.513,256,45.513s-23.963,5.79-31.385,15.884c-20.331,27.651-46.535,65.007-69.907,103.65
	c-18.331-8.673-40.861-3.513-53.468,13.057c-61.582,80.944-74.509,122.632-74.509,143.35c0,13.993,2.718,27.925,7.906,40.836
	C14.793,367.067,0,384.955,0,406.244v15.026c0,24.933,20.284,45.217,45.217,45.217h420.822c25.343,0,45.961-20.618,45.961-45.961
	v-13.537C512,388.912,501.506,373.245,486.293,365.744z M236.701,70.282c4.564-6.208,11.599-9.77,19.299-9.77
	c7.7,0,14.734,3.561,19.3,9.77C312.802,121.287,400.027,246.5,400.027,307.46c0,18.54-3.469,36.546-10.298,53.568h-35.214
	c1.337-6.587,2.028-13.312,2.028-20.1c0-19.584-12.501-61.024-72.054-147.23c-6.468-9.362-17.117-14.951-28.489-14.951
	s-22.021,5.589-28.489,14.951c-14.309,20.713-34.557,51.558-49.757,80.878c-1.906,3.678-0.471,8.204,3.206,10.11
	c3.678,1.908,8.205,0.472,10.11-3.206c14.841-28.625,34.719-58.9,48.782-79.257c3.721-5.387,9.606-8.476,16.147-8.476
	c6.541,0,12.427,3.089,16.147,8.476c44.102,63.839,69.396,114.396,69.396,138.705c0,6.813-0.81,13.549-2.386,20.1h-64.001
	c-25.343,0-45.961,20.618-45.961,45.961c0,0,0.022,14.654,0.042,15.21c-34.627-11.369-58.78-43.974-58.78-81.271
	c0-7.67,2.474-17.958,7.353-30.58c1.494-3.863-0.428-8.206-4.291-9.7c-3.862-1.494-8.206,0.428-9.699,4.292
	c-5.627,14.556-8.362,26.328-8.362,35.988c0,46.807,32.373,87.332,77.545,97.891c1.887,4.331,4.424,8.313,7.485,11.831
	c-72.148-7.763-128.514-69.014-128.514-143.19C111.973,246.5,199.198,121.287,236.701,70.282z M113.178,187.186
	c7.989-10.501,22.036-14.033,33.82-9.159c-27.905,47.874-50.025,96.276-50.025,129.432c0,18.788,3.284,36.822,9.293,53.568H50.422
	c-5.763-12.41-8.691-25.699-8.691-39.574C41.731,295.428,67.104,247.745,113.178,187.186z M45.217,451.487
	C28.556,451.487,15,437.932,15,421.27v-15.026c0-16.661,13.556-30.216,30.217-30.216h67.314
	c15.874,33.081,42.863,59.852,76.095,75.459H45.217z M497,420.526c0,17.072-13.889,30.961-30.961,30.961H275.155
	c-17.072,0-30.961-13.889-30.961-30.961v-13.537c0-17.072,13.889-30.961,30.961-30.961h69.701c0.009,0,0.018,0.002,0.026,0.002
	s121.156-0.002,121.156-0.002c17.072,0,30.961,13.889,30.961,30.961v13.537H497z"/>
<g>
</g>
<g>
</g>
<g>
</g>
<g>
</g>
<g>
</g>
<g>
</g>
<g>
</g>
<g>
</g>
<g>
</g>
<g>
</g>
<g>
</g>
<g>
</g>
<g>
</g>
<g>
</g>
<g>
</g>
</svg>
