<?xml version="1.0" encoding="iso-8859-1"?>
<!-- Generator: Adobe Illustrator 19.0.0, SVG Export Plug-In . SVG Version: 6.00 Build 0)  -->
<svg version="1.1" id="Capa_1" xmlns="http://www.w3.org/2000/svg" xmlns:xlink="http://www.w3.org/1999/xlink" x="0px" y="0px"
	 viewBox="0 0 512.001 512.001" style="enable-background:new 0 0 512.001 512.001;" xml:space="preserve">
<path style="fill:#4A994A;" d="M73.555,213.951c-6.347,3.917-16.972,7.36-31.255,1.134c-3.964-1.728-8.54,0.253-10.135,4.272
	c-2.499,6.298-8.077,14.672-20.522,20.278c-3.303,1.488-3.713,6.06-0.729,8.112c11.246,7.734,15.244,16.967,16.581,23.61
	c0.853,4.239,5.003,7.004,9.212,6.01c15.164-3.582,25.004,1.7,30.552,6.685c3.218,2.892,8.188,2.705,10.992-0.59
	c12.267-14.416,24.858-11.222,24.858-11.222l3.617-40.279c0,0-12.959,0.898-22.461-15.473
	C82.095,212.748,77.238,211.679,73.555,213.951z"/>
<path style="fill:#67B758;" d="M69.271,243.004c-3.495,6.589-10.918,14.934-26.389,16.786c-4.294,0.514-7.24,4.537-6.583,8.812
	c1.029,6.697,0.452,16.742-7.448,27.872c-2.097,2.954-0.139,7.105,3.474,7.367c13.614,0.985,21.731,6.928,26.244,11.982
	c2.88,3.226,7.859,3.512,10.986,0.526c11.27-10.758,22.431-11.179,29.738-9.684c4.239,0.867,8.432-1.808,9.185-6.068
	c3.292-18.64,15.769-22.254,15.769-22.254l-17.25-36.576c0,0-10.724,7.328-27.201-1.988
	C76.03,237.647,71.299,239.181,69.271,243.004z"/>
<circle style="fill:#FFD422;" cx="82.774" cy="217.999" r="31.43"/>
<circle style="fill:#FFEB99;" cx="102.275" cy="237.329" r="31.43"/>
<path style="fill:#FFDE55;" d="M79.802,259.305c12.133,12.412,32.033,12.638,44.446,0.504l-43.941-44.95
	C67.894,226.994,67.668,246.893,79.802,259.305z"/>
<path style="fill:#FFC477;" d="M102.561,138.056c0,0-45.68-7.666-77.725-23.481c-10.062-4.966-20.801,5.249-16.283,15.521
	c13.431,30.532,45.9,69.922,122.392,65.555C130.653,195.651,102.561,138.056,102.561,138.056z"/>
<path style="fill:#FFB655;" d="M46.825,176.44c19.312,12.85,46.345,21.368,84.12,19.211c-0.292,0-28.385-57.594-28.385-57.594
	s-34.308-5.76-64.318-17.59C38.994,134.934,41.132,155.35,46.825,176.44z"/>
<path style="fill:#FFDAAA;" d="M194.641,202.703c0,0-79.701-60.221-124.14-140.963c-7.078-12.86-26.747-6.528-24.992,8.045
	c6.156,51.124,29.827,120.505,106.213,170.399C151.722,239.404,194.641,202.703,194.641,202.703z"/>
<path style="fill:#4A994A;" d="M438.446,213.951c6.347,3.917,16.972,7.36,31.255,1.134c3.964-1.728,8.54,0.253,10.135,4.272
	c2.499,6.298,8.077,14.672,20.522,20.278c3.303,1.488,3.713,6.06,0.729,8.112c-11.246,7.734-15.244,16.967-16.581,23.61
	c-0.853,4.239-5.003,7.004-9.212,6.01c-15.164-3.582-25.004,1.7-30.552,6.685c-3.218,2.892-8.188,2.705-10.992-0.59
	c-12.267-14.416-24.858-11.222-24.858-11.222l-3.617-40.279c0,0,12.958,0.898,22.461-15.473
	C429.906,212.748,434.764,211.679,438.446,213.951z"/>
<path style="fill:#67B758;" d="M442.73,243.004c3.495,6.589,10.918,14.934,26.389,16.786c4.294,0.514,7.24,4.537,6.583,8.812
	c-1.029,6.697-0.452,16.742,7.448,27.872c2.097,2.954,0.139,7.105-3.474,7.367c-13.614,0.985-21.731,6.928-26.244,11.982
	c-2.88,3.226-7.859,3.512-10.987,0.526c-11.27-10.758-22.431-11.179-29.738-9.684c-4.239,0.867-8.432-1.808-9.185-6.068
	c-3.292-18.64-15.769-22.254-15.769-22.254l17.25-36.576c0,0,10.724,7.328,27.201-1.988
	C435.972,237.647,440.703,239.181,442.73,243.004z"/>
<circle style="fill:#FFD422;" cx="429.227" cy="217.999" r="31.43"/>
<circle style="fill:#FFEB99;" cx="409.727" cy="237.329" r="31.43"/>
<path style="fill:#FFDE55;" d="M432.199,259.305c-12.133,12.412-32.033,12.638-44.446,0.504l43.941-44.95
	C444.108,226.994,444.334,246.893,432.199,259.305z"/>
<path style="fill:#FFC477;" d="M409.441,138.056c0,0,45.68-7.666,77.725-23.481c10.062-4.966,20.801,5.249,16.283,15.521
	c-13.431,30.532-45.9,69.922-122.392,65.555C381.348,195.651,409.441,138.056,409.441,138.056z"/>
<path style="fill:#FFB655;" d="M465.177,176.44c-19.312,12.85-46.345,21.368-84.12,19.211c0.292,0,28.385-57.594,28.385-57.594
	s34.308-5.76,64.318-17.59C473.007,134.934,470.87,155.35,465.177,176.44z"/>
<path style="fill:#FFDAAA;" d="M317.36,202.703c0,0,79.701-60.221,124.14-140.963c7.078-12.86,26.747-6.528,24.992,8.045
	c-6.156,51.124-29.827,120.505-106.213,170.399C360.279,239.404,317.36,202.703,317.36,202.703z"/>
<path style="fill:#FF5555;" d="M341.792,457.241c-5.604,0-11.138-2.543-14.763-7.368c-6.118-8.145-4.474-19.708,3.67-25.826
	c31.661-23.78,49.819-60.095,49.819-99.633c0-68.66-55.857-124.517-124.517-124.517s-124.518,55.858-124.518,124.517
	c0,39.537,18.158,75.851,49.817,99.632c8.145,6.118,9.788,17.681,3.67,25.826c-6.118,8.144-17.68,9.789-25.826,3.67
	c-19.598-14.721-35.837-34.012-46.961-55.788c-11.507-22.526-17.591-47.887-17.591-73.34c0-89,72.408-161.407,161.408-161.407
	s161.407,72.407,161.407,161.407c0,25.454-6.083,50.815-17.591,73.341c-11.124,21.776-27.364,41.068-46.963,55.788
	C349.534,456.037,345.646,457.241,341.792,457.241z"/>
<path style="fill:#E04141;" d="M397.519,324.413c0-78.033-63.484-141.518-141.519-141.518S114.482,246.38,114.482,324.413
	c0,44.934,20.633,86.202,56.607,113.225c0,0,7.205,7.553,7.034,17.822c2.617-1.239,4.985-3.113,6.845-5.589
	c6.118-8.145,4.475-19.708-3.67-25.826c-31.659-23.781-49.817-60.095-49.817-99.632c0-68.66,55.858-124.517,124.518-124.517
	s124.517,55.858,124.517,124.517c0,39.538-18.158,75.853-49.819,99.633c-8.144,6.118-9.788,17.681-3.67,25.826
	c1.861,2.477,4.226,4.354,6.845,5.593c-0.174-10.272,7.036-17.827,7.036-17.827C376.886,410.616,397.519,369.348,397.519,324.413z"
	/>
<path d="M503.439,232.799c-10.266-4.625-14.711-11.366-16.631-16.206c-1.521-3.831-4.57-6.926-8.369-8.492
	c-3.746-1.544-7.842-1.522-11.559,0.044c-1.72-6.619-5.2-12.867-10.436-17.987c-0.007-0.007-0.015-0.013-0.022-0.02
	c29.234-14.214,45.222-37.311,53.892-57.021c3.338-7.587,1.637-16.182-4.332-21.894c-5.987-5.729-14.674-7.055-22.135-3.373
	c-5.708,2.817-12.251,5.546-19.546,8.159c5.048-16.269,7.995-31.686,9.638-45.326c1.229-10.21-4.529-19.191-14.331-22.346
	c-9.799-3.156-19.719,0.777-24.679,9.788c-28.43,51.653-71.931,95.006-97.794,118.184c-24.095-13.253-51.749-20.803-81.135-20.803
	c-50.732,0-96.307,22.486-127.295,58.009c-53.643-46.464-70.853-103.954-75.75-144.626c-0.535-4.444,2.953-5.926,4.034-6.274
	c1.082-0.347,4.781-1.181,6.94,2.742c23.891,43.408,57.842,80.799,82.116,104.524c2.962,2.895,7.711,2.84,10.605-0.122
	c2.896-2.962,2.841-7.711-0.121-10.606c-23.551-23.017-56.453-59.228-79.46-101.028c-4.959-9.01-14.874-12.943-24.679-9.788
	c-9.799,3.154-15.559,12.134-14.33,22.345c1.642,13.64,4.59,29.057,9.638,45.326c-7.294-2.613-13.838-5.342-19.546-8.159
	c-7.457-3.681-16.147-2.358-22.135,3.373c-5.969,5.712-7.67,14.307-4.332,21.894c8.67,19.711,24.657,42.808,53.892,57.022
	c-0.007,0.007-0.015,0.014-0.022,0.021c-5.236,5.119-8.715,11.366-10.435,17.986c-3.716-1.566-7.813-1.588-11.559-0.044
	c-3.799,1.566-6.849,4.662-8.369,8.492c-1.92,4.84-6.364,11.58-16.63,16.206c-3.994,1.799-6.719,5.636-7.112,10.012
	c-0.393,4.376,1.605,8.637,5.214,11.118c9.277,6.38,12.233,13.854,13.478,18.911c2.123,8.633,7.149,10.103,7.364,10.227
	c-0.998,2.839-2.513,5.882-4.772,9.065c-2.535,3.572-2.945,8.259-1.071,12.233c1.874,3.974,5.753,6.639,10.121,6.955
	c11.229,0.812,17.723,5.613,21.19,9.497c2.745,3.074,6.674,4.931,10.78,5.095c0.207,0.008,6.253,0.681,10.979-4.14
	c3.89-3.967,8.262-6.339,12.67-7.495c-0.199,3.354-0.313,6.731-0.313,10.134c0,26.632,6.366,53.173,18.412,76.752
	c11.639,22.785,28.629,42.97,49.136,58.372c11.437,8.592,27.734,6.275,36.326-5.162c4.163-5.541,5.918-12.371,4.942-19.233
	c-0.975-6.861-4.563-12.932-10.104-17.095c-29.755-22.351-46.821-56.48-46.821-93.635c0-64.524,52.493-117.017,117.018-117.017
	s117.017,52.492,117.017,117.016c0,37.157-17.066,71.287-46.824,93.637c-11.437,8.592-13.753,24.888-5.162,36.326
	c4.875,6.491,12.636,10.365,20.76,10.364c5.653,0,11.036-1.798,15.568-5.201c20.506-15.402,37.497-35.587,49.139-58.375
	c1.127-2.208,2.218-4.468,3.241-6.716c1.716-3.77,0.051-8.217-3.72-9.933c-3.767-1.714-8.217-0.05-9.933,3.719
	c-0.931,2.044-1.923,4.1-2.947,6.107c-10.608,20.767-25.895,39.436-44.787,53.203c-6.826,4.975-13.239,0.602-15.326-2.177
	c-3.624-4.825-2.647-11.7,2.177-15.325c33.564-25.21,52.815-63.711,52.815-105.63c0-72.795-59.223-132.017-132.018-132.017
	s-132.018,59.223-132.018,132.018c0,41.918,19.25,80.418,52.814,105.629c2.337,1.756,7.122,8.877,2.178,15.325
	c-3.674,4.79-10.499,5.802-15.325,2.178c-18.693-14.042-34.179-32.438-44.787-53.202c-10.97-21.477-16.77-45.658-16.77-69.929
	c0-84.864,69.043-153.907,153.907-153.907s153.907,69.043,153.907,153.907c0,11.425-1.289,22.907-3.831,34.124
	c-0.916,4.04,1.617,8.057,5.657,8.972c4.038,0.917,8.057-1.618,8.972-5.657c2.788-12.304,4.202-24.901,4.202-37.439
	c0-3.403-0.113-6.78-0.313-10.134c4.408,1.156,8.691,3.62,12.671,7.495c4.92,4.791,10.772,4.148,10.979,4.14
	c4.106-0.164,8.035-2.021,10.779-5.094c3.469-3.885,9.961-8.686,21.191-9.498c4.368-0.316,8.247-2.981,10.121-6.955
	c1.874-3.974,1.464-8.661-1.071-12.233c-2.259-3.183-3.774-6.226-4.772-9.065c0.215-0.123,5.48-1.806,7.364-10.227
	c1.137-5.082,4.199-12.529,13.477-18.91c3.609-2.482,5.607-6.742,5.215-11.119C510.157,238.434,507.432,234.597,503.439,232.799z
	 M119.349,225.258c-2.632,3.618-5.13,7.34-7.474,11.166l-20.116-20.578c4.668-2.285,10.018-3.02,15.263-1.965
	C110.919,217.731,115.021,221.529,119.349,225.258z M99.423,261.084c-5.374-0.644-10.409-3.084-14.259-7.021
	c-7.39-7.561-8.732-18.805-4.125-27.723l23.28,23.815C102.563,253.729,100.929,257.374,99.423,261.084z M15.419,127.076
	c-1.142-2.595,0.3-4.372,0.973-5.016c0.68-0.652,2.546-2.032,5.124-0.759c9.087,4.484,20.029,8.725,32.518,12.63
	c6.521,16.383,15.332,33.259,27.177,49.771C43.376,173.342,24.627,148.011,15.419,127.076z M88.797,200.818
	c-5.062,1.868-9.755,4.789-13.735,8.678c-6.518,6.372-10.308,14.494-11.375,22.903c-7.147-9.459-6.341-23.012,2.355-31.513
	c1.767-1.727,3.77-3.136,5.943-4.235C77.245,198.316,82.834,199.725,88.797,200.818z M18.916,244.38
	c11.936-6.604,17.57-15.576,20.221-22.255c0.057-0.143,0.164-0.163,0.167-0.163c1.667,0.727,3.336,1.336,5.002,1.869
	c1.093,14.982,11.706,22.451,12.267,22.962c-3.795,2.977-8.67,4.801-14.584,5.55c-8.155,1.032-10.658,6.52-10.881,6.87
	C28.624,254.353,24.798,249.179,18.916,244.38z M64.385,310.923c0.001,0-0.114,0.024-0.222-0.096
	c-4.785-5.359-13.164-11.845-26.64-13.942c6.955-11.731,7.28-22.323,6.188-29.424c-0.023-0.154,0.061-0.226,0.062-0.226
	c9.847-1.179,18.247-4.936,24.564-10.837c1.632,2.908,3.661,5.654,6.1,8.149c5.47,5.596,12.409,9.341,19.902,10.898
	c-2.296,7.564-4.083,15.349-5.302,23.318C80.197,299.743,71.743,303.892,64.385,310.923z M426.836,254.062
	c-3.85,3.937-8.885,6.379-14.259,7.023c-1.506-3.711-3.139-7.356-4.896-10.93l23.28-23.815
	C435.57,235.257,434.228,246.502,426.836,254.062z M404.979,213.88c5.246-1.053,10.595-0.319,15.263,1.966l-20.116,20.578
	c-2.344-3.826-4.842-7.548-7.474-11.166C396.981,221.529,401.082,217.731,404.979,213.88z M445.957,200.886
	c8.697,8.501,9.503,22.054,2.356,31.513c-1.067-8.409-4.856-16.531-11.375-22.903c-3.979-3.889-8.671-6.81-13.735-8.678
	c5.964-1.092,11.552-2.502,16.811-4.166C442.189,197.75,444.191,199.159,445.957,200.886z M490.486,121.301
	c2.581-1.274,4.443,0.107,5.124,0.759c0.673,0.644,2.114,2.421,0.973,5.016c-9.208,20.935-27.957,46.266-65.793,56.626
	c11.845-16.512,20.656-33.388,27.177-49.771C470.456,130.026,481.397,125.785,490.486,121.301z M350.481,184.467
	c26.909-24.5,69.312-67.732,97.589-119.11c2.158-3.922,5.857-3.09,6.94-2.742c1.081,0.349,4.569,1.831,4.034,6.274
	c-4.897,40.672-22.106,98.162-75.75,144.626C373.67,202.481,362.64,192.702,350.481,184.467z M447.837,310.828
	c-0.104,0.117-0.218,0.096-0.213,0.096c-7.365-7.032-15.819-11.181-24.66-12.16c-1.219-7.969-3.007-15.753-5.303-23.318
	c7.492-1.557,14.432-5.302,19.902-10.898c2.439-2.496,4.468-5.241,6.1-8.15c6.316,5.901,14.716,9.657,24.558,10.832
	c0.001,0.001,0.092,0.073,0.067,0.232c-1.092,7.102-0.769,17.691,6.188,29.424C461.002,298.982,452.623,305.468,447.837,310.828z
	 M480.892,259.212c-0.223-0.35-2.215-5.611-10.881-6.87c-5.898-0.857-10.788-2.572-14.584-5.55
	c0.562-0.511,11.174-9.457,12.268-22.963c1.664-0.534,3.331-1.143,4.994-1.87c0.001,0,0.116,0.016,0.175,0.166
	c2.65,6.678,8.286,15.651,20.221,22.254C487.204,249.179,483.377,254.353,480.892,259.212z"/>
<g>
</g>
<g>
</g>
<g>
</g>
<g>
</g>
<g>
</g>
<g>
</g>
<g>
</g>
<g>
</g>
<g>
</g>
<g>
</g>
<g>
</g>
<g>
</g>
<g>
</g>
<g>
</g>
<g>
</g>
</svg>
