<?xml version="1.0" encoding="iso-8859-1"?>
<!-- Generator: Adobe Illustrator 19.0.0, SVG Export Plug-In . SVG Version: 6.00 Build 0)  -->
<svg version="1.1" id="Capa_1" xmlns="http://www.w3.org/2000/svg" xmlns:xlink="http://www.w3.org/1999/xlink" x="0px" y="0px"
	 viewBox="0 0 512 512" style="enable-background:new 0 0 512 512;" xml:space="preserve">
<g>
	<path style="fill:#B9D8F4;" d="M440.079,415.363L440.079,415.363c16.666-9.503,22.526-30.914,13.022-47.58l-45.346-79.521
		c-9.503-16.666-30.914-22.526-47.58-13.022l0,0c-16.666,9.503-22.526,30.914-13.022,47.58l45.346,79.521
		C402.002,419.006,423.413,424.866,440.079,415.363z"/>
	<path style="fill:#B9D8F4;" d="M71.986,415.363L71.986,415.363c-16.666-9.503-22.526-30.914-13.022-47.58l45.346-79.521
		c9.503-16.666,30.914-22.526,47.58-13.022l0,0c16.666,9.503,22.526,30.914,13.022,47.58l-45.346,79.521
		C110.062,419.006,88.651,424.866,71.986,415.363z"/>
</g>
<g>
	<path style="fill:#96C8EF;" d="M151.889,275.239L151.889,275.239c-16.666-9.503-38.077-3.643-47.58,13.022L81.255,328.69
		c2.068,25.965,8.384,59.223,25.565,86.469c5.148-2.983,9.601-7.306,12.745-12.82l45.346-79.521
		C174.415,306.154,168.555,284.743,151.889,275.239z"/>
	<path style="fill:#96C8EF;" d="M360.175,275.239L360.175,275.239c16.666-9.503,38.077-3.643,47.58,13.022l23.054,40.429
		c-2.068,25.965-8.384,59.223-25.565,86.469c-5.148-2.983-9.601-7.306-12.745-12.82l-45.346-79.521
		C337.65,306.154,343.51,284.743,360.175,275.239z"/>
	<path style="fill:#96C8EF;" d="M320.117,504.5L320.117,504.5c-15.242,0-27.712-12.471-27.712-27.712v-78.222
		c0-15.242,12.471-27.712,27.712-27.712l0,0c15.242,0,27.712,12.471,27.712,27.712v78.222
		C347.829,492.029,335.359,504.5,320.117,504.5z"/>
	<path style="fill:#96C8EF;" d="M191.947,504.5L191.947,504.5c-15.242,0-27.712-12.471-27.712-27.712v-78.222
		c0-15.242,12.471-27.712,27.712-27.712l0,0c15.242,0,27.712,12.471,27.712,27.712v78.222
		C219.66,492.029,207.189,504.5,191.947,504.5z"/>
</g>
<path style="fill:#D1E7F8;" d="M124.182,349.971c0,72.819,59.031,131.85,131.85,131.85s131.85-59.031,131.85-131.85
	s-59.031-194.978-131.85-194.978S124.182,277.152,124.182,349.971z"/>
<path style="fill:#B9D8F4;" d="M387.882,350.043c0-72.819-59.031-194.978-131.85-194.978s-131.85,122.159-131.85,194.978
	c0,71.422,56.79,129.573,127.676,131.778c-6.026-20.607-3.529-38.054,0.823-50.802c4.521-13.241,16.456-22.615,30.402-23.747
	c47.407-3.848,82.816-21.966,102.966-35.258C387.249,364.868,387.882,357.53,387.882,350.043z"/>
<path style="fill:#FFFFFF;" d="M256.032,441.821c-50.646,0-91.85-41.204-91.85-91.85c0-29.623,13.217-71.485,32.889-104.169
	c18.863-31.34,41.456-50.809,58.961-50.809s40.098,19.469,58.961,50.809c19.672,32.684,32.889,74.546,32.889,104.169
	C347.882,400.617,306.679,441.821,256.032,441.821z"/>
<path style="fill:#D1E7F8;" d="M347.882,350.185c0-29.623-13.217-71.485-32.889-104.169c-18.863-31.34-41.456-50.809-58.961-50.809
	s-40.098,19.469-58.961,50.809c-19.672,32.684-32.889,74.546-32.889,104.169c0,48.56,37.88,88.432,85.642,91.636
	c0.76-3.841,1.747-7.405,2.858-10.66c4.52-13.241,16.456-22.615,30.402-23.747c19.452-1.579,36.88-5.563,52.068-10.628
	C343.235,383.116,347.882,367.184,347.882,350.185z"/>
<path style="fill:#67B758;" d="M365.52,349.541H146.544c-29.788,0-53.936-24.148-53.936-53.936v-33.699
	c0-19.93,16.156-36.086,36.086-36.086H383.37c19.93,0,36.086,16.156,36.086,36.086v33.699
	C419.456,325.393,395.308,349.541,365.52,349.541z"/>
<path style="fill:#5AAA4F;" d="M360.175,275.239V225.82h-231.48c-19.93,0-36.086,16.156-36.086,36.086v33.698
	c0,29.788,24.148,53.936,53.936,53.936h145.86C342.175,317.576,360.175,275.239,360.175,275.239z"/>
<path style="fill:#92DD7A;" d="M242.635,381.506l-29.9-17.563l-29.9,17.563c-10.328,6.067-23.34-1.381-23.34-13.359V246.998h106.48
	v121.149C265.975,380.126,252.963,387.573,242.635,381.506z"/>
<path style="fill:#7EC66A;" d="M159.495,368.147c0,11.978,13.012,19.426,23.34,13.359l14.127-8.298
	c-0.021-8.237-0.038-16.813-0.042-24.548c-0.008-13.826,10.994-25.147,24.815-25.53c19.48-0.541,34.452-4.809,44.24-8.75v-67.382
	h-106.48L159.495,368.147L159.495,368.147z"/>
<g>
	<circle style="fill:#B9D8F4;" cx="400.13" cy="78.1" r="50.03"/>
	<circle style="fill:#B9D8F4;" cx="114.06" cy="78.1" r="50.03"/>
</g>
<g>
	<path style="fill:#708C9B;" d="M114.059,98.13c-11.044,0-20.029-8.985-20.029-20.028c0-11.044,8.985-20.029,20.029-20.029
		s20.029,8.985,20.029,20.029C134.087,89.145,125.103,98.13,114.059,98.13z"/>
	<path style="fill:#708C9B;" d="M398.006,98.13c-11.044,0-20.029-8.985-20.029-20.028c0-11.044,8.985-20.029,20.029-20.029
		s20.029,8.985,20.029,20.029C418.035,89.145,409.05,98.13,398.006,98.13z"/>
</g>
<path style="fill:#D1E7F8;" d="M417.178,168.646c0,88.999-72.148,131.151-161.146,131.151S94.886,257.645,94.886,168.646
	S167.034,7.5,256.032,7.5S417.178,79.648,417.178,168.646z"/>
<path style="fill:#C2DFF6;" d="M174.02,170.387c0-68.745,36.328-129.005,90.82-162.651c-2.914-0.157-5.855-0.237-8.808-0.237
	c-88.999,0-161.146,72.148-161.146,161.146c0,86.586,68.288,128.832,153.946,131.058C203.347,274.892,174.02,232.161,174.02,170.387
	z"/>
<path style="fill:#A3BED3;" d="M314.977,207.44c0,32.554-26.39,58.945-58.945,58.945s-58.945-26.39-58.945-58.945
	s26.39-90.127,58.945-90.127S314.977,174.886,314.977,207.44z"/>
<g>
	<path style="fill:#C2DFF6;" d="M256.032,101.152c-4.142,0-7.5-3.358-7.5-7.5V58.073c0-4.142,3.358-7.5,7.5-7.5s7.5,3.358,7.5,7.5
		v35.579C263.532,97.794,260.174,101.152,256.032,101.152z"/>
	<path style="fill:#C2DFF6;" d="M225.649,92.603c-4.142,0-7.5-3.358-7.5-7.5v-18.48c0-4.142,3.358-7.5,7.5-7.5s7.5,3.358,7.5,7.5
		v18.48C233.149,89.245,229.792,92.603,225.649,92.603z"/>
	<path style="fill:#C2DFF6;" d="M286.415,92.603c-4.142,0-7.5-3.358-7.5-7.5v-18.48c0-4.142,3.358-7.5,7.5-7.5s7.5,3.358,7.5,7.5
		v18.48C293.915,89.245,290.557,92.603,286.415,92.603z"/>
</g>
<path style="fill:#88A4B7;" d="M278.174,126.166c-6.837-5.514-14.31-8.853-22.142-8.853c-32.554,0-58.945,57.573-58.945,90.128
	s26.39,58.945,58.945,58.945c6.527,0,12.799-1.077,18.667-3.035C244.308,185.832,265.165,143.184,278.174,126.166z"/>
<circle style="fill:#57565C;" cx="256.03" cy="171.74" r="23.25"/>
<path style="fill:#3E3D42;" d="M256.032,148.496c-12.84,0-23.248,10.409-23.248,23.248c0,12.84,10.409,23.248,23.248,23.248
	c1.04,0,2.061-0.075,3.065-0.207c-0.64-18.229,2.173-32.895,6.207-44.362C262.463,149.186,259.329,148.496,256.032,148.496z"/>
<path d="M344.189,177.969v-12.45c0-4.142-3.358-7.5-7.5-7.5s-7.5,3.358-7.5,7.5v12.45c0,4.142,3.358,7.5,7.5,7.5
	S344.189,182.111,344.189,177.969z"/>
<path d="M167.876,165.519v12.45c0,4.142,3.358,7.5,7.5,7.5s7.5-3.358,7.5-7.5v-12.45c0-4.142-3.358-7.5-7.5-7.5
	S167.876,161.377,167.876,165.519z"/>
<path d="M256.032,273.885c36.638,0,66.445-29.807,66.445-66.445c0-34.292-27.4-97.627-66.445-97.627s-66.445,63.335-66.445,97.627
	C189.587,244.078,219.395,273.885,256.032,273.885z M220.846,153.921c10.688-18.499,23.512-29.108,35.186-29.108
	c11.674,0,24.499,10.609,35.186,29.108c9.725,16.832,16.259,38.34,16.259,53.52c0,28.367-23.078,51.445-51.445,51.445
	s-51.445-23.078-51.445-51.445C204.587,192.261,211.121,170.753,220.846,153.921z"/>
<path d="M256.032,202.493c16.955,0,30.749-13.794,30.749-30.749s-13.794-30.748-30.749-30.748s-30.749,13.793-30.749,30.748
	S239.078,202.493,256.032,202.493z M256.032,155.996c8.684,0,15.749,7.064,15.749,15.748s-7.065,15.749-15.749,15.749
	c-8.684,0-15.749-7.065-15.749-15.749S247.349,155.996,256.032,155.996z"/>
<path d="M459.616,364.067l-33.451-58.661c0.514-3.193,0.791-6.465,0.791-9.801v-33.698c0-2.922-0.292-5.846-0.868-8.69
	c-0.822-4.06-4.778-6.685-8.839-5.863c-4.06,0.822-6.685,4.78-5.863,8.839c0.378,1.867,0.57,3.789,0.57,5.713v33.698
	c0,25.605-20.831,46.436-46.436,46.436h-92.045v-35.279c40.339-2.511,74.99-13.841,100.977-33.146
	c32.858-24.409,50.226-60.707,50.226-104.971c0-12.632-1.406-24.94-4.052-36.785c22.039-8.413,37.03-29.82,37.03-53.759
	c0-31.722-25.807-57.529-57.529-57.529c-14.822,0-28.949,5.701-39.592,15.802C331.783,13.611,295.468,0,256.032,0
	c-14.581,0-29.059,1.864-43.031,5.542c-4.006,1.054-6.398,5.156-5.344,9.162s5.158,6.399,9.162,5.344
	c12.726-3.35,25.92-5.048,39.213-5.048c84.721,0,153.646,68.925,153.646,153.646c0,39.891-14.861,71.157-44.171,92.93
	c-27.056,20.098-64.911,30.722-109.475,30.722s-82.419-10.624-109.475-30.722c-29.31-21.773-44.171-53.039-44.171-92.93
	c0-58.007,32.11-110.461,83.799-136.89c3.688-1.886,5.149-6.404,3.263-10.092c-1.885-3.688-6.403-5.149-10.092-3.263
	c-9.56,4.888-18.492,10.604-26.766,17.007c-10.513-9.491-24.194-14.835-38.531-14.835c-31.722,0-57.529,25.807-57.529,57.529
	c0,23.222,14.103,44.063,35.065,52.971c-2.752,12.156-4.208,24.737-4.208,37.573c0,22.243,4.389,42.472,12.922,60.195
	c-9.593,8.235-15.2,20.261-15.2,33.066v33.698c0,3.336,0.277,6.608,0.791,9.801l-33.451,58.661
	c-11.576,20.301-4.528,46.321,15.822,57.811c38.177,21.554,59.176-18.217,59.176-18.217c6.917,16.503,16.923,31.4,29.289,43.971
	v29.155c0,19.417,15.796,35.212,35.212,35.212c16.216,0,29.9-11.022,33.972-25.966c9.701,2.146,19.776,3.287,30.113,3.287
	s20.412-1.141,30.113-3.287C290.217,500.978,303.901,512,320.117,512c19.416,0,35.212-15.796,35.212-35.212v-29.155
	c12.366-12.571,22.372-27.468,29.289-43.971c0,0,23.231,39.749,59.176,18.217C463.842,409.869,471.192,384.368,459.616,364.067z
	 M371.949,46.267c7.732-6.845,17.719-10.695,28.178-10.695c23.451,0,42.529,19.078,42.529,42.529
	c0,17.193-10.453,32.622-25.982,39.19c-1.539-4.804-3.279-9.518-5.227-14.125c9.692-4.409,16.209-14.242,16.209-25.066
	c0-15.18-12.35-27.529-27.529-27.529c-6.581,0-12.835,2.358-17.743,6.506C379.064,53.324,375.586,49.714,371.949,46.267z
	 M404.988,89.639c-3.887-7.299-8.294-14.281-13.173-20.895c2.271-2.019,5.214-3.171,8.313-3.171c6.908,0,12.529,5.621,12.529,12.529
	C412.656,83.135,409.56,87.698,404.988,89.639z M258.475,307.279v60.869c0,4.183-2.813,6.245-4.023,6.937
	c-1.208,0.692-4.411,2.073-8.019-0.045l-29.9-17.563c-2.346-1.378-5.252-1.378-7.598,0l-29.899,17.563
	c-3.609,2.118-6.81,0.736-8.02,0.045c-1.209-0.692-4.022-2.754-4.022-6.937v-77.655C208.85,309.822,257.661,307.286,258.475,307.279
	z M101.53,78.102c0-6.908,5.621-12.529,12.529-12.529c2.458,0,4.81,0.738,6.815,2.045c-5.006,6.689-9.499,13.739-13.449,21.092
	C103.845,86.45,101.53,82.452,101.53,78.102z M71.53,78.102c0-23.451,19.078-42.529,42.529-42.529c9.91,0,19.397,3.453,26.943,9.637
	c-3.701,3.438-7.218,7.044-10.576,10.779c-4.677-3.466-10.387-5.416-16.367-5.416c-15.179,0-27.529,12.349-27.529,27.529
	c0,10.129,5.709,19.386,14.382,24.149c-1.976,4.631-3.757,9.355-5.315,14.168C81.131,109.428,71.53,94.577,71.53,78.102z
	 M100.108,261.907c0-7.377,2.845-14.356,7.801-19.609c7.777,11.896,21.294,30.139,44.085,40.689v59.054
	c0,0-52.374,3.26-51.887-46.436L100.108,261.907L100.108,261.907z M113.05,398.625c-13.755,19.125-31.03,13.826-37.349,10.223
	c-13.116-7.479-17.702-24.234-10.223-37.35l26.836-47.061c5.57,10.434,14.061,19.076,24.376,24.836
	c-0.001,0.23-0.816,17.113,4.351,35.338L113.05,398.625z M191.947,497c-11.145,0-20.212-9.067-20.212-20.212v-15.935
	c11.892,9.063,25.274,16.266,39.716,21.155C209.141,490.627,201.285,497,191.947,497z M131.802,355.241
	c7.802,2.954,20.194,1.8,20.194,1.8v11.106c0,15.516,12.192,20.289,12.505,20.45c0.002,0.006,24.125,60.723,91.533,60.723
	c10.066,0,20.005-1.509,29.542-4.484c3.954-1.234,6.16-5.439,4.926-9.394c-1.234-3.955-5.442-6.159-9.394-4.926
	c-8.088,2.524-16.524,3.804-25.074,3.804c-31.209,0-59.502-17.12-74.172-44.225c1.637-0.521,3.239-1.221,4.774-2.122l26.101-15.332
	l26.101,15.332c8.89,5.04,19.483,2.181,23.067,0.13c7.246-4.147,11.572-11.607,11.572-19.956v-11.106h66.613
	c-1.965,23.881-13.85,45.551-33.292,60.25c-3.304,2.498-3.957,7.202-1.459,10.506c1.475,1.95,6.071,4.847,10.506,1.459
	c23.141-17.677,37.289-43.587,39.284-72.215h10.393c5.082,0,10.017-0.632,14.743-1.8c-2.772,66.131-57.43,119.08-124.231,119.08
	S134.574,421.372,131.802,355.241z M320.117,497c-9.337,0-17.194-6.373-19.504-14.992c14.442-4.889,27.824-12.092,39.716-21.155
	v15.935C340.33,487.933,331.262,497,320.117,497z M436.363,408.848c-6.32,3.604-24.849,7.761-37.349-10.223l-7.991-14.013
	c5.602-16.338,4.352-35.108,4.351-35.338c10.315-5.761,18.807-14.403,24.376-24.837l26.836,47.061
	C454.065,384.613,449.479,401.369,436.363,408.848z"/>
<g>
</g>
<g>
</g>
<g>
</g>
<g>
</g>
<g>
</g>
<g>
</g>
<g>
</g>
<g>
</g>
<g>
</g>
<g>
</g>
<g>
</g>
<g>
</g>
<g>
</g>
<g>
</g>
<g>
</g>
</svg>
