<?xml version="1.0" encoding="iso-8859-1"?>
<!-- Generator: Adobe Illustrator 19.0.0, SVG Export Plug-In . SVG Version: 6.00 Build 0)  -->
<svg version="1.1" id="Capa_1" xmlns="http://www.w3.org/2000/svg" xmlns:xlink="http://www.w3.org/1999/xlink" x="0px" y="0px"
	 viewBox="0 0 512 512" style="enable-background:new 0 0 512 512;" xml:space="preserve">
<g>
	<path style="fill:#966240;" d="M320.081,504.5L320.081,504.5c-15.241,0-27.711-12.47-27.711-27.711v-78.218
		c0-15.241,12.47-27.711,27.711-27.711l0,0c15.241,0,27.711,12.47,27.711,27.711v78.218C347.791,492.03,335.322,504.5,320.081,504.5
		z"/>
	<path style="fill:#966240;" d="M191.918,504.5L191.918,504.5c-15.241,0-27.711-12.47-27.711-27.711v-78.218
		c0-15.241,12.47-27.711,27.711-27.711l0,0c15.241,0,27.711,12.47,27.711,27.711v78.218C219.629,492.03,207.158,504.5,191.918,504.5
		z"/>
</g>
<path style="fill:#AF7954;" d="M432.139,409.459L432.139,409.459c13.235-9.551,16.221-28.022,6.671-41.258l-87.456-121.191
	l-47.928,34.587l87.456,121.191C400.432,416.024,418.904,419.011,432.139,409.459z"/>
<path style="fill:#966240;" d="M351.354,247.012l62.963,87.249c1.602,25.534,0.749,54.796-6.924,79.832
	c-6.423-1.67-12.324-5.502-16.511-11.303l-87.456-121.191L351.354,247.012z"/>
<path style="fill:#AF7954;" d="M79.859,409.459L79.859,409.459c-13.235-9.551-16.221-28.022-6.671-41.258l87.456-121.191
	l47.928,34.587l-87.456,121.191C111.567,416.024,93.095,419.011,79.859,409.459z"/>
<path style="fill:#966240;" d="M160.645,247.012l-62.963,87.249c-1.602,25.534-0.749,54.796,6.924,79.832
	c6.423-1.67,12.324-5.502,16.511-11.303l87.456-121.191L160.645,247.012z"/>
<g>
	<path style="fill:#57565C;" d="M433.832,361.304l4.978,6.898c9.551,13.235,6.565,31.706-6.671,41.258l0,0
		c-13.235,9.551-31.706,6.565-41.258-6.671l-3.993-5.534L433.832,361.304z"/>
	<path style="fill:#57565C;" d="M78.167,361.304l-4.978,6.898c-9.55,13.235-6.565,31.706,6.671,41.258l0,0
		c13.235,9.551,31.706,6.565,41.258-6.671l3.993-5.534L78.167,361.304z"/>
</g>
<path style="fill:#C68B63;" d="M124.156,349.979c0,72.815,59.028,131.843,131.843,131.843s131.843-59.028,131.843-131.843
	s-59.028-194.968-131.843-194.968S124.156,277.164,124.156,349.979z"/>
<path style="fill:#AF7954;" d="M255.999,155.011c-72.815,0-131.843,122.153-131.843,194.968
	c0,72.097,57.873,130.668,129.697,131.816c-12.439-21.319-16.11-44.783-16.446-63.847c-0.356-20.161,11.095-38.631,29.198-47.512
	c31.865-15.63,45.164-39.723,45.164-39.723l20.236-130.397C310.524,173.474,284.304,155.011,255.999,155.011z"/>
<path style="fill:#F9CBAC;" d="M255.999,441.824c-50.643,0-91.845-41.202-91.845-91.845c0-29.621,13.216-71.481,32.887-104.164
	c18.862-31.338,41.454-50.806,58.958-50.806s40.096,19.468,58.958,50.806c19.671,32.682,32.887,74.542,32.887,104.164
	C347.844,400.623,306.643,441.824,255.999,441.824z"/>
<path style="fill:#E2B291;" d="M314.957,245.816c-18.862-31.338-41.454-50.806-58.958-50.806s-40.096,19.468-58.958,50.806
	c-19.671,32.682-32.887,74.542-32.887,104.164c0,44.971,32.489,82.492,75.227,90.335c-1.278-7.83-1.852-15.393-1.975-22.365
	c-0.356-20.161,11.095-38.631,29.198-47.512c31.865-15.63,45.164-39.723,45.164-39.723l10.987-70.802
	C320.292,255.076,317.69,250.355,314.957,245.816z"/>
<path style="fill:#FFC477;" d="M416.878,42.903c0,0,19.872,1.4,40.558-1.281c13.654-1.77,23.282,12.949,16.476,24.919
	c-9.822,17.275-29.48,33.778-68.656,25.87C404.716,93.906,416.878,42.903,416.878,42.903z"/>
<path style="fill:#FFDAAA;" d="M361.386,148.515c0,0,65.744-37.914,78.507-124.716c2.025-13.77-14.919-21.895-24.377-11.683
	c-22.272,24.047-56.037,56.823-90.417,76.393C326.01,88.508,361.386,148.515,361.386,148.515z"/>
<path style="fill:#AF7954;" d="M367.693,118.209c0,0,31.447-39.531,81.299-20.727c10.252,3.867,16.438,14.37,14.876,25.216
	c-4.114,28.565-20.012,81.258-81.453,67.469C380.593,190.167,367.693,118.209,367.693,118.209z"/>
<path style="fill:#FFC477;" d="M95.12,42.903c0,0-19.872,1.4-40.558-1.281c-13.654-1.77-23.282,12.949-16.476,24.919
	c9.822,17.275,29.48,33.778,68.656,25.87C107.283,93.906,95.12,42.903,95.12,42.903z"/>
<path style="fill:#FFDAAA;" d="M150.612,148.515c0,0-65.744-37.914-78.507-124.716c-2.025-13.77,14.919-21.895,24.377-11.683
	c22.272,24.047,56.037,56.823,90.417,76.393C185.989,88.508,150.612,148.515,150.612,148.515z"/>
<path style="fill:#AF7954;" d="M144.305,118.209c0,0-31.447-39.531-81.299-20.727c-10.252,3.867-16.438,14.37-14.876,25.216
	c4.114,28.565,20.012,81.258,81.453,67.469C131.405,190.167,144.305,118.209,144.305,118.209z"/>
<g>
	<path style="fill:#89563A;" d="M134.951,167.85c-39.898-35.245-86.82-45.153-86.82-45.153
		c4.114,28.565,20.012,81.258,81.453,67.469C130.259,190.167,132.454,180.286,134.951,167.85z"/>
	<path style="fill:#89563A;" d="M377.048,167.85c39.898-35.245,86.82-45.153,86.82-45.153
		c-4.114,28.565-20.012,81.258-81.453,67.469C381.74,190.167,379.544,180.286,377.048,167.85z"/>
</g>
<path style="fill:#E2A77F;" d="M403.425,182.671c0,81.421-66.005,162.638-147.426,162.638s-147.425-81.218-147.425-162.638
	S174.578,35.245,255.999,35.245S403.425,101.25,403.425,182.671z"/>
<g>
	<path style="fill:#CE926A;" d="M191.282,191.754c0-70.202,46.238-129.613,109.908-149.453c-14.237-4.579-29.431-7.056-45.192-7.056
		c-81.421,0-147.426,66.005-147.426,147.426S174.577,345.31,255.999,345.31c6.839,0,13.582-0.575,20.173-1.673
		C225.768,312.896,191.282,252.375,191.282,191.754z"/>
	<path style="fill:#CE926A;" d="M355.553,136.069c-11.235-22.564-29.128-41.425-51.822-52.412
		c-3.729-1.805-5.288-6.291-3.482-10.018c1.805-3.729,6.292-5.288,10.018-3.482c25.776,12.479,46.679,33.621,58.86,59.531
		c1.763,3.749,0.152,8.216-3.596,9.977C364.499,140.149,358.715,142.417,355.553,136.069z"/>
</g>
<circle style="fill:#F44242;" cx="255.996" cy="247.337" r="38.565"/>
<path style="fill:#C93939;" d="M255.999,247.335c0-14.272,7.768-26.732,19.291-33.401c-5.674-3.284-12.264-5.165-19.291-5.165
	c-21.299,0-38.565,17.266-38.565,38.565s17.266,38.565,38.565,38.565c7.027,0,13.617-1.881,19.291-5.164
	C263.767,274.066,255.999,261.607,255.999,247.335z"/>
<g>
	<path style="fill:#3E3D42;" d="M104.606,414.092c6.423-1.67,12.324-5.502,16.511-11.303l3.993-5.534l-27.295-20.904
		C98.847,389.321,100.956,402.183,104.606,414.092z"/>
	<path style="fill:#3E3D42;" d="M407.392,414.092c-6.423-1.67-12.324-5.502-16.511-11.303l-3.993-5.534l27.295-20.904
		C413.152,389.321,411.043,402.183,407.392,414.092z"/>
</g>
<path d="M336.652,212.111c-4.142,0-7.5,3.358-7.5,7.5v12.449c0,4.142,3.358,7.5,7.5,7.5c4.142,0,7.5-3.358,7.5-7.5V219.61
	C344.151,215.468,340.793,212.111,336.652,212.111z"/>
<path d="M175.347,212.111c-4.142,0-7.5,3.358-7.5,7.5v12.449c0,4.142,3.358,7.5,7.5,7.5s7.5-3.358,7.5-7.5V219.61
	C182.847,215.468,179.489,212.111,175.347,212.111z"/>
<path d="M255.999,201.269c-25.401,0-46.065,20.665-46.065,46.065s20.665,46.065,46.065,46.065s46.065-20.665,46.065-46.065
	S281.4,201.269,255.999,201.269z M255.999,278.4c-17.129,0-31.065-13.936-31.065-31.065s13.936-31.065,31.065-31.065
	s31.065,13.936,31.065,31.065C287.064,264.464,273.129,278.4,255.999,278.4z"/>
<path d="M480.432,70.275c4.6-8.091,4.238-17.911-0.945-25.628c-5.113-7.614-13.932-11.614-23.015-10.435
	c-3.485,0.452-7.162,0.8-10.971,1.06c0.69-3.421,1.3-6.871,1.813-10.353c1.411-9.599-3.327-18.507-12.07-22.693
	c-8.738-4.184-18.641-2.292-25.229,4.822c-13.912,15.021-34.916,36.19-57.967,54.152c-26.421-20.935-59.798-33.453-96.047-33.453
	c-36.241,0-69.611,12.512-96.029,33.439c-23.06-17.966-44.071-39.141-57.988-54.166c-6.588-7.114-16.491-9.007-25.229-4.823
	c-8.744,4.187-13.481,13.094-12.07,22.693c0.512,3.483,1.123,6.933,1.813,10.353c-3.811-0.26-7.488-0.608-10.971-1.06
	c-9.084-1.176-17.902,2.822-23.015,10.436c-5.182,7.718-5.544,17.537-0.944,25.627c5.765,10.139,13.454,17.981,22.719,23.334
	c-9.757,6.479-15.296,18.252-13.577,30.185c1.843,12.799,6.134,31.298,16.107,46.746c10.806,16.736,26.329,26.613,45.143,28.881
	c2.823,27.167,12.4,54.152,27.568,77.926l-62.418,86.493c-5.793,8.027-8.113,17.827-6.533,27.598
	c1.58,9.771,6.812,18.422,14.895,24.132c29.107,20.562,52.814-9.867,52.814-9.867c6.875,15.704,16.561,29.904,28.422,41.963v29.153
	c0,19.416,15.795,35.21,35.21,35.21c16.215,0,29.898-11.021,33.97-25.965c9.7,2.146,19.775,3.287,30.111,3.287
	c10.336,0,20.411-1.141,30.111-3.287c4.072,14.943,17.755,25.965,33.97,25.965c19.415,0,35.21-15.795,35.21-35.21v-29.153
	c11.861-12.058,21.548-26.259,28.423-41.963c0,0,22.755,32.007,52.813,9.868c7.969-5.87,13.315-14.361,14.895-24.132
	c1.58-9.77-0.74-19.57-6.532-27.596l-62.418-86.493c18.28-28.653,28.452-61.974,28.452-94.649c0-9.725-0.91-19.24-2.632-28.473
	c18.12-11.064,35.285-17.593,45.982-21.01c-3.572,15.25-11.019,34.432-26.479,44.492c-3.472,2.259-4.455,6.905-2.196,10.375
	c1.437,2.209,5.679,5.239,10.375,2.196c12.975-8.408,29.604-26.807,35.314-66.456c1.719-11.932-3.82-23.707-13.577-30.185
	C466.977,88.255,474.666,80.414,480.432,70.275z M421.018,17.239c3.093-3.34,6.712-1.982,7.748-1.486
	c1.038,0.497,4.372,2.469,3.708,6.983c-3.326,22.62-10.734,43.842-22.006,63.126c-10.328,1.676-19.235,5.365-26.524,9.549
	c-5.979-8.74-12.828-16.836-20.424-24.168C386.466,53.063,407.176,32.184,421.018,17.239z M83.232,15.725
	c1.036-0.496,4.655-1.852,7.748,1.486c13.846,14.949,34.562,35.834,57.514,54.016c-7.596,7.33-14.446,15.425-20.426,24.163
	c-7.291-4.188-16.202-7.881-26.537-9.556C90.26,66.55,82.851,45.326,79.525,22.708C78.861,18.193,82.195,16.222,83.232,15.725z
	 M107.382,138.895c-22.172-12.893-42.18-19.392-51.766-22.043c0.901-5.496,4.655-10.323,10.037-12.354
	c23.114-8.719,41.803-3.502,54.545,3.675C114.876,117.836,110.561,128.123,107.382,138.895z M44.606,62.832
	c-1.797-3.16-1.663-6.843,0.357-9.852c0.936-1.394,3.649-4.568,8.635-3.922c5.223,0.677,10.795,1.156,16.626,1.431
	c3.457,12.012,8.06,23.575,13.781,34.607c-2.374,0.178-4.801,0.474-7.28,0.895C62.705,83.438,51.902,75.664,44.606,62.832z
	 M69.417,162.375c-5.91-9.153-9.51-19.791-11.704-29.231c10.675,3.403,27.817,9.92,46,21.029
	c-2.311,13.787-2.624,29.478-2.619,29.968C87.822,181.902,77.402,174.745,69.417,162.375z M121.032,384.685l-32.518-24.905
	l31.561-43.736c-2.237,12.044-3.419,23.539-3.419,33.933C116.656,361.957,118.176,373.587,121.032,384.685z M84.248,403.378
	c-16.18-12.102-4.516-31.428-4.516-31.428l35.012,26.815C111.306,403.33,99.209,414.568,84.248,403.378z M191.917,497.001
	c-11.144,0-20.211-9.066-20.211-20.211v-15.934c11.891,9.063,25.273,16.265,39.714,21.154
	C209.11,490.627,201.255,497.001,191.917,497.001z M131.655,349.979c0-16.563,3.283-36.301,9.333-56.639
	c1.661,2.076,14.954,16.697,20.181,21.383c-2.984,12.896-4.514,24.751-4.514,35.256c0,15.761,3.697,31.518,10.996,45.409
	c3.238,6.161,9.004,3.794,10.103,3.227c3.681-1.899,5.126-6.423,3.227-10.103c-6.19-11.997-9.328-24.961-9.328-38.532
	c0-7.307,0.899-15.703,2.605-24.672c24.65,17.91,52.756,27.502,81.741,27.502c28.982,0,57.087-9.59,81.737-27.499
	c1.706,8.966,2.61,17.355,2.61,24.669c0,46.509-37.837,84.346-84.346,84.346c-21.954,0-42.761-8.427-58.587-23.728
	c-2.979-2.88-7.727-2.799-10.604,0.179c-2.879,2.978-2.799,7.726,0.179,10.604c18.638,18.019,43.147,27.943,69.012,27.943
	c54.779,0,99.345-44.566,99.345-99.345c0-10.359-1.561-22.471-4.511-35.259c5.225-4.685,18.515-19.303,20.176-21.378
	c6.048,20.336,9.333,40.084,9.333,56.637c0,68.563-55.78,124.343-124.343,124.343S131.655,418.542,131.655,349.979z
	 M390.966,384.685c2.856-11.099,4.376-22.729,4.376-34.707c0-10.389-1.181-21.886-3.419-33.932l31.561,43.735L390.966,384.685z
	 M320.081,497.001c-9.337,0-17.193-6.373-19.503-14.991c14.441-4.889,27.823-12.091,39.714-21.154v15.934
	C340.292,487.934,331.225,497.001,320.081,497.001z M427.75,403.378c-14.72,11.226-27.057-0.049-30.496-4.614l35.012-26.815
	C432.266,371.949,444.4,390.68,427.75,403.378z M354.602,289.583C327.383,320.683,292.365,337.81,256,337.81
	s-71.383-17.127-98.602-48.226c-26.262-30.005-41.324-68.974-41.324-106.912c0-77.156,62.771-139.927,139.927-139.927
	s139.927,62.771,139.927,139.927C395.926,220.61,380.863,259.578,354.602,289.583z M391.812,108.194
	c12.742-7.172,31.427-12.383,54.533-3.669c5.384,2.031,9.138,6.859,10.038,12.355c-9.586,2.65-29.59,9.148-51.759,22.039
	C401.447,128.146,397.132,117.858,391.812,108.194z M467.393,62.861c-7.296,12.83-18.098,20.605-32.118,23.158
	c-2.479-0.421-4.907-0.717-7.281-0.895c5.722-11.032,10.324-22.594,13.781-34.606c5.831-0.276,11.403-0.755,16.627-1.431
	c4.987-0.649,7.698,2.528,8.635,3.922C469.056,56.018,469.19,59.702,467.393,62.861z"/>
<g>
</g>
<g>
</g>
<g>
</g>
<g>
</g>
<g>
</g>
<g>
</g>
<g>
</g>
<g>
</g>
<g>
</g>
<g>
</g>
<g>
</g>
<g>
</g>
<g>
</g>
<g>
</g>
<g>
</g>
</svg>
