<?xml version="1.0" encoding="iso-8859-1"?>
<!-- Generator: Adobe Illustrator 19.0.0, SVG Export Plug-In . SVG Version: 6.00 Build 0)  -->
<svg version="1.1" id="Capa_1" xmlns="http://www.w3.org/2000/svg" xmlns:xlink="http://www.w3.org/1999/xlink" x="0px" y="0px"
	 viewBox="0 0 512 512" style="enable-background:new 0 0 512 512;" xml:space="preserve">
<path style="fill:#3E8942;" d="M409.444,200.673H252.369V38.108c0-16.904,13.704-30.608,30.608-30.608h95.859
	c16.904,0,30.608,13.704,30.608,30.608V200.673z"/>
<path style="fill:#2F7531;" d="M380.915,163.916c0-20.911-10.443-43.113-26.391-54.31V62.412c0-23.642-13.176-44.261-32.568-54.912
	h-38.98c-16.904,0-30.608,13.704-30.608,30.608v162.565h128.546v-36.757H380.915z"/>
<path style="fill:#225922;" d="M290.869,33.305c0-4.125-3.375-7.5-7.5-7.5s-7.5,3.375-7.5,7.5v76.589l15-0.014V33.305z"/>
<path style="fill:#C93939;" d="M267.886,479.98c-21.396,0-42.986-6.522-61.615-20.066c-46.872-34.077-57.245-99.699-23.168-146.571
	l25.533-35.121c11.271-15.504,17.342-34.179,17.342-53.346V139.75c0-16.468,13.342-29.822,29.81-29.837l150.182-0.138
	c16.489-0.015,29.865,13.348,29.865,29.837v148.867c0,22.17-7.022,43.77-20.059,61.701l-62.934,86.566
	C332.309,464.988,300.322,479.98,267.886,479.98z"/>
<path style="fill:#933232;" d="M354.739,393.301c17.125-23.554,26.177-51.397,26.177-80.518V163.916
	c0-20.781-10.316-42.831-26.096-54.094l-99.031,0.091c-16.468,0.015-29.81,13.369-29.81,29.837v85.126
	c0,19.168-6.071,37.843-17.342,53.346l-25.533,35.121c-34.077,46.872-23.704,112.494,23.168,146.571
	c18.63,13.544,40.219,20.066,61.615,20.066c8.861,0,17.685-1.119,26.255-3.321L354.739,393.301z"/>
<path style="fill:#B3DBF4;" d="M163.198,369.214c-1.88,34.366,13.164,68.955,43.073,90.7c18.63,13.544,40.219,20.066,61.615,20.066
	c14.17,0,28.253-2.862,41.334-8.439C287.135,364.168,207.707,361.572,163.198,369.214z"/>
<path style="fill:#94CBED;" d="M306.453,459.723c-25.319-95.731-100.442-97.862-143.254-90.511
	c-1.88,34.366,13.164,68.955,43.073,90.7c18.63,13.544,40.219,20.066,61.615,20.066c8.858,0,17.688-1.118,26.255-3.319
	L306.453,459.723z"/>
<path style="fill:#B3DBF4;" d="M435.835,288.479V251.38c-25.75,10.831-85.52,47.299-53.408,144.671l33.349-45.871
	C428.813,332.248,435.835,310.648,435.835,288.479z"/>
<path style="fill:#67B758;" d="M405.97,109.774l-150.182,0.138c-16.468,0.015-29.81,13.369-29.81,29.837v27.752h209.856v-27.89
	C435.835,123.122,422.459,109.759,405.97,109.774z"/>
<path style="fill:#4A994A;" d="M380.915,163.916c0-20.781-10.316-42.831-26.096-54.094l-99.031,0.091
	c-16.468,0.015-29.81,13.369-29.81,29.837v27.752h154.937L380.915,163.916L380.915,163.916z"/>
<path style="fill:#FFDE55;" d="M430.007,121.893c-8.461,1.86-13.48,7.544-17.307,11.92c-4.393,5.022-6.731,7.437-11.844,7.437
	s-7.452-2.415-11.844-7.437c-4.636-5.302-10.985-12.563-23.135-12.563c-12.148,0-18.498,7.261-23.133,12.563
	c-4.392,5.023-6.729,7.437-11.841,7.437s-7.45-2.414-11.842-7.437c-4.636-5.302-10.985-12.563-23.134-12.563
	c-12.148,0-18.497,7.261-23.133,12.563c-4.392,5.023-6.729,7.437-11.841,7.437c-5.111,0-7.449-2.414-11.84-7.437
	c-3.812-4.361-8.808-10.019-17.211-11.9c-3.059,4.096-5.083,9.006-5.706,14.344c4.959,0.069,7.298,2.48,11.626,7.429
	c4.636,5.302,10.984,12.563,23.132,12.563c12.148,0,18.498-7.261,23.133-12.563c4.392-5.022,6.729-7.437,11.841-7.437
	s7.45,2.414,11.842,7.437c4.636,5.302,10.985,12.563,23.134,12.563c12.148,0,18.498-7.261,23.133-12.563
	c4.392-5.023,6.729-7.437,11.841-7.437c5.113,0,7.451,2.415,11.843,7.437c4.637,5.302,10.986,12.563,23.136,12.563
	s18.499-7.261,23.135-12.563c4.337-4.959,6.677-7.37,11.656-7.431C435.049,130.915,433.044,126,430.007,121.893z"/>
<path style="fill:#FFD422;" d="M366.462,121.272c-0.198-0.004-0.384-0.022-0.585-0.022c-12.148,0-18.498,7.261-23.133,12.563
	c-4.392,5.023-6.729,7.437-11.841,7.437s-7.45-2.414-11.842-7.437c-4.636-5.302-10.985-12.563-23.134-12.563
	c-12.148,0-18.497,7.261-23.133,12.563c-4.392,5.023-6.729,7.437-11.841,7.437c-5.111,0-7.449-2.414-11.84-7.437
	c-3.812-4.361-8.808-10.019-17.211-11.9c-3.059,4.096-5.083,9.006-5.706,14.344c4.959,0.069,7.298,2.48,11.626,7.429
	c4.636,5.302,10.984,12.563,23.132,12.563c12.148,0,18.498-7.261,23.133-12.563c4.392-5.022,6.729-7.437,11.841-7.437
	s7.45,2.414,11.842,7.437c4.636,5.302,10.985,12.563,23.134,12.563c12.148,0,18.498-7.261,23.133-12.563
	c4.392-5.023,6.729-7.437,11.841-7.437c5.113,0,7.451,2.415,11.843,7.437c0.047,0.053,0.096,0.109,0.143,0.163
	C375.383,135.633,371.477,127.843,366.462,121.272z"/>
<path style="fill:#5AAA4F;" d="M322.525,225.193H165.45V62.628c0-16.904,13.704-30.608,30.608-30.608h95.859
	c16.904,0,30.608,13.704,30.608,30.608V225.193z"/>
<path style="fill:#3E8942;" d="M266.096,32.02h-70.038c-16.904,0-30.608,13.704-30.608,30.608v162.565h70.038V62.628
	C235.488,45.724,249.191,32.02,266.096,32.02z"/>
<path style="fill:#F44242;" d="M180.967,504.5c-21.396,0-42.986-6.522-61.615-20.066c-46.872-34.077-57.245-99.699-23.168-146.571
	l25.533-35.12c11.272-15.504,17.343-34.18,17.343-53.348V164.27c0-16.468,13.342-29.822,29.81-29.837l150.182-0.138
	c16.489-0.015,29.865,13.348,29.865,29.837v148.867c0,22.17-7.022,43.77-20.059,61.701l-62.934,86.566
	C245.39,489.508,213.402,504.5,180.967,504.5z"/>
<path style="fill:#C93939;" d="M189.252,494.163c-49.635-36.086-60.619-105.576-24.533-155.212l27.038-37.19
	c11.936-16.418,18.365-36.195,18.365-56.493v-90.143c0-7.938,2.934-15.187,7.769-20.737l-49.022,0.045
	c-16.468,0.015-29.81,13.369-29.81,29.837v85.125c0,19.168-6.071,37.844-17.343,53.348l-25.533,35.12
	c-34.077,46.872-23.704,112.494,23.168,146.571c18.63,13.544,40.219,20.066,61.615,20.066c7.17,0,14.318-0.736,21.326-2.182
	C197.827,499.928,193.465,497.226,189.252,494.163z"/>
<path style="fill:#E9F6FF;" d="M76.279,393.734c-1.88,34.366,13.164,68.955,43.073,90.7c18.63,13.544,40.219,20.066,61.615,20.066
	c14.17,0,28.253-2.862,41.334-8.439C200.215,388.688,120.787,386.092,76.279,393.734z"/>
<path style="fill:#CAE7FC;" d="M143.748,396.455c-24.097-7.319-48.841-5.92-67.469-2.721c-1.88,34.366,13.164,68.955,43.073,90.7
	c18.63,13.544,40.219,20.066,61.615,20.066c7.17,0,14.318-0.736,21.326-2.182c-4.466-2.39-8.828-5.092-13.04-8.154
	C157.098,470.786,141.172,433.391,143.748,396.455z"/>
<path style="fill:#E9F6FF;" d="M348.915,312.999v-37.098c-25.75,10.831-85.52,47.299-53.408,144.671l33.349-45.871
	C341.894,356.768,348.915,335.168,348.915,312.999z"/>
<path style="fill:#92DD7A;" d="M319.051,134.295l-150.182,0.138c-16.468,0.015-29.81,13.369-29.81,29.837v27.752h209.856v-27.89
	C348.915,147.643,335.54,134.28,319.051,134.295z"/>
<path style="fill:#67B758;" d="M217.891,134.388l-49.022,0.045c-16.468,0.015-29.81,13.369-29.81,29.837v27.752h71.063v-36.897
	C210.122,147.187,213.056,139.938,217.891,134.388z"/>
<path style="fill:#FFEB99;" d="M343.083,146.411c-8.461,1.86-13.48,7.544-17.307,11.92c-4.393,5.022-6.731,7.437-11.844,7.437
	s-7.452-2.415-11.844-7.437c-4.636-5.302-10.985-12.563-23.135-12.563c-12.148,0-18.498,7.261-23.133,12.563
	c-4.392,5.023-6.729,7.437-11.841,7.437s-7.45-2.414-11.842-7.437c-4.636-5.302-10.985-12.563-23.134-12.563
	c-12.148,0-18.497,7.261-23.133,12.563c-4.392,5.023-6.729,7.437-11.841,7.437c-5.111,0-7.449-2.414-11.84-7.437
	c-3.812-4.361-8.808-10.019-17.211-11.9c-3.059,4.096-5.083,9.006-5.706,14.344c4.959,0.069,7.298,2.48,11.625,7.429
	c4.636,5.302,10.984,12.563,23.132,12.563c12.148,0,18.498-7.261,23.133-12.563c4.392-5.022,6.729-7.437,11.841-7.437
	s7.45,2.414,11.842,7.437c4.636,5.302,10.985,12.563,23.134,12.563c12.148,0,18.498-7.261,23.133-12.563
	c4.392-5.023,6.729-7.437,11.841-7.437c5.113,0,7.451,2.415,11.843,7.437c4.637,5.302,10.986,12.563,23.136,12.563
	s18.499-7.261,23.135-12.563c4.337-4.959,6.677-7.37,11.656-7.431C348.126,155.433,346.12,150.518,343.083,146.411z"/>
<path style="fill:#FFDE55;" d="M209.003,145.768c-12.148,0-18.497,7.261-23.133,12.563c-4.392,5.023-6.729,7.437-11.841,7.437
	c-5.111,0-7.449-2.414-11.84-7.437c-3.812-4.361-8.808-10.019-17.211-11.9c-3.059,4.096-5.083,9.006-5.706,14.344
	c4.959,0.069,7.298,2.48,11.625,7.429c4.636,5.302,10.984,12.563,23.132,12.563c12.148,0,18.498-7.261,23.133-12.563
	c4.392-5.022,6.729-7.437,11.841-7.437c0.39,0,0.76,0.019,1.12,0.047v-5.69c0-3.217,0.489-6.317,1.384-9.24
	C210.698,145.814,209.869,145.768,209.003,145.768z"/>
<path d="M432.387,113.198c-7.052-7.045-16.421-10.924-26.388-10.924c-0.012,0-0.023,0-0.035,0l-20.019,0.018V33.305
	c0-4.125-3.375-7.5-7.5-7.5s-7.5,3.375-7.5,7.5v69.001l-16.42,0.015V33.305c0-4.125-3.375-7.5-7.5-7.5s-7.5,3.375-7.5,7.5v69.03
	l-9.5,0.009V62.628c0-8.469-2.78-16.3-7.472-22.634l0.008-6.689c0-4.125-3.375-7.5-7.5-7.5c-2.379,0-4.503,1.126-5.88,2.867
	c-5.187-2.648-11.052-4.152-17.264-4.152h-27.632c4.246-5.818,11.121-9.52,18.693-9.52h95.858c12.742,0,23.108,10.366,23.108,23.108
	v37.243c0,4.142,3.358,7.5,7.5,7.5s7.5-3.358,7.5-7.5V38.108C416.944,17.095,399.849,0,378.836,0h-95.858
	c-15.974,0-30.063,10-35.608,24.521h-51.311c-21.013,0-38.108,17.095-38.108,38.108v65.947
	c-15.261,4.692-26.391,18.922-26.391,35.695v85.125c0,17.699-5.501,34.622-15.909,48.938l-25.533,35.12
	C53.664,383.595,64.799,454.046,114.941,490.5c19.347,14.065,42.178,21.5,66.025,21.5c15.045,0,51.043-7.5,71.448-25.609
	c5.112,0.709,10.305,1.088,15.472,1.088c35.907,0,69.934-17.317,91.022-46.324l62.934-86.565
	c14.06-19.339,21.492-42.2,21.492-66.111V139.611C443.335,129.632,439.446,120.251,432.387,113.198z M405.977,117.274
	c0.007,0,0.014,0,0.021,0c5.962,0,11.568,2.32,15.787,6.535c4.223,4.22,6.549,9.832,6.549,15.802v20.391h-72.152
	c-0.921-8.417-4.639-16.213-10.715-22.283c-4.388-4.384-9.674-7.54-15.443-9.3v-11.074L405.977,117.274z M298.436,403.789
	c-8.361-33.442-5.54-61.66,8.438-84.032c9.803-15.689,23.551-25.783,34.542-31.875v25.117c0,20.721-6.44,40.531-18.625,57.291
	L298.436,403.789z M196.058,39.521h95.858c12.742,0,23.108,10.366,23.108,23.108v64.17l-15.999,0.015V57.956
	c0-4.125-3.375-7.5-7.5-7.5s-7.5,3.375-7.5,7.5v68.871l-16.692,0.015V57.956c0-4.125-3.375-7.5-7.5-7.5s-7.5,3.375-7.5,7.5v68.9
	l-16.846,0.016V57.956c0-4.125-3.375-7.5-7.5-7.5s-7.5,3.375-7.5,7.5v68.929l-16.538,0.015V57.956c0-4.125-3.375-7.5-7.5-7.5
	s-7.5,3.375-7.5,7.5v68.958l-15.999,0.015V62.628C172.95,49.887,183.316,39.521,196.058,39.521z M168.876,141.933l150.182-0.138
	c0.007,0,0.014,0,0.021,0c5.962,0,11.568,2.32,15.787,6.535c4.223,4.22,6.549,9.832,6.549,15.802v20.39H146.559V164.27
	C146.559,151.965,156.57,141.944,168.876,141.933z M227.502,485.156c-8.873-35.459-25.038-62.079-48.14-79.198
	c-19.452-14.415-43.453-21.921-71.336-22.31c-4.096-0.052-7.546,3.253-7.604,7.395c-0.058,4.142,3.252,7.546,7.395,7.604
	c24.674,0.345,45.74,6.859,62.614,19.363c20.771,15.392,35.267,40.05,43.146,73.345c-10.358,3.681-21.376,5.646-32.611,5.646
	c-20.657,0-40.438-6.443-57.205-18.632c-43.452-31.59-53.102-92.643-21.512-136.095l25.533-35.12
	c12.284-16.896,18.776-36.869,18.776-57.758v-49.873h194.856v71.517c-13.252,6.249-33.479,18.71-47.263,40.77
	c-17.906,28.658-20.235,64.786-6.946,107.426l-27.35,37.62C251.234,468.716,240.112,478.318,227.502,485.156z M266.63,472.455
	c1.864-2.185,3.658-4.44,5.359-6.78l19.494-26.814c3.604,8.513,6.621,17.863,9.014,27.972
	C284.217,472.821,267.049,472.461,266.63,472.455z M346.776,432.335c-8.623,11.86-19.744,21.462-32.354,28.3
	c-3.281-13.101-7.57-25.06-12.814-35.701l33.315-45.824c14.06-19.339,21.492-42.2,21.492-66.111V175.002h71.919v71.517
	c-13.252,6.249-33.479,18.71-47.263,40.77c-17.906,28.658-20.235,64.786-6.946,107.426L346.776,432.335z M409.71,345.77
	l-24.354,33.5c-8.361-33.442-5.54-61.659,8.438-84.032c9.803-15.689,23.551-25.783,34.542-31.875v25.117
	C428.335,309.2,421.894,329.01,409.71,345.77z"/>
<g>
</g>
<g>
</g>
<g>
</g>
<g>
</g>
<g>
</g>
<g>
</g>
<g>
</g>
<g>
</g>
<g>
</g>
<g>
</g>
<g>
</g>
<g>
</g>
<g>
</g>
<g>
</g>
<g>
</g>
</svg>
