<?xml version="1.0" encoding="iso-8859-1"?>
<!-- Generator: Adobe Illustrator 19.0.0, SVG Export Plug-In . SVG Version: 6.00 Build 0)  -->
<svg version="1.1" id="Capa_1" xmlns="http://www.w3.org/2000/svg" xmlns:xlink="http://www.w3.org/1999/xlink" x="0px" y="0px"
	 viewBox="0 0 512 512" style="enable-background:new 0 0 512 512;" xml:space="preserve">
<path style="fill:#E04141;" d="M209.302,385.114L209.302,385.114c-19.021,12.61-44.222,46.253-56.832,27.233l-83.828-164.62
	c-10.935-25.955-7.029-41.497,4.066-53.036c8.899-9.254,21.459-14.317,34.216-12.872c9.82,1.112,21.194,6.083,30.597,20.243
	l83.388,125.78C233.519,346.863,228.322,372.504,209.302,385.114z"/>
<path style="fill:#AF3333;" d="M137.521,202.062c-4.864-7.324-10.255-12.175-15.685-15.32L95.902,301.259l56.568,111.087
	c12.61,19.021,37.811-14.623,56.832-27.233l0,0c19.021-12.61,24.217-38.252,11.607-57.272L137.521,202.062z"/>
<path style="fill:#FF5555;" d="M432.792,453.912H143.463V152.164C143.463,72.599,208.562,7.5,288.128,7.5l0,0
	c79.565,0,144.664,65.099,144.664,144.664V453.912z"/>
<g>
	<path style="fill:#E04141;" d="M402.792,159.664c-4.143,0-7.5-3.358-7.5-7.5c0-28.465-11.19-55.333-31.512-75.652
		c-2.929-2.929-2.929-7.677,0-10.606c2.93-2.929,7.678-2.929,10.607,0c23.153,23.153,35.904,53.787,35.904,86.259
		C410.292,156.306,406.934,159.664,402.792,159.664z"/>
	<path style="fill:#E04141;" d="M342.377,18.126C325.602,11.284,307.287,7.5,288.128,7.5l0,0
		c-79.565,0-144.664,65.099-144.664,144.664v301.748h108.498V152.164C251.961,91.758,289.489,39.699,342.377,18.126z"/>
</g>
<path style="fill:#57565C;" d="M304.994,197.021H271.26c-6.579,0.021-10.368,1.747-10.271,7.116
	c0.316,17.522,4.049,49.573,27.138,49.573c23.088,0,26.822-32.052,27.138-49.573C315.362,198.768,311.573,197.042,304.994,197.021z"
	/>
<path style="fill:#FCD4DD;" d="M288.128,225.093c-9.281,0-17.54,3.231-22.865,8.256c3.715,11.201,10.524,20.361,22.865,20.361
	s19.15-9.16,22.865-20.361C305.668,228.324,297.409,225.093,288.128,225.093z"/>
<path style="fill:#4DB5A6;" d="M399.269,504.5L399.269,504.5c-27.848,0-50.633-22.785-50.633-50.632v-23.304
	c0-27.848,22.785-50.632,50.632-50.632l0,0c27.848,0,50.632,22.785,50.632,50.632v23.304
	C449.902,481.715,427.117,504.5,399.269,504.5z"/>
<path style="fill:#3DA094;" d="M348.637,430.564v23.304c0,24.24,17.266,44.637,40.106,49.517
	c10.678-13.677,17.065-30.86,17.065-49.516v-23.304c0-18.657-6.387-35.839-17.065-49.516
	C365.903,385.927,348.637,406.323,348.637,430.564z"/>
<path style="fill:#71D8C5;" d="M325.175,504.5L325.175,504.5c-27.848,0-50.633-22.785-50.633-50.632v-23.304
	c0-27.848,22.785-50.632,50.632-50.632l0,0c27.848,0,50.632,22.785,50.632,50.632v23.304
	C375.807,481.715,353.023,504.5,325.175,504.5z"/>
<path style="fill:#60C6B7;" d="M274.543,430.564v23.304c0,24.24,17.266,44.637,40.106,49.517
	c10.678-13.677,17.065-30.86,17.065-49.516v-23.304c0-18.657-6.387-35.839-17.065-49.516
	C291.809,385.927,274.543,406.323,274.543,430.564z"/>
<path style="fill:#4DB5A6;" d="M251.081,504.5L251.081,504.5c-27.848,0-50.632-22.785-50.632-50.632v-23.304
	c0-27.848,22.785-50.632,50.632-50.632l0,0c27.848,0,50.632,22.785,50.632,50.632v23.304
	C301.713,481.715,278.928,504.5,251.081,504.5z"/>
<path style="fill:#3DA094;" d="M200.448,430.564v23.304c0,24.24,17.266,44.637,40.106,49.517
	c10.678-13.677,17.065-30.86,17.065-49.516v-23.304c0-18.657-6.387-35.839-17.065-49.516
	C217.715,385.927,200.448,406.323,200.448,430.564z"/>
<path style="fill:#71D8C5;" d="M176.986,504.5L176.986,504.5c-27.848,0-50.632-22.785-50.632-50.632v-23.304
	c0-27.848,22.785-50.632,50.632-50.632l0,0c27.848,0,50.632,22.785,50.632,50.632v23.304
	C227.619,481.715,204.834,504.5,176.986,504.5z"/>
<path style="fill:#60C6B7;" d="M165.163,453.868v-23.304c0-20.982,12.938-39.085,31.228-46.738
	c-5.984-2.504-12.539-3.894-19.405-3.894l0,0c-27.848,0-50.632,22.785-50.632,50.632v23.304c0,27.848,22.785,50.632,50.632,50.632
	l0,0c6.865,0,13.42-1.39,19.405-3.894C178.101,492.953,165.163,474.85,165.163,453.868z"/>
<rect x="143.46" y="297.29" style="fill:#71D8C5;" width="289.33" height="61.24"/>
<rect x="143.46" y="297.29" style="fill:#3DA094;" width="108.5" height="61.24"/>
<polygon style="fill:#B3DBF4;" points="143.463,358.53 215.795,358.53 179.629,297.293 "/>
<polygon style="fill:#E9F6FF;" points="215.795,358.53 288.128,358.53 251.962,297.293 "/>
<polygon style="fill:#B3DBF4;" points="215.795,358.53 251.961,358.53 251.961,297.294 "/>
<g>
	<polygon style="fill:#E9F6FF;" points="288.128,358.53 360.46,358.53 324.294,297.293 	"/>
	<polygon style="fill:#E9F6FF;" points="360.46,358.53 432.792,358.53 396.626,297.293 	"/>
</g>
<path d="M376.284,202.007v-12.451c0-4.142-3.357-7.5-7.5-7.5s-7.5,3.358-7.5,7.5v12.451c0,4.142,3.357,7.5,7.5,7.5
	S376.284,206.149,376.284,202.007z"/>
<path d="M214.971,202.007v-12.451c0-4.142-3.357-7.5-7.5-7.5s-7.5,3.358-7.5,7.5v12.451c0,4.142,3.357,7.5,7.5,7.5
	S214.971,206.149,214.971,202.007z"/>
<path d="M322.764,204.272c0.092-5.114-1.979-8.322-3.731-10.113c-4.043-4.13-9.935-4.625-14.015-4.639c-0.008,0-0.017,0-0.024,0
	h-33.758c-4.08,0.013-9.971,0.509-14.014,4.638c-1.753,1.791-3.823,4.999-3.731,10.113c0.651,36.185,13.276,56.938,34.637,56.938
	C309.486,261.21,322.111,240.457,322.764,204.272z M268.504,204.71c0.575-0.096,38.672-0.095,39.248,0.001
	c-0.306,13.046-2.896,41.499-19.624,41.499C271.398,246.21,268.808,217.756,268.504,204.71z"/>
<path d="M440.292,389.416V152.164c0-40.484-15.872-78.652-44.691-107.472C366.78,15.872,328.612,0,288.128,0
	c-54.157,0-104.716,29.35-131.946,76.596c-2.068,3.589-0.836,8.175,2.753,10.243c3.587,2.068,8.174,0.835,10.243-2.753
	C193.738,41.472,239.317,15,288.128,15c36.478,0,70.879,14.312,96.866,40.298c25.986,25.987,40.298,60.388,40.298,96.866v137.629
	H150.964V152.164c0-15.005,2.438-29.773,7.247-43.893c1.335-3.921-0.761-8.182-4.682-9.518c-3.918-1.334-8.182,0.761-9.518,4.682
	c-5.34,15.681-8.048,32.076-8.048,48.729v36.133c-9.763-9.764-20.318-13.039-28.195-13.93c-14.642-1.658-29.765,3.996-40.467,15.125
	c-14.864,15.458-16.635,34.888-5.572,61.146c0.07,0.167,0.146,0.331,0.229,0.492l71.677,140.757
	c-9.185,10.284-14.782,23.836-14.782,38.676v23.304c0,32.054,26.078,58.132,58.133,58.132c14.079,0,27.003-5.033,37.073-13.392
	C224.48,507.277,237.433,512,251.081,512c32.054,0,58.132-26.078,58.132-58.132v-23.304c0-12.567-4.021-24.205-10.827-33.723
	c7.614-6.093,16.946-9.409,26.789-9.409c23.783,0,43.133,19.349,43.133,43.132v23.304c0,23.783-19.35,43.132-43.133,43.132
	c-3.597,0-7.174-0.449-10.632-1.335c-4.018-1.025-8.099,1.393-9.127,5.404c-1.027,4.013,1.392,8.099,5.404,9.127
	c4.674,1.197,9.504,1.804,14.354,1.804c14.079,0,27.003-5.033,37.073-13.392C372.668,507.277,385.621,512,399.269,512
	c32.055,0,58.133-26.078,58.133-58.132v-23.304C457.402,414.504,450.855,399.947,440.292,389.416z M202.656,351.03h-46.052
	l23.026-38.988L202.656,351.03z M192.77,304.793h46.052l-23.026,38.988L192.77,304.793z M251.962,312.042l23.026,38.988h-46.052
	L251.962,312.042z M265.102,304.793h46.052l-23.026,38.988L265.102,304.793z M324.294,312.042l23.026,38.988h-46.052
	L324.294,312.042z M337.434,304.793h46.052l-23.026,38.988L337.434,304.793z M396.626,312.042l23.026,38.988H373.6L396.626,312.042z
	 M425.292,331.082l-15.526-26.289h15.526V331.082z M166.49,304.793l-15.526,26.289v-26.289H166.49z M78.114,199.889
	c7.486-7.784,17.915-11.507,27.966-10.618c20.87,1.848,29.884,24.014,29.884,24.014v150.118L75.449,244.568
	C69.381,230.094,65.022,213.503,78.114,199.889z M176.986,497c-23.783,0-43.133-19.349-43.133-43.132v-23.304
	c0-23.783,19.35-43.132,43.133-43.132s43.133,19.349,43.133,43.132v23.304C220.119,477.651,200.769,497,176.986,497z
	 M294.213,453.868c0,23.783-19.349,43.132-43.132,43.132c-9.826,0-19.17-3.316-26.789-9.408
	c6.806-9.519,10.827-21.157,10.827-33.724v-23.304c0-12.566-4.021-24.203-10.825-33.721c7.596-6.036,17.061-9.411,26.787-9.411
	c23.783,0,43.132,19.349,43.132,43.132V453.868z M325.175,372.431c-13.672,0-26.61,4.717-37.026,13.389
	c-10.069-8.356-22.991-13.389-37.068-13.389c-13.51,0-26.628,4.825-37.005,13.407c-10.073-8.367-23.003-13.407-37.09-13.407
	c-9.352,0-18.187,2.233-26.022,6.173V366.03h274.328v12.574c-7.835-3.94-16.671-6.173-26.022-6.173
	c-13.669,0-26.61,4.717-37.027,13.388C352.174,377.463,339.252,372.431,325.175,372.431z M442.402,453.868
	c0,23.783-19.35,43.132-43.133,43.132c-9.826,0-19.171-3.316-26.789-9.408c6.805-9.519,10.827-21.157,10.827-33.724v-23.304
	c0-12.567-4.022-24.205-10.827-33.724c7.615-6.093,16.948-9.409,26.789-9.409c23.783,0,43.133,19.349,43.133,43.132V453.868z"/>
<g>
</g>
<g>
</g>
<g>
</g>
<g>
</g>
<g>
</g>
<g>
</g>
<g>
</g>
<g>
</g>
<g>
</g>
<g>
</g>
<g>
</g>
<g>
</g>
<g>
</g>
<g>
</g>
<g>
</g>
</svg>
