<?xml version="1.0" encoding="iso-8859-1"?>
<!-- Generator: Adobe Illustrator 19.0.0, SVG Export Plug-In . SVG Version: 6.00 Build 0)  -->
<svg version="1.1" id="Capa_1" xmlns="http://www.w3.org/2000/svg" xmlns:xlink="http://www.w3.org/1999/xlink" x="0px" y="0px"
	 viewBox="0 0 512 512" style="enable-background:new 0 0 512 512;" xml:space="preserve">
<path style="fill:#EAEAEA;" d="M480.424,443.669h-10.868c-12.191,0-22.073-9.882-22.073-22.074v-46.463l-47.924,24.083
	c1.473,4.46,2.273,9.218,2.273,14.157c0,25.037-20.485,45.522-45.522,45.522h-46.302c-25.037,0-45.522-20.485-45.522-45.522
	c0-4.938,0.805-9.695,2.277-14.157h-54.219c1.474,4.46,2.277,9.217,2.277,14.157c0,25.037-20.485,45.522-45.522,45.522h-46.302
	c-25.037,0-45.522-20.485-45.522-45.522c0-4.937,0.799-9.696,2.272-14.157H45.339l-25.554,55.268
	C8.989,477.83,26.042,504.5,51.764,504.5h423.809c14.775,0,26.752-11.978,26.752-26.752v-12.178
	C502.326,453.474,492.52,443.669,480.424,443.669z"/>
<g>
	<path style="fill:#D8D7DA;" d="M359.474,458.77c1.048,0.073,49.468,0.123,49.468,0.123c18.272,0,34.109-10.916,41.339-26.543
		c-1.78-3.183-2.799-6.849-2.799-10.755v-46.463l-47.924,24.083c1.473,4.46,2.273,9.218,2.273,14.157
		C401.831,437.343,383.048,457.129,359.474,458.77z"/>
	<path style="fill:#D8D7DA;" d="M221.932,458.893c21.068,0,38.908-14.506,44.037-34.022l0,0c-0.966-3.677-1.485-7.531-1.485-11.501
		c0-4.938,0.805-9.695,2.277-14.157h-54.219c1.474,4.46,2.277,9.217,2.277,14.157c0,23.972-18.783,43.758-42.356,45.399
		L221.932,458.893z"/>
	<path style="fill:#D8D7DA;" d="M72.419,454.482l9.741-21.069c-2.995-6.056-4.687-12.86-4.687-20.042
		c0-4.937,0.799-9.696,2.272-14.157H45.339l-25.554,55.268C8.99,477.83,26.042,504.5,51.764,504.5h52.634
		C78.676,504.501,61.624,477.83,72.419,454.482z"/>
</g>
<path style="fill:#B3DBF4;" d="M149.548,206.786l23.962-173.06c2.941-21.244,26.37-32.839,45.044-22.291l72.153,40.754
	l-70.58,154.597H149.548z"/>
<path style="fill:#E9F6FF;" d="M398.682,20.59h-111.9c-26.364,0-49.717,17.012-57.802,42.106l-33.13,102.84
	c-6.807,21.132-24.528,36.919-46.303,41.25l-94.98,18.892c-26.096,5.19-44.892,28.093-44.892,54.701v85.14
	c0,31.911,25.869,57.782,57.782,57.782h194.346c10.466,0,20.577-3.796,28.457-10.684l12.36-10.803
	c21.253-18.977,41.859,7.285,41.859,7.285c6.868,8.952,17.51,14.202,28.794,14.202h33.747c22.347,0,40.463-18.116,40.463-40.463
	V69.39C447.482,42.438,425.634,20.59,398.682,20.59z"/>
<g>
	<path style="fill:#CAE7FC;" d="M92.511,342.353c0-26.608,18.796-49.51,44.892-54.701l94.98-18.892
		c21.775-4.331,39.496-20.118,46.303-41.25l66.372-206.922h-58.277c-26.364,0-49.717,17.012-57.802,42.106l-33.129,102.84
		c-6.808,21.132-24.528,36.919-46.303,41.25l-94.981,18.892c-26.096,5.19-44.892,28.093-44.892,54.701v85.141
		c0,31.911,25.869,57.782,57.782,57.782h25.054L92.511,342.353L92.511,342.353z"/>
	<path style="fill:#CAE7FC;" d="M417.481,124.031c-4.143,0-7.5-3.358-7.5-7.5V69.39c0-6.229-5.068-11.299-11.299-11.299h-24.358
		c-4.143,0-7.5-3.358-7.5-7.5s3.357-7.5,7.5-7.5h24.358c14.502,0,26.299,11.798,26.299,26.299v47.141
		C424.981,120.673,421.623,124.031,417.481,124.031z"/>
</g>
<path style="fill:#F4A651;" d="M447.482,382.836v-88.86c-90.97,10.218-157.221,70.472-157.221,70.472
	c-7.88,6.887-17.992,10.684-28.458,10.684H10.487c4.58,27.333,28.335,48.167,56.971,48.167h194.345
	c10.466,0,20.577-3.796,28.458-10.684l12.36-10.803c21.253-18.977,41.859,7.285,41.859,7.285
	c6.868,8.952,17.511,14.202,28.794,14.202h33.746C429.367,423.299,447.482,405.183,447.482,382.836z"/>
<g>
	<path style="fill:#E28027;" d="M10.487,375.131c4.58,27.333,28.335,48.167,56.971,48.167h25.054v-48.167H10.487z"/>
	<path style="fill:#E28027;" d="M391.896,409.053c-5.714-8.803-15.496-14.117-25.991-14.117H319.55l0,0
		c14.076,0.335,24.928,14.161,24.928,14.161c6.868,8.952,17.511,14.202,28.794,14.202h27.868L391.896,409.053z"/>
</g>
<path style="fill:#FFFFFF;" d="M405.377,386.395h-36.16c-10.975,0-19.953-8.978-19.953-19.953l0,0
	c0-10.975,8.978-19.953,19.953-19.953h36.16c10.974,0,19.953,8.978,19.953,19.953l0,0
	C425.331,377.417,416.352,386.395,405.377,386.395z"/>
<g>
	<circle style="fill:#57565C;" cx="242.112" cy="215.811" r="20.001"/>
	<circle style="fill:#57565C;" cx="252.542" cy="156.168" r="20.001"/>
	<circle style="fill:#57565C;" cx="261.113" cy="96.535" r="20.001"/>
</g>
<g>
	<path style="fill:#73B7DD;" d="M243.483,109.565l-85.12-13.544c-8.148-1.296-13.754-9.023-12.458-17.172l0,0
		c1.296-8.148,9.023-13.754,17.172-12.458l85.12,13.544c8.148,1.296,13.754,9.023,12.458,17.172l0,0
		C259.359,105.256,251.631,110.862,243.483,109.565z"/>
	<path style="fill:#73B7DD;" d="M235.441,168.641l-85.12-13.544c-8.148-1.296-13.754-9.023-12.458-17.172l0,0
		c1.296-8.148,9.023-13.754,17.172-12.458l85.12,13.544c8.148,1.296,13.754,9.023,12.458,17.172l0,0
		C251.316,164.331,243.589,169.937,235.441,168.641z"/>
	<path style="fill:#73B7DD;" d="M224.581,228.372l-85.12-13.544c-8.148-1.296-13.754-9.023-12.458-17.172l0,0
		c1.296-8.148,9.023-13.754,17.172-12.458l85.12,13.544c8.148,1.296,13.754,9.023,12.458,17.172l0,0
		C240.456,224.062,232.728,229.668,224.581,228.372z"/>
</g>
<path d="M369.218,393.895h36.16c15.138,0,27.453-12.316,27.453-27.453s-12.316-27.453-27.453-27.453h-36.16
	c-15.138,0-27.453,12.316-27.453,27.453S354.08,393.895,369.218,393.895z M369.218,353.989h36.16
	c6.866,0,12.453,5.586,12.453,12.453c0,6.866-5.586,12.453-12.453,12.453h-36.16c-6.866,0-12.453-5.586-12.453-12.453
	C356.765,359.576,362.351,353.989,369.218,353.989z"/>
<path d="M480.423,436.168h-10.868c-8.035,0-14.573-6.537-14.573-14.574V69.39c0-31.043-25.256-56.301-56.301-56.301h-111.9
	c-29.727,0-55.825,19.011-64.94,47.306l-2.376,7.375l-42.169-6.709l3.642-26.307c1.057-7.626,5.619-13.959,12.521-17.374
	c6.9-3.415,14.702-3.202,21.406,0.584l9.413,5.316c3.608,2.039,8.182,0.766,10.219-2.842c2.037-3.607,0.765-8.182-2.842-10.219
	l-9.413-5.316c-10.935-6.176-24.181-6.538-35.437-0.968c-11.256,5.57-19.004,16.322-20.726,28.761l-3.611,26.084
	c-11.57-0.91-22.116,7.235-23.972,18.891c-1.901,11.959,6.039,23.247,17.813,25.595l-2.018,14.578
	c-11.517-0.835-21.987,7.291-23.836,18.902c-1.894,11.914,5.978,23.164,17.678,25.57l-2.156,15.574c0,0-10.383-1.72-17.363,3.924
	c-4.682,3.786-8.077,8.743-9.019,14.662c-0.46,2.89-0.345,5.785,0.294,8.559l-66.785,13.286
	c-29.51,5.87-50.929,31.968-50.929,62.057v85.139c0,3.727,0,35.784,26.288,52.324l-15.487,33.493
	c-6.148,13.3-5.107,28.608,2.785,40.953C23.654,504.63,37.113,512,51.764,512h423.809c18.887,0,34.253-15.366,34.253-34.253V465.57
	C509.826,449.358,496.636,436.168,480.423,436.168z M153.314,80.03c0.586-3.687,3.02-6.683,8.585-6.229l85.12,13.543
	c4.084,0.65,6.879,4.501,6.229,8.585c-0.649,4.085-4.498,6.879-8.585,6.229l-85.121-13.543
	C155.458,87.965,152.663,84.114,153.314,80.03z M266.155,85.1c4.387,1.942,7.46,6.331,7.46,11.431
	c0,6.118-4.421,11.214-10.234,12.285c2.374-2.95,4.045-6.528,4.682-10.527C268.804,93.626,268.047,89.068,266.155,85.1z
	 M169.12,120.114l2.003-14.468l34.379,5.469l-4.531,14.066L169.12,120.114z M145.271,139.104c0.586-3.687,4.278-6.927,8.585-6.229
	l85.12,13.543c4.084,0.65,6.879,4.501,6.229,8.585c-0.649,4.085-4.498,6.875-8.585,6.229l-85.12-13.543
	C147.415,147.041,144.62,143.189,145.271,139.104z M258.589,145.24c3.842,2.135,6.45,6.232,6.45,10.932
	c0,6.091-4.381,11.172-10.157,12.273c2.619-3.05,4.461-6.829,5.138-11.083C260.696,153.113,260.128,148.949,258.589,145.24z
	 M162.947,164.701l23.747,3.778c-2.331,5.261-5.503,10.142-9.37,14.4l-16.529-2.63L162.947,164.701z M134.411,198.835
	c0.844-5.948,6.044-6.349,8.584-6.229l85.12,13.543c4.084,0.65,6.879,4.501,6.229,8.586c-0.312,1.962-1.807,7.208-8.585,6.228
	l-85.12-13.543C138.677,207.109,133.518,205.131,134.411,198.835z M247.554,204.575c4.17,2.028,7.059,6.296,7.059,11.237
	c0,6.242-4.604,11.416-10.591,12.34c2.683-3.12,4.477-6.907,5.137-11.06C249.859,212.692,249.22,208.384,247.554,204.575z
	 M20.179,382.632h241.623c12.286,0,24.146-4.452,33.395-12.537c0.037-0.033,0.074-0.065,0.11-0.099
	c0.31-0.282,31.52-28.396,79.721-48.837c3.813-1.617,5.593-6.02,3.976-9.833c-1.617-3.813-6.019-5.594-9.833-3.977
	c-49.911,21.168-81.832,49.629-83.893,51.494c-6.508,5.667-14.842,8.788-23.475,8.788H17.229
	c-0.029-0.702-0.054-87.253-0.054-87.253c0-22.955,16.341-42.866,38.855-47.344l73.018-14.524c2.733,1.895,5.859,3.188,9.232,3.725
	l84.892,13.507c5.134,4.883,11.829,7.571,18.94,7.571c15.164,0,27.501-12.337,27.501-27.501c0-15.165-12.338-27.501-27.501-27.501
	c-4.293,0-8.515,1.005-12.325,2.915l-35.514-5.65c3.121-4.563,5.693-9.499,7.639-14.676l31.488,5.01
	c5.091,4.92,11.964,7.761,19.136,7.761c15.164,0,27.501-12.337,27.501-27.501c0-15.165-12.338-27.501-27.501-27.501
	c-4.239,0-8.337,0.965-12.074,2.796l-24.502-3.898l4.531-14.066c0,0,22.13,3.505,22.29,3.527c5.049,4.524,11.499,7.001,18.33,7.001
	c15.164,0,27.501-12.337,27.501-27.501s-12.338-27.501-27.501-27.501c-4.588,0-9.036,1.143-13.029,3.295l-13.629-2.168l1.662-5.16
	c7.111-22.075,27.471-36.906,50.662-36.906h111.9c22.772,0,41.3,18.527,41.3,41.3v217.983c-12.831,1.795-25.83,4.619-38.739,8.437
	c-3.972,1.174-6.24,5.347-5.065,9.319c0.965,3.263,4.616,6.391,9.319,5.065c11.544-3.255,23.064-5.958,34.485-7.66v80.302
	c0,18.176-14.787,32.963-32.963,32.963h-33.746c-8.891,0-17.432-4.211-22.894-11.332c-0.495-0.631-12.316-15.473-28.734-16.926
	c-8.645-0.76-16.718,2.155-23.961,8.624l-12.359,10.802c-6.515,5.694-14.869,8.83-23.522,8.83H67.457
	C45.739,415.798,27.196,401.956,20.179,382.632z M390.07,430.799c-6.42,12.356-19.351,20.594-33.762,20.594h-46.301
	c-15.116,0-28.595-8.964-34.667-22.433c7.282-2.016,14.079-5.648,19.856-10.699l12.419-10.855c4.13-3.687,8.256-5.3,12.652-4.928
	c8.201,0.696,15.97,8.322,18.306,11.242c8.233,10.696,21.201,17.079,34.701,17.079h16.797V430.799z M494.826,477.748
	c0,10.615-8.636,19.252-19.252,19.252H51.765c-9.508,0-18.243-4.782-23.364-12.794c-5.122-8.011-5.798-17.946-1.808-26.577
	l14.903-32.23c7.962,3.465,16.739,5.399,25.962,5.399h135.614c-6.422,12.446-19.321,20.594-33.774,20.594h-46.302
	c-8.182,0-15.993-2.592-22.588-7.497c-3.325-2.472-8.023-1.78-10.494,1.543c-2.472,3.324-1.78,8.022,1.543,10.494
	c9.202,6.843,20.108,10.46,31.539,10.46h46.302c22.72,0,42.693-14.423,50.068-35.595h40.578c7.382,21.154,27.4,35.595,50.063,35.595
	h46.301c22.672,0,42.724-14.609,50.066-35.595c0,0,20.49,1.288,33.608-13.172c0,0-0.91,33.541,29.573,33.541h10.867
	c7.941,0,14.402,6.46,14.402,14.402v12.18H494.826z"/>
<g>
</g>
<g>
</g>
<g>
</g>
<g>
</g>
<g>
</g>
<g>
</g>
<g>
</g>
<g>
</g>
<g>
</g>
<g>
</g>
<g>
</g>
<g>
</g>
<g>
</g>
<g>
</g>
<g>
</g>
</svg>
