<?xml version="1.0" encoding="iso-8859-1"?>
<!-- Generator: Adobe Illustrator 19.0.0, SVG Export Plug-In . SVG Version: 6.00 Build 0)  -->
<svg version="1.1" id="Capa_1" xmlns="http://www.w3.org/2000/svg" xmlns:xlink="http://www.w3.org/1999/xlink" x="0px" y="0px"
	 viewBox="0 0 512.002 512.002" style="enable-background:new 0 0 512.002 512.002;" xml:space="preserve">
<path style="fill:#806749;" d="M253.819,504.5L253.819,504.5c-21.749,0-39.543-17.794-39.543-39.543V342.87
	c0-21.748,17.794-39.543,39.543-39.543l0,0c21.748,0,39.543,17.794,39.543,39.543v122.087
	C293.361,486.706,275.567,504.5,253.819,504.5z"/>
<path style="fill:#6A563D;" d="M253.819,303.328L253.819,303.328c-21.749,0-39.543,17.794-39.543,39.543v111.091
	c15.68-3.863,29.147-9.074,40.141-14.332c12.991,6.678,26.326,11.266,38.944,14.421V342.87
	C293.361,321.122,275.567,303.328,253.819,303.328z"/>
<path style="fill:#309185;" d="M371.652,211.257H140.349c0,0-34.393,76.531-74.108,115.949c-6.67,6.62-4.014,17.976,4.876,21.023
	c19.081,6.539,49.688,13.439,82.459,5.644c0.859,0.859,5.971,11.713,7.576,36.368c0.753,11.561,11.084,20.082,22.578,18.629
	c45.538-5.756,72.298-28.436,72.311-28.436c21.416,19.963,52.187,27.006,72.716,29.221c11.312,1.221,21.346-7.328,22.046-18.684
	c1.551-25.171,6.755-36.231,7.622-37.098c32.771,7.795,63.377,0.895,82.459-5.644c8.89-3.047,11.546-14.402,4.876-21.023
	C406.044,287.787,371.652,211.257,371.652,211.257z"/>
<path style="fill:#247C6F;" d="M371.652,211.257H140.349c0,0-34.393,76.531-74.109,115.949c-6.667,6.617-4.003,17.98,4.882,21.024
	c19.082,6.539,49.685,13.436,82.453,5.642c0.859,0.859,5.971,11.711,7.576,36.364c0.753,11.558,11.134,20.083,22.625,18.627
	c26.424-3.348,46.503-12.388,58.715-19.385c-4.675-12.875-6.028-27.731-5.35-42.951c0.824-18.479,17.557-32.232,35.818-29.283
	c24.139,3.898,52.156,16.083,68.381,16.083c0.347,0,0.693-0.001,1.036-0.002c14.762-0.061,28.898-6.656,37.88-18.371
	c8.981-11.714,18.793-51.408,18.793-51.408C382.501,235.398,371.652,211.257,371.652,211.257z"/>
<path style="fill:#3DA094;" d="M353.62,235.462c19.916,2.343,38.826-0.472,53.973-4.501c13.997-3.723,18.297-21.507,7.619-31.293
	c-29.682-27.203-61.592-73.295-61.592-73.295H158.293c0,0-31.91,46.092-61.592,73.295c-10.678,9.786-6.378,27.571,7.619,31.293
	c15.147,4.028,34.057,6.844,53.973,4.501c0.49,0.981-0.43,25.944-5.805,46.226c-2.87,10.831,5.045,21.535,16.25,21.631
	c24.865,0.214,62.883-3.793,87.219-26.946c24.336,23.153,62.354,27.16,87.219,26.946c11.205-0.096,19.12-10.8,16.25-21.631
	C354.05,261.406,353.13,236.443,353.62,235.462z"/>
<path style="fill:#309185;" d="M353.62,126.374H158.293c0,0-31.915,46.099-61.598,73.3c-10.713,9.817-6.3,27.595,7.745,31.32
	c15.127,4.011,33.989,6.806,53.853,4.469c0.492,0.984-0.437,26.126-5.864,46.448c-2.874,10.762,5.319,21.323,16.458,21.411
	c17.471,0.138,41.378-1.824,62.479-11.011c-6.057-17.409-8.778-34.402-7.815-50.523c0.829-13.893,6.252-23.449,12.459-30.062
	c8.754-9.327,22.855-10.998,33.862-4.481c17.391,10.296,34.95,14.994,49.266,16.103c20.421,1.582,32.787-6.578,41.068-18.115
	c8.171-11.384,10.424-26.072,6.053-39.365c5.018-0.653,10.17-1.52,15.421-2.563C365.587,143.658,353.62,126.374,353.62,126.374z"/>
<path style="fill:#4DB5A6;" d="M332.984,137.12c17.455,1.411,35.648-1.443,49.998-4.763c8.594-1.988,9.932-13.653,2.024-17.559
	c-48.766-24.089-91.409-72.03-113.345-99.709c-8.019-10.119-23.396-10.119-31.416,0c-21.936,27.679-64.579,75.62-113.345,99.709
	c-7.908,3.907-6.57,15.571,2.024,17.559c14.349,3.32,32.543,6.174,49.998,4.763c0,0,1.604,19.238-4.74,38.014
	c-3.304,9.779,4.825,19.646,15.074,18.419c19.458-2.33,46.537-11.029,66.697-38.986c20.16,27.958,47.24,36.656,66.697,38.986
	c10.249,1.227,18.378-8.639,15.074-18.419C331.38,156.358,332.984,137.12,332.984,137.12z"/>
<path style="fill:#3DA094;" d="M271.498,14.892c-8.062-9.919-23.286-9.858-31.252,0.194c-21.936,27.679-64.579,75.62-113.345,99.709
	c-7.908,3.907-6.57,15.571,2.024,17.559c14.349,3.319,32.543,6.174,49.998,4.763c0,0,1.604,19.238-4.74,38.014
	c-3.304,9.779,4.825,19.646,15.074,18.419c11.588-1.388,25.879-5.036,39.803-13.665C207.468,114.934,247.346,47.628,271.498,14.892z
	"/>
<circle cx="238.09" cy="411.41" r="7.5"/>
<path d="M451.043,321.882c-22.242-22.076-43.085-56.889-55.869-80.491c4.742-0.844,9.526-1.9,14.346-3.182
	c9.239-2.457,16.12-9.478,18.406-18.781c2.296-9.343-0.563-18.796-7.647-25.289c-16.637-15.247-34.069-36.665-46.021-52.319
	c3.411-0.63,6.875-1.337,10.414-2.156c7.038-1.628,12.124-7.315,12.958-14.489c0.836-7.184-2.815-13.897-9.303-17.101
	c-14.856-7.339-30.359-17.624-46.077-30.567c-3.195-2.632-7.923-2.176-10.557,1.022c-2.634,3.197-2.176,7.924,1.021,10.557
	c16.605,13.675,33.093,24.563,48.969,32.437c1.494,0.741,1.661,3.166-0.393,3.528c-18.157,3.197-34.009,5.703-47.702,4.595
	c-4.142-0.334-7.734,2.733-8.078,6.852c-0.071,0.849-1.656,21.019,5.108,41.038c1.026,3.038-0.446,5.315-1.127,6.153
	c-0.696,0.858-2.667,2.808-5.95,2.418c-17.775-2.128-42.874-10.089-61.506-35.926c-1.409-1.955-3.673-3.113-6.083-3.113
	s-4.674,1.158-6.083,3.113c-18.631,25.837-43.73,33.798-61.505,35.926c-3.279,0.393-5.254-1.561-5.951-2.418
	c-0.681-0.838-2.153-3.115-1.126-6.153c6.764-20.02,5.18-40.189,5.109-41.038c-0.344-4.12-3.955-7.182-8.079-6.853
	c-13.692,1.106-29.707-0.59-47.704-4.595c-1.903-0.423-2.043-2.666-0.392-3.528c49.823-26.011,94.245-74.449,115.901-101.774
	c2.391-3.017,5.974-4.748,9.83-4.748s7.438,1.73,9.83,4.748c8.915,11.25,23.201,28.277,40.63,45.504
	c2.945,2.911,7.694,2.884,10.606-0.062s2.885-7.695-0.062-10.606c-16.895-16.699-30.761-33.227-39.419-44.152
	C272.285,3.802,264.418,0,255.953,0c-8.464,0-16.333,3.802-21.586,10.431c-20.875,26.339-63.025,74.048-110.789,97.643
	c-6.487,3.205-10.138,9.917-9.303,17.102c0.834,7.174,5.92,12.861,12.958,14.489c3.541,0.819,7.007,1.527,10.419,2.157
	c-11.951,15.653-29.381,37.069-46.021,52.318c-7.084,6.493-9.943,15.946-7.647,25.289c2.286,9.304,9.167,16.325,18.406,18.782
	c16.612,4.418,32.807,6.234,48.273,5.422c-0.528,8.584-2.013,23.252-5.427,36.136c-1.986,7.496-0.442,15.312,4.235,21.445
	c4.607,6.04,11.605,9.542,19.201,9.607c45.193,0.375,71.953-12.222,87.283-24.502c15.101,12.095,41.306,24.048,85.255,24.511
	c7.757,0.082,16.622-3.576,21.229-9.616c4.678-6.133,6.222-13.949,4.235-21.445c-3.414-12.883-4.898-27.551-5.427-36.135
	c5.897,0.311,11.901,0.236,17.993-0.217c14.942,28.243,37.008,65.068,61.236,89.114c1.826,1.812,1.572,3.97,1.379,4.813
	c-0.197,0.856-0.922,2.94-3.403,3.791c-18.91,6.48-47.845,12.684-78.292,5.442c-2.53-0.602-5.196,0.152-7.039,1.993
	c-3.093,3.093-8.256,16.814-9.804,41.94c-0.213,3.455-1.79,6.59-4.439,8.826c-2.621,2.211-5.926,3.226-9.316,2.863
	c-16.545-1.785-47.433-7.699-68.407-27.25c-1.389-1.294-3.216-2.014-5.114-2.014c-1.742,0-3.458,0.629-4.802,1.738
	c-1.058,0.873-26.393,21.441-68.451,26.757c-3.486,0.44-6.899-0.547-9.605-2.78c-2.705-2.232-4.319-5.391-4.547-8.895
	c-1.605-24.663-6.715-38.142-9.758-41.184c-1.841-1.842-4.508-2.596-7.039-1.993c-30.452,7.243-59.383,1.038-78.292-5.442
	c-2.481-0.851-3.207-2.935-3.403-3.791c-0.194-0.844-0.447-3.001,1.379-4.813c15.303-15.189,31.47-37.209,48.052-65.449
	c2.097-3.572,0.901-8.167-2.67-10.265c-3.57-2.096-8.167-0.901-10.265,2.67c-15.927,27.125-31.297,48.119-45.683,62.397
	c-4.974,4.936-7.004,11.97-5.432,18.817c1.579,6.874,6.498,12.34,13.16,14.624c19.507,6.686,48.804,13.084,80.391,7.169
	c1.513,4.802,3.653,13.805,4.592,28.235c0.493,7.563,4.125,14.667,9.968,19.489c5.844,4.824,13.509,7.044,21.035,6.094
	c7.925-1.002,15.304-2.491,22.106-4.281v52.928c0,25.939,21.104,47.042,47.043,47.042s47.043-21.103,47.043-47.042v-52.924
	c10.419,2.828,19.958,4.348,27.091,5.077c7.817,0.799,15.591-2.085,20.599-6.312c5.729-4.833,9.277-11.893,9.737-19.367
	c0.915-14.839,3.099-24.058,4.637-28.938c31.589,5.913,60.886-0.484,80.391-7.17c6.661-2.283,11.581-7.75,13.159-14.624
	C458.047,333.853,456.017,326.818,451.043,321.882z M354.496,228.014c-3.129-0.371-6.171,1.267-7.584,4.095
	c-0.688,1.376-1.631,3.261-0.056,19.934c0.77,8.15,2.317,20.242,5.318,31.567c0.791,2.984,0.186,6.085-1.662,8.507
	c-1.044,1.368-3.394,3.669-7.402,3.704c-45.68,0.407-69.826-13.313-81.984-24.88c-2.896-2.754-7.443-2.755-10.339,0
	c-22.028,20.957-56.728,25.081-81.985,24.88c-4.009-0.035-6.359-2.336-7.402-3.705c-1.847-2.421-2.453-5.522-1.663-8.506
	c3.001-11.326,4.549-23.417,5.319-31.567c1.575-16.673,0.633-18.558-0.056-19.934c-1.413-2.827-4.449-4.466-7.584-4.095
	c-16.1,1.895-33.317,0.447-51.169-4.3c-3.86-1.026-6.737-3.967-7.695-7.865c-0.967-3.938,0.234-7.919,3.215-10.651
	c19.996-18.325,40.812-44.796,52.854-60.967c5.893,0.567,11.561,0.826,16.963,0.742c-0.135,6.771-1,17.377-4.509,27.761
	c-2.37,7.014-0.99,14.644,3.692,20.41c4.716,5.808,11.965,8.744,19.378,7.856c18.881-2.261,44.849-10.171,65.806-34.351
	c20.957,24.18,46.909,32.23,65.806,34.351c8.466,0.95,15.218-2.733,19.378-7.855c4.683-5.766,6.063-13.396,3.693-20.411
	c-3.49-10.327-4.357-20.967-4.498-27.76c5.4,0.082,11.066-0.177,16.957-0.744c12.044,16.172,32.863,42.646,52.855,60.969
	c2.981,2.732,4.183,6.713,3.216,10.651c-0.958,3.898-3.835,6.838-7.695,7.865C387.814,228.462,370.596,229.908,354.496,228.014z
	 M285.862,464.958c0,17.668-14.374,32.042-32.043,32.042c-2.846,0-5.604-0.378-8.232-1.077V434.87c0-4.125-3.375-7.5-7.5-7.5l0,0
	c-4.125,0-7.5,3.375-7.5,7.5v52.121c-5.454-5.747-8.811-13.503-8.811-22.033v-57.634c16.112-5.895,27.661-12.941,33.907-17.274
	c2.586,2.094,5.266,4.022,8.004,5.813v64.855c0,4.125,3.375,7.5,7.5,7.5s7.5-3.375,7.5-7.5v-56.622
	c2.389,1.093,4.785,2.1,7.175,3.027V464.958z"/>
<g>
</g>
<g>
</g>
<g>
</g>
<g>
</g>
<g>
</g>
<g>
</g>
<g>
</g>
<g>
</g>
<g>
</g>
<g>
</g>
<g>
</g>
<g>
</g>
<g>
</g>
<g>
</g>
<g>
</g>
</svg>
