<?xml version="1.0" encoding="iso-8859-1"?>
<!-- Generator: Adobe Illustrator 19.0.0, SVG Export Plug-In . SVG Version: 6.00 Build 0)  -->
<svg version="1.1" id="Capa_1" xmlns="http://www.w3.org/2000/svg" xmlns:xlink="http://www.w3.org/1999/xlink" x="0px" y="0px"
	 viewBox="0 0 512.001 512.001" style="enable-background:new 0 0 512.001 512.001;" xml:space="preserve">
<path style="fill:#3E3D42;" d="M374.15,178.263c0,0,136.521,50.452,88.162,231.466c-3.336,12.487-17.879,18.074-28.651,10.931
	c-19.477-12.916-45.384-30.188-45.384-30.188L374.15,178.263z"/>
<path style="fill:#2D2D30;" d="M137.85,178.263c0,0-136.521,50.452-88.162,231.466c3.336,12.487,17.879,18.074,28.651,10.931
	c19.477-12.916,45.384-30.188,45.384-30.188L137.85,178.263z"/>
<path style="fill:#1D1D1F;" d="M80.97,418.914c19.097-12.672,42.754-28.443,42.754-28.443l11.801-177.27
	C109.493,234.837,33.96,309.773,80.97,418.914z"/>
<path style="fill:#2D2D30;" d="M431.03,418.914c-19.097-12.672-42.754-28.443-42.754-28.443l-11.801-177.27
	C402.507,234.837,478.04,309.773,431.03,418.914z"/>
<path style="fill:#57565C;" d="M387.531,183.078v-44.047C387.531,66.388,328.643,7.5,256,7.5l0,0
	c-72.643,0-131.531,58.888-131.531,131.531v44.045c0,20.546-5.576,40.685-16.012,58.384c-14.999,25.439-23.608,55.094-23.608,86.765
	c-0.001,94.437,77.986,171.835,172.421,171.149c93.94-0.683,169.881-77.046,169.881-171.147c0-31.67-8.609-61.325-23.608-86.764
	C393.108,223.763,387.531,203.624,387.531,183.078z"/>
<path style="fill:#3E3D42;" d="M189.924,337.83c0-31.67,8.609-61.325,23.608-86.765c3.378-5.729,6.863-14.948,9.505-22.744
	c2.76-8.143,8.42-14.933,15.762-19.406c8.413-5.126,18.799-14.579,20.977-30.652l-30.233-22.156
	c-1.926-68.033,37.686-114.883,89.948-132.286C300.667,13.424,279.027,7.5,256,7.5l0,0c-72.643,0-131.531,58.888-131.531,131.531
	v44.045c0,20.546-5.576,40.685-16.012,58.384c-14.999,25.439-23.608,55.094-23.608,86.764
	c-0.001,94.437,77.986,171.835,172.421,171.149c12.618-0.092,24.908-1.561,36.736-4.243
	C233.057,468.852,189.923,408.058,189.924,337.83z"/>
<circle style="fill:#E9F6FF;" cx="256" cy="345.26" r="117.18"/>
<g>
	<path style="fill:#CAE7FC;" d="M189.924,337.83c0-31.67,8.609-61.325,23.608-86.765c2.678-4.543,5.422-11.279,7.762-17.761
		c-47.775,14.792-82.48,59.321-82.48,111.957c0,60.508,45.862,110.299,104.719,116.522
		C210.596,430.531,189.924,386.443,189.924,337.83z"/>
	<path style="fill:#CAE7FC;" d="M274.046,430.898c-1.2-3.964,1.04-8.151,5.004-9.352c17.61-5.333,32.973-16.751,43.259-32.15
		c2.3-3.444,6.958-4.372,10.402-2.071c3.445,2.301,4.372,6.958,2.071,10.402c-12.21,18.281-30.65,31.239-51.385,38.176
		C278.315,437.603,275.027,434.138,274.046,430.898z"/>
</g>
<path style="fill:#FFB864;" d="M184.167,504.5h-61.574c-15.858,0-28.832-12.975-28.832-28.832l0,0
	c0-15.858,12.975-28.832,28.832-28.832h61.574c15.858,0,28.832,12.975,28.832,28.832l0,0
	C212.999,491.525,200.024,504.5,184.167,504.5z"/>
<path style="fill:#F4A651;" d="M142.551,475.668c0-15.858,12.975-28.832,28.832-28.832h-48.791
	c-15.858,0-28.832,12.975-28.832,28.832s12.975,28.832,28.832,28.832h48.791C155.526,504.5,142.551,491.525,142.551,475.668z"/>
<path style="fill:#FFB864;" d="M389.415,504.5H327.84c-15.858,0-28.832-12.975-28.832-28.832l0,0
	c0-15.858,12.975-28.832,28.832-28.832h61.574c15.858,0,28.832,12.975,28.832,28.832l0,0
	C418.247,491.525,405.272,504.5,389.415,504.5z"/>
<path style="fill:#F4A651;" d="M347.799,475.667c0-15.858,12.975-28.832,28.832-28.832H327.84
	c-15.858,0-28.832,12.975-28.832,28.832S311.982,504.5,327.84,504.5h48.791C360.773,504.5,347.799,491.525,347.799,475.667z"/>
<ellipse style="fill:#EF943A;" cx="256.12" cy="178.26" rx="28.502" ry="22.16"/>
<path style="fill:#E28027;" d="M256.12,156.107c-15.741,0-28.502,9.919-28.502,22.156c0,10.576,9.537,19.416,22.288,21.621
	c-3.098-11.969,6.1-19.25,6.1-19.25L256.12,156.107z"/>
<path style="fill:#FFB864;" d="M293.127,180.634c9.085,0,12.757-11.605,5.395-16.927c-9.558-6.909-25.044-11.4-42.522-11.4
	s-32.963,4.49-42.521,11.4c-7.363,5.322-3.69,16.927,5.395,16.927H293.127z"/>
<path style="fill:#F4A651;" d="M250.491,163.708c5.996-4.334,14.326-7.715,24.015-9.634c-5.757-1.14-11.993-1.766-18.506-1.766
	c-17.478,0-32.963,4.49-42.521,11.4c-7.363,5.322-3.69,16.927,5.395,16.927h37.013C246.801,180.634,243.129,169.03,250.491,163.708z
	"/>
<path d="M336.656,120.775c-4.142,0-7.5,3.358-7.5,7.5v12.45c0,4.142,3.358,7.5,7.5,7.5s7.5-3.358,7.5-7.5v-12.45
	C344.156,124.133,340.798,120.775,336.656,120.775z"/>
<path d="M175.344,123.029c-7.937,0-15.4,3.877-19.964,10.371c-2.535,3.606-1.666,8.585,1.941,11.12
	c3.606,2.534,8.585,1.666,11.12-1.941c1.602-2.279,4.118-3.586,6.904-3.586s5.24,1.352,6.904,3.586
	c3.826,5.138,9.724,2.921,11.12,1.941c3.607-2.535,4.476-7.514,1.941-11.12C190.744,126.906,183.281,123.029,175.344,123.029z"/>
<path d="M256,144.808c-18.542,0-35.643,4.673-46.915,12.821c-6.061,4.381-8.494,11.798-6.197,18.895
	c2.282,7.053,8.557,11.61,15.985,11.61h3.303c4.949,11.513,18.293,19.784,33.944,19.784s28.994-8.272,33.944-19.784h3.063
	c7.428,0,13.703-4.557,15.985-11.61c2.296-7.097-0.136-14.514-6.197-18.896C291.643,149.481,274.543,144.808,256,144.808z
	 M256.12,192.918c-5.988,0-11.471-1.868-15.339-4.784h30.678C267.591,191.051,262.108,192.918,256.12,192.918z M293.127,173.134
	h-74.254c-2.327,0-2.276-2.519-1.001-3.348c8.94-5.816,22.897-9.978,38.128-9.978s29.455,3.77,38.128,9.978
	C295.288,170.616,295.816,173.134,293.127,173.134z"/>
<path d="M458.084,245.231c-18.965-34.513-46.045-54.759-63.053-64.85v-41.35c0-28.464-8.543-55.829-24.705-79.136
	c-2.36-3.403-7.033-4.25-10.437-1.889c-3.404,2.36-4.25,7.033-1.889,10.437c14.413,20.785,22.031,45.194,22.031,70.588v44.046
	c0,21.768,5.896,43.274,17.051,62.193c14.765,25.042,22.569,53.727,22.569,82.956c0,41.555-15.414,80.779-43.512,111.109h-38.403
	c26.293-22.876,42.942-56.566,42.942-94.073c0-68.75-55.933-124.683-124.683-124.683c-45.96,0-88.054,25.162-109.856,65.667
	c-1.963,3.647-0.598,8.195,3.049,10.159c3.646,1.963,8.195,0.598,10.159-3.049c19.183-35.638,56.216-57.776,96.648-57.776
	c60.479,0,109.683,49.204,109.683,109.683s-49.204,109.683-109.683,109.683s-109.682-49.204-109.682-109.683
	c0-8.363,0.943-16.693,2.804-24.759c0.931-4.036-1.586-8.063-5.622-8.994c-4.037-0.933-8.063,1.585-8.994,5.622
	c-2.115,9.17-3.188,18.635-3.188,28.131c0,37.507,16.649,71.197,42.942,94.073h-37.974c-28.352-30.479-43.935-69.808-43.934-111.11
	c0-29.23,7.805-57.915,22.569-82.956c11.155-18.918,17.051-40.425,17.051-62.193v-44.045C131.969,70.64,187.609,15,256,15
	c30.502,0,59.821,11.174,82.555,31.464c3.091,2.757,7.832,2.488,10.59-0.602s2.489-7.832-0.602-10.59
	C323.057,12.527,290.191,0,256,0c-76.662,0-139.031,62.369-139.031,139.031v41.35c-17.007,10.091-44.087,30.336-63.051,64.848
	c-24.977,45.45-28.837,101.447-11.476,166.435c2.229,8.341,8.127,14.875,16.183,17.926c3.069,1.162,13.917,3.305,23.859-2.681
	c5.769-3.473,11.753-7.802,17.66-11.729c4.842,8.593,10.419,16.825,16.702,24.614c-17.312,2.764-30.585,17.796-30.585,35.874
	c0,20.034,16.299,36.333,36.333,36.333h61.574c10.249,0,19.514-4.273,26.126-11.123c14.892,3.985,30.24,6,45.734,6
	c0.433,0,0.866-0.001,1.298-0.004c15.072-0.11,29.999-2.12,44.445-5.938c6.608,6.816,15.85,11.065,26.071,11.065h61.575
	c20.034,0,36.333-16.299,36.333-36.333c0-17.96-13.103-32.91-30.25-35.813c6.232-7.759,11.763-15.964,16.563-24.538
	c5.844,3.886,11.848,8.008,17.455,11.593c9.609,6.143,20.791,3.843,23.859,2.681c8.056-3.052,13.954-9.585,16.183-17.926
	C486.919,346.677,483.059,290.681,458.084,245.231z M74.194,414.409c-3.074,2.039-6.812,2.458-10.256,1.154
	c-3.484-1.32-6.038-4.152-7.004-7.77c-16.331-61.128-12.923-113.392,10.129-155.34c14.291-26.006,33.645-43.134,48.694-53.496
	c-2.051,13.562-6.699,26.716-13.761,38.693c-16.125,27.347-24.647,58.667-24.648,90.574c0,25.662,5.508,50.62,15.946,73.496
	C86.954,405.938,80.264,410.383,74.194,414.409z M184.167,497h-61.574c-11.763,0-21.333-9.57-21.333-21.333
	s9.57-21.333,21.333-21.333h61.574c11.763,0,21.333,9.57,21.333,21.333S195.929,497,184.167,497z M257.215,491.873
	c-13.075,0.099-26.053-1.384-38.698-4.394c1.278-3.706,1.982-7.677,1.982-11.812c0-3.997-0.658-7.842-1.856-11.442
	c11.798,3.713,24.346,5.718,37.354,5.718c13.014,0,25.566-2.008,37.369-5.723c-1.199,3.602-1.858,7.448-1.858,11.447
	c0,4.155,0.71,8.146,2.001,11.867C281.663,490.311,269.495,491.783,257.215,491.873z M410.747,475.667
	c0,11.763-9.57,21.333-21.333,21.333H327.84c-11.763,0-21.332-9.57-21.332-21.333s9.569-21.333,21.332-21.333h61.575
	C401.177,454.335,410.747,463.905,410.747,475.667z M455.066,407.793c-0.966,3.618-3.52,6.45-7.004,7.77
	c-3.446,1.304-7.184,0.884-10.256-1.154c-6.015-3.989-12.639-8.39-18.928-12.573c10.333-22.836,15.773-47.812,15.773-73.61
	c0-31.906-8.523-63.226-24.648-90.574c-7.062-11.978-11.71-25.133-13.761-38.695c15.049,10.362,34.404,27.491,48.696,53.498
	C467.989,294.403,471.397,346.666,455.066,407.793z"/>
<g>
</g>
<g>
</g>
<g>
</g>
<g>
</g>
<g>
</g>
<g>
</g>
<g>
</g>
<g>
</g>
<g>
</g>
<g>
</g>
<g>
</g>
<g>
</g>
<g>
</g>
<g>
</g>
<g>
</g>
</svg>
