<?xml version="1.0" encoding="iso-8859-1"?>
<!-- Generator: Adobe Illustrator 19.0.0, SVG Export Plug-In . SVG Version: 6.00 Build 0)  -->
<svg version="1.1" id="Capa_1" xmlns="http://www.w3.org/2000/svg" xmlns:xlink="http://www.w3.org/1999/xlink" x="0px" y="0px"
	 viewBox="0 0 512 512" style="enable-background:new 0 0 512 512;" xml:space="preserve">
<path style="fill:#CAE7FC;" d="M171.748,172.24l-30.214-30.214c-10.155-10.155-10.155-26.619,0-36.774l30.214-30.214
	c10.155-10.155,26.619-10.155,36.774,0l30.214,30.214c10.155,10.155,10.155,26.619,0,36.774l-30.214,30.214
	C198.366,182.395,181.903,182.395,171.748,172.24z"/>
<path style="fill:#B3DBF4;" d="M186.837,84.041L175.046,72.25c-1.156,0.825-2.262,1.751-3.299,2.788l-30.214,30.214
	c-10.155,10.155-10.155,26.619,0,36.773l30.214,30.214c1.037,1.037,2.143,1.963,3.299,2.788l11.791-11.791
	C208.671,141.404,208.671,105.877,186.837,84.041z"/>
<path style="fill:#E9F6FF;" d="M98.639,172.24l-30.214-30.213c-10.155-10.155-10.155-26.619,0-36.774l30.214-30.214
	c10.155-10.155,26.619-10.155,36.774,0l30.214,30.214c10.155,10.155,10.155,26.619,0,36.774l-30.214,30.214
	C125.258,182.395,108.793,182.395,98.639,172.24z"/>
<path style="fill:#F4A651;" d="M496.835,201.799c-22.271-43.957-86.568-56.162-143.609-27.261s-85.229,87.964-62.957,131.921
	s86.568,56.162,143.609,27.261C490.92,304.819,519.107,245.757,496.835,201.799z M327.504,287.594
	c-11.432-22.563,9.404-57.993,44.588-75.819s76.075-13.672,87.507,8.891c11.433,22.564-9.403,57.994-44.587,75.82
	C379.829,314.313,338.937,310.158,327.504,287.594z"/>
<path style="fill:#E28027;" d="M473.75,271.502c12.382-21.054,14.377-43.207,5.474-60.78c-6.514-12.858-18.647-21.804-33.766-27.586
	c-14.781-5.653-10.316-20.391-9.872-22.732c-25.425-4.217-54.742,0.14-82.359,14.133c-57.041,28.902-85.229,87.964-62.957,131.921
	c20.903,41.255,78.823,54.54,133.022,32.123c2.177-4.534,4.665-11.061,6.654-16.599c2.392-6.656,6.752-12.409,12.473-16.571
	C455.379,295.984,466.197,284.346,473.75,271.502z M415.013,296.485c-35.184,17.826-76.076,13.673-87.508-8.891
	c-11.432-22.563,9.404-57.993,44.588-75.819s76.075-13.672,87.507,8.891C471.033,243.229,450.198,278.659,415.013,296.485z"/>
<path style="fill:#B39A7C;" d="M314.632,444.579H112.518c-14.823,0-26.839-12.016-26.839-26.839v-51.323h255.792v51.323
	C341.471,432.564,329.455,444.579,314.632,444.579z"/>
<path style="fill:#957856;" d="M85.679,366.418v51.323c0,14.823,12.016,26.839,26.839,26.839h62.542v-8.581
	c0-6.448,4.509-12.027,10.818-13.354c20.316-4.273,38.841-15.245,38.841-15.245v-40.981L85.679,366.418L85.679,366.418z"/>
<path style="fill:#FFC477;" d="M7.534,153.798l6.991,148.974c2.162,46.073,35.592,84.566,80.856,93.427
	c31.451,6.156,71.473,11.2,118.194,11.2s86.743-5.044,118.194-11.2c45.264-8.861,78.694-47.354,80.856-93.427l6.991-148.974
	c0.775-16.515-12.405-30.327-28.938-30.327H36.471C19.939,123.471,6.759,137.284,7.534,153.798z"/>
<g>
	<path style="fill:#F4A651;" d="M166.366,401.739c-49.067-9.605-85.305-51.332-87.648-101.274l-7.578-161.487
		c-0.262-5.574,0.945-10.863,3.27-15.506H36.472c-16.533,0-29.713,13.813-28.938,30.328l6.991,148.974
		c2.162,46.073,35.592,84.566,80.856,93.427c28.124,5.506,63.119,10.109,103.61,11.024
		C187.347,405.572,176.44,403.711,166.366,401.739z"/>
	<path style="fill:#F4A651;" d="M266.544,375.157c-0.413-4.121,2.593-7.796,6.713-8.21c17.374-1.743,34.636-4.282,51.308-7.546
		c13.767-2.695,26.364-9.97,35.475-20.484c2.712-3.132,7.448-3.468,10.578-0.757c3.131,2.712,3.47,7.448,0.757,10.579
		c-11.291,13.033-26.893,22.047-43.928,25.383c-17.128,3.354-34.766,7.749-52.69,7.75
		C269.886,381.871,266.932,379.024,266.544,375.157z"/>
</g>
<g>
	<path style="fill:#FF737D;" d="M105.873,313.555H86.936c-6.783,0-12.333-5.55-12.333-12.333v-1.06
		c0-6.783,5.55-12.333,12.333-12.333h18.937c6.783,0,12.333,5.55,12.333,12.333v1.06
		C118.206,308.004,112.657,313.555,105.873,313.555z"/>
	<path style="fill:#FF737D;" d="M340.214,313.555h-18.937c-6.783,0-12.333-5.55-12.333-12.333v-1.06
		c0-6.783,5.55-12.333,12.333-12.333h18.937c6.783,0,12.333,5.55,12.333,12.333v1.06
		C352.548,308.004,346.997,313.555,340.214,313.555z"/>
</g>
<path style="fill:#57565C;" d="M194.457,324.594l-28.948-18.226c-10.271-6.467-13.991-19.962-7.893-30.457
	c6.402-11.019,20.603-14.447,31.294-7.714l14.715,9.265c6.057,3.814,13.766,3.814,19.823,0l14.715-9.265
	c10.464-6.588,24.283-3.447,30.871,7.015c6.587,10.462,3.446,24.284-7.016,30.871l-29.401,18.512
	C220.957,331.936,206.118,331.936,194.457,324.594z"/>
<path style="fill:#FF737D;" d="M246.359,315.947c-4.224-10.712-17.297-18.521-32.777-18.521c-15.499,0-28.585,7.828-32.792,18.559
	l13.673,8.609c11.661,7.342,26.501,7.342,38.163,0L246.359,315.947z"/>
<circle style="fill:#CC7400;" cx="364.949" cy="232.451" r="24.275"/>
<path style="fill:#AA6100;" d="M364.949,232.449c0-8.983,4.884-16.822,12.138-21.019c-3.572-2.067-7.714-3.256-12.138-3.256
	c-13.407,0-24.275,10.868-24.275,24.275c0,13.407,10.868,24.275,24.275,24.275c4.424,0,8.566-1.189,12.138-3.256
	C369.834,249.27,364.949,241.432,364.949,232.449z"/>
<path style="fill:#CC7400;" d="M254.942,123.471v73.853c0,13.351,10.924,24.275,24.275,24.275c13.352,0,24.275-10.924,24.275-24.275
	v-39.693c0-10.225,8.366-18.591,18.591-18.591c10.225,0,18.591,8.366,18.591,18.591v10.818c0,13.351,10.924,24.275,24.275,24.275
	c13.352,0,24.275-10.924,24.275-24.275v-44.978L254.942,123.471L254.942,123.471z"/>
<g>
	<path style="fill:#AA6100;" d="M282.646,197.324v-73.853h-27.704v73.853c0,13.351,10.924,24.275,24.275,24.275
		c5.14,0,9.916-1.624,13.852-4.377C286.782,212.823,282.646,205.535,282.646,197.324z"/>
	<path style="fill:#AA6100;" d="M378.802,188.346L378.802,188.346c-6.287-4.399-10.423-11.687-10.423-19.898V157.63
		c-0.979-26.792-41.813-27.34-52.924-17.359c-0.009,0.008-0.016,0.019-0.025,0.027c2.071-0.802,4.31-1.26,6.654-1.26
		c10.225,0,18.591,8.366,18.591,18.591v10.818c0,13.351,10.924,24.275,24.275,24.275C370.09,192.724,374.866,191.1,378.802,188.346z
		"/>
</g>
<path d="M301.723,272.817v-12.449c0-4.142-3.357-7.499-7.499-7.499s-7.499,3.358-7.499,7.499v12.449
	c0,4.142,3.357,7.499,7.499,7.499S301.723,276.959,301.723,272.817z"/>
<path d="M140.425,272.817v-12.449c0-4.142-3.357-7.499-7.499-7.499c-4.143,0-7.499,3.358-7.499,7.499v12.449
	c0,4.142,3.357,7.499,7.499,7.499C137.069,280.317,140.425,276.959,140.425,272.817z"/>
<path d="M190.461,330.94c7.01,4.415,15.042,6.621,23.077,6.62c8.032-0.001,16.068-2.208,23.076-6.62l29.4-18.512
	c13.944-8.78,18.145-27.269,9.366-41.213c-8.779-13.943-27.268-18.144-41.213-9.365l-14.715,9.265
	c-3.594,2.264-8.238,2.263-11.832,0l-14.716-9.265c-6.925-4.361-15.12-5.686-23.064-3.73c-7.946,1.955-14.591,6.935-18.709,14.023
	c-7.983,13.741-3.327,31.941,10.381,40.572L190.461,330.94z M164.1,279.678c2.056-3.537,11.087-9.994,20.814-5.137l14.716,9.265
	c8.446,5.32,19.366,5.32,27.815,0l14.715-9.265c6.947-4.374,16.157-2.28,20.529,4.666c4.374,6.946,2.28,16.156-4.666,20.529
	l-29.4,18.512c-9.162,5.769-21.006,5.77-30.17,0l-28.948-18.226C162.551,295.643,160.127,286.517,164.1,279.678z"/>
<path d="M396.724,232.449c0-17.52-14.254-31.774-31.774-31.774c-17.521,0-31.774,14.254-31.774,31.774s14.254,31.774,31.774,31.774
	C382.47,264.223,396.724,249.968,396.724,232.449z M348.173,232.449c0-9.25,7.525-16.776,16.776-16.776s16.776,7.525,16.776,16.776
	c0,9.25-7.525,16.776-16.776,16.776S348.173,241.698,348.173,232.449z"/>
<path d="M503.525,198.41c-13.49-26.625-41.715-43.698-76.389-46.598c-0.141-9.189-3.665-17.832-10.072-24.548
	c-6.948-7.282-16.319-11.293-26.386-11.293H179.854c-1.404-6.019-4.451-11.547-8.924-16.022l-6.743-6.743l12.864-12.865
	c7.216-7.214,18.956-7.213,26.169,0l23.229,23.23c4.91,4.438,9.142,1.464,10.606,0c2.929-2.929,2.929-7.677,0-10.605l-23.23-23.23
	c-13.062-13.062-34.316-13.062-47.38,0l-12.865,12.865l-12.865-12.865c-6.327-6.327-14.741-9.812-23.689-9.812
	c-8.949,0-17.363,3.485-23.69,9.812L63.121,99.95c-4.478,4.479-7.523,10.004-8.926,16.022H36.471
	c-10.065,0-19.436,4.011-26.385,11.292C3.138,134.546-0.43,144.095,0.041,154.15l3.597,76.618c0.195,4.137,3.71,7.339,7.843,7.139
	c4.138-0.194,7.333-3.706,7.14-7.842l-3.597-76.618c-0.278-5.921,1.822-11.542,5.913-15.83c4.091-4.288,9.607-6.648,15.533-6.648
	h210.972v66.353c0,17.521,14.254,31.774,31.773,31.774c17.521,0,31.774-14.254,31.774-31.774V157.63
	c0-6.116,4.977-11.092,11.092-11.092c6.115,0,11.092,4.976,11.092,11.092v10.818c0,17.52,14.254,31.774,31.774,31.774
	c17.519,0,31.773-14.254,31.773-31.774v-12.833c0-4.142-3.357-7.499-7.499-7.499c-4.143,0-7.499,3.358-7.499,7.499v12.833
	c0,9.25-7.524,16.776-16.775,16.776s-16.776-7.525-16.776-16.776V157.63c0-14.387-11.704-26.091-26.091-26.091
	c-14.387,0-26.091,11.704-26.091,26.091v39.693c0,9.25-7.525,16.776-16.776,16.776s-16.775-7.525-16.775-16.776v-66.353h128.236
	c5.927,0,11.443,2.361,15.534,6.648c4.092,4.288,6.19,9.909,5.913,15.829l-6.99,148.973c-2.002,42.652-32.764,78.189-74.807,86.419
	c-37.489,7.339-76.77,11.061-116.752,11.061s-79.262-3.722-116.754-11.061c-42.042-8.229-72.804-43.767-74.806-86.419l-1.784-38.022
	c-0.193-4.137-3.706-7.339-7.843-7.139c-4.138,0.194-7.333,3.706-7.14,7.842l1.784,38.022c2.069,44.064,30.544,81.57,71.146,96.082
	v18.535c0,18.934,15.404,34.337,34.338,34.337h202.116c18.934,0,34.338-15.404,34.338-34.337v-18.535
	c24.139-8.628,43.98-25.382,56.542-46.817c10.848-2.775,21.506-6.785,31.754-11.978c29.057-14.723,51.999-37.372,64.598-63.775
	C514.782,249.572,515.371,221.792,503.525,198.41z M73.728,110.555l30.214-30.213c3.495-3.495,8.141-5.42,13.084-5.42
	c4.942,0,9.588,1.925,13.083,5.42l30.214,30.213c1.59,1.59,2.838,3.428,3.745,5.417H69.983
	C70.89,113.984,72.137,112.146,73.728,110.555z M333.972,417.741c0,10.664-8.676,19.338-19.339,19.338H112.518
	c-10.663,0-19.339-8.675-19.339-19.338v-14.348c0.256,0.052,67.466,11.506,120.397,11.506s120.141-11.454,120.397-11.506V417.741z
	 M424.552,208.608c13.636,1.525,24.132,7.105,28.358,15.447c4.272,8.431,2.601,20.275-4.587,32.496
	c-6.176,10.502-15.858,20.277-27.326,27.802L424.552,208.608z M430.489,327.031c-5.375,2.724-10.87,5.086-16.447,7.082
	c5.607-12.295,6.115-31.863,6.115-31.863c17.496-9.248,32.046-22.708,41.094-38.096c9.828-16.713,11.664-33.798,5.038-46.877
	c-6.736-13.293-21.708-21.793-41.032-23.688l1.256-26.771c29.139,2.612,52.618,16.635,63.632,38.371
	C510.512,245.387,483.75,300.045,430.489,327.031z"/>
<g>
</g>
<g>
</g>
<g>
</g>
<g>
</g>
<g>
</g>
<g>
</g>
<g>
</g>
<g>
</g>
<g>
</g>
<g>
</g>
<g>
</g>
<g>
</g>
<g>
</g>
<g>
</g>
<g>
</g>
</svg>
