<?xml version="1.0" encoding="iso-8859-1"?>
<!-- Generator: Adobe Illustrator 19.0.0, SVG Export Plug-In . SVG Version: 6.00 Build 0)  -->
<svg version="1.1" id="Capa_1" xmlns="http://www.w3.org/2000/svg" xmlns:xlink="http://www.w3.org/1999/xlink" x="0px" y="0px"
	 viewBox="0 0 512 512" style="enable-background:new 0 0 512 512;" xml:space="preserve">
<ellipse style="fill:#CAE7FC;" cx="256" cy="327.75" rx="180.38" ry="176.75"/>
<path style="fill:#B3DBF4;" d="M304.226,157.397c-15.352-4.164-31.522-6.399-48.226-6.399c-99.62,0-180.378,79.134-180.378,176.751
	c0,68.109,39.32,127.21,96.924,156.723c-37.045-116.911,16.279-161.295,16.279-161.295L304.226,157.397z"/>
<g>
	<circle style="fill:#57565C;" cx="256" cy="372.9" r="15"/>
	<circle style="fill:#57565C;" cx="256.02" cy="430.11" r="15"/>
</g>
<path style="fill:#FF5555;" d="M397.156,321.178H114.844c-20.47,0-37.063-16.594-37.063-37.064v-25.973
	c0-33.344,27.031-60.375,60.375-60.375h235.69c33.344,0,60.375,27.031,60.375,60.375v25.973
	C434.22,304.584,417.626,321.178,397.156,321.178z"/>
<path style="fill:#E04141;" d="M225.422,197.767h-87.267c-33.344,0-60.375,27.031-60.375,60.375v25.973
	c0,20.47,16.594,37.063,37.063,37.063H218.75C194.686,271.827,210.615,225.199,225.422,197.767z"/>
<path style="fill:#FFA5B5;" d="M371.758,427.479l-30.712-15.409l-30.712,15.409c-7.443,3.734-16.211-1.677-16.211-10.004v-220.08
	h93.846v220.08C387.969,425.802,379.2,431.213,371.758,427.479z"/>
<path style="fill:#FF737D;" d="M294.123,417.475c0,8.327,8.769,13.738,16.211,10.004l18.265-9.164
	c0.012-20.272,0.025-47.609,0.022-67.726c-0.002-15.677,5.921-30.743,16.474-42.337c41.339-45.414,42.872-110.856,42.872-110.856
	h-93.846v220.079H294.123z"/>
<circle style="fill:#E9F6FF;" cx="256" cy="152.23" r="144.73"/>
<path style="fill:#CAE7FC;" d="M252.281,7.547C175.365,9.489,112.998,72.051,111.31,148.972
	c-1.197,54.522,27.77,102.373,71.363,128.044c-9.696-28.718-11.318-52.766-10.011-70.862c1.436-19.865,13.213-37.642,30.983-46.638
	c28.771-14.566,42.592-33.897,42.592-33.897l41.657-114.594C276.474,8.457,264.546,7.237,252.281,7.547z"/>
<path style="fill:#57565C;" d="M256,251.811c-17.505,0-35.01-4.453-50.623-13.358c-9.595-5.473-12.936-17.687-7.463-27.282
	c5.473-9.594,17.688-12.937,27.282-7.463c19.001,10.838,42.608,10.838,61.609,0c9.595-5.473,21.809-2.131,27.282,7.463
	c5.473,9.595,2.131,21.809-7.463,27.282C291.01,247.358,273.505,251.811,256,251.811z"/>
<path style="fill:#FF9478;" d="M282.095,194.62c0,14.402-11.675,67.194-26.077,67.194s-26.077-52.792-26.077-67.194
	s11.675-26.077,26.077-26.077C270.42,168.543,282.095,180.219,282.095,194.62z"/>
<path style="fill:#FF7956;" d="M270.325,172.822c-4.108-2.702-9.022-4.278-14.306-4.278c-14.402,0-26.077,11.675-26.077,26.077
	s11.675,67.194,26.077,67.194c3.51,0,6.856-3.141,9.913-8.091C249.292,212.677,260.088,186.528,270.325,172.822z"/>
<path style="fill:#FFC477;" d="M120.539,101.193h270.922C370.826,46.447,317.965,7.5,256,7.5S141.174,46.447,120.539,101.193z"/>
<g>
	<path style="fill:#FFB655;" d="M275.963,8.866C269.438,7.965,262.773,7.5,256,7.5c-61.965,0-114.826,38.947-135.461,93.693h97.513
		C223.078,74.829,237.095,35.581,275.963,8.866z"/>
	<circle style="fill:#FFB655;" cx="288.22" cy="33.843" r="7.5"/>
	<circle style="fill:#FFB655;" cx="270.32" cy="54.35" r="7.5"/>
	<circle style="fill:#FFB655;" cx="303.21" cy="56.685" r="7.5"/>
</g>
<path style="fill:#FFDAAA;" d="M387.328,139.692H124.709c-17.179,0-31.235-14.056-31.235-31.235l0,0
	c0-17.179,14.056-31.235,31.235-31.235h262.619c17.179,0,31.235,14.056,31.235,31.235l0,0
	C418.563,125.636,404.507,139.692,387.328,139.692z"/>
<g>
	<path style="fill:#FFC477;" d="M387.328,117.191h-76.614c-4.142,0-7.5-3.358-7.5-7.5s3.358-7.5,7.5-7.5h76.614
		c4.142,0,7.5,3.358,7.5,7.5S391.47,117.191,387.328,117.191z"/>
	<path style="fill:#FFC477;" d="M195.616,108.456L195.616,108.456c0-17.179,14.056-31.235,31.235-31.235H124.709
		c-17.179,0-31.235,14.056-31.235,31.235l0,0c0,17.179,14.056,31.235,31.235,31.235h102.142
		C209.672,139.692,195.616,125.636,195.616,108.456z"/>
</g>
<path d="M484.42,337.433c-4.746-2.188-9.5-7.818-12.409-14.692c-2.907-6.875-3.636-14.208-1.9-19.137
	c1.375-3.907-0.677-8.189-4.584-9.565c-3.909-1.372-8.19,0.677-9.565,4.584c-2.372,6.738-2.361,14.939-0.091,23.238l-12.005,4.939
	c-0.058-11.125-1.13-22.233-3.198-33.093c0.681-3.092,1.051-6.3,1.051-9.594V258.14c0-27.031-15.796-51.042-39.991-61.897
	c4.219-13.941,6.498-28.718,6.498-44.018c0-3.637-0.14-7.294-0.398-10.927c10.94-6.853,18.95-19.028,18.234-32.843
	c-2.086-40.253-42.134-38.735-42.134-38.735c-13.162-20.364-31.107-37.437-52.132-49.533C308.842,6.981,282.632,0,256,0
	c-26.62,0-52.82,6.975-75.768,20.171c-21.037,12.097-38.992,29.176-52.16,49.55c0,0-42.098,0.304-42.098,38.735
	c0,13.816,7.276,25.958,18.192,32.816c-0.258,3.638-0.392,7.307-0.392,10.954c0,15.306,2.28,30.088,6.502,44.034
	c-23.928,10.842-39.996,35.134-39.996,61.881v25.973c0,3.298,0.371,6.509,1.054,9.605c-2.065,10.849-3.143,21.963-3.201,33.081
	l-12.004-4.939c2.27-8.298,2.281-16.5-0.091-23.238c-1.375-3.907-5.656-5.957-9.565-4.584c-3.907,1.375-5.959,5.658-4.584,9.565
	c1.735,4.929,1.007,12.262-1.9,19.137c-2.908,6.875-7.663,12.504-12.409,14.692c-3.762,1.734-5.405,6.19-3.671,9.951
	c1.266,2.745,6.272,5.357,9.951,3.671c6.289-2.883,11.996-8.35,16.323-15.42l18.591,7.648c1.908,22.673,7.462,44.78,18.229,65.059
	c2.997,5.645,8.981,3.913,10.053,3.38c3.71-1.843,5.223-6.344,3.38-10.053c-8.192-16.492-13.489-33.874-15.863-51.886l5.831,2.399
	c5.489,1.833,8.598-1.186,9.79-4.083c1.576-3.831-0.252-8.213-4.083-9.79L83.206,333c-0.053-1.746-0.085-3.496-0.085-5.252
	c0-3.984,0.154-7.967,0.437-11.938c8.052,7.949,19.104,12.866,31.286,12.866h171.779v88.797c0,6.531,3.318,12.478,8.876,15.907
	c5.557,3.429,12.361,3.729,18.199,0.8l27.348-13.721l27.349,13.721c6.863,3.158,15.18,1.063,18.198-0.8
	c5.558-3.43,8.876-9.376,8.876-15.907v-88.797c0,0,19.942,1.634,32.979-12.872c0.283,3.971,0.394,15.452,0.339,17.198l-12.899,5.307
	c-3.831,1.576-5.658,5.959-4.083,9.79c1.192,2.897,4.301,5.916,9.79,4.083l5.818-2.394C416.346,432.739,343.697,497,256,497
	c-27.881,0-55.581-6.648-80.104-19.225c-23.729-12.17-44.568-29.877-60.264-51.207c-2.455-3.336-7.15-4.052-10.486-1.595
	c-3.336,2.455-4.05,7.149-1.595,10.486c17.065,23.191,39.715,42.439,65.5,55.664C195.683,504.78,225.749,512,256,512
	c98.258,0,179.128-74.359,187.203-168.707l18.614-7.658c4.327,7.07,10.034,12.537,16.323,15.42c3.679,1.687,8.686-0.926,9.951-3.671
	C489.825,343.623,488.182,339.168,484.42,337.433z M187.709,33.174C208.386,21.285,232,15,256,15c24.01,0,47.634,6.29,68.316,18.19
	c16.087,9.255,30.17,21.744,41.321,36.531H146.361C157.519,54.925,171.612,42.431,187.709,33.174z M124.709,147.191h29.88
	c4.142,0,7.5-3.358,7.5-7.5s-3.358-7.5-7.5-7.5h-29.88c-13.088,0-23.735-10.647-23.735-23.735s10.647-23.735,23.735-23.735h262.619
	c13.088,0,23.735,10.647,23.735,23.735c0,13.087-10.647,23.735-23.735,23.735H185.344c-4.142,0-7.5,3.358-7.5,7.5s3.358,7.5,7.5,7.5
	h201.983c1.964,0,3.893-0.15,5.78-0.433c0.072,1.824,0.119,3.648,0.119,5.468c0,75.667-61.56,137.227-137.227,137.227
	s-137.227-61.56-137.227-137.227c0-1.821,0.046-3.648,0.117-5.473C120.789,147.041,122.732,147.191,124.709,147.191z
	 M114.844,313.678c-16.301,0-29.563-13.262-29.563-29.563v-25.973c0-20.433,12.032-39.027,30.071-47.706
	c22.905,55.139,77.319,94.017,140.649,94.017c10.486,0,20.728-1.066,30.623-3.095v12.319L114.844,313.678L114.844,313.678z
	 M378.715,420.617c-0.655,0.404-1.992,0.962-3.594,0.158l-30.712-15.409c-2.116-1.062-4.61-1.062-6.727,0l-30.711,15.409
	c-1.602,0.804-2.941,0.246-3.595-0.158c-0.655-0.404-1.753-1.35-1.753-3.142V297.466c32.188-10.133,59.794-30.693,78.846-57.701
	v177.711C380.469,419.268,379.37,420.213,378.715,420.617z M426.72,284.114c0,28.924-31.251,29.563-31.251,29.563V213.195
	c0.404-0.92,0.8-1.843,1.186-2.772c18.231,8.679,30.065,27.066,30.065,47.719V284.114z"/>
<path d="M336.656,194.708c4.142,0,7.5-3.358,7.5-7.5v-12.45c0-4.142-3.358-7.5-7.5-7.5s-7.5,3.358-7.5,7.5v12.45
	C329.156,191.35,332.514,194.708,336.656,194.708z"/>
<path d="M175.344,194.708c4.142,0,7.5-3.358,7.5-7.5v-12.45c0-4.142-3.358-7.5-7.5-7.5s-7.5,3.358-7.5,7.5v12.45
	C167.844,191.35,171.202,194.708,175.344,194.708z"/>
<path d="M256,350.396c-12.407,0-22.5,10.093-22.5,22.5s10.093,22.5,22.5,22.5c12.407,0,22.5-10.093,22.5-22.5
	S268.407,350.396,256,350.396z M256,380.396c-4.136,0-7.5-3.364-7.5-7.5s3.364-7.5,7.5-7.5c4.136,0,7.5,3.364,7.5,7.5
	S260.136,380.396,256,380.396z"/>
<path d="M233.519,430.106c0,12.407,10.093,22.5,22.5,22.5s22.5-10.093,22.5-22.5s-10.093-22.5-22.5-22.5
	S233.519,417.7,233.519,430.106z M263.519,430.106c0,4.136-3.364,7.5-7.5,7.5s-7.5-3.364-7.5-7.5s3.364-7.5,7.5-7.5
	C260.155,422.606,263.519,425.971,263.519,430.106z"/>
<path d="M201.661,244.967c11.878,6.775,24.752,11.193,38.316,13.171c4.774,7.549,10.041,11.176,16.042,11.176
	c6.001,0,11.27-3.628,16.044-11.181c13.558-1.986,26.426-6.407,38.276-13.166c13.171-7.513,17.775-24.341,10.262-37.513
	c-6.319-11.079-19.229-16.093-31.008-12.937c-0.056-18.467-15.094-33.474-33.574-33.474c-18.481,0-33.52,15.009-33.575,33.477
	c-4.674-1.268-9.618-1.277-14.414,0.034c-7.085,1.938-12.991,6.52-16.631,12.9C183.886,220.626,188.49,237.455,201.661,244.967z
	 M307.572,214.887c3.415,5.987,1.322,13.636-4.665,17.051c-7.282,4.153-15.021,7.26-23.098,9.337
	c0.608-1.722,1.209-3.518,1.803-5.406c2.545-8.089,4.567-16.611,5.94-24.061c1.003-0.509,1.997-1.032,2.969-1.586
	C296.507,206.808,304.157,208.9,307.572,214.887z M256.019,176.043c10.243,0,18.577,8.333,18.577,18.577
	c0,5.937-2.511,20.769-6.567,34.379c-5.263,17.658-10.114,23.864-12.01,25.153c-1.896-1.29-6.747-7.496-12.01-25.153
	c-4.056-13.61-6.567-28.442-6.567-34.379C237.441,184.377,245.775,176.043,256.019,176.043z M204.428,214.887
	c4.72-8.746,14.151-6.32,17.051-4.665c0.984,0.561,1.993,1.094,3.01,1.609c1.373,7.444,3.394,15.957,5.936,24.038
	c0.598,1.901,1.204,3.71,1.816,5.442c-8.091-2.076-15.84-5.206-23.148-9.374C206.192,230.284,199.708,223.633,204.428,214.887z"/>
<g>
</g>
<g>
</g>
<g>
</g>
<g>
</g>
<g>
</g>
<g>
</g>
<g>
</g>
<g>
</g>
<g>
</g>
<g>
</g>
<g>
</g>
<g>
</g>
<g>
</g>
<g>
</g>
<g>
</g>
</svg>
