<?xml version="1.0" encoding="iso-8859-1"?>
<!-- Generator: Adobe Illustrator 19.0.0, SVG Export Plug-In . SVG Version: 6.00 Build 0)  -->
<svg version="1.1" id="Capa_1" xmlns="http://www.w3.org/2000/svg" xmlns:xlink="http://www.w3.org/1999/xlink" x="0px" y="0px"
	 viewBox="0 0 511.999 511.999" style="enable-background:new 0 0 511.999 511.999;" xml:space="preserve">
<path style="fill:#FF737D;" d="M54.227,408.524c0,0,0-312.547,201.771-312.547s201.771,312.547,201.771,312.547v58.103H54.227
	V408.524z"/>
<g>
	<path style="fill:#FF5555;" d="M379.819,227.057c-10.447-21.761-22.285-40.052-35.842-54.053c-3.067-3.167-2.985-8.22,0.181-11.286
		c3.168-3.067,8.22-2.985,11.286,0.181c14.792,15.275,27.858,34.922,38.835,58.395c1.867,3.993,0.144,8.744-3.849,10.612
		C389.338,231.418,383.232,234.166,379.819,227.057z"/>
	<path style="fill:#FF5555;" d="M203.571,222.705c7.824-22.708,28.111-38.889,51.986-41.507
		c47.802-5.243,75.453-34.923,90.123-59.054c-24.263-16.271-53.778-26.167-89.682-26.167
		c-201.771,0-201.771,312.547-201.771,312.547v58.103h163.289C165.992,354.992,184.521,277.998,203.571,222.705z"/>
</g>
<path style="fill:#57565C;" d="M272.865,258.86h-33.734c-6.579,0.021-10.368,1.747-10.271,7.116
	c0.316,17.522,4.049,49.573,27.138,49.573c23.088,0,26.822-32.052,27.138-49.573C283.233,260.607,279.444,258.881,272.865,258.86z"
	/>
<g>
	<path style="fill:#FCD4DD;" d="M255.998,286.933c-9.281,0-17.54,3.231-22.865,8.256c3.715,11.201,10.524,20.361,22.865,20.361
		c12.341,0,19.15-9.16,22.865-20.361C273.538,290.164,265.279,286.933,255.998,286.933z"/>
	<path style="fill:#FCD4DD;" d="M147.757,304.586h-17.879c-7.075,0-12.864-5.789-12.864-12.864l0,0
		c0-7.075,5.789-12.864,12.864-12.864h17.879c7.075,0,12.864,5.789,12.864,12.864l0,0
		C160.621,298.797,154.832,304.586,147.757,304.586z"/>
	<path style="fill:#FCD4DD;" d="M382.119,304.586H364.24c-7.075,0-12.864-5.789-12.864-12.864l0,0
		c0-7.075,5.789-12.864,12.864-12.864h17.879c7.075,0,12.864,5.789,12.864,12.864l0,0
		C394.983,298.797,389.194,304.586,382.119,304.586z"/>
</g>
<path style="fill:#85EDDB;" d="M320.925,69.609c0,6.57-8.894,11.654-10.818,17.582c-1.995,6.144,2.142,15.471-1.579,20.585
	c-3.759,5.165-13.933,4.094-19.098,7.853c-5.114,3.722-7.218,13.749-13.362,15.744c-5.928,1.925-13.498-4.888-20.068-4.888
	c-6.57,0-14.14,6.813-20.068,4.888c-6.144-1.995-8.248-12.023-13.362-15.745c-5.165-3.759-15.339-2.688-19.098-7.853
	c-3.722-5.114,0.416-14.441-1.579-20.585c-1.925-5.928-10.818-11.012-10.818-17.582s8.894-11.654,10.818-17.582
	c1.995-6.144-2.142-15.471,1.579-20.585c3.759-5.165,13.933-4.094,19.099-7.853c5.114-3.722,7.218-13.749,13.362-15.744
	c5.928-1.925,13.498,4.888,20.068,4.888c6.57,0,14.14-6.813,20.068-4.888c6.144,1.995,8.248,12.023,13.362,15.745
	c5.165,3.759,15.339,2.688,19.098,7.853c3.722,5.114-0.416,14.441,1.579,20.585C312.031,57.956,320.925,63.04,320.925,69.609z"/>
<g>
	<path style="fill:#71D8C5;" d="M283.036,115.524c-5.304,0-11.415,5.5-16.2,3.946c-4.96-1.61-6.659-9.705-10.787-12.71
		c-4.17-3.034-12.383-2.17-15.418-6.339c-3.004-4.128,0.336-11.658-1.275-16.618c-1.554-4.785-8.733-8.89-8.733-14.193
		c0-5.304,7.179-9.408,8.733-14.193c1.61-4.96-1.73-12.489,1.275-16.618c3.035-4.17,11.248-3.305,15.418-6.339
		c4.128-3.005,5.827-11.099,10.787-12.71c4.786-1.554,10.897,3.946,16.2,3.946c1.653,0,3.384-0.535,5.129-1.223
		c-4.241-4.3-6.489-12.805-12.099-14.627c-5.928-1.925-13.498,4.888-20.068,4.888c-6.57,0-14.14-6.813-20.068-4.888
		c-6.144,1.995-8.248,12.023-13.362,15.745c-5.165,3.759-15.339,2.688-19.098,7.853c-3.722,5.114,0.416,14.441-1.579,20.585
		c-1.925,5.928-10.818,11.012-10.818,17.582s8.894,11.654,10.818,17.582c1.995,6.144-2.143,15.471,1.579,20.585
		c3.759,5.165,13.933,4.094,19.098,7.853c5.114,3.722,7.218,13.75,13.362,15.745c5.928,1.925,13.498-4.888,20.068-4.888
		s14.14,6.813,20.068,4.888c5.61-1.822,7.859-10.327,12.1-14.627C286.421,116.058,284.689,115.524,283.036,115.524z"/>
	<circle style="fill:#71D8C5;" cx="278.867" cy="54.1" r="7.982"/>
	<circle style="fill:#71D8C5;" cx="253.527" cy="74.22" r="7.982"/>
	<circle style="fill:#71D8C5;" cx="288.167" cy="82.2" r="7.982"/>
</g>
<path style="fill:#85EDDB;" d="M454.259,504.502h-40.08c-19.072,0-34.677-15.605-34.677-34.677v-48.962
	c0-19.072,15.605-34.677,34.677-34.677h40.08c19.072,0,34.677,15.605,34.677,34.677v48.962
	C488.936,488.898,473.331,504.502,454.259,504.502z"/>
<path style="fill:#71D8C5;" d="M379.502,420.866v48.956c0,19.074,15.606,34.68,34.68,34.68h6.796
	c6.81-10.675,10.775-23.332,10.775-36.905v-44.506c0-13.573-3.965-26.23-10.775-36.905h-6.796
	C395.108,386.186,379.502,401.792,379.502,420.866z"/>
<path style="fill:#60C6B7;" d="M365.148,504.502h-40.08c-19.072,0-34.677-15.605-34.677-34.677v-48.962
	c0-19.072,15.605-34.677,34.677-34.677h40.08c19.072,0,34.677,15.605,34.677,34.677v48.962
	C399.825,488.898,384.221,504.502,365.148,504.502z"/>
<path style="fill:#4DB5A6;" d="M290.392,420.866v48.956c0,19.074,15.606,34.68,34.68,34.68h6.796
	c6.81-10.675,10.775-23.332,10.775-36.905v-44.506c0-13.573-3.965-26.23-10.775-36.905h-6.796
	C305.998,386.186,290.392,401.792,290.392,420.866z"/>
<path style="fill:#85EDDB;" d="M276.038,504.502h-40.08c-19.072,0-34.677-15.605-34.677-34.677v-48.962
	c0-19.072,15.605-34.677,34.677-34.677h40.08c19.072,0,34.677,15.605,34.677,34.677v48.962
	C310.715,488.898,295.11,504.502,276.038,504.502z"/>
<path style="fill:#71D8C5;" d="M201.281,420.866v48.956c0,19.074,15.606,34.68,34.68,34.68h6.796
	c6.81-10.675,10.775-23.332,10.775-36.905v-44.506c0-13.573-3.965-26.23-10.775-36.905h-6.796
	C216.887,386.186,201.281,401.792,201.281,420.866z"/>
<path style="fill:#60C6B7;" d="M186.928,504.502h-40.08c-19.072,0-34.677-15.605-34.677-34.677v-48.962
	c0-19.072,15.605-34.677,34.677-34.677h40.08c19.072,0,34.677,15.605,34.677,34.677v48.962
	C221.605,488.898,206,504.502,186.928,504.502z"/>
<path style="fill:#4DB5A6;" d="M112.171,420.866v48.956c0,19.074,15.606,34.68,34.68,34.68h6.796
	c6.81-10.675,10.775-23.332,10.775-36.905v-44.506c0-13.573-3.965-26.23-10.775-36.905h-6.796
	C127.777,386.186,112.171,401.792,112.171,420.866z"/>
<path style="fill:#85EDDB;" d="M97.814,504.502H57.741c-19.074,0-34.68-15.606-34.68-34.68v-48.956
	c0-19.074,15.606-34.68,34.68-34.68h40.074c19.074,0,34.68,15.606,34.68,34.68v48.956
	C132.494,488.896,116.888,504.502,97.814,504.502z"/>
<path style="fill:#71D8C5;" d="M59.583,467.598v-44.507c0-20.147,16.364-36.65,36.456-36.893c-0.15-0.002-0.298-0.011-0.449-0.011
	H57.741c-19.074,0-34.68,15.606-34.68,34.68v48.956c0,19.074,15.606,34.68,34.68,34.68H95.59c0.15,0,0.299-0.01,0.449-0.011
	C75.946,504.247,59.583,487.745,59.583,467.598z"/>
<path d="M170.226,262.302c1.602-2.279,4.118-3.586,6.904-3.586s5.24,1.352,6.904,3.586c3.826,5.138,9.724,2.922,11.12,1.941
	c3.607-2.535,4.476-7.514,1.941-11.12c-4.564-6.494-12.027-10.371-19.964-10.371c-7.937,0-15.4,3.877-19.964,10.371
	c-2.535,3.606-1.666,8.585,1.941,11.12C162.711,266.777,167.69,265.909,170.226,262.302z"/>
<path d="M345.942,263.846v-12.45c0-4.142-3.358-7.5-7.5-7.5s-7.5,3.358-7.5,7.5v12.45c0,4.142,3.358,7.5,7.5,7.5
	S345.942,267.988,345.942,263.846z"/>
<path d="M255.998,323.05c21.36,0,33.984-20.754,34.637-56.938c0.092-5.114-1.978-8.322-3.731-10.113
	c-4.043-4.13-9.935-4.625-14.015-4.638h-33.782c-4.08,0.013-9.971,0.508-14.014,4.638c-1.753,1.791-3.824,4.999-3.732,10.113
	C222.014,302.296,234.638,323.049,255.998,323.05z M275.622,266.55c-0.305,13.046-2.896,41.499-19.624,41.5
	c-16.729,0-19.319-28.454-19.624-41.5C236.949,266.453,275.046,266.454,275.622,266.55z"/>
<path d="M463.97,379.827c-2.409-32.817-9.404-90.46-29.694-145.561c-25.826-70.137-65.07-115.518-116.697-135.011
	c-0.065-1.193-0.169-2.354-0.271-3.453c-0.208-2.258-0.467-5.067-0.069-6.295c0.347-1.067,2.138-3.091,3.578-4.718
	c3.389-3.83,7.607-8.596,7.607-15.18s-4.218-11.35-7.607-15.18c-1.439-1.626-3.231-3.651-3.578-4.718
	c-0.398-1.228-0.14-4.037,0.069-6.294c0.461-5.004,1.036-11.231-2.717-16.388c-3.781-5.195-9.911-6.569-14.837-7.674
	c-2.188-0.491-4.912-1.102-5.913-1.83c-0.961-0.7-2.361-3.074-3.486-4.981c-2.581-4.378-5.794-9.826-11.974-11.833
	c-5.987-1.945-11.685,0.506-16.261,2.475c-2.23,0.959-4.758,2.047-6.123,2.047c-1.365,0-3.892-1.087-6.123-2.047
	c-4.577-1.969-10.271-4.42-16.261-2.475c-6.18,2.006-9.393,7.455-11.974,11.833c-1.125,1.907-2.524,4.281-3.486,4.981
	c-1,0.728-3.724,1.338-5.912,1.829c-4.926,1.104-11.056,2.479-14.837,7.675c-3.753,5.157-3.179,11.384-2.717,16.388
	c0.208,2.257,0.467,5.067,0.069,6.293c-0.347,1.067-2.138,3.092-3.578,4.718c-3.39,3.83-7.608,8.597-7.608,15.181
	s4.218,11.35,7.607,15.18c1.439,1.627,3.231,3.651,3.578,4.718c0.398,1.228,0.139,4.037-0.069,6.294
	c-0.101,1.1-0.206,2.261-0.271,3.454c-39.592,14.97-72.143,45.455-96.801,90.704C78.763,224.553,64.73,267.23,55.905,316.804
	c-0.726,4.078,1.991,7.972,6.069,8.698c0.444,0.079,7.555,0.23,8.698-6.069c24.9-137.202,81.977-187.858,127.996-205.745
	c3.791,3.971,9.161,5.185,13.572,6.174c2.188,0.491,4.912,1.101,5.912,1.829c0.962,0.7,2.362,3.074,3.486,4.981
	c2.582,4.378,5.794,9.826,11.974,11.833c5.99,1.946,11.685-0.505,16.261-2.475c2.23-0.959,4.758-2.047,6.123-2.047
	c1.364,0,3.892,1.087,6.123,2.047c3.395,1.46,7.405,3.186,11.695,3.186c1.493,0,3.021-0.209,4.566-0.711
	c6.18-2.006,9.392-7.455,11.973-11.833c1.125-1.907,2.524-4.281,3.486-4.981c1-0.728,3.724-1.338,5.913-1.829
	c4.408-0.988,9.775-2.202,13.565-6.167c46.873,18.139,82.815,60.395,106.881,125.753c19.221,52.199,26.145,106.943,28.639,139.236
	h-34.661c-8.901,0-17.389,2.773-24.505,7.896c-6.917-4.962-15.382-7.896-24.525-7.896h-40.08c-8.901,0-17.389,2.773-24.505,7.896
	c-6.917-4.962-15.382-7.896-24.525-7.896h-37.345c-4.142,0-7.5,3.358-7.5,7.5s3.358,7.5,7.5,7.5h37.345
	c14.985,0,27.177,12.191,27.177,27.177v48.962c0,14.985-12.192,27.177-27.177,27.177h-40.08c-4.931,0-9.727-1.368-13.9-3.871
	c4.448-6.682,7.047-14.695,7.047-23.307V420.86c0-23.256-18.92-42.177-42.177-42.177h-40.08c-8.829,0-17.367,2.785-24.5,7.902
	c-6.918-4.966-15.387-7.902-24.534-7.902H63.157c0.688-8.93,1.59-18.004,2.7-27.079c0.503-4.111-2.422-7.852-6.534-8.354
	c-4.109-0.505-7.852,2.422-8.354,6.534c-1.232,10.075-2.204,20.144-2.928,30.037c-18.596,4.395-32.48,21.122-32.48,41.042v48.956
	c0,23.258,18.922,42.18,42.18,42.18h40.074c9.147,0,17.616-2.936,24.534-7.901c7.133,5.116,15.677,7.901,24.5,7.901h40.08
	c9.148,0,17.617-2.937,24.536-7.903c7.102,5.086,15.655,7.903,24.495,7.903h40.08c9.143,0,17.609-2.934,24.526-7.896
	c7.117,5.123,15.605,7.896,24.505,7.896h40.08c9.143,0,17.609-2.934,24.526-7.896c7.117,5.123,15.605,7.896,24.505,7.896h40.08
	c23.257,0,42.177-18.92,42.177-42.177V420.86C496.436,400.949,482.559,384.226,463.97,379.827z M302.45,103.365
	c-0.811,0.704-13.922,3.644-17.435,6.201c-3.477,2.53-10.33,14.153-11.225,14.654c-1.07,0.042-13.337-5.234-17.792-5.234
	c-4.455,0-16.726,5.276-17.78,5.234c-0.935-0.547-7.761-12.125-11.237-14.655c-3.513-2.557-16.624-5.497-17.435-6.201
	c-0.401-0.991,0.829-14.326-0.523-18.489c-1.311-4.037-4.127-7.219-6.611-10.027c-1.31-1.48-3.748-4.235-3.841-5.227
	c0.092-1.016,2.531-3.771,3.841-5.252c2.484-2.807,5.3-5.989,6.611-10.026c1.352-4.163,0.122-17.499,0.523-18.489
	c0.811-0.704,13.922-3.644,17.435-6.201c3.477-2.53,10.33-14.153,11.226-14.654c1.042-0.056,13.337,5.234,17.792,5.234
	c4.455,0,16.741-5.306,17.779-5.234c0.935,0.547,7.762,12.125,11.238,14.655c3.513,2.557,16.624,5.497,17.435,6.201
	c0.401,0.991-0.829,14.326,0.523,18.489c1.311,4.037,10.341,14.241,10.451,15.266c-0.11,1.025-9.14,11.229-10.451,15.266
	C301.621,89.039,302.85,102.374,302.45,103.365z M97.814,497.002H57.741c-14.987,0-27.18-12.193-27.18-27.18v-48.956
	c0-14.987,12.193-27.18,27.18-27.18h40.074c14.987,0,27.18,12.193,27.18,27.18v48.956
	C124.994,484.809,112.802,497.002,97.814,497.002z M146.848,497.002c-4.924,0-9.718-1.352-13.905-3.866
	c4.451-6.684,7.051-14.7,7.051-23.314v-48.956c0-8.614-2.601-16.63-7.051-23.314c4.185-2.514,8.977-3.866,13.905-3.866h40.08
	c14.985,0,27.177,12.191,27.177,27.177v48.962c0,14.985-12.192,27.177-27.177,27.177L146.848,497.002L146.848,497.002z
	 M481.436,469.825c0,14.985-12.192,27.177-27.177,27.177h-40.08c-4.965,0-9.738-1.342-13.911-3.855
	c4.454-6.685,7.057-14.704,7.057-23.323v-8.977c0-4.142-3.358-7.5-7.5-7.5s-7.5,3.358-7.5,7.5v8.977
	c0,14.986-12.192,27.177-27.177,27.177h-40.08c-4.965,0-9.738-1.342-13.911-3.855c4.454-6.685,7.057-14.704,7.057-23.323v-48.962
	c0-8.618-2.603-16.637-7.057-23.322c4.172-2.513,8.944-3.855,13.91-3.855h40.08c14.985,0,27.177,12.191,27.177,27.177v8.278
	c0,4.142,3.358,7.5,7.5,7.5s7.5-3.358,7.5-7.5v-8.278c0-8.618-2.603-16.637-7.057-23.322c4.172-2.513,8.945-3.854,13.911-3.854
	h40.08c14.985,0,27.177,12.191,27.177,27.177v48.963H481.436z"/>
<g>
</g>
<g>
</g>
<g>
</g>
<g>
</g>
<g>
</g>
<g>
</g>
<g>
</g>
<g>
</g>
<g>
</g>
<g>
</g>
<g>
</g>
<g>
</g>
<g>
</g>
<g>
</g>
<g>
</g>
</svg>
